<svg width="89" height="115" viewBox="0 0 89 115" fill="none" xmlns="http://www.w3.org/2000/svg">
<g clip-path="url(#clip0_244_154)">
<path d="M28.9742 1.09464L59.7707 0.182373L85.647 16.6031L88.9271 48.7148L79.4513 85.5703L66.8776 100.167L53.9394 114.763L32.801 107.465L18.7695 90.3141L0 58.0199L5.10237 22.2592L28.9742 1.09464Z" fill="white"/>
<path d="M82.3669 42.1467L82.1847 46.1606L81.638 44.1537L79.6335 32.1118C79.0868 29.0101 77.9934 25.7259 75.6245 23.5365C73.8022 22.0769 71.251 21.5295 68.8821 20.9821C53.07 17.8556 36.7612 18.2919 21.1384 22.2593C20.5917 22.8067 20.2273 23.5365 19.8628 24.4487C17.0687 30.8954 14.5175 37.4637 12.2092 44.1537C11.1159 47.2553 10.0225 50.357 8.20024 53.0938C8.0139 42.9189 10.067 32.8277 14.2138 23.5365C16.7649 18.7927 21.3206 15.691 25.8763 12.7718C28.6097 10.7648 31.5254 8.94026 34.6233 7.84554C36.9142 6.96564 39.299 6.35341 41.7301 6.02102C43.3627 5.82882 45.008 5.76781 46.6503 5.83856H46.8325C48.6129 5.91651 50.3821 6.16084 52.1171 6.56837C62.1396 8.94026 72.8911 14.0489 78.1757 22.8067C81.638 28.6452 82.7314 35.5784 82.3669 42.1467Z" fill="white"/>
<path d="M78.5401 17.333L54.1216 4.01392L32.801 5.65599L14.2137 19.1575L6.92463 34.8484L5.64904 56.5603C5.46021 58.5918 5.90592 60.6318 6.92463 62.3988L24.7829 92.5035C25.4646 93.7194 26.3963 94.7766 27.5164 95.6052L38.2678 104.363C39.3959 105.242 40.7018 105.865 42.0946 106.187L53.3927 108.194L75.0778 83.7458L84.9181 41.7816L78.5401 17.333ZM78.9046 61.8515C77.0823 68.6022 75.26 75.353 71.9799 81.3739C67.0261 90.0281 60.8929 97.9496 53.7571 104.91C52.6638 105.458 51.5704 105.458 50.477 105.458C48.4725 105.458 46.2858 105.458 44.4635 104.91C42.459 104.363 40.6368 103.268 38.9967 101.991C30.9787 96.335 24.9652 88.3071 19.4983 80.0967C13.5099 72.1985 9.62236 62.9072 8.20023 53.0937C10.0225 50.3569 11.1159 47.2552 12.2092 44.1535C14.5175 37.5852 17.0686 31.0169 19.8628 24.4486C20.2273 23.5364 20.5917 22.8066 21.1384 22.2592L22.9607 21.5294C37.9033 17.8803 53.7571 18.0628 68.882 20.982C71.251 21.5294 73.8022 22.0767 75.6245 23.5364C77.9934 25.7258 79.0868 29.0099 79.6335 32.1116L81.638 44.1535L82.1847 46.1605C81.4558 51.4516 80.1802 56.7428 78.9046 61.8515Z" fill="black"/>
<path d="M8.20021 53.0938C8.20021 53.0938 5.64902 51.8166 4.37343 53.0938C3.28006 54.006 3.28006 56.1955 3.82674 58.02C4.05941 58.8651 4.42876 59.6663 4.92011 60.3919C7.10684 63.676 5.64902 65.683 10.5692 67.5075C13.3026 68.6022 16.4005 68.7847 16.4005 68.7847L8.20021 53.0938Z" fill="white"/>
<path d="M8.20029 53.2761C5.83133 52.7288 4.37351 52.9112 4.19129 55.648C4.00906 57.1076 4.19129 58.9322 5.10242 60.3918C5.37239 60.8644 5.61574 61.3517 5.83133 61.8514C6.37802 62.9461 6.74247 64.0409 7.47138 64.9531C9.11143 66.7776 12.3915 67.6899 14.7605 68.2373L16.4005 68.4197V68.9671C13.4849 68.6022 10.387 68.2373 8.01807 66.5952C6.56024 65.5005 6.19579 63.676 5.46688 62.0339L4.00906 59.1146C3.09792 57.1077 2.73346 53.4586 4.9202 52.5463C6.01356 51.999 7.28916 52.3639 8.38252 52.9112L8.20029 53.2761ZM38.6323 71.5214L40.0901 70.0618C40.6757 69.5548 41.2238 69.006 41.7302 68.4197C42.2461 67.8805 42.6763 67.2651 43.0058 66.5952C43.2545 65.9462 43.4377 65.2738 43.5525 64.5882C43.816 63.0211 43.938 61.4335 43.9169 59.8444V59.1146C43.9169 59.0662 43.8977 59.0198 43.8635 58.9856C43.8294 58.9514 43.783 58.9322 43.7347 58.9322L43.9169 57.2901C43.9278 55.5197 43.8059 53.7511 43.5525 51.999C43.3229 50.3714 42.8945 48.7782 42.2769 47.2552C41.7302 45.6131 40.819 44.1535 39.7257 42.8763L36.0811 38.6799L35.5344 37.9501H37.7212V37.5852L35.3522 37.7677L34.9878 37.4027L36.0811 37.5852C37.3077 37.6596 38.5382 37.5364 39.7257 37.2203C39.774 37.2203 39.8204 37.2011 39.8545 37.1669C39.8887 37.1326 39.9079 37.0862 39.9079 37.0378C39.9079 36.9895 39.8887 36.943 39.8545 36.9088C39.8204 36.8746 39.774 36.8554 39.7257 36.8554C38.0856 37.4027 36.4456 37.4027 34.8055 37.2203L34.4411 36.8554H34.9878C36.0764 36.9988 37.1792 36.9988 38.2679 36.8554V36.6729C36.9302 36.8213 35.5776 36.7597 34.2588 36.4905H34.0766C34.0214 36.4244 33.9604 36.3633 33.8944 36.308L35.3522 36.4905H38.0856C38.1016 36.4627 38.11 36.4313 38.11 36.3993C38.11 36.3672 38.1016 36.3358 38.0856 36.308H36.81C36.826 36.2803 36.8345 36.2488 36.8345 36.2168C36.8345 36.1848 36.826 36.1533 36.81 36.1256L29.8854 35.3958L28.4276 35.0309H28.9742L31.8899 35.5782C32.9167 35.7143 33.9521 35.7753 34.9878 35.7607C36.15 35.7354 37.3081 35.6133 38.4501 35.3958V35.2133C36.4062 35.5896 34.3168 35.6511 32.2543 35.3958C30.6143 35.0309 28.9742 34.666 27.3342 34.666L26.0586 34.3011L26.6053 34.1186H26.9697C28.792 34.1186 30.4321 34.4835 32.0721 34.666L33.8944 35.0309C34.8598 35.1697 35.8348 35.2307 36.81 35.2133V34.8484C36.2031 34.883 35.5947 34.883 34.9878 34.8484H35.8989L37.3567 35.0309H37.9034V34.8484L36.0811 34.4835H35.7167C35.7167 34.4835 35.7167 34.1186 35.5344 34.3011H34.9878L33.3477 33.9361L32.4366 33.7537H32.2543L29.8854 33.0239H29.7032L28.792 32.8414C28.071 32.6763 27.3408 32.5545 26.6053 32.4765C26.1728 32.4647 25.7415 32.5264 25.3297 32.659C25.0122 32.7428 24.7062 32.8653 24.4186 33.0239C23.5392 33.5248 22.6876 34.073 21.8674 34.666L21.5029 34.8484C21.4869 34.8761 21.4785 34.9076 21.4785 34.9396C21.4785 34.9717 21.4869 35.0031 21.5029 35.0309H21.1385V35.2133C20.7549 35.5586 20.3899 35.924 20.0451 36.308C20.0174 36.292 19.986 36.2836 19.954 36.2836C19.922 36.2836 19.8906 36.292 19.8629 36.308V36.4905L19.3162 37.0378L19.134 37.2203C18.7557 37.7882 18.4496 38.4011 18.2228 39.0448L18.0406 39.4097C17.8584 39.5922 18.2228 39.5922 18.2228 39.5922C18.4283 38.8827 18.7352 38.2067 19.134 37.5852L18.0406 39.7746L18.2228 39.9571L18.5873 39.2273C18.5873 39.2757 18.6065 39.3221 18.6406 39.3563C18.6748 39.3905 18.7212 39.4097 18.7695 39.4097L19.3162 38.6799L19.4984 38.315H19.6806L24.2363 35.9431H24.6008C25.2136 35.9229 25.8264 35.9843 26.4231 36.1256L28.0631 36.8554L28.6098 37.0378H28.4276L26.0586 37.9501C25.2812 38.2084 24.5447 38.5771 23.8719 39.0448C23.2586 39.5895 22.7085 40.2015 22.2318 40.8694L18.9517 45.2482C18.4419 45.9252 18.0137 46.6601 17.6761 47.4377C17.3021 48.246 17.0562 49.1078 16.9472 49.992C16.7967 51.7525 16.7967 53.5226 16.9472 55.2831C17.1295 58.5673 18.0406 61.8514 19.6806 64.7707C21.1385 67.325 23.3252 69.6969 25.8764 70.9741C27.6238 71.8849 29.556 72.3841 31.5254 72.4337L31.7077 72.981C31.8169 73.3984 31.878 73.8269 31.8899 74.2582V74.6231L31.3432 74.8056C31.2949 74.8056 31.2485 74.8248 31.2144 74.859C31.1802 74.8932 31.161 74.9396 31.161 74.988C31.161 75.0364 31.1802 75.0828 31.2144 75.117C31.2485 75.1513 31.2949 75.1705 31.3432 75.1705L32.0721 74.988C32.0891 75.5998 32.15 76.2095 32.2543 76.8126V77.3599C32.1704 79.2535 31.9879 81.1414 31.7077 83.0159L30.9788 87.3948V87.7597L30.7965 88.4895V89.0369H30.4321C30.2498 89.2193 29.7032 89.4018 29.8854 89.7667C29.8752 89.8271 29.8752 89.8888 29.8854 89.9492L30.0676 90.1316L29.7032 90.3141L28.792 90.679C28.776 90.7067 28.7676 90.7382 28.7676 90.7702C28.7676 90.8022 28.776 90.8337 28.792 90.8614L30.0676 91.5912V91.7737L27.5164 92.1386C27.5004 92.1663 27.492 92.1978 27.492 92.2298C27.492 92.2618 27.5004 92.2933 27.5164 92.321C28.2083 92.6912 28.8261 93.1861 29.3387 93.7807C29.3409 94.0239 29.3409 94.2672 29.3387 94.5105L29.5209 93.9631L29.7032 93.7807L29.5209 93.5982L30.0676 91.9561H30.4321C30.4804 91.9561 30.5267 91.9369 30.5609 91.9027C30.5951 91.8685 30.6143 91.8221 30.6143 91.7737C30.6143 91.7253 30.5951 91.6789 30.5609 91.6447C30.5267 91.6105 30.4804 91.5912 30.4321 91.5912L30.2498 91.4088L30.7965 89.2193C31.161 89.0369 31.5254 88.8544 31.5254 88.4895C31.6058 88.34 31.6316 88.1671 31.5983 88.0006C31.5651 87.834 31.4748 87.6844 31.3432 87.5773C31.4969 87.5439 31.6415 87.4777 31.7673 87.3832C31.8931 87.2888 31.9971 87.1683 32.0721 87.0299C32.2543 86.665 32.0721 86.3001 31.8899 85.7527C31.819 85.5146 31.819 85.261 31.8899 85.0229C32.0277 84.7882 32.1495 84.5444 32.2543 84.2931C32.2993 83.9907 32.2993 83.6833 32.2543 83.3809L32.0721 82.651C32.0829 82.4556 32.1458 82.2665 32.2543 82.1037C32.2543 82.0553 32.2351 82.0089 32.201 81.9747C32.1668 81.9405 32.1204 81.9212 32.0721 81.9212L32.2543 78.0897L32.4366 77.1775V74.988C33.3935 74.7503 34.3133 74.382 35.17 73.8933C36.3992 73.2186 37.5589 72.4241 38.6323 71.5214ZM29.5209 93.5982C29.0476 93.0856 28.4936 92.6541 27.8809 92.321L29.8854 91.9561L29.5209 93.4158V93.5982ZM30.0676 91.4088L29.1565 90.679C29.2171 90.6729 29.2781 90.6729 29.3387 90.679L29.8854 90.4965C30.0217 90.4716 30.1481 90.4083 30.2498 90.3141L30.0676 89.7667C29.8854 89.5842 30.0676 89.5842 30.2498 89.4018C30.3659 89.3306 30.4878 89.2696 30.6143 89.2193L30.0676 91.4088ZM31.3432 88.4895C31.2593 88.6438 31.1328 88.7705 30.9788 88.8544L31.161 87.7597C31.3432 87.9422 31.5254 88.3071 31.3432 88.4895ZM31.8899 84.4756C31.7875 84.7065 31.7259 84.9534 31.7077 85.2054C31.6305 85.5046 31.6305 85.8185 31.7077 86.1176C31.7944 86.2904 31.8558 86.4747 31.8899 86.665C31.8708 86.824 31.8102 86.9751 31.7142 87.1032C31.6182 87.2313 31.4903 87.3319 31.3432 87.3948L31.8899 83.7458V83.0159C31.9805 83.3752 32.0415 83.7414 32.0721 84.1107C32.0397 84.2445 31.9774 84.3693 31.8899 84.4756ZM34.6233 37.4027L34.9878 37.7677C33.3945 37.7393 31.8077 37.556 30.2498 37.2203L29.5209 37.0378L30.4321 36.6729L31.3432 37.0378C31.8854 37.134 32.4332 37.195 32.9833 37.2203L34.6233 37.4027ZM30.0676 36.308L28.6098 35.7607L28.0631 35.5782C29.1087 35.6776 30.1446 35.8607 31.161 36.1256V36.308L30.4321 36.4905L30.0676 36.308ZM33.8944 36.6729C33.9774 36.7821 34.0393 36.9058 34.0766 37.0378C34.1043 37.0539 34.1357 37.0623 34.1677 37.0623C34.1997 37.0623 34.2311 37.0539 34.2588 37.0378L34.4411 37.2203L33.3477 37.0378C32.7981 37.0073 32.2506 36.9464 31.7077 36.8554L30.9788 36.6729L31.8899 36.308L33.8944 36.6729ZM32.801 36.308C33.0533 36.3223 33.3006 36.3842 33.5299 36.4905L32.801 36.308ZM27.3342 34.8484L28.0631 35.0309L26.4231 34.8484H25.8764C26.3617 34.8142 26.8489 34.8142 27.3342 34.8484ZM34.8055 34.4835L34.9878 34.666C34.0126 34.6818 33.0377 34.6208 32.0721 34.4835H33.1655C33.7116 34.5182 34.2594 34.5182 34.8055 34.4835ZM32.2543 33.9361L32.9833 34.1186L33.8944 34.3011C32.9199 34.2937 31.9466 34.2328 30.9788 34.1186L28.792 33.9361H28.2453L26.9697 33.7537L29.8854 33.9361H32.2543ZM29.7032 33.2063L31.3432 33.7537L27.8809 33.5712C26.6559 33.5481 25.4325 33.6706 24.2363 33.9361C24.7465 33.6582 25.3017 33.4729 25.8764 33.3888C27.1432 33.2058 28.4247 33.1447 29.7032 33.2063ZM24.0541 33.5712C24.3454 33.3688 24.6498 33.186 24.9652 33.0239C25.3568 32.8057 25.7933 32.6809 26.2408 32.659C26.9791 32.7159 27.7108 32.838 28.4276 33.0239C27.6351 33.0398 26.8442 33.1007 26.0586 33.2063C25.4976 33.2505 24.9455 33.3734 24.4186 33.5712C24.1016 33.7307 23.7971 33.9136 23.5074 34.1186L22.7785 34.3011L24.0541 33.5712ZM22.7785 34.666L23.5074 34.3011C23.5074 34.3494 23.5266 34.3958 23.5608 34.4301C23.595 34.4643 23.6413 34.4835 23.6896 34.4835L23.8719 34.3011C23.6172 34.4673 23.3737 34.6501 23.143 34.8484H22.9607C22.7137 34.8918 22.4702 34.9528 22.2318 35.0309C22.4208 34.9196 22.6033 34.7978 22.7785 34.666ZM23.143 35.0309L22.7785 35.2133L22.9607 35.0309H23.143ZM21.5029 35.2133H21.8674C21.6796 35.2559 21.4964 35.317 21.3207 35.3958L21.5029 35.2133ZM20.9562 36.1256C20.9722 36.0978 20.9806 36.0664 20.9806 36.0344C20.9806 36.0023 20.9722 35.9709 20.9562 35.9431C21.3494 35.5468 21.8615 35.2904 22.4141 35.2133C22.1776 35.2979 21.9335 35.359 21.6851 35.3958C21.5029 35.5782 21.6851 35.7607 21.8674 35.7607L21.3207 35.9431L20.774 36.1256H20.9562ZM20.4095 36.1256L20.774 35.9431H20.5918C20.5758 35.9709 20.5674 36.0023 20.5674 36.0344C20.5674 36.0664 20.5758 36.0978 20.5918 36.1256L20.4095 36.308L20.2273 36.4905L20.4095 36.1256ZM20.0451 36.6729V36.4905C20.0451 36.5389 20.0643 36.5853 20.0985 36.6195C20.1326 36.6537 20.179 36.6729 20.2273 36.6729L19.8629 36.8554L20.0451 36.6729ZM19.4984 37.9501H19.3162C19.3002 37.9778 19.2918 38.0093 19.2918 38.0413C19.2918 38.0734 19.3002 38.1048 19.3162 38.1326L19.134 38.315L18.9517 38.6799C18.9269 38.8164 18.8637 38.943 18.7695 39.0448L19.6806 37.2203L20.0451 37.0378L19.6806 37.5852L19.4984 37.9501ZM19.8629 37.7677L20.4095 36.8554L21.6851 36.308L20.4095 37.4027C20.2348 37.5352 20.0522 37.6571 19.8629 37.7677ZM20.9562 37.2203L21.1385 37.0378C21.5461 36.7099 21.972 36.4053 22.4141 36.1256H22.7785L22.9607 35.9431C22.9884 35.9591 23.0199 35.9676 23.0518 35.9676C23.0838 35.9676 23.1153 35.9591 23.143 35.9431H23.5074L20.9562 37.2203ZM23.3252 35.7607H23.143L23.5074 35.5782H23.6896L23.3252 35.7607ZM23.3252 35.3958C23.2975 35.3798 23.2661 35.3713 23.2341 35.3713C23.2021 35.3713 23.1707 35.3798 23.143 35.3958C22.8894 35.5636 22.646 35.7463 22.4141 35.9431L21.3207 36.1256L22.0496 35.7607C22.6428 35.4831 23.2512 35.2394 23.8719 35.0309H24.0541C23.8034 35.1363 23.5599 35.2582 23.3252 35.3958ZM23.8719 34.8484H23.5074C23.6858 34.7765 23.8683 34.7156 24.0541 34.666L25.5119 34.3011C25.5396 34.3171 25.571 34.3255 25.603 34.3255C25.635 34.3255 25.6664 34.3171 25.6942 34.3011L26.4231 34.666H26.2408C25.7504 34.683 25.2625 34.744 24.783 34.8484H24.6008L25.3297 34.666V34.3011L23.8719 34.8484ZM24.2363 35.3958C24.2523 35.368 24.2607 35.3366 24.2607 35.3045C24.2607 35.2725 24.2523 35.2411 24.2363 35.2133L24.783 35.0309C26.4961 35.0709 28.2028 35.254 29.8854 35.5782L30.4321 35.7607C30.8552 35.8894 31.2805 36.011 31.7077 36.1256C29.8854 35.7607 28.0631 35.2133 26.2408 35.2133L25.3297 35.3958H24.2363ZM28.4276 36.6729L26.6053 36.1256C26.0217 35.8714 25.41 35.6876 24.783 35.5782H25.3297L26.6053 35.7607C27.1559 35.7778 27.7044 35.8389 28.2453 35.9431L29.8854 36.4905H30.0676L29.1565 36.8554L28.4276 36.6729ZM32.0721 73.3459C31.971 73.093 31.8491 72.8489 31.7077 72.6161C31.6922 72.5563 31.6922 72.4935 31.7077 72.4337H32.0721V74.0758C32.0878 73.8327 32.0878 73.589 32.0721 73.3459ZM32.0721 70.6092C32.0772 70.6699 32.0772 70.7309 32.0721 70.7916V70.0618C32.143 70.2373 32.143 70.4336 32.0721 70.6092ZM34.4411 41.7816L33.8944 42.329L33.3477 42.6939L33.8944 41.5992L34.4411 41.4167L34.6233 41.2343L35.17 41.4167L34.6233 41.7816H34.4411ZM33.1655 43.971H32.801L33.7122 43.0588L33.1655 43.7886C33.1495 43.8163 33.1411 43.8478 33.1411 43.8798C33.1411 43.9118 33.1495 43.9433 33.1655 43.971ZM31.7077 69.332V69.5144C30.843 69.5346 29.9809 69.4113 29.1565 69.1495L25.5119 67.1426L24.2363 66.0478L24.9652 66.4127C26.6053 66.9601 28.6098 67.325 30.4321 67.325C30.5726 67.4999 30.7635 67.6273 30.9788 67.6899C31.1568 67.7627 31.3394 67.8236 31.5254 67.8724V68.6022C31.5152 68.6626 31.5152 68.7242 31.5254 68.7846C31.5362 68.9801 31.5991 69.1691 31.7077 69.332ZM31.7077 68.0548H31.8899L32.0721 68.2373L31.7077 68.4197V68.0548ZM19.8629 58.2024C20.0388 59.5848 20.4068 60.9359 20.9562 62.2163C20.7541 61.8617 20.5716 61.4963 20.4095 61.1216C19.9556 59.8223 19.6499 58.4758 19.4984 57.1077C19.2926 55.719 19.2315 54.3126 19.3162 52.9112C19.4984 50.1744 20.2273 47.6201 21.8674 45.6131C23.3572 43.7115 25.3918 42.311 27.6987 41.5992C28.354 41.4153 29.0251 41.2932 29.7032 41.2343L29.3387 41.4167L28.6098 41.9641C27.152 42.5114 25.8764 42.8763 24.6008 43.6061C23.8902 44.0265 23.2706 44.5848 22.7785 45.2482C22.5963 45.4307 22.9607 45.4307 22.9607 45.4307C23.8719 44.1535 25.1475 43.4237 26.6053 42.8763L28.792 41.9641L28.0631 42.6939C26.9502 43.0738 25.9046 43.628 24.9652 44.336L24.4186 44.7009C23.7653 44.9832 23.1525 45.3513 22.5963 45.7956C20.774 47.2552 19.8629 49.2622 19.6806 51.4516C19.4984 53.641 19.4984 56.0129 19.8629 58.2024ZM31.5254 41.4167L32.0721 41.0518H32.2543L30.7965 42.6939L30.4321 43.0588C29.9413 43.0715 29.453 43.1326 28.9742 43.2412L29.3387 43.0588L30.6143 42.5114C30.9128 42.2563 31.1601 41.9467 31.3432 41.5992L31.5254 41.4167ZM33.1655 42.329C33.2691 42.1907 33.3918 42.0678 33.5299 41.9641L32.9833 42.8763C32.8059 42.9508 32.6231 43.0118 32.4366 43.0588C32.2547 43.0749 32.0718 43.0749 31.8899 43.0588L32.0721 42.8763C32.1986 42.8261 32.3205 42.7651 32.4366 42.6939C32.6376 42.6032 32.8223 42.4799 32.9833 42.329C33.011 42.345 33.0424 42.3534 33.0744 42.3534C33.1064 42.3534 33.1378 42.345 33.1655 42.329ZM33.1655 41.9641C33.2501 41.7905 33.3114 41.6064 33.3477 41.4167L33.8944 41.2343H34.2588L33.8944 41.4167C33.8667 41.4007 33.8353 41.3923 33.8033 41.3923C33.7713 41.3923 33.7399 41.4007 33.7122 41.4167V41.5992C33.5159 41.6983 33.3324 41.8209 33.1655 41.9641ZM33.1655 41.4167L32.6188 41.7816L32.801 41.2343C32.8061 41.1735 32.8061 41.1125 32.801 41.0518H33.1655C33.1777 41.1731 33.1777 41.2954 33.1655 41.4167ZM32.9833 41.7816C32.8155 42.0901 32.5624 42.3435 32.2543 42.5114V42.6939V42.329L32.9833 41.7816ZM32.6188 41.2343H32.4366V41.5992L32.2543 41.9641L32.0721 42.1465L31.5254 42.8763H31.161L30.7965 43.0588L31.5254 42.1465L32.2543 41.4167L32.6188 41.0518V41.2343ZM31.161 43.6061H30.2498V43.4237C30.4264 43.3469 30.6093 43.2859 30.7965 43.2412H31.5254L31.161 43.6061ZM31.5254 67.6899L30.6143 67.325H31.3432L31.5254 67.6899ZM30.0676 43.2412C29.9391 43.3556 29.8174 43.4774 29.7032 43.6061H28.2453H28.4276C28.9579 43.42 29.5084 43.2975 30.0676 43.2412ZM29.8854 42.5114L30.4321 42.1465L30.9788 41.5992C30.7163 42.0083 30.3346 42.3267 29.8854 42.5114ZM31.3432 41.2343L30.9788 41.4167L31.3432 41.0518V41.2343ZM30.6143 40.8694H30.4321L30.7965 40.5044L31.7077 39.5922C31.4111 40.0718 31.0423 40.5026 30.6143 40.8694ZM30.7965 41.0518H30.9788C30.4326 41.6637 29.8216 42.2143 29.1565 42.6939V42.8763C28.8251 43.008 28.5173 43.1929 28.2453 43.4237C27.8718 43.5162 27.5062 43.6383 27.152 43.7886L28.2453 42.8763H28.4276C28.4436 42.8486 28.452 42.8171 28.452 42.7851C28.452 42.7531 28.4436 42.7216 28.4276 42.6939L29.1565 42.5114C29.1725 42.4837 29.1809 42.4522 29.1809 42.4202C29.1809 42.3882 29.1725 42.3567 29.1565 42.329C29.6517 41.8408 30.2021 41.4122 30.7965 41.0518ZM27.5164 43.2412L26.6053 43.971H26.4231C26.7579 43.686 27.1249 43.4411 27.5164 43.2412ZM25.8764 44.1535L25.1475 44.336C25.6146 44.0567 26.1019 43.8128 26.6053 43.6061C26.3492 43.7704 26.1056 43.9534 25.8764 44.1535ZM28.9742 42.329L28.6098 42.5114L29.5209 41.7816L29.7032 41.5992C29.4505 41.7682 29.2071 41.951 28.9742 42.1465C28.9583 42.1743 28.9498 42.2057 28.9498 42.2377C28.9498 42.2698 28.9583 42.3012 28.9742 42.329ZM31.7077 43.2412C31.95 43.2656 32.1942 43.2656 32.4366 43.2412C32.4973 43.2428 32.5581 43.2428 32.6188 43.2412L32.2543 43.7886L31.5254 43.6061L31.7077 43.2412ZM33.1655 43.0588L33.3477 42.8763L32.6188 43.7886H32.4366L33.1655 43.0588ZM35.17 41.0518C35.3711 40.8893 35.5543 40.7058 35.7167 40.5044L36.4456 41.4167C36.0414 41.2308 35.6112 41.1078 35.17 41.0518ZM34.9878 40.6869L34.8055 40.8694H34.2588C34.6722 40.6605 35.0983 40.4777 35.5344 40.322H35.7167C35.4898 40.4735 35.2449 40.5961 34.9878 40.6869ZM33.8944 40.8694H32.801V40.6869H32.9833C33.5173 40.5139 34.0664 40.3917 34.6233 40.322V40.1395C34.1332 40.1602 33.6456 40.2212 33.1655 40.322C33.1378 40.306 33.1064 40.2975 33.0744 40.2975C33.0424 40.2975 33.011 40.306 32.9833 40.322L32.801 40.5044L32.0721 40.8694H31.8899V40.5044L32.4366 40.322C32.7928 40.1769 33.158 40.055 33.5299 39.9571C33.5299 39.9571 33.5299 39.5922 33.3477 39.7746C32.8527 39.8567 32.3652 39.9787 31.8899 40.1395C31.8622 40.1235 31.8308 40.1151 31.7988 40.1151C31.7668 40.1151 31.7354 40.1235 31.7077 40.1395L31.5254 40.322L31.3432 40.5044C31.6948 40.1823 32.0013 39.8141 32.2543 39.4097H32.0721C32.0721 39.3613 32.0529 39.3149 32.0187 39.2807C31.9846 39.2465 31.9382 39.2273 31.8899 39.2273L30.0676 40.8694H29.3387C26.921 41.2661 24.6894 42.4152 22.9607 44.1535C21.1156 45.9275 19.8457 48.216 19.3162 50.7218C18.5873 53.4586 18.7695 56.5603 19.4984 59.2971C19.7592 60.7066 20.2518 62.063 20.9562 63.311C21.3878 63.9045 21.876 64.4544 22.4141 64.9531C22.5774 65.1536 22.7605 65.337 22.9607 65.5005L23.6896 66.2303C24.7645 67.1311 25.924 67.9254 27.152 68.6022C28.4276 69.332 29.7032 69.8793 31.161 69.8793H31.7077L31.8899 71.5214C30.4321 71.5214 29.1565 70.9741 27.8809 70.4267L23.6896 68.0548C22.6206 67.1719 21.6981 66.1251 20.9562 64.9531C19.3162 62.2163 18.5873 59.1146 18.2228 56.0129C18.1186 54.4296 18.1796 52.8398 18.405 51.2692C18.5999 49.728 19.0952 48.2402 19.8629 46.8903C20.5674 45.6894 21.425 44.5854 22.4141 43.6061C23.4621 42.5668 24.6235 41.6488 25.8764 40.8694C27.107 40.051 28.4604 39.435 29.8854 39.0448C31.161 38.8624 32.6188 38.6799 33.8944 39.0448C34.4657 39.184 34.9769 39.5039 35.3522 39.9571C35.3362 39.9848 35.3278 40.0163 35.3278 40.0483C35.3278 40.0803 35.3362 40.1118 35.3522 40.1395C34.8506 40.35 34.3636 40.5938 33.8944 40.8694ZM31.8899 69.5144V68.6022C32.0204 68.5613 32.1434 68.4997 32.2543 68.4197C32.4366 68.0548 31.8899 67.8724 31.7077 67.6899L31.5254 67.325C35.7167 66.5952 38.9968 63.4935 40.2724 59.662C41.0076 56.908 40.8772 53.9941 39.899 51.3169C38.9208 48.6398 37.1422 46.3296 34.8055 44.7009C34.3469 44.4063 33.8582 44.1617 33.3477 43.971L34.2588 42.5114C34.7033 42.1696 35.1291 41.8042 35.5344 41.4167H35.7167C36.1318 41.5735 36.5058 41.8231 36.81 42.1465C37.1349 42.4287 37.4393 42.7335 37.7212 43.0588L38.6323 44.1535L38.9968 44.5184C39.7852 45.7441 40.3412 47.1048 40.6368 48.5324C41.3657 51.4516 41.0013 54.5533 40.6368 57.4726C40.4546 60.2093 40.0901 62.9461 38.6323 65.318C37.3567 67.325 35.3522 68.9671 32.9833 69.5144C32.6195 69.5458 32.2537 69.5458 31.8899 69.5144ZM32.2543 70.9741C32.3103 70.7959 32.3103 70.6049 32.2543 70.4267C32.2118 70.2387 32.1508 70.0553 32.0721 69.8793C34.2588 69.6969 36.2634 68.6022 37.7212 66.9601C39.5435 64.9531 40.4546 62.2163 40.819 59.662L41.1835 55.1007C41.3891 53.5283 41.4501 51.9404 41.3657 50.3569C41.2605 48.9814 40.9535 47.6289 40.4546 46.3429C40.7476 46.9299 40.9914 47.5401 41.1835 48.1675C42.122 50.6091 42.5559 53.2161 42.4591 55.8305C42.3971 58.4063 41.8402 60.946 40.819 63.311C39.7788 65.6916 38.2227 67.8106 36.2634 69.5144C35.17 70.4267 33.8944 71.339 32.4366 71.5214H32.2543C32.2408 71.4002 32.2408 71.2778 32.2543 71.1565C32.2442 71.0961 32.2442 71.0345 32.2543 70.9741ZM32.2543 72.0688C32.2698 72.0089 32.2698 71.9462 32.2543 71.8863C32.2698 71.8265 32.2698 71.7637 32.2543 71.7039C32.9485 71.6357 33.6262 71.4506 34.2588 71.1565C35.5344 70.6092 36.6278 69.5144 37.7212 68.6022C38.6325 67.6008 39.4273 66.4991 40.0901 65.318C41.4092 63.0759 42.276 60.5963 42.6413 58.0199C42.9729 55.3941 42.7871 52.7287 42.0946 50.1744C41.6158 48.1087 40.6819 46.1763 39.3612 44.5184C39.0907 44.0699 38.7861 43.6429 38.4501 43.2412L37.9034 42.6939L37.1745 41.9641L36.0811 40.322C36.2347 40.1632 36.3582 39.9777 36.4456 39.7746H36.0811C36.0377 39.9042 35.9764 40.027 35.8989 40.1395H35.7167V39.9571H35.5344C35.5504 39.9294 35.5589 39.8979 35.5589 39.8659C35.5589 39.8338 35.5504 39.8024 35.5344 39.7746C34.8055 38.6799 33.3477 38.4975 32.2543 38.4975C30.7509 38.5119 29.265 38.8218 27.8809 39.4097C26.5046 40.0246 25.2174 40.8224 24.0541 41.7816C22.9094 42.6969 21.8703 43.7372 20.9562 44.8833C20.0417 45.978 19.3039 47.2093 18.7695 48.5324C18.2228 50.1744 18.0406 51.8165 17.8584 53.4586C17.8584 56.7427 18.405 60.0269 19.6806 62.9461C20.2861 64.2729 21.0844 65.5026 22.0496 66.5952C22.984 67.683 24.0925 68.6079 25.3297 69.332L27.6987 70.6092C28.4026 70.97 29.1338 71.275 29.8854 71.5214C30.5397 71.6881 31.2163 71.7497 31.8899 71.7039V71.8863L31.7077 72.0688C30.5422 72.1109 29.3765 71.988 28.2453 71.7039C25.3297 70.7916 22.9607 68.9671 21.1385 66.5952C19.3162 64.0409 18.2228 61.1216 17.4939 58.0199C17.2203 56.3313 17.0983 54.6216 17.1295 52.9112L17.3117 50.3569C17.3247 48.6385 17.9009 46.9719 18.9517 45.6131L20.5918 43.6061L22.2318 41.4167C22.7228 40.7606 23.2717 40.1499 23.8719 39.5922C25.1475 38.4975 26.6053 37.9501 28.2453 37.4027L29.1565 37.0378L29.8854 37.2203C31.0789 37.5602 32.2976 37.8043 33.5299 37.9501H35.17L37.7212 41.0518L40.819 45.0658C42.6413 47.8026 43.3702 51.2692 43.5525 54.5533C43.7347 57.8375 43.5525 61.3041 42.2769 64.4058C41.1835 67.1426 39.3612 69.5144 36.81 70.9741C35.3924 71.6756 33.8356 72.0497 32.2543 72.0688ZM32.2543 74.6231V72.4337C33.1159 72.4099 33.9718 72.2874 34.8055 72.0688C37.5389 71.339 39.9079 69.332 41.3657 66.7776C42.6413 64.9531 43.188 62.7637 43.5525 60.5743C43.5589 61.6717 43.498 62.7685 43.3702 63.8584C43.0058 65.318 42.6413 66.5952 41.7302 67.8724C41.2905 68.4031 40.8024 68.8917 40.2724 69.332L38.8145 70.7916C37.7886 71.6717 36.6915 72.4651 35.5344 73.1635C34.5289 73.8276 33.4206 74.3208 32.2543 74.6231ZM51.7527 66.5952H51.9349L52.4816 69.1495C52.6638 70.4267 53.0283 71.7039 54.1217 72.2512C54.2377 72.3224 54.3596 72.3835 54.4861 72.4337C54.5345 72.4337 54.5808 72.4145 54.615 72.3802C54.6492 72.346 54.6684 72.2996 54.6684 72.2512C54.6843 72.2235 54.6928 72.192 54.6928 72.16C54.6928 72.128 54.6843 72.0965 54.6684 72.0688C53.575 71.7039 53.0283 70.4267 52.8461 69.332C52.4793 67.834 52.2355 66.3085 52.1172 64.7707L51.9349 60.0269L52.1172 55.2831L52.2994 50.3569V49.8095H51.9349L51.7527 54.7358V64.4058L51.9349 65.8654V66.0478L51.7527 66.2303C51.3883 65.5005 51.206 64.5882 51.206 63.8584C51.0896 62.7675 51.0288 61.6714 51.0238 60.5743C51.0233 58.4404 51.145 56.3083 51.3883 54.1884L51.7527 50.3569H51.5705L50.8416 57.1077C50.6573 59.2932 50.6573 61.4904 50.8416 63.676C51.0238 64.5882 51.206 65.6829 51.7527 66.5952ZM56.1262 89.5842L54.1217 90.1316L55.0328 89.7667V89.5842C54.5565 89.7913 54.0699 89.974 53.575 90.1316C50.6117 90.4874 47.6303 90.6702 44.6458 90.679L42.4591 90.3141C42.4108 90.3141 42.3644 90.3333 42.3302 90.3675C42.2961 90.4017 42.2769 90.4481 42.2769 90.4965L43.0058 90.679L42.8236 90.4965C41.7831 90.4542 40.7475 90.3322 39.7257 90.1316V90.3141C41.2832 90.652 42.8702 90.8354 44.4636 90.8614C46.6996 91.1833 48.97 91.1833 51.206 90.8614C50.1283 91.097 49.029 91.2193 47.9259 91.2263C47.1979 91.2779 46.4672 91.2779 45.7392 91.2263V91.4088C48.1925 91.7386 50.6888 91.4886 53.0283 90.679H53.2105C54.2625 90.4452 55.2975 90.1404 56.3084 89.7667L56.1262 89.5842Z" fill="black"/>
<path d="M41.3657 89.5844C41.3497 89.6121 41.3413 89.6436 41.3413 89.6756C41.3413 89.7077 41.3497 89.7391 41.3657 89.7669C43.2161 90.2175 45.1106 90.4623 47.0147 90.4967C48.4673 90.6725 49.9357 90.6725 51.3882 90.4967C51.9414 90.4067 52.489 90.2849 53.0283 90.1318C53.4599 90.0341 53.8858 89.9123 54.3038 89.7669C54.6798 89.6829 55.0461 89.5606 55.3972 89.402L55.0328 88.8546C54.4829 89.2226 53.8621 89.4712 53.2105 89.5844C51.9349 89.9493 50.4771 89.9493 49.2015 89.9493C45.7391 89.9493 42.2768 89.5844 39.3612 87.5774L39.179 87.9423C40.2594 88.5882 41.4248 89.0795 42.6413 89.402L41.3657 89.0371C41.3497 89.0648 41.3413 89.0963 41.3413 89.1283C41.3413 89.1603 41.3497 89.1918 41.3657 89.2195C42.0868 89.4855 42.8161 89.7288 43.5524 89.9493L41.3657 89.5844ZM50.8415 90.3142H51.206C51.0845 90.3156 50.963 90.3156 50.8415 90.3142ZM48.2903 90.3142H47.0147L45.1925 89.9493C46.2162 90.1374 47.251 90.2593 48.2903 90.3142ZM42.6413 73.711C43.5524 73.711 44.0991 72.9812 44.828 72.7988C45.7391 72.4339 46.6503 72.9812 47.197 73.5286C46.6072 73.3497 45.9882 73.2877 45.3747 73.3461C44.8352 73.4627 44.3337 73.7137 43.9169 74.0759C43.7907 74.0249 43.6688 73.9639 43.5524 73.8935C43.3702 73.8935 43.5524 73.711 43.5524 73.8935C43.6046 74.0192 43.6655 74.1411 43.7346 74.2584C43.6081 74.3086 43.4862 74.3696 43.3702 74.4408L43.5524 74.6233C43.6603 74.4887 43.7825 74.3664 43.9169 74.2584C44.1347 74.4722 44.3798 74.6562 44.6458 74.8057C44.5199 74.8574 44.3981 74.9184 44.2813 74.9882C44.0885 75.0931 43.9055 75.2152 43.7346 75.3531L43.9169 75.5355C44.3071 75.2802 44.7387 75.095 45.1925 74.9882C45.4257 75.1284 45.6694 75.2504 45.9214 75.3531C46.6483 75.4288 47.3812 75.4288 48.1081 75.3531H48.2903C49.7482 75.9005 51.206 76.2654 52.6638 76.2654C53.3222 76.177 53.9484 75.9262 54.4861 75.5355C54.6682 75.5254 54.8507 75.5254 55.0328 75.5355C55.0605 75.5516 55.0919 75.56 55.1239 75.56C55.1559 75.56 55.1873 75.5516 55.215 75.5355C55.2804 75.5915 55.3413 75.6525 55.3972 75.718H55.5794C55.215 74.9882 54.3038 74.6233 53.5749 74.4408C52.4816 74.2584 51.5704 74.6233 50.4771 74.8057L49.9304 74.6233C49.1632 74.2115 48.3721 73.8459 47.5614 73.5286C47.0147 72.9812 46.1036 72.2514 45.1925 72.4339C44.2813 72.6163 43.5524 73.5286 42.6413 73.5286V73.711ZM45.7391 74.9882C46.2299 75.0009 46.7182 75.062 47.197 75.1706C46.7062 75.1579 46.2179 75.0968 45.7391 74.9882ZM48.1081 75.1706C47.4547 74.9786 46.7828 74.8563 46.1036 74.8057C45.8004 74.7812 45.4957 74.7812 45.1925 74.8057H45.0102C45.7391 74.4408 46.8325 74.4408 47.5614 74.6233C48.1798 74.7668 48.7885 74.9496 49.3837 75.1706H48.1081ZM52.846 74.6233C53.5749 74.6233 54.6683 74.8057 55.0328 75.3531H54.6683V75.1706L54.4861 75.3531H52.4816C51.9215 75.3023 51.3703 75.1797 50.8415 74.9882L52.846 74.6233ZM50.1126 74.8057C49.6651 74.7839 49.2286 74.659 48.837 74.4408C48.5122 74.2961 48.2062 74.1123 47.9259 73.8935L50.1126 74.8057ZM47.5614 73.711C47.8457 73.9777 48.1503 74.2217 48.4726 74.4408C48.8476 74.7234 49.2852 74.9112 49.7482 74.9882C49.9907 75.0085 50.2345 75.0085 50.4771 74.9882C51.0091 75.1683 51.559 75.2907 52.1171 75.3531L54.3038 75.5355C53.2105 76.0829 51.7527 76.0829 50.6593 75.9005L48.6548 75.3531H50.1126C50.4695 75.4964 50.8346 75.6183 51.206 75.718C51.9241 75.8958 52.6746 75.8958 53.3927 75.718C53.4087 75.6903 53.4171 75.6588 53.4171 75.6268C53.4171 75.5947 53.4087 75.5633 53.3927 75.5355C52.7926 75.6694 52.1705 75.6694 51.5704 75.5355H51.3882C50.9783 75.3657 50.5503 75.2433 50.1126 75.1706L49.5659 74.9882C48.2903 74.6233 47.197 74.2584 45.9214 74.2584C45.5383 74.3145 45.1681 74.438 44.828 74.6233C44.5077 74.5481 44.2006 74.4251 43.9169 74.2584C44.2775 73.9162 44.715 73.6659 45.1925 73.5286C45.9848 73.3869 46.8001 73.4497 47.5614 73.711ZM53.0283 81.374C52.6724 81.262 52.2908 81.262 51.9349 81.374C51.7425 81.4798 51.5596 81.6018 51.3882 81.7389C50.9501 82.0298 50.4515 82.217 49.9304 82.2863C49.0192 82.2863 48.2903 81.7389 47.7437 81.0091C47.4269 80.4886 47.0607 79.9998 46.6503 79.5495C45.7391 78.6372 44.2813 78.0899 43.0057 78.8197C41.9124 79.1846 41.1835 79.9144 40.2723 80.4618C39.349 81.04 38.3727 81.5288 37.3567 81.9214L37.5389 82.2863C39.062 81.6953 40.5263 80.9623 41.9124 80.0969C42.8235 79.5495 43.7346 79.0022 44.6458 79.1846C45.5569 79.3671 46.4681 79.9144 47.197 80.8267C47.5614 81.5565 48.1081 82.2863 49.0192 82.4688C49.9304 82.8337 51.0238 82.2863 51.9349 81.9214C51.9247 81.861 51.9247 81.7993 51.9349 81.7389C52.2308 81.6415 52.5501 81.6415 52.846 81.7389L54.4861 82.6512C54.8313 82.9222 55.1969 83.1661 55.5794 83.381H55.7617C55.1823 83.6465 54.5691 83.8307 53.9394 83.9284L53.2105 84.1108C53.2265 84.0831 53.2349 84.0516 53.2349 84.0196C53.2349 83.9876 53.2265 83.9561 53.2105 83.9284C52.728 83.8467 52.2352 83.8467 51.7527 83.9284H51.3882C50.2957 83.8679 49.2006 83.8679 48.1081 83.9284L47.5614 83.7459C48.7093 83.894 49.8667 83.955 51.0238 83.9284C51.58 83.8547 52.1287 83.7326 52.6638 83.5635C53.2151 83.5568 53.7645 83.4957 54.3038 83.381V83.1986C53.9444 83.2864 53.5789 83.3474 53.2105 83.381L53.7572 83.1986L53.5749 83.0161C53.2798 83.1581 52.9754 83.28 52.6638 83.381H51.9349C52.1937 83.2941 52.4391 83.1713 52.6638 83.0161L52.846 82.8337C52.862 82.8059 52.8704 82.7745 52.8704 82.7424C52.8704 82.7104 52.862 82.6789 52.846 82.6512C52.489 82.7941 52.1239 82.916 51.7527 83.0161C51.1425 82.9865 50.5343 82.9256 49.9304 82.8337H49.0192L45.3747 81.7389C44.6152 81.4685 43.8113 81.3447 43.0057 81.374C42.2534 81.4447 41.5161 81.6293 40.819 81.9214L39.9079 82.4688L38.9967 82.6512V82.8337L39.3612 82.6512C39.5434 82.6524 39.7256 82.6524 39.9079 82.6512C40.3896 82.5602 40.8764 82.4993 41.3657 82.4688L41.5479 82.6512L42.0946 82.4688L44.0991 82.6512H41.3657C40.4545 82.8337 39.5434 82.8337 38.8145 83.381L38.9967 83.5635L41.1835 82.8337H45.5569L49.9304 83.1986H50.1126L50.6593 83.381H50.1126L47.5614 83.1986H42.2768C41.3398 83.3316 40.4222 83.5766 39.5434 83.9284V84.1108C41.1835 83.5635 43.0057 83.381 44.6458 83.381L49.9304 83.5635C50.4209 83.5474 50.9089 83.4864 51.3882 83.381L51.9349 83.5635C50.8519 83.7478 49.7515 83.809 48.6548 83.7459C46.8325 83.5635 45.1925 83.381 43.5524 83.5635C42.6059 83.6464 41.681 83.8933 40.819 84.2933L41.0012 84.4757C41.8633 84.0758 42.7882 83.8288 43.7346 83.7459H43.9169C44.3907 83.9592 44.8776 84.1421 45.3747 84.2933L44.6458 84.4757C44.213 84.3824 43.7869 84.2605 43.3702 84.1108V84.2933C43.7275 84.4354 44.0925 84.5573 44.4636 84.6582H44.0991L44.2813 84.8406L44.6458 84.6582C46.0733 85.035 47.5654 85.0973 49.0192 84.8406H49.2015C49.8125 84.8236 50.4215 84.7626 51.0238 84.6582C52.1751 84.7716 53.3347 84.7716 54.4861 84.6582C54.9106 84.6235 55.3372 84.6235 55.7617 84.6582C54.7197 84.6799 53.6823 84.8021 52.6638 85.0231C51.3882 85.388 50.1126 85.7529 48.837 85.7529C47.6603 85.7681 46.4895 85.5831 45.3747 85.2055C44.956 85.0621 44.5302 84.9404 44.0991 84.8406C42.2768 84.4757 40.2723 85.0231 38.45 85.7529L38.8145 86.3003C38.9859 86.1632 39.1688 86.0411 39.3612 85.9354C40.2201 85.4682 41.1702 85.1936 42.1456 85.1306C43.121 85.0676 44.0985 85.2177 45.0102 85.5704C47.1079 86.3626 49.3981 86.49 51.5704 85.9354C52.4068 85.6927 53.2594 85.5098 54.1216 85.388C55.8211 85.1724 57.5442 85.234 59.224 85.5704V84.8406L60.1351 85.2055L60.3174 84.4757C58.7544 84.0608 57.2301 83.5114 55.7617 82.8337C54.6683 82.4688 54.1216 81.5565 53.0283 81.374ZM42.0946 82.2863H41.9124C41.4268 82.2596 40.9401 82.2596 40.4545 82.2863C41.2016 81.9216 42.0008 81.6753 42.8235 81.5565C43.6299 81.5126 44.4366 81.6368 45.1925 81.9214L46.2858 82.2863C45.5634 82.1636 44.8319 82.1026 44.0991 82.1038C43.4259 82.0781 42.7521 82.1395 42.0946 82.2863ZM45.5569 82.6512L42.6413 82.2863C43.9169 82.1038 45.1925 82.2863 46.4681 82.4688L47.7437 82.6512H45.5569ZM47.3792 82.8337L48.837 83.0161H49.0192L47.3792 82.8337ZM51.3882 83.1986H51.0238H51.9349C51.7529 83.2123 51.5702 83.2123 51.3882 83.1986ZM53.0283 84.1108H52.6638C52.7852 84.1044 52.9069 84.1044 53.0283 84.1108ZM48.837 84.1108H51.206L50.2948 84.4757L49.3837 84.2933L48.6548 84.1108H48.837ZM44.0991 83.7459C45.1299 83.6588 46.1662 83.6588 47.197 83.7459C47.181 83.7737 47.1726 83.8051 47.1726 83.8371C47.1726 83.8692 47.181 83.9006 47.197 83.9284L47.5614 84.1108C46.9518 84.1475 46.3439 84.2084 45.7391 84.2933C45.1801 84.1505 44.632 83.9675 44.0991 83.7459ZM45.5569 84.8406L45.1925 84.6582L45.7391 84.4757C46.396 84.6531 47.0665 84.7751 47.7437 84.8406H47.9259C47.1318 84.8741 46.3366 84.8128 45.5569 84.6582V84.8406ZM49.3837 84.6582H49.0192C48.1042 84.7002 47.1872 84.639 46.2858 84.4757C46.8867 84.3231 47.4949 84.2014 48.1081 84.1108L49.9304 84.4757L49.3837 84.6582ZM51.0238 84.4757L51.7527 84.2933H52.4816H52.1171L51.0238 84.4757ZM59.0418 84.8406C58.1968 84.7188 57.3442 84.6579 56.4906 84.6582L54.8505 84.4757L53.0283 84.6582H51.7527C52.6638 84.4757 53.3927 84.1108 54.3038 84.2933V84.1108H54.1216C54.7503 84.0089 55.363 83.8248 55.9439 83.5635C56.9515 84.0476 57.9858 84.474 59.0418 84.8406ZM81.4558 41.5993C81.2231 40.7542 80.8538 39.953 80.3624 39.2274L80.1802 39.045L79.8157 38.4976L79.6335 38.3152C79.6495 38.2874 79.6579 38.256 79.6579 38.224C79.6579 38.1919 79.6495 38.1605 79.6335 38.1327L79.269 37.9503L78.5401 37.2205C78.5885 37.2205 78.6348 37.2012 78.669 37.167C78.7032 37.1328 78.7224 37.0864 78.7224 37.038C78.7224 36.9896 78.7032 36.9432 78.669 36.909C78.6348 36.8748 78.5885 36.8556 78.5401 36.8556H78.1757C78.1917 36.8278 78.2001 36.7964 78.2001 36.7643C78.2001 36.7323 78.1917 36.7008 78.1757 36.6731L77.8112 36.4906L75.8067 35.031L73.9844 34.1188C73.5603 34.0773 73.133 34.0773 72.7088 34.1188H71.6155L70.1577 34.3012H69.9754C69.9271 34.3012 69.8808 34.3204 69.8466 34.3547C69.8124 34.3889 69.7932 34.4353 69.7932 34.4837L67.4242 34.8486C67.3965 34.8326 67.3651 34.8241 67.3331 34.8241C67.3011 34.8241 67.2697 34.8326 67.242 34.8486H67.0598C66.091 34.9936 65.1188 35.1153 64.1441 35.2135C64.1281 35.2412 64.1197 35.2727 64.1197 35.3047C64.1197 35.3367 64.1281 35.3682 64.1441 35.3959H63.7797C63.752 35.3799 63.7206 35.3715 63.6886 35.3715C63.6566 35.3715 63.6252 35.3799 63.5975 35.3959C62.993 35.4835 62.385 35.5444 61.7752 35.5784C61.7592 35.6061 61.7508 35.6376 61.7508 35.6696C61.7508 35.7016 61.7592 35.7331 61.7752 35.7608C62.4429 35.7946 63.1119 35.7946 63.7797 35.7608H64.6908C64.0839 35.7947 63.4755 35.7947 62.8685 35.7608V35.9433H67.6065L69.4287 35.7608H73.62L72.3444 36.1257H70.8866L67.7887 36.4906C66.7575 36.5672 65.722 36.5672 64.6908 36.4906C63.5232 36.4079 62.3648 36.2248 61.2285 35.9433V36.3082C63.2046 36.7217 65.2304 36.8447 67.242 36.6731L71.251 36.3082L69.7932 36.6731L66.6953 36.8556C65.4206 36.921 64.1433 36.921 62.8685 36.8556V37.2205L61.593 37.038V37.4029C63.2352 37.4469 64.8786 37.386 66.5131 37.2205L69.7932 36.8556C71.4889 36.6945 73.1927 36.6335 74.8956 36.6731L75.4423 36.8556C75.4263 36.8833 75.4178 36.9148 75.4178 36.9468C75.4178 36.9788 75.4263 37.0103 75.4423 37.038H74.3489C73.2054 36.8461 72.0439 36.7849 70.8866 36.8556C68.8821 37.038 66.8776 37.5854 64.6908 37.5854C63.5339 37.6873 62.3684 37.6259 61.2285 37.4029V37.5854C63.233 38.1327 65.2375 37.9503 67.4242 37.5854L71.6155 37.038L71.251 37.2205L69.7932 37.5854C69.2545 37.7406 68.7068 37.8624 68.1532 37.9503C67.611 38.0465 67.0631 38.1074 66.5131 38.1327H63.4152C62.2395 38.1348 61.0708 37.95 59.9529 37.5854L59.7707 37.7678C61.7752 38.4976 63.9619 38.4976 66.1486 38.4976L67.7887 38.3152C68.2825 38.2277 68.7697 38.1058 69.2465 37.9503L70.8866 37.5854C71.4216 37.4163 71.9704 37.2942 72.5266 37.2205C73.1335 37.1855 73.742 37.1855 74.3489 37.2205H74.8956C74.4045 37.2293 73.9159 37.2905 73.4378 37.4029L71.6155 37.9503L69.7932 38.3152L68.1532 38.6801C67.8103 38.5012 67.4413 38.378 67.0598 38.3152C66.7231 38.3277 66.4011 38.4567 66.1486 38.6801C64.6884 38.7202 63.2271 38.6592 61.7752 38.4976V38.6801C63.1027 38.8847 64.4416 39.0066 65.7842 39.045L63.4152 41.052C63.4102 40.9913 63.4102 40.9302 63.4152 40.8695H63.233C63.2195 40.9908 63.2195 41.1132 63.233 41.2344L62.3219 42.1467L59.224 45.4308C57.5474 47.8108 56.4833 50.5683 56.1261 53.4588C55.7617 55.4657 55.5794 57.6552 55.7617 59.6622V61.6691C55.9439 62.9463 56.1261 64.4059 56.855 65.5006C57.2384 66.0223 57.6651 66.5106 58.1306 66.9603L59.4062 68.4199C60.1888 69.2806 61.0422 70.074 61.9574 70.7918C62.9822 71.5786 64.1624 72.1384 65.4197 72.4339L65.602 72.0689C63.233 71.5216 61.4107 70.062 59.9529 68.4199L58.6773 67.1427C58.2238 66.6818 57.7978 66.1944 57.4017 65.6831C57.0804 65.1741 56.8349 64.6209 56.6728 64.041C56.4842 63.4483 56.3619 62.8363 56.3084 62.2165V62.5814C57.2195 64.9533 58.6773 67.3252 60.864 68.6023C62.6863 69.8795 65.0553 70.2444 67.242 69.8795C67.2915 69.9507 67.3532 70.0125 67.4242 70.062C67.306 70.2199 67.242 70.4119 67.242 70.6093C67.2669 70.7458 67.3301 70.8724 67.4242 70.9742L67.6065 71.1567V72.0689C67.6389 72.2028 67.7012 72.3275 67.7887 72.4339C67.7826 72.4945 67.7826 72.5556 67.7887 72.6163V73.3461L67.9709 74.4408L68.3354 77.725C68.5176 78.8197 68.6998 79.9144 69.2465 80.6442H69.4287C68.8821 79.732 68.6998 78.8197 68.5176 78.0899L68.1532 75.1706L67.9709 73.3461C68.0451 73.2317 68.1062 73.1093 68.1532 72.9812C68.1123 72.8506 68.0508 72.7274 67.9709 72.6163V72.4339L67.7887 72.0689L67.9709 71.704C67.9793 71.6052 67.9675 71.5057 67.9361 71.4116C67.9048 71.3175 67.8546 71.2307 67.7887 71.1567L67.6065 69.8795H68.1532C70.7043 69.3322 73.0733 67.8725 74.7133 65.8656C76.5356 63.8586 77.8112 61.3042 78.5401 58.7499C78.9798 57.2599 79.2848 55.7333 79.4513 54.1886L79.6335 51.9991C79.6342 51.1945 79.5113 50.3945 79.269 49.6272C79.0475 48.9238 78.7415 48.2499 78.3579 47.6203L77.0823 45.6133L75.9889 43.6063C75.5784 42.9414 75.0889 42.3287 74.5311 41.7818C73.62 40.8695 72.1622 40.3222 70.8866 39.5923L68.6998 38.6801H69.2465L71.0688 38.3152L72.8911 37.7678C73.489 37.6342 74.1008 37.5729 74.7133 37.5854C74.9561 37.5697 75.1995 37.5697 75.4423 37.5854L79.8157 40.3222L80.1802 40.6871L80.5446 41.4169C80.593 41.4169 80.6393 41.3977 80.6735 41.3634C80.7077 41.3292 80.7269 41.2828 80.7269 41.2344L80.9091 41.9642H81.2735L80.3624 39.5923C80.5926 40.0595 80.7757 40.5485 80.9091 41.052L81.0913 41.5993C81.0913 41.6477 81.1105 41.6941 81.1447 41.7283C81.1789 41.7626 81.2252 41.7818 81.2735 41.7818C81.3219 41.7818 81.3682 41.7626 81.4024 41.7283C81.4366 41.6941 81.4558 41.6477 81.4558 41.5993ZM63.5975 41.2344L64.3264 41.7818L64.1441 41.9642C63.9332 41.813 63.7485 41.6281 63.5975 41.4169V41.2344ZM67.242 43.6063L67.0598 43.7888L66.6953 43.0589L66.5131 42.8765H66.6953L67.0598 43.0589C67.1044 43.2464 67.1654 43.4296 67.242 43.6063ZM72.1622 44.5186H72.3444L73.4378 47.2554C72.8911 46.3431 72.1622 45.7957 71.251 45.2484L68.8821 43.6063L68.6998 43.4239H68.8821C69.1803 43.3381 69.485 43.2771 69.7932 43.2414C70.652 43.5237 71.454 43.9561 72.1622 44.5186ZM71.0688 43.4239C71.1953 43.4741 71.3172 43.5351 71.4333 43.6063C71.5618 43.6517 71.6843 43.713 71.7977 43.7888L71.0688 43.4239ZM70.8866 46.708C70.9026 46.6803 70.911 46.6488 70.911 46.6168C70.911 46.5848 70.9026 46.5533 70.8866 46.5256L70.7043 46.3431V46.1606L70.1577 45.4308C70.7879 45.9078 71.2891 46.535 71.6155 47.2554H71.7977C71.5786 46.7207 71.2705 46.2272 70.8866 45.7957C71.2808 46.1296 71.6465 46.4958 71.9799 46.8905C72.2414 47.1793 72.4848 47.4839 72.7088 47.8027C72.8911 47.8027 73.0733 47.8027 72.8911 47.6203C72.1204 46.5144 71.1273 45.5822 69.9754 44.8835L69.7932 44.701L69.2465 44.1537C70.3399 44.8835 71.4333 45.4308 72.3444 46.3431C72.8739 46.8006 73.3075 47.3587 73.62 47.9852C73.6477 48.0012 73.6791 48.0096 73.7111 48.0096C73.7431 48.0096 73.7745 48.0012 73.8022 47.9852L74.3489 49.4448C74.5081 49.9211 74.6299 50.4091 74.7133 50.9044C75.0227 52.777 75.0227 54.6878 74.7133 56.5605C74.4238 58.3356 73.871 60.0575 73.0733 61.6691C72.3504 63.1718 71.3627 64.5316 70.1577 65.6831L70.3399 65.5006C71.9799 62.5814 73.4378 59.2972 73.62 55.8306C73.9844 52.364 73.0733 48.8974 70.8866 46.708ZM69.0643 44.3361L68.5176 43.6063L68.6998 43.7888L69.2465 44.5186L69.0643 44.3361C69.0803 44.3084 69.0887 44.2769 69.0887 44.2449C69.0887 44.2129 69.0803 44.1814 69.0643 44.1537V44.3361ZM72.5266 63.3112C73.5225 61.7357 74.2607 60.0111 74.7133 58.2025C75.1837 56.3563 75.3681 54.4487 75.26 52.5465C75.2306 51.4317 75.0466 50.3264 74.7133 49.2623L73.9844 47.8027L73.2555 46.1606L72.7088 45.0659C73.2567 45.5549 73.7459 46.106 74.1667 46.708C75.4423 48.5325 75.9889 50.722 76.1712 52.7289C76.1762 53.9547 76.0541 55.1776 75.8067 56.378C75.599 57.5567 75.2942 58.7162 74.8956 59.8446C74.5698 60.9467 74.0782 61.9926 73.4378 62.9463C72.8143 63.7746 72.0783 64.5115 71.251 65.1357C71.7244 64.5628 72.151 63.9526 72.5266 63.3112ZM68.5176 43.2414V43.0589H69.0643L68.5176 43.2414ZM68.8821 44.3361V44.5186L69.4287 44.8835H69.611L69.7932 45.2484L70.3399 45.9782C70.051 45.772 69.7464 45.589 69.4287 45.4308C69.2716 45.2249 69.0878 45.0408 68.8821 44.8835L68.6998 44.701C68.4328 44.3528 68.1893 43.9871 67.9709 43.6063H68.3354C68.5319 43.8385 68.7145 44.0822 68.8821 44.3361ZM67.4242 43.7888C67.4744 43.9154 67.5354 44.0375 67.6065 44.1537C67.879 44.4336 68.185 44.6787 68.5176 44.8835H68.6998L68.8821 45.0659C68.5294 44.9115 68.1634 44.7894 67.7887 44.701L67.242 43.9712L67.4242 43.7888ZM67.6065 43.7888H67.7887V43.9712H67.9709L68.1532 44.3361C68.0898 44.278 68.029 44.2171 67.9709 44.1537C67.8355 44.0468 67.7132 43.9244 67.6065 43.7888ZM67.7887 43.4239V43.2414L67.6065 42.8765L68.1532 43.2414L67.7887 43.4239ZM67.9709 42.694H67.7887C67.4961 42.3648 67.2508 41.9964 67.0598 41.5993L67.9709 42.694ZM66.8776 43.7888L66.5131 43.9712L66.3309 43.7888V43.0589L66.1486 42.8765H66.3309V43.0589L66.8776 43.7888ZM65.4197 44.701L65.2375 44.8835L65.0553 44.1537L65.4197 44.701ZM65.2375 44.1537L65.4197 44.3361L65.602 44.5186V44.701L65.2375 44.1537ZM65.7842 67.3252C65.961 67.4011 66.1439 67.4621 66.3309 67.5076C65.8478 67.5829 65.3561 67.5829 64.8731 67.5076C63.0508 67.1427 61.593 65.6831 60.6818 64.041C59.9529 62.7639 59.5885 61.3042 59.5885 59.8446C59.8862 61.5914 60.6407 63.2282 61.7752 64.5884C62.5772 65.4762 63.5757 66.1636 64.6908 66.5954C65.0276 66.8779 65.3942 67.1226 65.7842 67.3252ZM65.602 66.7778C66.1318 66.9656 66.6826 67.0882 67.242 67.1427V67.3252H67.0598C66.5333 67.2784 66.0294 67.0892 65.602 66.7778ZM66.5131 44.701C66.331 44.6922 66.1485 44.6922 65.9664 44.701L66.1486 44.5186C66.2666 44.5861 66.3883 44.6471 66.5131 44.701ZM66.3309 43.9712C66.1028 43.8413 65.9139 43.6522 65.7842 43.4239C65.7731 43.3025 65.7731 43.1803 65.7842 43.0589L66.1486 43.7888L66.3309 43.9712ZM65.7842 42.8765H65.9664L66.1486 43.2414L65.7842 42.8765ZM65.9664 43.9712C66.0217 44.0373 66.0826 44.0984 66.1486 44.1537L65.9664 44.3361C65.8408 44.2839 65.7191 44.2229 65.602 44.1537L65.2375 43.2414C65.3132 43.355 65.3744 43.4776 65.4197 43.6063H65.602C65.7056 43.7446 65.8283 43.8675 65.9664 43.9712ZM65.2375 42.8765H65.4197C65.4667 43.0046 65.5278 43.127 65.602 43.2414C65.4941 43.1069 65.3719 42.9845 65.2375 42.8765ZM65.2375 43.9712L64.8731 43.6063L64.5086 43.0589C64.6257 42.9897 64.7475 42.9287 64.8731 42.8765H65.0553L65.2375 43.9712ZM64.6908 43.6063L65.0553 44.8835C64.1717 45.105 63.3574 45.544 62.6863 46.1606C61.2285 47.4378 60.3174 49.4448 59.9529 51.4518C59.6959 52.4711 59.5132 53.5077 59.4062 54.5535V53.6412C59.4913 52.4122 59.6741 51.192 59.9529 49.9922C60.3174 47.9852 61.2285 45.9782 62.6863 44.5186C63.012 44.1168 63.3784 43.7499 63.7797 43.4239C63.8833 43.2855 64.006 43.1627 64.1441 43.0589L64.6908 43.6063ZM63.4152 43.2414C63.3992 43.2691 63.3908 43.3006 63.3908 43.3326C63.3908 43.3647 63.3992 43.3961 63.4152 43.4239C61.7752 44.5186 60.6818 46.3431 60.1351 48.3501C59.224 50.722 59.224 53.2763 59.224 55.6482C59.0418 58.2025 59.0418 60.7569 59.7707 62.9463C60.4996 64.9533 61.7752 66.5954 63.5975 67.3252C64.5667 67.7676 65.65 67.8952 66.6953 67.6901H67.242V68.6023C67.1645 68.7148 67.1032 68.8377 67.0598 68.9672L66.5131 69.1497C65.852 69.2874 65.1697 69.2874 64.5086 69.1497C63.9231 69.0054 63.3679 68.7583 62.8685 68.4199C61.7752 67.6901 61.0463 66.7778 60.3174 65.8656C59.667 64.9546 59.1171 63.9758 58.6773 62.9463C57.763 60.8747 57.2675 58.6423 57.2195 56.378C57.1611 54.1387 57.5323 51.909 58.3129 49.8097C58.7272 48.5623 59.3428 47.3913 60.1351 46.3431L61.593 44.8835L63.233 43.2414L63.7797 42.694L63.9619 42.8765C63.7624 42.9699 63.5781 43.0929 63.4152 43.2414ZM67.242 44.5186L66.8776 44.3361L66.6953 44.1537L67.0598 43.9712L67.4242 44.701L67.242 44.5186ZM68.5176 67.1427C68.5885 67.3183 68.5885 67.5145 68.5176 67.6901L67.4242 68.4199V67.5076C67.805 67.442 68.1736 67.3189 68.5176 67.1427ZM67.9709 68.2374C68.3354 68.055 68.6998 67.6901 68.6998 67.3252C68.7075 67.2646 68.7075 67.2033 68.6998 67.1427C69.1558 66.8843 69.5834 66.5785 69.9754 66.2305C70.8929 65.6516 71.7479 64.979 72.5266 64.2235C73.3451 63.4318 74.023 62.5063 74.5311 61.4867C75.0702 60.4398 75.4978 59.339 75.8067 58.2025C76.1065 56.945 76.2895 55.6623 76.3534 54.371C76.5356 52.1816 76.1712 49.8097 75.0778 47.6203C74.4706 46.3562 73.6008 45.2365 72.5266 44.3361C72.1622 43.6063 71.4333 43.2414 70.5221 43.0589C70.34 43.0488 70.1575 43.0488 69.9754 43.0589C69.3806 42.8811 68.7706 42.7589 68.1532 42.694L67.9709 42.3291L67.242 41.2344C67.2143 41.2184 67.1829 41.21 67.1509 41.21C67.1189 41.21 67.0875 41.2184 67.0598 41.2344C66.8776 41.2344 66.6953 41.2344 66.8776 41.4169C67.0236 41.7413 67.2071 42.0474 67.4242 42.3291H67.242L67.0598 41.9642H66.8776C66.5279 41.7536 66.1623 41.5705 65.7842 41.4169C65.602 41.2344 65.602 41.4169 65.602 41.5993C66.0491 41.8021 66.4761 42.0464 66.8776 42.3291V42.5116H66.6953L66.1486 42.1467C66.1588 42.0863 66.1588 42.0246 66.1486 41.9642C66.1486 41.9158 66.1294 41.8694 66.0953 41.8352C66.0611 41.801 66.0148 41.7818 65.9664 41.7818C65.9181 41.7818 65.8717 41.801 65.8376 41.8352C65.8034 41.8694 65.7842 41.9158 65.7842 41.9642C65.4884 41.8237 65.1841 41.7018 64.8731 41.5993C65.602 40.8695 66.8776 40.6871 67.7887 40.8695C69.0129 41.0728 70.1877 41.5062 71.251 42.1467C72.2477 42.7625 73.1656 43.4977 73.9844 44.3361C74.8797 45.2183 75.6742 46.1974 76.3534 47.2554C77.0932 48.309 77.6479 49.4814 77.9934 50.722C78.5858 54.8671 77.8184 59.0928 75.8067 62.7639C75.2233 63.8381 74.4866 64.8215 73.62 65.6831C72.7084 66.523 71.6608 67.2016 70.5221 67.6901L68.5176 68.4199L67.6065 68.7848L67.4242 68.6023C67.6003 68.4716 67.7827 68.3499 67.9709 68.2374ZM65.7842 42.1467L65.9664 42.3291H66.1486V42.5116H65.7842V42.3291H65.602C65.536 42.3845 65.475 42.4455 65.4197 42.5116C65.1888 42.2566 64.9455 42.013 64.6908 41.7818C64.7068 41.754 64.7152 41.7226 64.7152 41.6906C64.7152 41.6585 64.7068 41.6271 64.6908 41.5993C65.0699 41.7508 65.4357 41.9339 65.7842 42.1467ZM65.2375 42.5116H64.8731L64.5086 42.1467H64.3264L64.5086 41.9642L65.2375 42.5116ZM64.6908 42.694C64.5027 42.7354 64.3194 42.7966 64.1441 42.8765L63.9619 42.5116L64.1441 42.3291L64.6908 42.694ZM62.3219 69.1497C59.9529 68.2374 58.3129 66.2305 57.2195 63.8586C56.6985 62.7585 56.3306 61.5921 56.1261 60.392C56.1345 59.4163 56.1953 58.4418 56.3084 57.4727C56.3084 57.4243 56.2892 57.3779 56.255 57.3437C56.2208 57.3095 56.1745 57.2903 56.1261 57.2903V55.4657C56.2624 53.9903 56.506 52.5268 56.855 51.0869C57.2241 49.6828 57.7755 48.3333 58.4951 47.0729C59.0418 45.7957 60.1351 44.8835 61.0463 43.7888L63.4152 41.4169C63.5522 41.691 63.7374 41.9382 63.9619 42.1467L61.2285 44.701C60.7084 45.217 60.2214 45.7654 59.7707 46.3431C59.3469 46.9136 58.9807 47.5248 58.6773 48.1676C57.6181 50.2706 56.9981 52.5675 56.855 54.9184C56.7193 57.2065 57.0287 59.4992 57.7662 61.6691C58.4951 63.8586 59.7707 66.048 61.4107 67.6901C62.3219 68.4199 63.4152 69.1497 64.6908 69.3322C65.4132 69.4702 66.1552 69.4702 66.8776 69.3322C66.91 69.466 66.9723 69.5908 67.0598 69.6971C65.4595 69.899 63.8342 69.7112 62.3219 69.1497ZM67.242 69.6971C67.1761 69.623 67.1259 69.5363 67.0946 69.4422C67.0633 69.3481 67.0514 69.2485 67.0598 69.1497H67.4242V69.6971H67.242ZM67.6065 70.7918C67.5282 70.7266 67.4697 70.6408 67.4375 70.5441C67.4053 70.4474 67.4007 70.3436 67.4242 70.2444L67.6065 70.9742V70.7918ZM69.0643 39.2274L71.251 40.1397C71.9384 40.3995 72.608 40.7042 73.2555 41.052C73.8195 41.4536 74.3122 41.9469 74.7133 42.5116C75.1785 43.0266 75.6049 43.5755 75.9889 44.1537L77.2645 46.3431L78.3579 48.1676C78.6978 48.7972 78.9434 49.4734 79.0868 50.1746C79.2467 50.9545 79.3079 51.7513 79.269 52.5465C79.1981 54.0179 79.0154 55.4818 78.7224 56.9254C78.1757 59.6622 77.2645 62.2165 75.6245 64.4059C74.1667 66.4129 72.1622 68.2374 69.7932 69.1497C69.0847 69.4059 68.352 69.5893 67.6065 69.6971V69.1497C69.32 68.5983 70.9696 67.8643 72.5266 66.9603C73.5813 66.204 74.5047 65.2795 75.26 64.2235C76.9001 62.034 77.8112 59.4797 78.1757 56.9254C78.4661 55.4848 78.5884 54.0153 78.5401 52.5465C78.4446 51.1492 78.0729 49.7849 77.4468 48.5325C76.9108 47.4188 76.2374 46.3767 75.4423 45.4308C74.6384 44.4172 73.7213 43.4989 72.7088 42.694C71.7073 41.9795 70.6006 41.4255 69.4287 41.052C68.3354 40.6871 67.0598 40.3222 65.9664 40.6871C65.4139 40.7642 64.9018 41.0205 64.5086 41.4169V41.5993L63.7797 41.052L64.5086 40.5046L65.7842 39.2274C65.7842 39.2758 65.8034 39.3222 65.8376 39.3565C65.8717 39.3907 65.9181 39.4099 65.9664 39.4099C66.0148 39.4099 66.0611 39.3907 66.0953 39.3565C66.1294 39.3222 66.1486 39.2758 66.1486 39.2274C66.1811 39.0936 66.2434 38.9688 66.3309 38.8625H67.9709L69.0643 39.2274ZM79.4513 38.4976L79.6335 38.6801H79.269C79.3174 38.6801 79.3637 38.6609 79.3979 38.6266C79.4321 38.5924 79.4513 38.546 79.4513 38.4976ZM79.4513 38.3152H79.0868L78.9046 37.9503V37.7678L79.4513 38.3152ZM78.7224 37.9503V38.1327L77.8112 37.5854V37.4029C77.6189 37.2972 77.436 37.1751 77.2645 37.038C77.8413 37.1641 78.3565 37.4865 78.7224 37.9503ZM77.9934 37.038L78.1757 37.2205C78.0586 37.1512 77.9368 37.0902 77.8112 37.038H78.1757H77.9934ZM76.7179 36.6731C76.4263 36.4711 76.1219 36.2883 75.8067 36.1257H76.1712L76.7179 36.4906C76.9517 36.6297 77.1953 36.7516 77.4468 36.8556C77.2088 36.7762 76.9651 36.7152 76.7179 36.6731ZM73.0733 34.3012C73.4444 34.311 73.8124 34.3725 74.1667 34.4837C74.5489 34.5433 74.9185 34.6666 75.26 34.8486L76.9001 36.1257L76.1712 35.7608L75.4423 35.3959C74.9307 35.1214 74.376 34.9363 73.8022 34.8486C73.0198 34.6837 72.229 34.5618 71.4333 34.4837L73.0733 34.3012ZM67.6065 35.5784H67.0598C66.2711 35.6337 65.4795 35.6337 64.6908 35.5784H64.8731C65.7825 35.6581 66.6971 35.6581 67.6065 35.5784ZM71.4333 35.2135H71.251L66.6953 35.3959H65.7842L66.3309 35.2135L67.4242 35.031L71.7977 35.2135C71.6768 35.2755 71.5554 35.3364 71.4333 35.3959V35.2135ZM69.7932 35.031L68.3354 34.8486L70.1577 34.6661C71.3199 34.6905 72.4781 34.8126 73.62 35.031C74.1822 35.0673 74.7354 35.1904 75.26 35.3959L75.4423 35.5784L74.3489 35.2135L69.7932 35.031ZM73.62 36.4906C73.6807 36.4908 73.7415 36.4908 73.8022 36.4906H73.62ZM74.3489 35.9433V36.1257L75.0778 36.4906H74.8956C74.3625 36.3143 73.813 36.1921 73.2555 36.1257L73.9844 35.9433C74.0121 35.9593 74.0436 35.9677 74.0756 35.9677C74.1075 35.9677 74.139 35.9593 74.1667 35.9433L75.6245 36.3082C75.8136 36.4191 75.9962 36.541 76.1712 36.6731L75.8067 36.4906H75.6245L74.3489 35.9433ZM75.8067 36.8556L76.3534 37.038L78.1757 38.1327L77.2645 37.7678L76.5356 37.4029L76.3534 37.2205C76.1192 37.082 75.8757 36.96 75.6245 36.8556H75.8067ZM76.1712 37.4029H76.3534L75.8067 37.2205L76.1712 37.4029ZM76.1712 37.5854V37.7678H76.5356L77.0823 37.9503C77.589 38.2866 78.0758 38.6521 78.5401 39.045L76.1712 37.5854ZM79.0868 39.4099L78.3579 38.6801L77.8112 38.1327L79.0868 38.6801L79.6335 39.7748C79.4436 39.665 79.261 39.5432 79.0868 39.4099ZM80.7269 41.052C80.6525 41.0066 80.59 40.944 80.5446 40.8695L80.1802 40.5046V40.1397C80.1802 40.0913 80.161 40.0449 80.1268 40.0107C80.0926 39.9765 80.0463 39.9573 79.998 39.9573L79.8157 39.5923L79.4513 39.045L79.8157 39.2274L80.7269 41.052ZM9.11138 61.1218V61.6691C9.42689 61.5902 9.75969 61.6192 10.0569 61.7514C10.354 61.8836 10.5985 62.1116 10.7514 62.3989C10.9337 62.9463 10.9337 63.8586 10.2047 63.6761C9.11138 63.4937 8.20024 62.7639 8.01802 61.6691L8.5647 59.4797C8.5138 59.0627 8.3207 58.676 8.01802 58.385C7.65356 57.8376 7.10688 57.6552 6.92465 57.1078C6.74242 56.9254 6.56019 56.5605 7.10688 56.378C7.83579 56.378 8.92915 57.8376 9.29361 58.385L9.65807 58.2025C9.11138 57.4727 8.20024 56.0131 7.10688 55.8306C6.19574 55.8306 6.01351 56.7429 6.56019 57.4727C7.47133 58.5674 8.74693 58.5674 8.01802 60.5744C7.10688 62.2165 8.5647 63.6761 10.0225 64.041C11.2981 64.4059 11.4803 63.1288 11.1159 62.2165C10.9327 61.8515 10.6427 61.5511 10.2845 61.3554C9.92634 61.1598 9.51707 61.0783 9.11138 61.1218Z" fill="black"/>
<path d="M38.2678 53.0937C37.5389 51.9989 36.4455 50.7218 35.1699 49.992C33.5299 49.0797 31.3431 48.8972 29.3386 49.0797C27.3341 49.2621 25.3296 49.8095 23.8718 51.0867C22.8946 51.9206 22.1426 52.9872 21.6851 54.1884C22.0234 55.4007 22.5132 56.5654 23.1429 57.655C23.4465 58.287 23.8814 58.8468 24.4185 59.297C24.7829 59.662 25.5118 59.8444 26.0585 60.0269C27.8808 60.5742 29.8853 61.1216 31.8898 60.9391C35.1699 60.5742 38.0856 58.3848 39.5434 55.4655C39.1877 54.6394 38.7609 53.8457 38.2678 53.0937ZM31.1609 56.3778C30.9204 56.427 30.6725 56.427 30.432 56.3778C29.8853 56.1954 29.1564 55.8304 29.1564 54.9182C29.3386 53.4586 30.432 52.7287 30.9787 52.7287C31.5254 52.7287 32.2543 53.2761 32.2543 54.7357C32.2543 55.8304 31.7076 56.1954 31.1609 56.3778Z" fill="white"/>
<path d="M40.4546 58.3849L40.2723 59.1147C39.179 62.7638 35.7166 66.0479 31.8899 66.4128C29.2971 66.5501 26.7155 65.9827 24.4185 64.7707C23.8814 64.3205 23.4465 63.7607 23.1429 63.1287C22.1639 61.3843 21.5442 59.461 21.3207 57.4726L21.1384 56.3779L21.3207 55.8306C21.396 55.2739 21.5179 54.7247 21.6851 54.1885C22.0235 55.4008 22.5133 56.5656 23.1429 57.6551C23.4465 58.2871 23.8814 58.847 24.4185 59.2972C24.783 59.6621 25.5119 59.8445 26.0586 60.027C27.8809 60.5743 29.8854 61.1217 31.8899 60.9392C35.17 60.5743 38.0856 58.3849 39.5434 55.4656C39.9436 56.4059 40.2488 57.3838 40.4546 58.3849Z" fill="black"/>
<path d="M40.4545 58.385C40.0641 56.4994 39.3222 54.7043 38.2678 53.0938C37.5389 51.9991 36.4455 50.722 35.1699 49.9922C33.5299 49.0799 31.3431 48.8974 29.3386 49.0799C27.3341 49.2623 25.3296 49.8097 23.8718 51.0869C22.5962 52.364 21.6851 54.0061 21.3206 55.8306L21.1384 56.378C20.9114 54.6216 20.9114 52.8433 21.1384 51.0869C21.5028 49.0799 22.2317 46.8905 23.8718 45.6133C25.3296 44.3361 27.3341 43.7888 29.3386 43.6063C31.3431 43.4239 33.5299 43.6063 35.1699 44.5186C36.4455 45.2484 37.5389 46.5255 38.2678 47.6203C40.2723 50.722 41.3656 54.7359 40.4545 58.385Z" fill="black"/>
<path d="M71.251 51.999C70.6964 51.4081 70.0136 50.9527 69.2553 50.6679C68.497 50.3832 67.6834 50.2768 66.8775 50.357C65.7682 50.4976 64.7399 51.0125 63.9619 51.8166C62.8685 52.7288 62.1396 54.3709 61.7751 56.013C62.0638 56.9262 62.4942 57.7882 63.0507 58.5673C63.7461 59.3678 64.6202 59.9928 65.6019 60.3919C66.5823 60.7929 67.6532 60.919 68.6998 60.7568C69.151 60.7592 69.5936 60.6326 69.9754 60.3919C70.2796 60.0718 70.5262 59.7014 70.7043 59.2971C71.5857 57.7909 72.3181 56.2021 72.891 54.5534C72.5077 53.6072 71.9515 52.741 71.251 51.999ZM69.2465 55.6481C69.2465 56.5603 68.5176 56.9253 67.9709 56.9253C67.7304 56.9744 67.4825 56.9744 67.242 56.9253C66.6953 56.7428 66.1486 56.1954 66.3308 55.1007C66.5131 53.8236 67.242 53.2762 67.7887 53.4587C68.3353 53.6411 69.4287 54.1885 69.2465 55.6481Z" fill="white"/>
<path d="M73.62 56.9254C73.2555 59.6621 72.1622 62.3989 70.7043 64.7708C70.5262 65.1751 70.2796 65.5454 69.9754 65.8655C69.5936 66.1063 69.1511 66.2329 68.6998 66.2304C66.6953 66.5954 64.5086 65.6831 63.0508 63.8586C62.0244 62.5916 61.3348 61.0852 61.0463 59.4797C61.1692 58.5565 61.3518 57.6424 61.5929 56.7429L61.7752 56.0131C62.0808 56.8626 62.5107 57.6619 63.0508 58.385C63.7253 59.2519 64.6011 59.9408 65.602 60.392C66.5823 60.793 67.6533 60.9191 68.6998 60.7569C69.1511 60.7593 69.5936 60.6327 69.9754 60.392C70.2796 60.0719 70.5262 59.7015 70.7043 59.2972C71.5857 57.791 72.3181 56.2022 72.8911 54.5535C73.2162 55.3164 73.4605 56.1114 73.62 56.9254Z" fill="black"/>
<path d="M73.8023 55.4657L73.62 56.9254C73.2556 55.1008 72.5267 53.2763 71.2511 51.9991C70.6965 51.4082 70.0137 50.9528 69.2554 50.668C68.4971 50.3833 67.6835 50.2769 66.8776 50.3571C65.7683 50.4977 64.74 51.0126 63.962 51.8167C62.6864 52.9114 61.9575 54.9184 61.593 56.7429C61.3519 57.6424 61.1692 58.5566 61.0463 59.4797C60.8983 58.6982 60.8371 57.9028 60.8641 57.1078C61.0463 55.1008 61.0463 53.0938 61.593 51.2693C62.1397 49.4448 62.6864 47.4378 63.962 46.3431C66.1487 44.1537 69.4288 44.5186 71.2511 46.5255C73.0734 48.5325 74.1667 51.9991 73.8023 55.4657Z" fill="black"/>
</g>
<defs>
<clipPath id="clip0_244_154">
<rect width="89" height="115" fill="white"/>
</clipPath>
</defs>
</svg>
