<svg id="Calque_1" data-name="Calque 1" xmlns="http://www.w3.org/2000/svg" viewBox="0 0 427.48 443.09"><defs><style>.cls-1{fill:#fff;}</style></defs><polygon class="cls-1" points="371.04 230.26 358.4 258.57 380.52 300.25 339.72 393.4 289.37 443.09 257.8 413.84 315.85 375.69 328.5 301.06 316.37 274.67 305.85 251.77 293.86 263.22 298.93 293.6 308.25 349.52 188.83 367.22 124.16 291.01 129.55 271.76 82.59 276.38 8.27 154.53 0 14.95 111.07 22.78 116.46 35.42 162.05 20.17 181.9 29.2 234.86 0 288.14 7.7 304.31 20.17 364.89 0 427.48 130.88 409.01 209.4 371.04 230.26"/><polygon points="348.68 212.43 396.07 200.24 393.83 202.77 401.58 143.26 401.88 146.56 358.93 23.95 362.68 25.47 323.22 47.03 326.38 42.87 313.94 99.31 313.46 97.31 345.87 135.46 338.74 133.64 371.68 123.15 370.77 125.02 352.45 67.73 360.34 71.75 332.38 78.88 333.11 76.04 352.77 96.07 345.86 101.69 330.27 78.34 329.11 76.6 331 75.5 355.91 60.94 362.46 57.11 363.8 64.96 373.94 124.25 374.15 125.44 373.04 126.12 343.62 144.26 339.37 146.88 336.49 142.44 309.25 100.44 308.65 99.51 308.77 98.45 315.31 41.02 315.66 37.96 318.47 36.85 360.34 20.46 363.04 19.4 364.1 21.98 413.48 142.16 414.16 143.82 413.79 145.46 400.25 203.93 399.82 205.79 398.02 206.46 352.18 223.57 348.68 212.43"/><path class="cls-1" d="M368.36,189.27a118.68,118.68,0,0,1-4.45,24.49c-.38,1.27-.8,2.53-1.25,3.77h0a70.34,70.34,0,0,1-6.34,13.35,53.55,53.55,0,0,1-19,18.52,42.54,42.54,0,0,1-9.35,3.91,38.45,38.45,0,0,1-6.6,1.25,39.62,39.62,0,0,1-5,20.09l-10.52-22.9-12,11.45,5.07,30.38c-1,.68-2,1.33-3.09,1.94a71,71,0,0,1-10.38,5c-9.77,3.79-20.31,5.67-30.87,6.72q-3.74.38-7.45.63a188.44,188.44,0,0,1-26.14.22c-11.91-.83-23.59-3.23-34.3-8.4-17.73-8.55-27.42-28.35-27.07-48,0-.88,0-1.77.1-2.65l-1.8-.16c-35.71-3.32-73.58-15.81-92.69-46-12.62-20-15.06-45-11.57-68.43.17-1.11.34-2.21.54-3.31,3.44-19.74,11.21-39,23.66-54.5A94.16,94.16,0,0,1,88.88,65,62,62,0,0,1,102,56.27c16.11-8.12,37.6-12.11,56-11a74.88,74.88,0,0,1,17.78,3.1c11-9.27,38.26-20.9,57.21-25.61a74.14,74.14,0,0,1,10.68-2,103.82,103.82,0,0,1,30.49,1.11c1.48.3,2.95.64,4.41,1a65.63,65.63,0,0,1,8.59,2.88,79,79,0,0,1,18.74,11.3l0,0a131,131,0,0,1,12.63,11.62l1,1a174.31,174.31,0,0,1,16.62,20.44q1.38,2,2.72,4c.65,1,1.27,2,1.89,3l.31.47,0,.07a183.85,183.85,0,0,1,17.65,36.92c1.63,4.67,3.07,9.42,4.32,14.21.57,2.2,1.11,4.41,1.6,6.63A178.44,178.44,0,0,1,368.36,189.27Z"/><polygon points="162.1 253.25 95.55 262.02 90.92 262.63 88.17 258.21 20.94 150.16 20.3 149.14 20.18 147.95 9.32 39.34 8.45 30.68 17.02 31.14 98.42 35.55 101.49 35.72 102.25 38.66 126.83 134.28 127.62 137.34 125.99 139.7 92.84 187.65 90.43 191.13 87.94 187.78 38.4 121.2 36.56 118.74 37.18 115.93 48.4 64.73 49.17 61.22 52.69 62.28 85.57 72.17 89.86 73.47 89.79 77.9 89.14 120.04 89.1 122.66 86.95 122.09 66.36 116.58 87.6 118.4 85.41 120.45 75.72 79.43 79.95 85.16 50.24 67.95 54.53 65.5 52.73 117.89 51.51 112.61 92.75 184.63 87.86 184.77 112.82 132.1 111.98 137.52 94.52 40.35 98.35 43.46 16.89 46.45 24.59 38.25 29.28 147.3 28.53 145.1 102.45 248.68 95.07 244.86 162.01 249.89 162.1 253.25"/><polygon points="273.57 413.11 327.32 378.84 325.58 381.49 340.83 298.55 341.49 305.15 281.88 166.18 286.77 168.68 185.29 192.8 192.66 186.71 146.77 290.73 145.39 285.31 214.82 341.09 209.5 339.57 292.86 330.48 289.7 335.12 257.79 219.4 268.23 225.53 195.03 242.36 198.19 237.35 211.53 297.8 207.7 292.47 251.91 321.55 247.98 323.32 257.7 272.74 262.5 278.81 223 273.88 262.5 268.94 269.25 268.1 267.3 275.01 253.28 324.57 252.41 327.65 249.34 326.35 200.65 305.62 197.29 304.19 196.82 300.3 189.43 238.83 188.98 235.06 192.59 233.82 263.63 209.44 272.29 206.47 274.07 215.57 297.12 333.38 297.88 337.31 293.95 338.02 211.44 352.96 208.45 353.5 206.11 351.45 139.21 292.66 136.73 290.48 137.83 287.24 174.36 179.58 176.18 174.22 181.73 173.49 285.13 159.83 288.5 159.38 290.02 162.33 359.38 296.71 361.07 299.99 360.04 303.31 334.82 383.77 334.35 385.28 333.08 386.42 285.74 429.1 273.57 413.11"/><path d="M104.06,51.15l52.49-13.78,1.78-.46,1.31.49,23.61,8.78-2.82.43,48.71-31,1.75-1.11,2,.12,43.57,2.89,1,.06,1.07.42,44.58,17.42,3,1.15.55,2a84.07,84.07,0,0,0,3.52,9.83c1.34,3.17,2.81,6.25,4.36,9.29s3.2,6,4.91,8.92c.85,1.46,1.76,2.89,2.63,4.34l2.75,4.27.16.25.13.27L348.11,82c1.06,2,2.09,4.11,3.17,6.14,2.16,4.06,4.38,8.1,6.72,12.08s4.77,7.92,7.33,11.79,5.24,7.7,8.23,11.37l1.19,1.47-.26,2.91-8.11,89.9-.09,1.07-.71,1.15-25.29,40.78-3.67,5.91-3-2.42-8.26-6.65-.28-4.24,7.32-7.67-6.67,3.49,34-33.83-.8,2.22-3.67-90.19.94,4.38c-1-4.63-2.29-9.1-3.68-13.53s-3-8.79-4.57-13.11-3.37-8.59-5.18-12.82c-.9-2.13-1.86-4.22-2.78-6.32l-2.9-6.27.29.53-2.83-4.21c-1-1.38-1.94-2.77-2.95-4.13-2-2.73-4.08-5.42-6.26-8s-4.43-5.19-6.81-7.67a82.33,82.33,0,0,0-7.64-7.12l3.52,3.17-39.9-26.44,2.07.48-43.4,4.74,3.7-1-52.49,24-1.09.5-1.73-.08-25.17-1.16,3.09,0-53.92,6.13Z"/></svg>