<svg width="720" height="492" fill="none" xmlns="http://www.w3.org/2000/svg"><path d="M606 83v149c0 1 1 3 3 3l13-1c4 0 7-1 5-6l-5-39-1-129 1-5h1l5 11 25 41c13 17 20 36 21 58l1 31 3 4 22-1c3 0 5-1 3-5-7-16-9-33-10-51l-1-102 3-32 1-9h-33c19 37 16 76 13 115l-4-3c-14-20-26-41-35-63-4-9-5-18 0-28l2-4c1-4-1-5-4-5l-6 2c-10 3-20 7-29 12-2 0-3 3-2 5 4 17 8 34 8 52Z" fill="#fff"/><path d="M484 77v79c0 18-1 36-8 52-3 6-1 9 4 12l51 28c17 10 34 17 54 20 12 1 24 1 36-4 5-2 6-4 4-9a24 24 0 0 1-1-2l-1-1c-1-4-2-5-10-3l-24 3h-9a32 32 0 0 0 5 0h-1a27 27 0 0 1-5 0c-27-3-51-15-72-31-3-2-4-5-5-8l-3-14-1-109c0-4 1-6 5-6l27 1c10 0 19 1 27 8l2 2c3-9 9-17 8-27l-6 1-15 3-44 1c-4 0-5-2-4-6l1-28 2-8c1-4 4-5 7-5h35c6 0 11 2 16 4l9 6c6 4 9 3 11-4l3-10c2-7 1-8-6-8h-90c-14 0-13 0-10 13 3 17 7 34 8 50ZM62 259l1-1c28-10 61-45 56-89-2-18-9-33-24-43l-17-11c-8-5-9-6-6-15l2-2 27-49 8-13h-5l-38-2c-9 0-18 2-26 5-23 8-29 33-13 52 7 7 15 13 23 18 8 6 9 7 4 16-8 18-18 34-27 51-1 2-2 5-1 7 3 7 9 13 15 19l8-36c4-14 10-28 16-41 1-4 4-4 7-2 26 18 31 39 25 69-3 17-12 31-24 43l-3 3a68 68 0 0 1-34 17c-9 1-16 4-22 9-6 4-10 11-14 20-1 2 1 4 3 4 4 0 8-2 11-5a118 118 0 0 1 48-24Zm1-163-3 5c-11-6-19-12-20-25-2-11 1-21 10-28 6-5 13-5 18-2 5 4 8 13 6 19L63 96ZM131 85c6 26 7 51 7 77v67c0 15 9 25 25 30 11 3 22 1 33-1 21-5 30-19 28-40-2-10-4-21-4-31l-1-91 2-14 5-22h-29v4c6 18 9 38 10 57l2 56v54c0 8-5 12-11 14-5 3-10 4-15 5-11 1-22-1-27-11-4-6-6-14-6-20l-1-100c0-15 1-30 5-45l3-15-25 9c-4 1-6 3-4 8l3 9ZM355 174c2 0 5-2 5-3l2-16c1-4 3-7 9-7 1 24 2 28-4 48 0 1-2 5 2 6h15c6 1 7-1 6-4v-2l-2-14c-4-20-3-18-2-39 0-10 10-20 21-21 4 0 6 1 7 5a449 449 0 0 0 1 6c6 22 13 41 5 64l2 7c7 5 15 6 23 10 8 5 10 3 11 0a20 20 0 0 0-1-7l-3-7-6-16c-9-34-11-25-20-59-2-7-2-14 3-21 12-14 22-30 26-49 1-7 4-15 7-23h-31l4 15c2 14-1 26-8 37-8 14-18 26-33 33-7 3-9 2-9-5-3-22-1-43 2-65l3-15h-28l1 4c7 27 9 55 8 83 0 9-2 17-11 22-6 3-8 8-9 14v15c0 2 3 4 4 4Z" fill="#fff"/><path d="M237 292c0 9 3 17 12 27l3 4a51 51 0 0 0 21 15l18 5s26 5 42 5c16 1 34 3 46 2l3-1 29-7c5-1 10-6 15-7l12-3 3-1 10-7 17-15 5-7 3-6 2-4v-7a65 65 0 0 0-4-26l-7-10c-4-5-9-10-15-14l-8-4c-3-2-5-4-9-5l-7-2c-5-2-9-3-12-6h-2l-37-1h-23c-7 0-14 1-20 3l-12 5v1l-2 2h-2l-24 10c-3 2-6 3-7 5l-5 6-6 9-4 11c-1 4-2 8-1 13 0 5 2 10 4 15s5 9 9 13l6 4 11 4 22 4c10 2 19 1 28 3l9 1 17-1 8-2c7-1 14-3 19-6 4-3 9-3 13-5s7-5 9-8l6-8 3-8v-9l-4-10-4-6v-2l1 1-9-8v-1l-9-2c-5-2-11-3-17-3l-26-1h-1l-9 2-3 1-1 1h-4l-12 4-7 2-3 1-3 1-2 2a1411 1411 0 0 0-14 9l-2 5-1 4c0 1 0 6 2 9s2 6 7 8l26 10c8 3 24 6 35 3l11-4c4-2 9-4 12-7l5-5 2-4 1-2v-7l-3-7-3-4c-2-2-5-3-9-4l-8-1h-3l-9 1-10 3-8 4-2 2-6 7-1 3 2 6v1l7 1a165 165 0 0 0 20-2l4-2 5-3 4-5v-2c-1-2-5-3-8-2l-2 1v2l1 1 2 1c1 1 1 2-1 2l-5 1-6-2c-1-1-3-2-3-4l1-3a26 26 0 0 1 13-3h7l2 1 1 5v4l-8 10c-2 3-6 5-11 6h-8l-5-1-11-2-2-1-2-3-4-5-1-8 1-1 4-5c3-3 7-6 12-8a112 112 0 0 1 20-7l11 1a425 425 0 0 1 23 4l4 3 11 15 2 7-2 7-6 5-16 12-6 3-2 1h-3l-19 4h-14l-12-2-17-7-17-7c-9-4-16-8-21-13-2-2-4-4-3-6v-8l1-13 1-1 4-4 8-9c3-3 7-5 12-7l22-7 22-4 6-1 35 1 5 1 9 3 23 10c11 5 18 11 24 18 4 4 5 9 3 14a158 158 0 0 1-6 17l-4 4-13 14-7 5c-7 3-16 10-25 12l-18 3-13 3-17 3-30-1c-9-1-16-6-24-8l-25-8-3-1-2-3c-5-5-11-10-15-16-3-3-5-6-5-10l-1-9-2-11 3-12c2-2 3-4 3-7l1-2 5-16c5-11 8-23 8-26l-3-12a92 92 0 0 1 0-2 87 87 0 0 1-4-25c-1-43 1-66 1-109l1-5h1l5 11 25 41c13 17 20 36 21 58l1 31 3 4 22-1c3 0 5-1 3-5-7-16-9-33-10-51l-1-102 3-32 1-9h-31c6 19 13 37 13 56l-1 58h-2l-4-4-29-50c-7-12-12-26-4-41l1-2c1-4-1-5-5-5l-6 2-28 11c-3 1-3 3-2 6 3 16 7 33 7 50 1 55-3 75-3 130v1c-1 20-4 33-5 38l-3 13c-2 8-1 21-1 29ZM221 411a45 45 0 0 1 8-6l4-2 6-5a121 121 0 0 1 7-8c1-1-1-2-5-4l-4-1-3-2-10-1a172 172 0 0 0-19 0 154 154 0 0 1-11-2l-5-1-4-1-2-2-1-2 1-1 2-1 1-1 2-2 4-2 3-1-1 1-5 1a31 31 0 0 0-7 5l-4 3-1 3v2h4l4 2 2 2v2l1 1-2 5-4 5-6 8-18 28a64 64 0 0 1-6 8l-4 4-3 4-7 8-4 5a133 133 0 0 0-7 8 215 215 0 0 0-29 15h3l5-2 9-2 9-3 8-4a164 164 0 0 1 27-5c6 0 9-1 9-2l-6-2-8-1c-2-1-2-2-1-5l2-6 4-5a376 376 0 0 0 14-24 35 35 0 0 0 6-1h3l1-1h5l3-1h3l3-1 11-3a37 37 0 0 0 13-7Zm-13-1-7 4-7 3a259 259 0 0 1-15 2l2-2 5-9a1028 1028 0 0 0 10-14c3-1 4-3 5-5l6-3h3a110 110 0 0 1 14 1l1 1 2 2 1 2-2 2-2 3-3 3-2 2-6 4-5 4Z" fill="#fff"/><path d="m325 464-2 1 1 2 1 3c-1 4-4 6-9 7l-13 1-12-4a805 805 0 0 0-33-13l-4-1-7 1-4 1c-2 0-1-5 3-13a2646 2646 0 0 0 29-63l3-2 5 1 3-1-2-1h-1a7 7 0 0 1-3-1l-6-1a67 67 0 0 0-8 1h-2a150 150 0 0 0-9 0l-3-1h-3l1 2 4 1 4 1v2c0 4-2 9-5 14a127 127 0 0 0-10 20 569 569 0 0 1-16 31l-4 9-3 8-4 4-1 1a613 613 0 0 1 27-2 175 175 0 0 1 14 3 530 530 0 0 1 38 16l11-1 9-2c3-1 6-3 8-6l2-3 3-5 1-6c0-2-1-3-3-4Z" fill="#fff"/><path d="m420 452-4 1-8-3-7-4-4-5-3-7a1781 1781 0 0 0-14-38l-2-6-4-8-2-7 1-2 2-1h4l-4-1a93 93 0 0 0-10 0h-5l-9-2-8-1-1 1 3 1 3 1a97 97 0 0 1 3 4l-4 11a440 440 0 0 1-12 23 560 560 0 0 1-17 4c-2 0-2-1-2-3l1-2-3 4 1 3 4 2h12l-6 9-9 13-11 11c-4 3-8 5-12 5l-5-1c-2 0-3-1-3-3 1-3 3-4 8-4h4l-1-2-2-2c-3 0-5 1-8 3l-4 5c-1 3 1 6 4 7l12 3h4c3 0 6-1 10-4l8-5 6-7a164 164 0 0 0 12-18l6-10 4-2 5-1h5a27 27 0 0 1 12 3l4 4 2 5a126 126 0 0 1 3 11 246 246 0 0 0 3 13 607 607 0 0 1-12 6h3l3-1h1l2-1 8-1h11l13 2 12 1c1 1 2 0 2-1l-1-3h-4Zm-55-42-9-1h-5c-2 0-3-1-3-2a38 38 0 0 1 3-6l1-1 1-1 1-4 2-5 2-5 3-5 2 8 3 8 2 9c2 2 3 5 3 8l-6-3Z" fill="#fff"/><path d="m495 440-2-3-5-6-3-4-2-1c-2 0-2 1 0 3l4 6v7l-2 5-7 4-8 1-7 1-7-2-12-5-10-6a54 54 0 0 1-10-17l-3-10-1-8 3-7c1-4 2-6 4-7l3-3 5-2a272 272 0 0 1 10-1l6 2 4 2 3 2 1 3a92 92 0 0 1-2 4l-1 1h-2a1056 1056 0 0 1-8-1v-3l1-2v-1l-3 1-1 2v3l2 2 2 1 2 1h5l3-1 3-1 4-6c0-2-4-5-10-10a69 69 0 0 0-9-5h-5a90 90 0 0 0-15 6l-5 2-4 1-6 4-2 4c-1 1-2 4-2 9v14c0 5 1 8 3 10l15 14 18 12a101 101 0 0 0 19 5l6 1 6-1c6-1 11-3 13-6 2-2 4-4 6-4 5 0 6-3 5-6l-2-4Z" fill="#fff"/><path d="M605 450a49 49 0 0 0-11-8c-1 0-1 1 1 3l5 5 1 6c-1 2-2 3-5 3l-6-1-8-2-6-1a92 92 0 0 0-11-2l-6-1a40 40 0 0 0-10-3h-3l-6 3-5 2-2-1-2-4-2-5-3-3-4-5-6-11 10-4 13-3c3 0 6 1 7 4 1 2 3 4 6 4l-5-6a134 134 0 0 0-11-10l-6-2h-2c-4 0-7 1-9 3-1 3-5 4-9 4l-6-12a52 52 0 0 1-8-15l2-1h25c4 0 7-1 7-3l1-4 3-3v-2l-2-1-1 1-1 2-6 1-7 1a137 137 0 0 0-22 1l-8 1h-12c-2 0-3 0-2 1l3 1c1 0 3 0 4 2l5 6a438 438 0 0 1 17 33 570 570 0 0 1 13 31c1 2 0 3-1 5l-4 2h-6l1 3c1 2 2 3 3 2l3-1 5-1 3-1 3-1 8-2 10-1 16 2 15 4a161 161 0 0 0 33 4c1 0 2-1 2-3l-1-6 1-5c1-2 0-4-1-6ZM102 409l-3-69-1-24-37-2h-2l-7 48a123 123 0 0 1 26 13l6 4 1-40-1-5-16 4 8 4v23l-16-8 4-36 26 3 4 72-10-4-42-12 5-76a356 356 0 0 0 89-29 142 142 0 0 0 67 14l-2-13h-4c-19 2-40 1-58-7l-3-1-4 2a305 305 0 0 1-92 27l-6 86v4a560 560 0 0 1 55 15l13 7Z" fill="#fff"/><path d="M131 428v-2a526 526 0 0 0-3-100 162 162 0 0 1 48-16l7 11 5 13a85 85 0 0 1-19 16 112 112 0 0 1-17 9v-21l15-7v9l8-18-13 2-21 7v43l8-3a123 123 0 0 0 40-28l5-5 1-2-12-34-3-4-18 7-41 14-5 1 2 17a1161 1161 0 0 1 6 87l-42 17 6 11 43-24ZM586 397l-15-8 34-46 2-4a897 897 0 0 0-71-36l-7-2-55 25 22 36h2l55-9-20-31-27 6-8 4 21 9-5-6 14-1 12 13-41 7-15-25 46-20 3 1 4 2a494 494 0 0 1 55 31l-32 49 13 7 53 41 9-10-8-5-41-28Z" fill="#fff"/><path d="M710 256a439 439 0 0 1-57 1l-2-1-26 38-1 2a313 313 0 0 1-102-24l-6 11h1v1h1l2 1a376 376 0 0 0 108 18 179 179 0 0 0 27-39 806 806 0 0 0 54 1l-32 136c-20-8-41-15-62-20l4-9c12-24 24-48 38-72l5-8a140 140 0 0 1 20 4l-12 65a301 301 0 0 1-21 6v-1a200 200 0 0 0 5-20l8-3-14-4-7 32-2 6a499 499 0 0 0 37-10l14-76-6-2a166 166 0 0 0-27-7c-5 14-12 26-19 39-10 20-22 40-33 59l-4 7a514 514 0 0 1 76 26l8 3 35-161-10 1Z" fill="#fff"/></svg>
