<svg width="1920" height="1080" fill="none" xmlns="http://www.w3.org/2000/svg"><path d="M121.8 73c-1-.6-2.1-.5-3.2.3a4.5 4.5 0 0 0-1.8 3v2.1c.3 2.1 1.7 3.3 3.5 4.3l.6-.9 1.9-5.4c.4-1.2-.2-2.7-1-3.4Zm0 0c-1-.6-2.1-.5-3.2.3a4.5 4.5 0 0 0-1.8 3v2.1c.3 2.1 1.7 3.3 3.5 4.3l.6-.9 1.9-5.4c.4-1.2-.2-2.7-1-3.4Zm0 0c-1-.6-2.1-.5-3.2.3a4.5 4.5 0 0 0-1.8 3v2.1c.3 2.1 1.7 3.3 3.5 4.3l.6-.9 1.9-5.4c.4-1.2-.2-2.7-1-3.4Zm0 0c-1-.6-2.1-.5-3.2.3a4.5 4.5 0 0 0-1.8 3v2.1c.3 2.1 1.7 3.3 3.5 4.3l.6-.9 1.9-5.4c.4-1.2-.2-2.7-1-3.4Zm0 0c-1-.6-2.1-.5-3.2.3a4.5 4.5 0 0 0-1.8 3v2.1c.3 2.1 1.7 3.3 3.5 4.3l.6-.9 1.9-5.4c.4-1.2-.2-2.7-1-3.4Zm0 0c-1-.6-2.1-.5-3.2.3a4.5 4.5 0 0 0-1.8 3v2.1c.3 2.1 1.7 3.3 3.5 4.3l.6-.9 1.9-5.4c.4-1.2-.2-2.7-1-3.4Zm0 0c-1-.6-2.1-.5-3.2.3a4.5 4.5 0 0 0-1.8 3v2.1c.3 2.1 1.7 3.3 3.5 4.3l.6-.9 1.9-5.4c.4-1.2-.2-2.7-1-3.4Zm0 0c-1-.6-2.1-.5-3.2.3a4.5 4.5 0 0 0-1.8 3v2.1c.3 2.1 1.7 3.3 3.5 4.3l.6-.9 1.9-5.4c.4-1.2-.2-2.7-1-3.4Zm0 0c-1-.6-2.1-.5-3.2.3a4.5 4.5 0 0 0-1.8 3v2.1c.3 2.1 1.7 3.3 3.5 4.3l.6-.9 1.9-5.4c.4-1.2-.2-2.7-1-3.4Zm28 60.6-.3-.3-.3-.2-.4-.2h-.7a5 5 0 0 1-.7 0H146.3c-.5 0-.8.2-1 .5l-.9 1c-.2 0-.3.2-.5.3l-.4.5-1 1.5-.8 1.6c0 .2-.2.3-.4.4a1 1 0 0 0-.3.2h.1l1.3-.2a56 56 0 0 0 2.8-.8c.3 0 .7-.3 1.2-.7l1-.7a8.1 8.1 0 0 0 1.8-1.6l.4-.5c.2 0 .3-.2.4-.4v-.1c0-.1 0-.2-.2-.3Zm-28-60.6c-1-.6-2.1-.5-3.2.3a4.5 4.5 0 0 0-1.8 3v2.1c.3 2.1 1.7 3.3 3.5 4.3l.6-.9 1.9-5.4c.4-1.2-.2-2.7-1-3.4Zm28 60.6-.3-.3-.3-.2-.4-.2h-.7a5 5 0 0 1-.7 0H146.3c-.5 0-.8.2-1 .5l-.9 1c-.2 0-.3.2-.5.3l-.4.5-1 1.5-.8 1.6c0 .2-.2.3-.4.4a1 1 0 0 0-.3.2h.1l1.3-.2a56 56 0 0 0 2.8-.8c.3 0 .7-.3 1.2-.7l1-.7a8.1 8.1 0 0 0 1.8-1.6l.4-.5c.2 0 .3-.2.4-.4v-.1c0-.1 0-.2-.2-.3Zm-28-60.6c-1-.6-2.1-.5-3.2.3a4.5 4.5 0 0 0-1.8 3v2.1c.3 2.1 1.7 3.3 3.5 4.3l.6-.9 1.9-5.4c.4-1.2-.2-2.7-1-3.4Zm28 60.6-.3-.3-.3-.2-.4-.2h-.7a5 5 0 0 1-.7 0H146.3c-.5 0-.8.2-1 .5l-.9 1c-.2 0-.3.2-.5.3l-.4.5-1 1.5-.8 1.6c0 .2-.2.3-.4.4a1 1 0 0 0-.3.2h.1l1.3-.2a56 56 0 0 0 2.8-.8c.3 0 .7-.3 1.2-.7l1-.7a8.1 8.1 0 0 0 1.8-1.6l.4-.5c.2 0 .3-.2.4-.4v-.1c0-.1 0-.2-.2-.3Zm25.4 4c0-.5-.2-1-.5-1.5a4.2 4.2 0 0 1-.5-1.4l-.4-1.4a6.3 6.3 0 0 1-.4-1.4c-.1 0-.3.2-.5.7l-.4 1-.3.8a2.9 2.9 0 0 1-.4 1l-.2.1a3.9 3.9 0 0 0-.4 1v.3c0 .1 0 .2.4.1h1l1.5.3 1.2.6v-.1ZM121.8 73c-1-.6-2.1-.5-3.2.3a4.5 4.5 0 0 0-1.8 3v2.1c.3 2.1 1.7 3.3 3.5 4.3l.6-.9 1.9-5.4c.4-1.2-.2-2.7-1-3.4Zm28 60.6-.3-.3-.3-.2-.4-.2h-.7a5 5 0 0 1-.7 0H146.3c-.5 0-.8.2-1 .5l-.9 1c-.2 0-.3.2-.5.3l-.4.5-1 1.5-.8 1.6c0 .2-.2.3-.4.4a1 1 0 0 0-.3.2h.1l1.3-.2a56 56 0 0 0 2.8-.8c.3 0 .7-.3 1.2-.7l1-.7a8.1 8.1 0 0 0 1.8-1.6l.4-.5c.2 0 .3-.2.4-.4v-.1c0-.1 0-.2-.2-.3Zm25.4 4c0-.5-.2-1-.5-1.5a4.2 4.2 0 0 1-.5-1.4l-.4-1.4a6.3 6.3 0 0 1-.4-1.4c-.1 0-.3.2-.5.7l-.4 1-.3.8a2.9 2.9 0 0 1-.4 1l-.2.1a3.9 3.9 0 0 0-.4 1v.3c0 .1 0 .2.4.1h1l1.5.3 1.2.6v-.1ZM121.8 73c-1-.6-2.1-.5-3.2.3a4.5 4.5 0 0 0-1.8 3v2.1c.3 2.1 1.7 3.3 3.5 4.3l.6-.9 1.9-5.4c.4-1.2-.2-2.7-1-3.4Zm28 60.6-.3-.3-.3-.2-.4-.2h-.7a5 5 0 0 1-.7 0H146.3c-.5 0-.8.2-1 .5l-.9 1c-.2 0-.3.2-.5.3l-.4.5-1 1.5-.8 1.6c0 .2-.2.3-.4.4a1 1 0 0 0-.3.2h.1l1.3-.2a56 56 0 0 0 2.8-.8c.3 0 .7-.3 1.2-.7l1-.7a8.1 8.1 0 0 0 1.8-1.6l.4-.5c.2 0 .3-.2.4-.4v-.1c0-.1 0-.2-.2-.3Zm25.4 4c0-.5-.2-1-.5-1.5a4.2 4.2 0 0 1-.5-1.4l-.4-1.4a6.3 6.3 0 0 1-.4-1.4c-.1 0-.3.2-.5.7l-.4 1-.3.8a2.9 2.9 0 0 1-.4 1l-.2.1a3.9 3.9 0 0 0-.4 1v.3c0 .1 0 .2.4.1h1l1.5.3 1.2.6v-.1ZM121.8 73c-1-.6-2.1-.5-3.2.3a4.5 4.5 0 0 0-1.8 3v2.1c.3 2.1 1.7 3.3 3.5 4.3l.6-.9 1.9-5.4c.4-1.2-.2-2.7-1-3.4Zm28 60.6-.3-.3-.3-.2-.4-.2h-.7a5 5 0 0 1-.7 0H146.3c-.5 0-.8.2-1 .5l-.9 1c-.2 0-.3.2-.5.3l-.4.5-1 1.5-.8 1.6c0 .2-.2.3-.4.4a1 1 0 0 0-.3.2h.1l1.3-.2a56 56 0 0 0 2.8-.8c.3 0 .7-.3 1.2-.7l1-.7a8.1 8.1 0 0 0 1.8-1.6l.4-.5c.2 0 .3-.2.4-.4v-.1c0-.1 0-.2-.2-.3Zm25.4 4c0-.5-.2-1-.5-1.5a4.2 4.2 0 0 1-.5-1.4l-.4-1.4a6.3 6.3 0 0 1-.4-1.4c-.1 0-.3.2-.5.7l-.4 1-.3.8a2.9 2.9 0 0 1-.4 1l-.2.1a3.9 3.9 0 0 0-.4 1v.3c0 .1 0 .2.4.1h1l1.5.3 1.2.6v-.1ZM1899.4 25c-79.3-1.8-428.2-10.4-501.3-12-225.6.9-467.4 4.8-692.5 6.2-132.3 1-264.5 2-396.8 2.6l-.8.6-45.8 30.3-8.6-23L209 18.3l-64.6-3.3-54 12.3-.6 11.2L35.4 36l-3.7 89.7 40 11L83 75.2 59 60.8 47.4 85.9l13 17.1 9-18.5-4.1 1.7-6 10-4.7-9.7 6-13.1 15.8 6.5-13 44.6-25.9-3.6 8.2-71.5 43.6-2.6-5.2 89 15.4 24.5L77 174.1l-8.7 5.4C53 171 37 162 21.9 153.9l-.3 11.8c-4.3 277-3.7 595.1-5.6 872.9l6 .2a13619.4 13619.4 0 0 0 8.7.5c20 4.8 40.7 6.4 61.2 6.5 20.7.3 41.4-.8 62-1h13.8l45.6 1.8c2.9.6 5.8 1.3 8.7 2.2 1.9.6 3.8 1.3 5.8 1.6 2.1.2 3.7-.5 5.4-1.7.6-.4 1.1-.7 1.8-.7 1 0 2 .4 3 .7l6.3 1.6c2 .5 3.8 1 5.8.7a3.9 3.9 0 0 0 3.2-2.8l99.6 4.1 10 1.4 21 3 20.5 2.9c14 1.9 28.1 2.9 42.4 2.4a515 515 0 0 0 43.8-4l28 1.1c7 .2 14.3.7 22 1l5.4.2h1.9l58.4-.7c213-2.3 430.4-5 643.2-4.3 212.5 3.9 430.4 8.8 643 11.5l10.9.2v-11.1c2.7-295.1-5.3-732-4-1031Zm-1750-3 53 3L239 35.3l-3.6 7.6-28.6 7.6-62.4-3.6-28.7-7.5-3.2-8.3 37-9Zm67 124 .1 1c0 .5 0 .7-.4.7a18.4 18.4 0 0 1-5.7-.8 28 28 0 0 1-2.7-.6c-.7-.2-1.7-.4-2.7-.4-.9 0-1.4 0-1.8.2a28.2 28.2 0 0 1-2 .4l-.6.3-.7.1a3 3 0 0 0-.6.2c-.2.2-.5 0-.7-.3v-.5h1c.3 0 .6-.2.8-.4.1-.3.2-.6.1-.8a89.6 89.6 0 0 0-3.7-8l-.1-.5-.5-.7-.4-.8a62.4 62.4 0 0 0-1.4-2.5l-.7-.3a1 1 0 0 1-.6-.2c-.1-.2 0-.2.3-.2h.7c0 .2.5.1 1.5 0h1.4l1.3-.1a20.5 20.5 0 0 1 2.5-.2l1.3-.1c.4 0 .8-.2 1-.3.1 0 .2-.1.2-.3l.1-.2.5.1c.1.2 0 .3 0 .4a1 1 0 0 0-.5.6l-.2.7c-.1.3-.5.5-1.3.5a72.6 72.6 0 0 0-2.8 0h-.4l-.5.1H197l.1.3c.2.7.7 1.5 1.3 2.5a7 7 0 0 1 1.1 2c.8 0 1.3-.2 1.6-.6.3-.4.9-.6 1.6-.6h.3c.5 0 .8.1 1.1.4l1 .9.9.8 1 1-.2.1c-.4 0-.8-.3-1-.8-.2-.4-.6-.6-1.2-.6l-2.2.5-1.8.7 1.1 2 .6.8c.3.2.4.4.5.6l.4.8.4.8.2.1c.5 0 .8-.1 1-.4.3-.3.6-.4 1-.4h.5l1 .1 1 .3.9.3h1a15.5 15.5 0 0 1 2 .5l1.4.4h1.1c.4 0 .7 0 .8-.5a1 1 0 0 0-.2-1l-.8-.9c-.4-.3-.4-.4-.1-.4l.9.6.9.8c.3.4.3.7.2.9-.2.2-.2.6-.1 1Zm-39.5-3.1a26.9 26.9 0 0 1-.6-2l-.3-1-.3-.9-.7-.6c-.2-.2-.5-.3-1-.4l-1-.2h-1l-1 .1c-.2 0-.4.2-.6.4-.4.6-.8 1.2-1 1.8a13.4 13.4 0 0 1-2.2 3.2 7 7 0 0 1-1 1.1l-1.5 1c-.7.4-1.2.7-1.7.7h-.7c-.7 0-1.4-.2-2-.5-.7-.3-1-.8-.8-1.3 0-.4.3-.7.8-1l1.2-.3c.2 0 .3 0 .5.3l.2.4a1 1 0 0 1-.4-.1h-.5c-.7 0-1.1.2-1.3.8 0 .3.1.5.5.5h.9c.7 0 1.5-.3 2.2-.8.7-.6 1.3-1.2 1.9-2a27.2 27.2 0 0 0 2.5-3.8h-2l-.6-.3c-.3-.2-.4-.4-.3-.6 0-.2.2-.4.5-.7l-.1.5c0 .2 0 .4.3.4l1.5-.3 1.6-.3c.2 0 .4-.4.7-1l.4-1 1-2 .6-2c0-.1 0-.3-.2-.4l-.2-.4a.7.7 0 0 0-.6-.2c-.3 0-.5 0-.6-.2h.2l1.4.1c.5.2 1 .2 1.7.2h.7a15.1 15.1 0 0 0 1.8.1l.8.1-.2.1h-.5c-.2 0-.3 0-.5.2l-.1.2a106.7 106.7 0 0 0 1 2.8l.4 1a23 23 0 0 1 .9 2.5l.5 1 .6 1.7.6 1.5.4 1.2.8 1 1.2.7c.5.3 1 .5 1.3.5.2 0 .4 0 .7-.2h.9v.4c0 .3 0 .4-.3.3-.7 0-1.5 0-2.2-.2a25.2 25.2 0 0 0-4-.3 37.5 37.5 0 0 1-2.2.3 51.3 51.3 0 0 1-.9.2c0-.3.3-.5.7-.6l1.1-.2c.3 0 .4-.2.4-.3a4 4 0 0 0-.3-1.2Zm-40 3.9c.2 0 .6.2 1.4.2.8.1 1.2.2 1.1.4 0 0-.5.2-1.5.2s-1.5.1-1.7.2a27.8 27.8 0 0 0-6.1 2 20.1 20.1 0 0 0-2.5.6c-.5.2-.7.2-.5 0 .2-.3.6-.6 1.2-1l1.4-.5a40.7 40.7 0 0 1 2.4-1c.2 0 .3-.2.4-.4l.3-.5.6-.6.7-.8 1.3-1.5a22.2 22.2 0 0 0 1.1-1.4 17.3 17.3 0 0 0 1.2-1.4l3-5 1.2-1.4.6-.9c.2-.3.3-.5.3-.8v-.5a4 4 0 0 0-.5-.4.9.9 0 0 0-.6-.3h-.7c-.1 0-.1 0 0-.4l.2-.5.6-.6a16.6 16.6 0 0 1 1.3-.9l.8-.2h.3a1 1 0 0 1-.5.2c-.3 0-.5.1-.8.3l-.3.3-.2.2a7.2 7.2 0 0 1-.5.4l.1.4.5.3.6.2.8.1a23 23 0 0 1 2 .4h3.4c.8 0 1.4 0 1.7.2a21.2 21.2 0 0 1 2.2 1.2l-.5.6-.8.8-1 .8-.7.5-.7.4-.7.5-.7.6-1.7.8a11.9 11.9 0 0 1-2.5.5h-.5l-.5.2a3 3 0 0 1-.5.1h-.6l-.2.1h-.3l-.5.2h-.5l-.6 1a11.3 11.3 0 0 1-.9 1.6l-.2.5-.4.5-.4.6a53.1 53.1 0 0 0-1 2c-.3.5-.2.8.1.9Zm-.9-61c0 5.9 0 11.7.2 17.5 0 1.2.4 2.5 1 3.6 1 1.8 2.9 2.2 4.8 2 1-.1 1.9-.4 2.7-.8 1-.5 1.8-1.2 1.9-2.5V96c0-3.3-.1-6.5-.3-9.8-.2-3.4-.7-6.8-1.8-10.1v-.7h5l-.7 4c-.2.7-.4 1.6-.4 2.4l.1 16c0 1.8.4 3.7.7 5.5.4 3.6-1.3 6-4.8 7-2 .4-4 .7-6 .1-2.6-.7-4.2-2.5-4.3-5.3V93.4c0-4.6-.1-9-1.2-13.5l-.5-1.7c-.4-.8 0-1.2.7-1.4l4.4-1.5-.6 2.6c-.7 2.6-1 5.2-.9 7.9Zm-3 26.5c.3 0 .5-.2.7-.3l.6.2a21 21 0 0 0 10.2 1.3h.6l.5 2.3a26.8 26.8 0 0 1-9-1.2c-1-.3-2-.7-2.8-1.2l-1.9.9c-4.4 2-9 3.2-13.7 4l-1 13.5a75.5 75.5 0 0 1 9.2 2.8l-.7-12.7-4.5-.5-.9 6.4 2.9 1.3v-4l-1.4-.6 2.9-.8v1l-.2 6.9-1-.7-1.5-1c-1-.5-2-1-3-1.3l1.3-8.4h.3l6.5.4.2 4.2.6 12-2.4-1a55.6 55.6 0 0 0-9.7-2.8v-.6l1-14.7v-.5a58.5 58.5 0 0 0 16.3-4.9Zm-1.3 27.3a458.4 458.4 0 0 0-1.4-18.3c2.7-.9 5.5-1.7 8.1-2.7l3.2-1.3.4.8 2 5.6.2.4-.3.2a19.8 19.8 0 0 1-3.6 3.3c-1.3 1-2.7 2-4.3 2.6l-1.3.6v-7.6c1.2-.5 2.5-.9 3.7-1.2l2.2-.5-1.3 3.2-.1-1.6-2.7 1.2v3.8l1-.4a18 18 0 0 0 5.4-4 11.3 11.3 0 0 0-2-4.3 29 29 0 0 0-8.6 3l.2 1.1a93 93 0 0 1 .4 16.4v.4l-.3.2-7.3 4-1-2 7.4-3Zm22-60.6c0-2.9-.8-5.8-1.3-8.7 0-.5-.2-.8.4-1l5-2c.3-.2.7-.2 1-.3.6 0 1 .2.8.9l-.1.4c-1.5 2.5-.6 5 .6 7.2 1.6 3 3.5 5.9 5.2 8.8l.6.7.4-.1.2-10.1c0-3.4-1.3-6.6-2.3-10h5.6c-.1.6-.3 1.1-.3 1.7-.2 1.8-.5 3.7-.5 5.6 0 6 0 12 .2 18 0 3 .5 6.1 1.8 9 .2.6 0 .8-.6.9h-3.8c-.2 0-.6-.4-.6-.7 0-1.8 0-3.6-.2-5.4-.1-3.8-1.4-7.1-3.6-10.2-1.6-2.3-3-4.8-4.5-7.2-.4-.6-.6-1.3-.8-2h-.3l-.1.9c0 7.5-.4 11.7-.2 19.3a15.7 15.7 0 0 0 .6 4.3l.1.3c.2.6.5 1.7.5 2.2.1.6-.6 2.7-1.3 4.6l-1 2.8-.1.4c0 .4-.3.8-.5 1.2a3 3 0 0 0-.5 2c0 .7.2 1.4.3 2l.2 1.7c0 .6.3 1.2.8 1.7.8 1 1.7 2 2.7 2.8l.4.5.4.2 4.5 1.4c1.3.4 2.6 1.3 4.1 1.4a37.7 37.7 0 0 0 8.4-.3l2.3-.5 3-.7c1.6-.3 3.2-1.4 4.5-2l1.3-1c.8-.7 1.6-1.5 2.2-2.3.2-.3.5-.5.6-.8.3-.3.4-.7.6-1l.7-2c.2-.9 0-1.7-.6-2.4-1-1.2-2.4-2.3-4.2-3.1a191.5 191.5 0 0 0-5.6-2.4l-1-.2c-2-.1-4-.2-6.1-.1l-1.1.1-3.9.8c-1.4.2-2.6.7-3.8 1.1-.9.4-1.6.8-2.1 1.4l-1.5 1.5-.7.7-.2.3v2.1c0 .5 0 1-.2 1.4 0 .4.2.8.6 1.2a12 12 0 0 0 3.7 2.2l3 1.2 3 1.2c.6.3 1.3.4 2 .5h2.5l3.4-.7h.6l.2-.2 1-.6a121 121 0 0 0 4-3c.3-.3.3-.7.3-1.1l-.3-1.3c-.5-.9-1.1-1.7-2-2.6l-.6-.6c-.3-.2-.8-.2-1.2-.3l-2.8-.5-2-.1h-.4c-1.1.4-2.2.7-3.1 1.2l-2.2 1.5-.7.8v.2c-.1.5-.1 1 .1 1.5l.7.8c0 .2.2.3.3.5l.4.2 2 .4.8.1h1.4c1-.2 1.6-.5 2-1 .4-.6 1-1.2 1.3-1.8v-.7l-.1-.8-.3-.2h-2.2c-.5.2-1 .3-1.4.6l-.1.5c0 .2.3.4.5.6.2.3.6.3 1 .3h.9c.3-.1.4-.4.1-.5l-.4-.2h-.1v-.5l.3-.1c.6-.2 1.3 0 1.5.3 0 .1.1.3 0 .4l-.7.9c-.2.2-.5.4-.9.5l-.7.3-.9.2-2.5.2-1.3-.2v-.1c-.2-.4-.4-.8-.4-1.1l.2-.6 1-1.3.3-.2 1.5-.7 1.8-.5 1.6-.2h.5c.5-.1 1 0 1.4.1.6.2 1.2.4 1.5.8.3.1.4.4.5.6.3.4.5.9.6 1.3v1.2l-.1.4-.4.8-.8.8-2.3 1.3-1.8.6c-2 .6-4.7 0-6.3-.5a105 105 0 0 1-4.5-1.8c-1-.4-.9-1-1.2-1.5-.4-.5-.4-1.4-.4-1.5l.2-.7c0-.3.2-.6.3-.8l.3-.3 2.1-1.4.5-.3.5-.1.5-.2 1.2-.4 2.1-.7.7-.1.3-.1.5-.3 1.5-.3h.3l4.5.2c1 0 2 .3 3 .5l1.5.4h.1c.2.1.2.1 0 .2.5.5 1.3.9 1.7 1.4h-.1l-.2-.1v.3l.8 1 .6 1.9v1.4c0 .5-.2 1-.5 1.5l-1 1.3c-.4.6-1 1.1-1.7 1.5-.7.4-1.5.4-2.2.8a11.6 11.6 0 0 1-4.9 1.4l-3 .3-1.4-.1c-1.7-.4-3.3-.3-5-.5a30.8 30.8 0 0 1-5.9-1.5 7.3 7.3 0 0 1-2.6-3 10 10 0 0 1-.7-2.8c0-.7 0-1.5.2-2.2a8 8 0 0 1 .8-2l1-1.4.8-1c.3-.4.8-.7 1.3-1 1.3-.7 2.7-1.2 4.2-1.7l.3-.1c.3 0 .4-.2.4-.4.7-.4 1.3-.8 2.2-1 1-.3 2.2-.5 3.4-.5h4.1a77.2 77.2 0 0 1 6.8.2c.6.4 1.4.7 2.2 1l1.2.4 1.6.8 1.4.8a10.5 10.5 0 0 1 3.8 4.2 13.6 13.6 0 0 1 .8 4.6l-.1 1.3-.3.6-.5 1c-.2.5-.6.9-1 1.3-.7 1-1.8 1.7-2.8 2.6l-1.8 1.2a3 3 0 0 1-.6.2l-2 .6c-1 .2-2 1-2.8 1.2-1.4.2-3.5.9-5 1.2l-.6.1c-2 .2-5.2 0-8-.2-2.9-.1-7.5-1-7.5-1l-3.1-.7-.7-.3a9 9 0 0 1-3.6-3.2c-1.5-1.8-2-3.2-2-4.7 0-1.4-.2-3.7.1-5.2l.6-2.2c.2-.9.6-3.2.9-6.6v-.3c0-9.7.7-13.3.5-23Zm20-7.7v-.8h4.7l-.4 2.7c-.6 3.7-1 7.5-.5 11.3.2 1.3.4 1.4 1.6 1 2.7-1.2 4.5-3.4 6-5.8 1.1-2 1.7-4.2 1.3-6.5l-.8-2.7h5.5c-.4 1.4-1 2.7-1.2 4-.7 3.4-2.4 6.2-4.5 8.8-.9 1.1-1 2.3-.6 3.7 1.6 5.9 1.9 4.3 3.6 10.2a26 26 0 0 0 1 3l.5 1.2.2 1.2c0 .4-.5.8-1.9 0s-2.9-.9-4-1.8c-.3-.2-.5-1-.4-1.3 1.4-4 .2-7.3-.9-11.2a10.4 10.4 0 0 0-.2-.7v-.3c-.2-.7-.6-1-1.3-1a4.1 4.1 0 0 0-3.7 3.8c-.2 3.6-.3 3.3.4 6.8l.4 2.5V99.7c0 .6 0 1-1 .8-1.2-.2-2.2 0-2.8 0-.6-.2-.3-1-.2-1.1 1-3.5.7-4.2.7-8.5-1 0-1.5.5-1.6 1.3l-.4 2.8c0 .2-.6.5-.9.5-.2 0-.7-.4-.7-.7v-2.6c.1-1 .5-2 1.5-2.5 1.6-.8 2-2.3 2-3.9.2-5 0-9.8-1.4-14.5Zm24.5 6.3h7.7c1 0 1.8-.4 2.7-.6l1-.2c.1 1.8-.8 3.2-1.3 4.7-.2 0-.4 0-.5-.2-1.3-1.3-3-1.5-4.6-1.5h-4.8c-.7-.1-1 .2-1 .9l.4 19.1c0 .9.2 1.8.4 2.6.2.5.4 1 .8 1.4 3.8 2.8 8 5 12.7 5.4h1a24.8 24.8 0 0 1-.8 0h1.6c1.2 0 2.7 0 4.2-.4 1.4-.5 1.6-.3 1.9.5v.2l.2.4c.4.7.2 1.1-.6 1.5-2.1.8-4.2.9-6.4.6-3.4-.5-6.5-1.7-9.5-3.4-3-1.8-6-3.4-9-5-.9-.5-1.1-1-.7-2 1.2-3 1.5-6.2 1.5-9.3.1-4.6.1-9.2-.1-13.8-.2-3-.8-6-1.4-8.8-.5-2.4-.6-2.3 1.8-2.3h15.8c1.3 0 1.4.1 1 1.3l-.5 1.8c-.3 1.2-.8 1.4-1.9.7-.5-.4-1-.8-1.5-1-1-.4-2-.7-2.9-.7-2-.2-4 0-6 0-.7-.1-1.2 0-1.3.8l-.4 1.5-.3 4.9c0 .6.1 1 .8 1Zm23.7-4c1.6 3.8 3.8 7.5 6.2 10.9l.7.7c.5-7 1-13.8-2.2-20.3h5.8l-.3 1.6c-.2 1.9-.5 3.8-.5 5.6 0 6 0 12 .2 18 .1 3 .5 6.1 1.8 9 .3.6 0 .8-.5.9h-3.9c-.2 0-.5-.4-.5-.7l-.2-5.4c-.1-3.8-1.5-7.1-3.7-10.2-1.6-2.3-3-4.8-4.4-7.2-.4-.6-.6-1.3-.9-2h-.2l-.2.9c.1 7.6 0 15.2.3 22.8 0 2.3.4 4.6.9 6.8.2 1-.2 1-1 1l-2.3.3c-.4 0-.5-.4-.5-.6V79.4a38 38 0 0 0-1.4-9.1c0-.3 0-.9.3-1a135 135 0 0 1 6.1-2.3c.6 0 1 .2.8.9-.1.2-.1.5-.3.7a5.5 5.5 0 0 0 0 5Zm-74.3 74.8s.1-.2.3-.2l.6-.7.6-1.5.6-1.5.4-.7.4-.8.9-1.4.4-.9.4-.9.4-.7.4-.8.6-1.4.8-1.4 1-2.4c0-.3 0-.4-.2-.5l-.6-.1-.7-.2c-.2 0-.3-.2-.2-.3l.2-.1h.4l.4.2h.8a29.4 29.4 0 0 1 3.6 0l.2.1h.3l.3.1.2.1c.2.2 0 .2-.4.2h-.9c-.2 0-.4 0-.6.3-.4.3-.7.8-1 1.3l-.3.8a3.5 3.5 0 0 1-.5 1.4 13.2 13.2 0 0 0-1.3 2.9l-.4 1-.4 1.1-1.2 2.6c-.7 1.4-.9 2.2-.6 2.2.2 0 .5 0 .8-.2h1.9c.6 0 1.2.3 2 .6.8.4 1.4.7 2 .8l1.8 1a6.7 6.7 0 0 0 4.5.5c.8-.2 1.3-.6 1.5-1.2l-.1-.5c-.1 0-.2-.2-.1-.5 0-.1 0-.1.2 0 .3 0 .5.3.5.6v1l-.6 1-.4.4c-.4.5-.8.9-1.4 1a67.5 67.5 0 0 1-3.5.6 5 5 0 0 1-1.4-.5 20.2 20.2 0 0 0-5.3-2.2l-1.2-.3-1.3-.3c-1 0-1.8 0-2.6.3l-1.4.2c-.7.2-1 .2-.8-.1Zm37-5.4-2.8-2.7c-.2-.3-.4-.8-.5-1.6v-2.5c0-.9.1-1.4.3-1.6l.5-.7c.1-.2.4-.4 1-.6l.7-.3.8-.3 1.3-.5 1.4-.5c.4-.1.7-.2.9-.1l.7.4.8.5c1.2 1 1.8 1.5 1.8 1.7 0 .2-.2.6-.7 1l-.4.3-.6.2h-.9l-.4-.2-.3-.3c-.2 0-.3-.2-.3-.3-.1-.2-.2-.4-.1-.5 0 0 0-.2.2-.3.2-.2.4-.2.5-.2.2 0 .2 0 .1.1l-.3.4v.5l.6.3h.4a39.1 39.1 0 0 1 .8-.1l.2-.2s.2-.1.2-.3l.2-.4-.3-.5-.5-.4-.6-.3-1.2-.4h-.7c-.3.2-.7.2-1 .3a3.2 3.2 0 0 0-1.5.8l-.6 1.2-.5 1.4.2 1.4c.1.7.3 1.3.5 1.6.1.5.4 1 .7 1.6l1.1 1.4c.3.4.9.7 1.8 1.2l2 .9 1.2.2h1.3a7 7 0 0 0 2.5-.9c.3-.3.5-.6.5-1v-1.1c-.1-.5-.4-.9-.7-1.2-.4-.3-.4-.4 0-.5.1 0 .3 0 .4.2 0 .2.2.4.5.6l.7 1.1.4.6.4.6c.3.7 0 1-.8 1.1-.4 0-.7.3-1.1.7-.4.5-1.2.9-2.2 1.2H192a7 7 0 0 1-2.4-.4l-2-.6-3-2Zm26-7.8-2.2-1.4 5.6-8.6a156.2 156.2 0 0 0-9.6-5.4l-.7-.4-.6-.2-8 3.6 2.6 4.4 7.1-1.2-2-2.3-2.5.2.8 1-3.6-1.5 1.3-.7 4.4-1 .4-.1.3.4 2.7 4.1.5.9-9.6 1.6h-.4l-3.9-6.4.7-.2 9.1-4.2 1.1.4a78.1 78.1 0 0 1 12.6 6.5l-.4.5-6 8.2c1 .4 1.8 1 2.7 1.4l7.2 4.8 1.4 1-1.5 1.8c-3-2.5-6.2-5-9.5-7.2Zm5-2.1.7-1.3a231.8 231.8 0 0 0 9.2-17.2c.6 0 1.2.2 1.7.3l3 .8 1 .4v.5l-2.3 12.5v.3a68 68 0 0 1-6.6 1.9l.3-1a33 33 0 0 0 1.2-5.8l2.6.8-1.5.5-.2 1a34 34 0 0 1-.5 2.5l-.1.3 2.8-.8 1-.3 2-11.6h-.1a25 25 0 0 0-3.4-.6l-.8 1.4A147.6 147.6 0 0 0 218 132c3.8 1 7.4 2.1 11 3.6l5.5-24h-7.4l-2.1-.2-.8 1.6a31.5 31.5 0 0 1-3.8 5.4c-1.7 0-3.4 0-5-.2-4.8-.5-9.6-1.6-14.2-3.1l-.3-.1h-.1l-.1-.1.9-2.1a62.2 62.2 0 0 0 18 4.3l.2-.3 4.6-6.7h.3a92.6 92.6 0 0 0 10 0l1.8-.2-6.2 28.4-1.4-.7a70.8 70.8 0 0 0-13.4-4.4Zm-105.7-18.3a8.2 8.2 0 0 1 2.4-3.5c1-.8 2.3-1.3 3.8-1.4 0 0 3-.4 6-3l.5-.6h.1c2-2 3.6-4.5 4.2-7.6 1.1-5.3.1-9-4.4-12.2-.6-.4-1-.4-1.3.3-1 2.4-2 4.8-2.7 7.3-.7 2-1 4-1.4 6.4-1.2-1.1-2.1-2.1-2.7-3.5-.2-.2 0-.8.2-1l4.8-9c.8-1.7.6-1.8-.8-2.9-1.4-1-2.8-2-4-3.3-2.9-3.2-1.8-7.6 2.2-9.1 1.5-.5 3.1-.8 4.6-.8 2.3-.1 4.5.1 6.8.2l.9.2-1.5 2.2-4.8 8.6-.2.4c-.5 1.6-.5 1.7.9 2.6l3 2c2.7 1.7 3.9 4.4 4.2 7.6a15.7 15.7 0 0 1-10 15.8h-.3c-3 1-5.7 2.2-8 4.3a3 3 0 0 1-2 .7.5.5 0 0 1-.5-.7Zm1782.3 435.3-.6 7.4-2.1 28.6c-.7 9.3-1.3 18.7-.8 28 .4 7.8 1.8 15.5 3.2 23.1l-.2 36.2c-.7 1.6-1.5 3.2-2 4.8-1.7 4.3-1.2 8.8-.8 13.3.8 9.3 1.9 18.7 2.2 28 .4 8.7-.7 17.2-1.5 25.9-.7 8.1-1 16.5 1.4 24.4-.7 94.2-1.5 188.2-2.5 282l-38.2-.7c-12-.7-24-2.2-36-4l-12-2c-2-.2-3.8-.4-5.8-.1-2 .2-3.9.7-5.8 1.2a110 110 0 0 1-23.4 2.8c-15.8.4-31.6-1.7-47.4-3a334.8 334.8 0 0 0-48.5-.6c-8.3.4-16.6 1.2-24.8 2-170.1-3.4-354.6-7.7-514-6-10.7.3-33.5-.6-43.9 1.3-9.5 1.7-19.5 5-29.2 5.3l-4.1.1-2.5-.2-5-.7-2.3-.8c-1-.4-1.6 0-2.6.6-2.3 1.4-5.3 1-7.8.5-3.2-.5-6.3-1.2-9.5-1a27.4 27.4 0 0 0-10 2.6l-58.5.8c-135.4-.2-280.8 1.6-416.5 2l-7.3-.3c-13-.8-457.2-20-507.4-22.5l1.2-161.4 1.4-2.7c1.5-2.6 2.4-5.2 1.7-8.2a7 7 0 0 0-1.9-3.4 10 10 0 0 0 2.5-5.1c.7-4-.7-8-1.7-11.8-.9-3.7-1.4-7.5-1.7-11.3v-10.9l.2-1.6c.4-3.9 1.2-7.7 2.3-11.5 1.1-4 2.9-7.7 3.7-11.7 1.8-8.2-1.3-16-3.3-23.9a84 84 0 0 1-2.4-15.4l.1-11.4c.6-7.8 2.3-15.5 3.7-23.3 1.4-8 2.1-16.2 1.8-24.5-.3-8-1.4-16-2.6-24l-2.2-15 1-147.2c.4-4 .5-8.1.5-12.2 0-5 0-9.9-.2-14.9l1.2-165.4c.3-7.3.7-14.6 1.2-21.8.8-11.1 2-22.3 2.8-33.4.8-11.2 1.2-22.5.4-33.7-.6-9.6-2.7-19-3.5-28.6l.1-23 34.4 18 2 1 35.2-23.6 6 9.6 121.6-12.3 35-33.2 3.7-57.2-5.2-14 47.8-30.4c115.7 4.7 265.7 2.3 392.8 3.4 213.3-.3 429.5-2 642.9-5.6 104.4-.7 427.2 6 541.1 7.1.7 44.3 1.2 88.7 1.6 133l-.7 1.4c-1 1.9-2.3 3.6-3.1 5.5a9 9 0 0 0-.4 7c.5 1.3 1.4 2.6 2 4 .6 1.2 1 2.5 1.2 3.8 1.1 5.6-.5 11.5-1.5 17a55.4 55.4 0 0 0-.1 18.8c.8 6.3 2.2 12.5 2.2 18.9.1 6.2-.8 12.3-1.8 18.4-1 6.3-2.2 12.6-2.6 19-.5 6.2 0 12.4 1 18.6 1.2 8.1 3.2 16 4.7 24 .3 75.4.3 150.7 0 226Zm-1717-412.4c0-.6-.2-1-.5-1.6a4.2 4.2 0 0 1-.5-1.4l-.4-1.4a6.3 6.3 0 0 1-.4-1.4c-.1 0-.3.2-.5.7l-.4 1-.3.8a2.9 2.9 0 0 1-.4 1l-.2.1a3.9 3.9 0 0 0-.4 1v.3c0 .1 0 .2.4.1h1l1.5.3 1.2.6v-.1ZM141 139c.2 0 .7 0 1.4-.3a56 56 0 0 0 2.8-.8c.3 0 .7-.3 1.2-.7l1-.7a8.1 8.1 0 0 0 1.8-1.6l.4-.5c.2 0 .3-.2.4-.4v-.1c0-.1 0-.2-.2-.3l-.3-.3-.3-.2-.4-.2h-.7a5 5 0 0 1-.7 0H146.3c-.5 0-.8.2-1 .5l-.9 1c-.2 0-.3.2-.5.3l-.4.5-1 1.5-.8 1.6c0 .2-.2.3-.4.4a1 1 0 0 0-.3.2h.1Zm-18.2-62.6c.4-1.2-.2-2.7-1-3.4-1-.6-2.1-.5-3.2.3a4.5 4.5 0 0 0-1.8 3v2.1c.3 2.1 1.7 3.3 3.5 4.3l.6-.9 1.9-5.4Zm52.4 61.3c0-.6-.2-1-.5-1.6a4.2 4.2 0 0 1-.5-1.4l-.4-1.4a6.3 6.3 0 0 1-.4-1.4c-.1 0-.3.2-.5.7l-.4 1-.3.8a2.9 2.9 0 0 1-.4 1l-.2.1a3.9 3.9 0 0 0-.4 1v.3c0 .1 0 .2.4.1h1l1.5.3 1.2.6v-.1Zm-25.4-4.1-.3-.3-.3-.2-.4-.2h-.7a5 5 0 0 1-.7 0H146.3c-.5 0-.8.2-1 .5l-.9 1c-.2 0-.3.2-.5.3l-.4.5-1 1.5-.8 1.6c0 .2-.2.3-.4.4a1 1 0 0 0-.3.2h.1l1.3-.2a56 56 0 0 0 2.8-.8c.3 0 .7-.3 1.2-.7l1-.7a8.1 8.1 0 0 0 1.8-1.6l.4-.5c.2 0 .3-.2.4-.4v-.1c0-.1 0-.2-.2-.3Zm-28-60.6c-1-.6-2.1-.5-3.2.3a4.5 4.5 0 0 0-1.8 3v2.1c.3 2.1 1.7 3.3 3.5 4.3l.6-.9 1.9-5.4c.4-1.2-.2-2.7-1-3.4Zm53.4 64.7c0-.6-.2-1-.5-1.6a4.2 4.2 0 0 1-.5-1.4l-.4-1.4a6.3 6.3 0 0 1-.4-1.4c-.1 0-.3.2-.5.7l-.4 1-.3.8a2.9 2.9 0 0 1-.4 1l-.2.1a3.9 3.9 0 0 0-.4 1v.3c0 .1 0 .2.4.1h1l1.5.3 1.2.6v-.1Zm-25.4-4.1-.3-.3-.3-.2-.4-.2h-.7a5 5 0 0 1-.7 0H146.3c-.5 0-.8.2-1 .5l-.9 1c-.2 0-.3.2-.5.3l-.4.5-1 1.5-.8 1.6c0 .2-.2.3-.4.4a1 1 0 0 0-.3.2h.1l1.3-.2a56 56 0 0 0 2.8-.8c.3 0 .7-.3 1.2-.7l1-.7a8.1 8.1 0 0 0 1.8-1.6l.4-.5c.2 0 .3-.2.4-.4v-.1c0-.1 0-.2-.2-.3Zm-28-60.6c-1-.6-2.1-.5-3.2.3a4.5 4.5 0 0 0-1.8 3v2.1c.3 2.1 1.7 3.3 3.5 4.3l.6-.9 1.9-5.4c.4-1.2-.2-2.7-1-3.4Zm53.4 64.7c0-.6-.2-1-.5-1.6a4.2 4.2 0 0 1-.5-1.4l-.4-1.4a6.3 6.3 0 0 1-.4-1.4c-.1 0-.3.2-.5.7l-.4 1-.3.8a2.9 2.9 0 0 1-.4 1l-.2.1a3.9 3.9 0 0 0-.4 1v.3c0 .1 0 .2.4.1h1l1.5.3 1.2.6v-.1Zm-25.4-4.1-.3-.3-.3-.2-.4-.2h-.7a5 5 0 0 1-.7 0H146.3c-.5 0-.8.2-1 .5l-.9 1c-.2 0-.3.2-.5.3l-.4.5-1 1.5-.8 1.6c0 .2-.2.3-.4.4a1 1 0 0 0-.3.2h.1l1.3-.2a56 56 0 0 0 2.8-.8c.3 0 .7-.3 1.2-.7l1-.7a8.1 8.1 0 0 0 1.8-1.6l.4-.5c.2 0 .3-.2.4-.4v-.1c0-.1 0-.2-.2-.3Zm-28-60.6c-1-.6-2.1-.5-3.2.3a4.5 4.5 0 0 0-1.8 3v2.1c.3 2.1 1.7 3.3 3.5 4.3l.6-.9 1.9-5.4c.4-1.2-.2-2.7-1-3.4Zm53.4 64.7c0-.6-.2-1-.5-1.6a4.2 4.2 0 0 1-.5-1.4l-.4-1.4a6.3 6.3 0 0 1-.4-1.4c-.1 0-.3.2-.5.7l-.4 1-.3.8a2.9 2.9 0 0 1-.4 1l-.2.1a3.9 3.9 0 0 0-.4 1v.3c0 .1 0 .2.4.1h1l1.5.3 1.2.6v-.1Zm-25.4-4.1-.3-.3-.3-.2-.4-.2h-.7a5 5 0 0 1-.7 0H146.3c-.5 0-.8.2-1 .5l-.9 1c-.2 0-.3.2-.5.3l-.4.5-1 1.5-.8 1.6c0 .2-.2.3-.4.4a1 1 0 0 0-.3.2h.1l1.3-.2a56 56 0 0 0 2.8-.8c.3 0 .7-.3 1.2-.7l1-.7a8.1 8.1 0 0 0 1.8-1.6l.4-.5c.2 0 .3-.2.4-.4v-.1c0-.1 0-.2-.2-.3Zm-28-60.6c-1-.6-2.1-.5-3.2.3a4.5 4.5 0 0 0-1.8 3v2.1c.3 2.1 1.7 3.3 3.5 4.3l.6-.9 1.9-5.4c.4-1.2-.2-2.7-1-3.4Zm28 60.6-.3-.3-.3-.2-.4-.2h-.7a5 5 0 0 1-.7 0H146.3c-.5 0-.8.2-1 .5l-.9 1c-.2 0-.3.2-.5.3l-.4.5-1 1.5-.8 1.6c0 .2-.2.3-.4.4a1 1 0 0 0-.3.2h.1l1.3-.2a56 56 0 0 0 2.8-.8c.3 0 .7-.3 1.2-.7l1-.7a8.1 8.1 0 0 0 1.8-1.6l.4-.5c.2 0 .3-.2.4-.4v-.1c0-.1 0-.2-.2-.3Zm-28-60.6c-1-.6-2.1-.5-3.2.3a4.5 4.5 0 0 0-1.8 3v2.1c.3 2.1 1.7 3.3 3.5 4.3l.6-.9 1.9-5.4c.4-1.2-.2-2.7-1-3.4Zm28 60.6-.3-.3-.3-.2-.4-.2h-.7a5 5 0 0 1-.7 0H146.3c-.5 0-.8.2-1 .5l-.9 1c-.2 0-.3.2-.5.3l-.4.5-1 1.5-.8 1.6c0 .2-.2.3-.4.4a1 1 0 0 0-.3.2h.1l1.3-.2a56 56 0 0 0 2.8-.8c.3 0 .7-.3 1.2-.7l1-.7a8.1 8.1 0 0 0 1.8-1.6l.4-.5c.2 0 .3-.2.4-.4v-.1c0-.1 0-.2-.2-.3Zm-28-60.6c-1-.6-2.1-.5-3.2.3a4.5 4.5 0 0 0-1.8 3v2.1c.3 2.1 1.7 3.3 3.5 4.3l.6-.9 1.9-5.4c.4-1.2-.2-2.7-1-3.4Zm0 0c-1-.6-2.1-.5-3.2.3a4.5 4.5 0 0 0-1.8 3v2.1c.3 2.1 1.7 3.3 3.5 4.3l.6-.9 1.9-5.4c.4-1.2-.2-2.7-1-3.4Zm0 0c-1-.6-2.1-.5-3.2.3a4.5 4.5 0 0 0-1.8 3v2.1c.3 2.1 1.7 3.3 3.5 4.3l.6-.9 1.9-5.4c.4-1.2-.2-2.7-1-3.4Zm0 0c-1-.6-2.1-.5-3.2.3a4.5 4.5 0 0 0-1.8 3v2.1c.3 2.1 1.7 3.3 3.5 4.3l.6-.9 1.9-5.4c.4-1.2-.2-2.7-1-3.4Zm0 0c-1-.6-2.1-.5-3.2.3a4.5 4.5 0 0 0-1.8 3v2.1c.3 2.1 1.7 3.3 3.5 4.3l.6-.9 1.9-5.4c.4-1.2-.2-2.7-1-3.4Zm0 0c-1-.6-2.1-.5-3.2.3a4.5 4.5 0 0 0-1.8 3v2.1c.3 2.1 1.7 3.3 3.5 4.3l.6-.9 1.9-5.4c.4-1.2-.2-2.7-1-3.4Zm0 0c-1-.6-2.1-.5-3.2.3a4.5 4.5 0 0 0-1.8 3v2.1c.3 2.1 1.7 3.3 3.5 4.3l.6-.9 1.9-5.4c.4-1.2-.2-2.7-1-3.4Zm0 0c-1-.6-2.1-.5-3.2.3a4.5 4.5 0 0 0-1.8 3v2.1c.3 2.1 1.7 3.3 3.5 4.3l.6-.9 1.9-5.4c.4-1.2-.2-2.7-1-3.4Zm0 0c-1-.6-2.1-.5-3.2.3a4.5 4.5 0 0 0-1.8 3v2.1c.3 2.1 1.7 3.3 3.5 4.3l.6-.9 1.9-5.4c.4-1.2-.2-2.7-1-3.4Z" fill="#FDFDFD"/><path d="M150 133.9v.1l-.4.4-.4.5-.4.4-.4.5-1 .7-1 .7-1.2.7-1.3.5a56 56 0 0 1-2.8.5l.2-.1.4-.4.9-1.6.9-1.5c0-.2.2-.4.4-.5a7 7 0 0 0 1.3-1.3l1-.5H148.9l.4.2s.2 0 .3.2l.3.3.2.2ZM122.8 76.4l-1.9 5.3v.1l-.6.9c-1.8-1-3.2-2.2-3.5-4.3a6.2 6.2 0 0 1 .4-3.3c.3-.6.7-1.2 1.4-1.7 1-.8 2.3-1 3.1-.3 1 .6 1.4 2.1 1 3.3ZM175.2 137.8l-1.1-.6-1.5-.3a4 4 0 0 0-1 0c-.3 0-.5 0-.4-.1v-.1c0-.1 0-.3.2-.5a2.5 2.5 0 0 1 .4-.8l.1-.2.3-.7.3-.8.4-1 .5-.8v.2l.4 1.3a19.4 19.4 0 0 1 1 2.8l.4 1.5Z" fill="#FDFDFD"/><path d="M120.3 82.6c-1.8-1-3.2-2.1-3.5-4.3v-2 2.1c.3 2.1 1.7 3.3 3.5 4.3l.6-.9-.5.8ZM150 134l-.4.3-.4.5a3 3 0 0 0-.4.4l-.4.5-1 .7-1 .7-1.2.7-1.3.5a50.7 50.7 0 0 1-2.7.6h-.2l1.4-.2a56 56 0 0 0 2.8-.8c.3 0 .7-.3 1.2-.7l1-.7a8.1 8.1 0 0 0 1.8-1.6l.4-.5c.2 0 .3-.2.4-.4v-.1ZM175.2 137.7l-1.2-.6-1.4-.3a5 5 0 0 0-1 0h-.4c0 .1 0 .2.4.1h1l1.5.3 1.1.6v-.1Z" fill="#000"/></svg>
