<svg width="1920" height="1080" fill="none" xmlns="http://www.w3.org/2000/svg"><path d="M1899.4 25c-79.3-1.8-428.2-10.4-501.3-12-225.6.9-467.4 4.8-692.5 6.2-132.3 1-264.5 2-396.8 2.6l-.8.6-45.8 30.3-8.6-23L209 18.3l-64.6-3.3-54 12.3-.6 11.2L35.4 36l-3.7 89.7 40 11L83 75.2 59 60.8 47.6 85.9 60.3 103l9.1-18.4-4.1 1.6-5.9 10-4.8-9.7 6-13.1 15.8 6.5-13 44.6-25.8-3.6 8-71.5 43.7-2.6-5.2 89 15.5 24.5L77 174.1l-8.7 5.4C53.1 171 37.1 162 22 153.9l-.3 11.8c-4.3 277-3.7 595.1-5.6 872.9l6 .2a13619.4 13619.4 0 0 0 8.7.5c20 4.8 40.7 6.4 61.2 6.5 20.7.3 41.4-.8 62-1h13.8l45.6 1.8c2.9.6 5.8 1.3 8.7 2.2 1.9.6 3.8 1.3 5.8 1.6 2.1.2 3.7-.5 5.4-1.7.6-.4 1.1-.7 1.8-.7 1 0 2 .4 3 .7l6.3 1.6c2 .5 3.8 1 5.8.7a3.9 3.9 0 0 0 3.2-2.8l99.6 4.1 10 1.4 21 3 20.5 2.9c14 1.9 28.1 2.9 42.4 2.4a515 515 0 0 0 43.8-4l28 1.1c7 .2 14.3.7 22 1l5.4.2h1.9l58.4-.7c213-2.3 430.4-5 643.2-4.3 212.5 3.9 430.4 8.8 643 11.5l10.9.2v-11.1c2.7-295.1-5.3-732-4-1031Zm-1750-3 53 3L239 35.2l-3.6 7.7-28.6 7.6-62.4-3.6-28.7-7.5-3.2-8.3 37-9Zm67 124.1.2 1c0 .5-.1.7-.5.7a18.4 18.4 0 0 1-5.7-.8l-2.6-.6a10 10 0 0 0-2.8-.4c-.8 0-1.4 0-1.8.2l-1.4.2a3 3 0 0 0-.6.2l-.5.3-.8.1a3 3 0 0 0-.5.2c-.3.2-.5 0-.7-.3-.2-.3-.2-.5 0-.5h.9c.4 0 .7-.2.8-.4.2-.3.2-.6.2-.8 0-.3-.2-.7-.4-1.1a111.7 111.7 0 0 0-5.8-11.4c-.3-.2-.5-.4-.6-.3a1 1 0 0 1-.6-.3c-.2 0-.1-.1.3-.1h.6c0 .1.6.1 1.6 0h1.4c.4 0 .8 0 1.3-.2a16 16 0 0 1 2.5-.2h1.3l.9-.3c.2 0 .2-.2.2-.3l.1-.2.5.1c.1.2.1.3 0 .4a1 1 0 0 0-.5.6c0 .2 0 .5-.2.7 0 .3-.5.5-1.2.5a72.2 72.2 0 0 0-2.8 0h-1.6l-.5.1.1.3 1.3 2.4a7 7 0 0 1 1.2 2.1c.7 0 1.3-.2 1.6-.6.3-.4.8-.6 1.6-.6h.2c.5 0 .9.1 1.1.4l1 .8a17 17 0 0 1 1.9 2h-.1c-.5 0-.8-.3-1-.8-.3-.4-.7-.6-1.3-.6-.3 0-1 .1-2.2.5-1.2.4-1.8.6-1.7.7l1 2 .7.8.5.5.3.9.4.8.3.1c.4 0 .8-.1 1-.4.2-.3.6-.4 1-.4h.4l1 .1 1 .3 1 .3h1a20.5 20.5 0 0 1 3.3 1h1.2c.3 0 .6-.2.7-.6a1 1 0 0 0-.2-1l-.8-.9c-.4-.3-.4-.5 0-.5l.8.7 1 .8c.2.3.2.7.1.9-.1.2-.2.6 0 1Zm-39.5-3-.3-1.1a24.2 24.2 0 0 1-.6-2l-.3-.9-.7-.6-1-.4-1-.2h-1l-1 .1-.6.4c-.4.6-.8 1.2-1 1.8a14 14 0 0 1-2.2 3.2l-1 1.1-1.5 1c-.6.5-1.2.7-1.7.7h-.7c-.7 0-1.4-.2-2-.5-.7-.3-1-.7-.8-1.3 0-.4.3-.7.8-1l1.2-.3c.2 0 .3 0 .5.3l.2.4h-.4a1 1 0 0 0-.5-.2c-.7 0-1.1.3-1.3.9 0 .3.1.5.5.5h.9c.8 0 1.5-.3 2.2-.8.7-.6 1.3-1.2 1.9-2a31.4 31.4 0 0 0 2.5-3.8h-2l-.6-.3c-.3-.2-.4-.4-.3-.6 0-.2.2-.4.5-.7l-.1.5c0 .2 0 .4.3.4l1.5-.3 1.6-.3c.2 0 .4-.4.7-1a31.6 31.6 0 0 1 1.4-3.1c.4-1 .6-1.6.6-2 0 0 0-.2-.2-.3l-.2-.4c-.2-.2-.3-.2-.6-.2-.2 0-.4 0-.6-.2h.3l1.4.1c.5.2 1 .2 1.6.2h.7l1 .1a16.4 16.4 0 0 1 1.6.2h-.7l-.4.2-.2.2a79.2 79.2 0 0 0 1 2.8l.5 1a25.2 25.2 0 0 1 .8 2.5l.5 1 .7 1.7.5 1.5.5 1.2c.2.4.4.8.7 1l1.2.7c.6.3 1 .5 1.4.5l.6-.1.9-.1v.5c0 .2 0 .3-.2.2-.8 0-1.5 0-2.2-.2a36.3 36.3 0 0 0-4.1-.3c-.3 0-.8 0-1.5.2a4.3 4.3 0 0 1-.6 0l-.5.3c-.3.1-.4.1-.4 0 0-.2.3-.4.7-.5l1-.3c.3 0 .4-.1.4-.3a4 4 0 0 0-.2-1.2Zm-40 3.8c.2 0 .6.2 1.4.2.8.1 1.2.2 1.1.4 0 0-.6.2-1.5.2a27 27 0 0 0-6.3 1.5 9 9 0 0 1-1.6.6 17.4 17.4 0 0 0-2.4.7c-.5.2-.7.2-.5 0 .2-.3.6-.6 1.2-1l1.4-.5a123.1 123.1 0 0 1 2.8-1.4l.3-.5.6-.6.7-.8 1.3-1.4.6-.8.6-.7.6-.7.5-.7 3.1-5 1.1-1.4.6-.9.4-.7v-.4c-.1 0-.2 0-.2-.2l-.4-.4a1 1 0 0 0-.6-.3h-.7v-.3c0-.3.2-.5.3-.6 0-.2.3-.4.5-.6l.7-.5.7-.3c.2-.2.5-.3.7-.3h.3a1 1 0 0 1-.5.2c-.2 0-.5.1-.7.3a3.1 3.1 0 0 0-.6.5 7.6 7.6 0 0 1-.5.4l.2.4.4.3.6.2.8.1.9.1 1 .3h1.5a141.5 141.5 0 0 0 2 0c.8 0 1.4 0 1.8.2.2 0 .3.2.5.3l.7.2c.7.3 1 .6.9.7l-.5.6-.8.8a6 6 0 0 1-1.7 1.3l-.7.4a11.4 11.4 0 0 0-1.4 1c-.4.4-1 .6-1.7.9a11 11 0 0 1-2.5.5h-.5l-.5.2-.5.1a1 1 0 0 1-.3 0h-.2l-.3.1h-.3l-.5.2a4 4 0 0 1-.5 0l-.6 1a9.4 9.4 0 0 1-.9 1.6l-.2.5-.4.5-.4.6-.6 1a4 4 0 0 0-.4 1c-.2.5-.2.8.1.9Zm-.9-61c0 5.8 0 11.7.2 17.5 0 1.2.4 2.5 1 3.6 1 1.8 2.9 2.2 4.8 2 1-.1 1.9-.4 2.7-.8 1-.5 1.8-1.2 1.9-2.5v-9.6c0-3.3-.1-6.6-.3-9.8a38 38 0 0 0-1.8-10.2v-.6h5l-.7 4c-.2.7-.3 1.5-.3 2.3v16c0 1.9.5 3.7.7 5.6.4 3.6-1.2 6-4.8 7-2 .4-4 .7-6 .1-2.6-.7-4.2-2.5-4.3-5.3V93.5c0-4.6-.1-9.1-1.2-13.5l-.5-1.7c-.4-.9-.1-1.2.7-1.5l4.4-1.4-.6 2.6c-.7 2.6-1 5.2-.9 7.9Zm-3.8 27a4.2 4.2 0 0 1 3.2-.2c1.3.5 2.7.8 4.1 1h5.1c.3-.1.6 0 .6.4l.3 1.2c0 .3-.2.7-.6.7-3.4 0-7-.5-10.1-2h-.1c-.3-.2-1-.3-3 .5l-.3.1-.4.2a59.8 59.8 0 0 1-11.7 3.5c-.2 0-1.1.4-1.3 3a993.2 993.2 0 0 1-.6 8.8v1.3c0 .2 0 .5.4.6l3.2 1 1 .2.6.2 2.7 1c.6.1 1.2.2 1-1.5v-.3l-.6-10.1c0-.3-.1-.4-.3-.5h-.2l-3.2-.4a1 1 0 0 0-1 .8l-.7 5.2c0 .2.1.4.3.4l.3.1c.7.3 1.4.6 2.7 1.6h.1l.2-4.8c0-.2-.2-.2-.2-.2h-.5l-.6-.1c-.2 0-.2-.2 0-.2l1.5-.4.4-.1c.1 0 .3 0 .3.2l-.2 6.3a.7.7 0 0 1-1.1.6l-1-.6c-.7-.5-1.5-.9-2.3-1.2-.7-.4-1-1.1-1-1.9l.7-5c.2-1 1.2-2 2.4-1.9l3 .2c1 0 1.8.8 1.8 1.8l.6 11.4c.1 2.6-1.3 2.4-2 2.2l-.3-.2-1.2-.4c-2.2-.8-4.4-1.4-6.7-1.9-1-.2-1.7-1.2-1.7-2.2l.8-11.6a3.2 3.2 0 0 1 2.6-2.9 69 69 0 0 0 13-4Zm-7.4 29.5 6.9-2.7a506.4 506.4 0 0 0-1.1-16.3c-.2-1.2.6-2.3 1.7-2.6l6.7-2.4c1.4-.5 3.1.2 3.7 1.7l1 2.5c.3 1 0 2-.6 2.8-1.5 1.4-3.1 2.7-4.9 3.7l-.8.5c-1.2.7-2.7-.2-2.7-1.6v-3.1c0-1 .6-1.9 1.6-2.2l3.8-1c.2 0 .4.2.3.4l-1 2.2c0 .1-.2 0-.2 0v-.8c0-.2-.2-.2-.3-.2l-1 .5-1 .4c-.2.2-.4.5-.4.8v2.8c0 .2.2.3.4.2a20.4 20.4 0 0 0 5.3-3.5c.5-.4.6-1 .4-1.6a13.1 13.1 0 0 0-1-2.3c-.4-.7-1.1-1-1.8-.8a30.4 30.4 0 0 0-6.4 2.1c-.7.3-1 1-1 1.7.4 2.4.5 5 .6 7.4 0 3 0 6-.2 9v.4l-.3.2-6.7 3.8c-.3.1-.6 0-.8-.2l-.5-1c-.2-.3 0-.7.3-.8Zm29-63.3c-.1-2.9-.9-5.8-1.4-8.7 0-.5-.2-.8.4-1l5-2a4 4 0 0 1 1-.3c.6 0 1 .2.8.9l-.1.3c-1.5 2.6-.6 5 .6 7.2 1.6 3 3.5 6 5.2 8.9l.6.7.4-.1.2-10.2c0-3.4-1.3-6.6-2.3-9.9h5.6c-.1.6-.3 1-.3 1.6-.2 2-.5 3.8-.5 5.7 0 6 0 12 .2 18 0 3 .5 6.1 1.8 9 .2.5 0 .8-.6.8a50 50 0 0 1-3.8.2c-.2 0-.5-.5-.6-.8L166 94c-.2-3.8-1.5-7.1-3.7-10.2-1.6-2.3-3-4.8-4.5-7.2-.4-.6-.6-1.4-.8-2h-.3l-.1.8c0 7.6-.4 11.8-.2 19.3 0 1.7.2 2.7.4 3.7l.2.7a8.4 8.4 0 0 0 .1.3l.5 2.1c.1.7-.6 2.8-1.3 4.7a26 26 0 0 0-1 2.8l-.1.4c0 .4-.3.8-.5 1.2a3 3 0 0 0-.5 2c0 .7.2 1.4.3 2l.2 1.7c0 .6.3 1.2.8 1.7.8 1 1.7 2 2.7 2.8l.4.5.4.2 4.5 1.4c1.3.4 2.6 1.3 4.1 1.4a36.6 36.6 0 0 0 8.4-.3l2.3-.5 3-.7c1.6-.3 3.2-1.4 4.5-2l1.3-1 2.3-2.3.6-.8.5-1 .7-2c.2-.9 0-1.7-.6-2.4-1-1.2-2.4-2.3-4.2-3.1a190 190 0 0 0-5.6-2.5h-1c-2-.2-4-.3-6.1-.2l-1.1.1-3.9.7c-1.4.3-2.6.7-3.8 1.2-1 .4-1.6.8-2.1 1.3l-1.5 1.6-.7.7-.2.2v2.2c0 .5 0 1-.2 1.4 0 .4.2.8.6 1.2 1 .8 2.2 1.6 3.6 2.2l3 1.2 3 1.2c.7.3 1.4.4 2.2.5h2.4l3.4-.7h.6l.2-.2 1-.6a115.4 115.4 0 0 0 4-3c.3-.3.3-.7.3-1.1l-.3-1.3c-.5-.9-1.1-1.8-2-2.6l-.6-.6a68 68 0 0 0-4-.8l-2-.1h-.4a20 20 0 0 0-3.1 1.2c-.9.4-1.6 1-2.2 1.5l-.7.8v.2c-.1.5-.1 1 .1 1.5l.7.8c0 .2.2.3.4.5l.3.2a14.1 14.1 0 0 0 2.8.5h1.4c1-.2 1.6-.5 2-1 .5-.6 1-1.2 1.3-1.9l.1-.6-.2-.8-.3-.2H175.6l-1.5.5-.1.6c0 .2.3.4.5.6.2.3.6.3 1 .3h1c.2-.1.3-.4 0-.5l-.3-.2h-.2v-.5l.3-.2c.6 0 1.3.1 1.5.4 0 .1.2.3 0 .4l-.7.9c-.1.2-.5.3-.9.5l-.7.2-.9.2c-.8.2-1.7.2-2.6.2-.4 0-.8 0-1.2-.2-.2-.4-.4-.8-.4-1.2l.2-.5c.3-.4.5-.9 1-1.3l.3-.2 1.5-.7c.5-.3 1-.5 1.8-.6l1.6-.1h.5c.5-.2 1 0 1.4.1.6.2 1.2.4 1.5.7.3.2.4.4.5.7.3.4.5.8.6 1.3v1.1l-.1.5-.4.7-.8.8a15.9 15.9 0 0 1-4.1 2c-2 .5-4.7 0-6.3-.6l-4.5-1.7c-1-.4-.9-1-1.2-1.5-.4-.5-.4-1.4-.4-1.6l.2-.6.3-.9.3-.2 2.1-1.4c.2-.1.3-.3.5-.3s.4 0 .5-.2c.2 0 .4 0 .5-.2l1.2-.4 2.1-.6.7-.1c.2 0 .2-.1.3-.2l.5-.2 1.5-.3h.3l4.5.2c1 0 2 .2 3 .5l1.5.4h.1c.2 0 .2.1 0 .2.5.5 1.3.8 1.6 1.3h-.2v.2l.8 1.1.6 1.8v1.5c0 .5-.2 1-.5 1.4l-1 1.4c-.4.5-1 1-1.7 1.5-.7.4-1.5.4-2.2.8a11.7 11.7 0 0 1-4.9 1.4l-3 .3c-.5 0-1 0-1.4-.2-1.7-.3-3.3-.2-5.1-.5a34.4 34.4 0 0 1-5.8-1.4 7.2 7.2 0 0 1-2.6-3c-.3-1-.6-1.8-.7-2.8a7.5 7.5 0 0 1 1-4.2l1-1.5.8-1c.3-.4.8-.7 1.3-1 1.2-.6 2.7-1.2 4.2-1.7h.3c.3-.1.4-.2.4-.4v-.1l2.2-1 3.4-.5h4.1a74 74 0 0 1 6.9.3c.5.4 1.3.7 2.1 1l1.2.3 1.6.8 1.4.9a10.4 10.4 0 0 1 3.8 4.2 13.3 13.3 0 0 1 .9 4.6l-.2 1.2-.3.6-.5 1c-.2.5-.5 1-.9 1.4-.8.9-1.8 1.7-2.9 2.6l-1.7 1.1-.6.3-2.1.6c-.9.2-1.9 1-2.8 1.1-1.4.3-3.4 1-5 1.3l-.6.1c-2 .2-5.2-.1-8-.2-2.9-.2-7.5-1-7.5-1l-3.1-.8c-.3 0-.5-.2-.7-.3a8.9 8.9 0 0 1-3.6-3.1c-1.5-1.8-2-3.2-2-4.7s-.2-3.7.1-5.2l.6-2.3c.2-.8.6-3.2.9-6.6v-.3c0-9.7.7-13.2.5-23v.1Zm20-7.8c-.2-.2-.1-.4-.2-.7h4.8l-.4 2.6c-.5 3.8-1 7.6-.5 11.4.2 1.3.4 1.4 1.6 1 2.8-1.2 4.5-3.4 6-5.8 1.1-2 1.7-4.2 1.3-6.5l-.7-2.8h5.4c-.4 1.5-1 2.8-1.2 4.2a21 21 0 0 1-4.4 8.6c-1 1.2-1 2.4-.7 3.7 1.7 6 2 4.4 3.6 10.3a23.3 23.3 0 0 0 1 2.9l.5 1.2.2 1.2c0 .5-.5.9-1.9.1s-2.9-.9-4-1.8c-.3-.3-.5-1-.4-1.3 1.4-4.1.2-7.3-.9-11.3l-.1-.4-.2-.5c-.1-.8-.5-1-1.2-1a4.1 4.1 0 0 0-3.7 3.8c-.2 3.5-.3 3.2.4 6.7l.4 2.6V99.8c0 .6 0 1-1 .8-1.2-.2-2.2 0-2.8-.1-.6-.1-.3-1-.2-1 1-3.5.7-4.2.6-8.6-1 0-1.4.6-1.5 1.4l-.4 2.7c0 .3-.6.6-1 .6-.2 0-.6-.4-.6-.7v-2.6c.1-1 .5-2 1.5-2.6 1.6-.8 2-2.2 2-3.8.2-5 0-9.8-1.4-14.6Zm24.5 6.4h7.7c.9 0 1.8-.4 2.7-.6l1-.2c0 1.8-.9 3.1-1.4 4.7l-.5-.2c-1.3-1.3-2.9-1.6-4.6-1.6h-4.8c-.7 0-1 .3-1 1l.4 19.1c0 .9.2 1.8.4 2.6.2.5.4 1 .8 1.4 3.8 2.8 8 5 12.8 5.4h.9-.7 1.6c1 0 2.6 0 4-.5 1.5-.4 1.7-.2 2 .5v.2l.2.4c.4.8.2 1.2-.6 1.6-2 .8-4.2.9-6.4.6-3.4-.5-6.5-1.7-9.5-3.4-3-1.8-6-3.4-9-5-.8-.6-1.1-1-.7-2a25 25 0 0 0 1.5-9.3c.1-4.6.2-9.3 0-13.8-.2-3-.9-6-1.5-8.9-.5-2.3-.6-2.3 1.8-2.3h15.8c1.3 0 1.4.2 1.1 1.4l-.5 1.8c-.3 1.2-.9 1.4-2 .6-.4-.3-1-.8-1.5-1-1-.3-1.9-.6-2.8-.7h-6.1c-.7 0-1.1.1-1.3.8l-.3 1.5-.3 5c0 .5 0 .9.8.9Zm23.7-4c1.6 3.8 3.7 7.4 6.1 10.9l.8.6c.4-7 1-13.7-2.2-20.3h5.8l-.3 1.6c-.2 2-.5 3.8-.5 5.7 0 6 0 12 .2 18 .1 3 .5 6.1 1.8 9 .2.6 0 .8-.6.9a50 50 0 0 1-3.8 0c-.2 0-.5-.4-.6-.7l-.1-5.4c-.2-3.8-1.5-7.1-3.7-10.2-1.6-2.3-3-4.8-4.5-7.2-.4-.6-.6-1.4-.8-2h-.3l-.1.8c0 7.6 0 15.2.2 22.8.1 2.3.4 4.6 1 6.9.1 1-.2 1-1 1l-2.4.3c-.4 0-.4-.4-.5-.7V79.5c0-3.1-.6-6.2-1.4-9.2 0-.2.1-.8.3-.9a136.3 136.3 0 0 1 6.2-2.3c.6 0 .9.2.7.8l-.2.8a5.5 5.5 0 0 0-.1 5Zm-74.4 74.8.3-.2.6-.7.6-1.5.6-1.5.4-.7.4-.8a70.3 70.3 0 0 0 2.5-4.7l.6-1.4.8-1.4 1-2.4c0-.3 0-.4-.2-.5l-.6-.1-.7-.2c-.2 0-.3-.2-.3-.3l.3-.1h.4l.4.2H157a13.2 13.2 0 0 1 2.2 0l.2.1h.3l.3.1.2.1c.2.2 0 .2-.4.2h-.9c-.2 0-.4 0-.6.3-.4.3-.7.8-1 1.3l-.3.8a3.4 3.4 0 0 1-.5 1.4 11.2 11.2 0 0 0-1.3 2.9l-.4 1-.4 1.1-1.2 2.6c-.7 1.4-.9 2.2-.6 2.2l.8-.1c.4-.2.8-.2 1.3-.2l.6.1c.6.1 1.2.3 2 .7.8.3 1.4.6 2 .7l1.8 1 2.1.6a8 8 0 0 0 2.4-.1c.9-.2 1.4-.6 1.5-1.2l-.1-.5c-.1 0-.2-.2-.1-.5 0-.1 0-.1.2 0 .3 0 .5.3.5.7v1l-.6 1-.4.4c-.4.4-.8.8-1.3 1l-1.7.4c-1 .2-1.6.2-2 .1-.4 0-.8-.2-1.3-.5a16 16 0 0 0-3-1.4 85.3 85.3 0 0 0-4.8-1.4c-1 0-1.8 0-2.6.3-.2 0-.6 0-1.4.3-.7.1-1 0-.8-.2Zm37-5.4-2.8-2.7c-.2-.3-.4-.8-.5-1.6v-2.5c0-.9.1-1.4.3-1.6l.5-.7 1-.6.8-.3.8-.3 1.3-.5 1.3-.5c.4-.1.7-.2 1-.1l.7.4a12.2 12.2 0 0 1 2.5 2.2c0 .2-.2.6-.6 1l-.5.3-.5.2h-1l-.4-.2-.3-.3-.3-.3v-.5s0-.2.2-.3c.2-.2.3-.2.5-.2s.2 0 0 .1c0 .2-.2.3-.3.4l.1.5.5.3h.9l.3-.1.2-.2.3-.3.2-.4-.4-.5-.5-.4-.6-.3-1.1-.4h-.8c-.3.2-.6.2-1 .3a3.2 3.2 0 0 0-1.4.8c-.2.2-.5.6-.7 1.2-.3.6-.4 1.1-.4 1.4v1.4l.6 1.7c.1.4.4.9.8 1.5l1 1.4c.3.4 1 .7 1.8 1.2l2 .9 1.2.2h1.3c.5 0 1-.2 1.4-.4l1.2-.6c.3-.2.4-.5.4-1v-1c-.1-.5-.3-.9-.7-1.2-.4-.3-.4-.4 0-.5.2 0 .3 0 .4.2 0 .2.3.4.5.6l.8 1.1c0 .2.2.4.4.6l.3.7c.3.6 0 1-.7 1-.4 0-.8.3-1.2.8-.4.4-1.1.8-2.2 1a3 3 0 0 1-1.2.2 7.2 7.2 0 0 1-2.4-.4l-2-.7-3-2Zm27.9-6.6a5 5 0 0 1-1.3-6.8l1.9-3c.5-.7.3-1.8-.5-2.3l-.4-.2c-2.6-1.6-5.2-3.2-8-4.4-.7-.3-1.5-.3-2.2 0l-6.1 2.8c-.4.2-.6.7-.4 1l2 3.2c.1.3.5.5.8.4l6-1c.3 0 .4-.3.3-.5-.5-.8-1-1.4-1.2-2-.3-.4-.9-.5-1.4-.4l-1.8.4c-.1 0-.2.2 0 .3l.6.6c.1.1 0 .3-.1.2l-1.4-.6a.8.8 0 0 1 .1-1.5l2.2-.5a3 3 0 0 1 3.2 1.2l1.2 1.9c.5.8 0 2-1 2.1l-6.6 1.1a2 2 0 0 1-2-1l-1.8-2.8a2.4 2.4 0 0 1 1-3.4l5.7-2.6c1.1-.5 2.4-.5 3.5 0 4.1 1.8 8.3 4 8.3 4 2 1 2.5 3.6 1.2 5.4l-1.6 2.3c-1.2 1.6-.8 3.9 1 5 1.7 1 3.4 2.2 5 3.4l2.6 1.7c.1.1.2.4 0 .6l-1 1.1c-.1.2-.3.2-.5 0-2.4-1.9-4.8-3.9-7.3-5.7Zm7.1-2.3c-2-.5-3-2.8-1.9-4.7a329 329 0 0 0 7.3-13.4 2 2 0 0 1 2.3-1.1l2.6.7c.8.2 1.3 1 1.1 1.9l-1.9 10.7a2 2 0 0 1-1.4 1.6l-3.7 1a1 1 0 0 1-1.1-1.1l.1-.7c.4-1.3.6-2.6.8-3.9 0-.3.3-.5.6-.4a291 291 0 0 0 1.7.8 49.8 49.8 0 0 0-1.2.5l-.7 3.3.2.2 2.8-.8c.4-.1.7-.5.8-.9l1.8-10.2c0-.4-.2-.8-.5-.8l-2.4-.5c-.3 0-.5 0-.6.3a202.7 202.7 0 0 0-7.4 13.9c-.4.7 0 1.6.8 1.8a82.5 82.5 0 0 1 8.9 3c.3 0 .6 0 .7-.4l5.2-22.4c.1-.5-.3-1-.8-1h-6.1a4 4 0 0 0-3.7 2c-1.7 3-5 4.6-8.3 4.3a63 63 0 0 1-14.3-3.3.4.4 0 0 1-.2-.5l.5-1c0-.2.3-.3.5-.2a67 67 0 0 0 11.8 3.4c3.4.7 7-.8 9-3.8 1-1.4 2.6-2.3 4.4-2.3a156.7 156.7 0 0 0 6.6 0 2 2 0 0 1 2 2.4c-2.2 9.1-4.1 18.8-5 23.2a2 2 0 0 1-2.6 1.5c-4.4-1.8-8.7-3-8.7-3ZM109.8 115a8.3 8.3 0 0 1 2.5-3.5c1-.8 2.3-1.3 3.8-1.5 0 0 3-.3 6-3l.5-.5c2.1-2.1 3.7-4.6 4.3-7.7 1-5.2 0-9-4.4-12.2-.6-.4-1-.3-1.3.4-1 2.4-2 4.8-2.8 7.2-.6 2-.9 4.2-1.3 6.4-1.2-1-2.2-2-2.8-3.4 0-.3.1-.8.3-1.1l4.8-9c.8-1.6.6-1.8-.8-2.8-1.4-1-2.9-2-4-3.3-3-3.3-1.8-7.7 2.2-9.1 1.5-.6 3-.8 4.6-.9l6.7.3 1 .1-1.5 2.2-4.8 8.6-.3.5c-.5 1.6-.5 1.6 1 2.5l3 2c2.7 1.8 3.8 4.5 4.2 7.6a15.7 15.7 0 0 1-10.3 16c-3 .8-5.7 2-8 4.1a3 3 0 0 1-2.1.8c-.4 0-.6-.4-.5-.7Zm1782.4 435.2-.6 7.4-2.1 28.6c-.7 9.3-1.3 18.7-.8 28 .4 7.8 1.8 15.5 3.2 23.1l-.2 36.2c-.7 1.6-1.5 3.2-2 4.8-1.7 4.3-1.2 8.8-.8 13.3.8 9.3 1.9 18.7 2.2 28 .4 8.7-.7 17.2-1.5 25.9-.7 8.1-1 16.5 1.4 24.4-.7 94.2-1.5 188.2-2.5 282l-38.2-.7c-12-.7-24-2.2-36-4l-12-2c-2-.2-3.8-.4-5.8-.1-2 .2-3.9.7-5.8 1.2a110 110 0 0 1-23.4 2.8c-15.8.4-31.6-1.7-47.4-3a334.8 334.8 0 0 0-48.5-.6c-8.3.4-16.6 1.2-24.8 2-170.1-3.4-354.6-7.7-514-6-10.7.3-33.5-.6-43.9 1.3-9.5 1.7-19.5 5-29.2 5.3l-4.1.1-2.5-.2-5-.7-2.3-.8c-1-.4-1.6 0-2.6.6-2.3 1.4-5.3 1-7.8.5-3.2-.5-6.3-1.2-9.5-1a27.4 27.4 0 0 0-10 2.6l-58.5.8c-135.4-.2-280.8 1.6-416.5 2l-7.3-.3c-13-.8-457.2-20-507.4-22.5l1.2-161.4 1.4-2.7c1.5-2.6 2.4-5.2 1.7-8.2a7 7 0 0 0-1.9-3.4 10 10 0 0 0 2.5-5.1c.7-4-.7-8-1.7-11.8-.9-3.7-1.4-7.5-1.7-11.3v-10.9l.2-1.6c.4-3.9 1.2-7.7 2.3-11.5 1.1-4 2.9-7.7 3.7-11.7 1.8-8.2-1.3-16-3.3-23.9a84 84 0 0 1-2.4-15.4l.1-11.4c.6-7.8 2.3-15.5 3.7-23.3 1.4-8 2.1-16.2 1.8-24.5-.3-8-1.4-16-2.6-24l-2.2-15 1-147.2c.4-4 .5-8.1.5-12.2 0-5 0-9.9-.2-14.9l1.2-165.4c.3-7.3.7-14.6 1.2-21.8.8-11.1 2-22.3 2.8-33.4.8-11.2 1.2-22.5.4-33.7-.6-9.6-2.7-19-3.5-28.6l.1-23 34.4 18 2 1 35.2-23.6 6 9.6 121.6-12.3 35-33.2 3.8-57.2-5.3-14 47.9-30.4c115.6 4.7 265.6 2.3 392.7 3.4 213.3-.3 429.5-2 643-5.6 104.3-.7 427 6 541 7.1.7 44.3 1.2 88.7 1.6 133l-.7 1.4c-1 1.9-2.3 3.6-3.1 5.5a9 9 0 0 0-.4 7c.5 1.3 1.4 2.6 2 4a15 15 0 0 1 1.3 3.8c1 5.6-.6 11.5-1.6 17a55.4 55.4 0 0 0 0 18.8c.8 6.3 2 12.5 2.1 18.9.1 6.2-.8 12.3-1.8 18.4-1 6.3-2.2 12.6-2.6 19-.5 6.2 0 12.4 1 18.6 1.2 8.1 3.2 16 4.8 24 .2 75.4.2 150.7 0 226Z" fill="#FDFDFD"/><path d="m143.9 138.4 1.3-.5c.3 0 .7-.3 1.2-.7l1-.7a8.7 8.7 0 0 0 1.8-1.6l.4-.5c.2 0 .3-.2.4-.4 0 0 0-.2-.2-.3l-.3-.3-.3-.2-.4-.2a4 4 0 0 0-.7 0 5 5 0 0 1-.7 0H146.3c-.5 0-.8.3-1 .5l-.9 1-.5.3-.4.5a159.6 159.6 0 0 1-2.5 3.7c.2 0 .7 0 1.5-.3l1.4-.3ZM121.7 73.1c-.8-.6-2-.5-3.1.3-1.6 1.2-2 3-1.8 5 .3 2.1 1.7 3.3 3.5 4.3l.6-.9 1.9-5.4c.3-1.2-.2-2.7-1-3.3ZM174.3 134.8l-.5-1.4c-.3-.7-.4-1.2-.4-1.5l-.5.8-.3 1-.4.8-.3.7-.1.2-.2.2-.2.6-.2.5c-.1.2 0 .3.4.2h1l1.5.3 1.1.6c0-.6-.2-1-.5-1.6-.2-.4-.4-1-.4-1.4Z" fill="#FDFDFD"/></svg>
