<svg id="Calque_2" xmlns="http://www.w3.org/2000/svg" viewBox="0 0 2275.4 1552.9"><defs><style>.cls-1{fill:#fff}</style></defs><g id="Calque_1-2" data-name="Calque_1"><path class="cls-1" d="M1915 261v472c0 4 2 10 9 11 11 0 29-5 42-4 14 0 21-3 17-19-9-41-15-82-16-123-4-136-3-273-4-409-1-5 1-10 2-16h4c5 12 9 25 15 37 27 43 52 87 81 128 39 56 63 115 66 183l3 98c0 5 6 13 10 13 23 1 46 0 69-2 9 0 14-5 10-15-24-52-31-107-32-162-4-107-4-215-4-322 0-34 5-68 8-102 1-10 4-19 6-29h-104c57 117 48 239 39 364l-13-11c-43-62-81-127-110-197a99 99 0 0 1 2-89c2-4 2-9 3-13 4-12-2-16-12-15-7 1-13 1-19 4-31 12-62 24-92 38-3 2-7 11-5 16 13 54 25 108 25 164Z"/><path class="cls-1" d="M1529 245c5 82 4 165 2 247-1 57-5 114-27 167-8 18-3 27 12 35 54 30 109 60 162 91s109 53 170 61c40 5 78 4 115-11 15-6 18-14 12-27a74 74 0 0 1-4-9v-2c-5-13-9-16-35-9-27 7-54 9-74 9h-8l-21-1a112 112 0 0 0 15 1h-1a88 88 0 0 1-17-1c-87-8-161-46-229-97-7-6-11-16-14-24-4-16-8-32-8-47l-6-344c0-12 4-17 18-17l85 1c31 0 60 5 83 27 2 2 5 3 9 4 9-28 26-52 23-85l-17 4c-16 4-32 10-48 11l-139 1c-12 0-15-7-14-17l5-89c1-9 5-18 7-27 2-12 10-15 22-15 36 0 73-1 110 1 17 0 34 6 50 12 10 4 19 12 28 19 19 13 29 9 34-12l10-32c6-22 3-25-19-25h-284c-43 0-41 0-32 41 11 53 22 106 25 159ZM196 819l5-2c88-33 190-144 174-282-6-57-27-105-76-136l-54-36c-25-16-25-17-16-46l4-8c29-51 57-103 87-154l25-40-16-2c-40-2-80-6-120-5-28 1-57 5-83 15-73 27-92 105-40 164 21 23 47 41 72 59 25 19 28 21 14 50-28 55-58 108-86 162-3 5-7 15-4 20 10 24 28 42 49 61 8-41 13-79 24-115 14-44 33-87 50-130 4-12 12-13 22-6 81 58 99 125 80 219-11 55-39 99-76 136l-1 1-10 9c-54 49-107 55-107 55-27 3-50 11-68 26-19 15-34 36-44 63-3 6 2 12 8 12 14 0 26-4 37-13 42-37 92-60 144-76l6-1Zm3-516-10 16c-33-17-58-39-63-77-5-36 2-68 32-90 19-15 41-16 56-5 16 11 25 38 19 59l-34 97ZM414 270c20 79 23 161 22 242-1 70-2 140 0 211 2 49 30 81 78 95 36 9 72 5 107-4 63-15 93-59 85-124-4-33-10-66-11-100-2-95-2-191-2-286 0-15 4-30 6-44l14-71h-92c1 6 0 9 2 12 20 59 28 121 31 183 4 58 6 116 7 175l-2 173c0 22-13 36-32 44-16 7-33 12-49 14-35 5-68-4-86-36-11-18-18-42-19-63l-3-315c-1-48 3-95 16-142l11-46-80 26c-13 4-19 11-12 25 4 10 6 21 9 31ZM1122 551c5 0 15-6 16-11 4-15 5-32 7-48s9-25 28-25c2 78 6 90-12 153-1 2-6 17 4 18 11 2 28-1 49 2 18 2 20-3 19-14v-6l-7-45c-12-63-10-58-7-122 1-34 32-64 66-67 13-1 19 4 22 17l2 9c-1-6-2-13 3 8 19 70 41 129 16 202-2 7 2 19 7 23 20 17 47 18 71 32l2 1c24 14 32 7 33-1a63 63 0 0 0-4-22l-8-21v-1 1-1l-1-1c-7-17-12-34-17-51-31-107-35-78-65-184-6-24-5-46 11-67 37-46 68-96 80-155 5-25 14-48 22-74h-98c5 17 10 33 13 49 8 42-3 81-24 117-26 43-57 82-106 102-22 9-26 7-29-16-8-68-1-136 9-204l8-48h-87l2 14c24 85 29 173 27 261-1 28-9 55-38 69-18 10-24 27-27 45-2 16-1 32 0 48 1 5 8 13 13 13Z"/><path class="cls-1" d="M749 924c0 26 10 52 37 84l10 13a162 162 0 0 0 67 49c14 5 40 10 55 15 0 0 84 14 135 16 50 2 107 7 144 5l11-3c28-6 65-18 90-22 16-3 33-18 49-21l38-11 10-4 32-21c18-15 37-30 52-47 6-7 12-15 16-23l9-18c2-4 5-8 5-12l3-21a207 207 0 0 0-15-83c-4-11-12-22-20-33-13-16-29-30-49-43l-25-15c-8-5-17-11-28-14l-22-7c-15-5-28-10-38-17l-6-2c-39-3-78-3-117-3h-74c-22 1-42 5-62 10-14 3-26 10-37 16l-2 2c1 3-2 5-7 6l-5 2c-27 9-53 19-76 31-9 5-18 10-23 17l-15 18-17 27c-7 11-10 23-14 35-3 13-5 27-4 40 2 17 7 34 14 50 6 14 15 27 26 39 6 5 12 10 20 14a589 589 0 0 0 104 26c31 5 61 3 91 10 8 1 17 3 26 2l53-5 25-3c24-5 45-12 63-22 12-7 27-7 39-14 14-8 23-17 30-27 6-9 11-17 18-25s11-17 11-26c1-8 0-17-2-26-1-10-5-21-11-32l-12-20-2-5h1l3 3 1-1c-7-9-20-16-28-25 2-1 2-1-1-3h-2l-26-7c-18-5-36-8-55-9l-81-4h-5l-27 6c-4 1-7 2-9 4l-5 2c-4 1-9 1-13 3l-37 11c-8 3-16 4-22 8l-9 3-9 2-8 5a4470 4470 0 0 0-43 31l-7 15-3 12c0 2 0 19 6 28 7 10 5 19 22 26l82 32c27 10 75 19 111 10h1c12-3 23-7 33-12 15-8 28-15 40-24 7-4 12-9 15-14l7-13 4-8c0-7 1-14-1-21l-11-24c-2-4-5-8-9-11-6-6-17-10-28-13-8-2-16-5-25-3l-9 1c-10 1-20 1-29 3-12 1-23 5-32 9l-27 13-6 4c-7 7-12 15-17 23-1 3-4 7-3 10 0 6 3 13 5 19l2 2c7 2 14 4 22 4a522 522 0 0 0 62-8l13-4c7-3 13-5 16-10l12-15c3-3 2-5 0-8-4-5-17-8-26-6l-6 3v8l3 2 6 3c5 2 4 6-2 8-5 2-10 2-16 1-7-1-14-1-18-5s-10-7-10-12l4-9a84 84 0 0 1 39-10h24c3 1 5 2 6 4 1 4 3 9 3 14 1 4 1 8-1 11l-24 33c-7 9-19 15-36 18-8 1-16 2-25 0l-15-2-35-6c-3-1-5-2-6-4l-7-9-12-15c-4-9-4-18-3-27l1-3 13-15c10-10 23-18 39-26a353 353 0 0 1 63-22l36 3 51 8c7 1 15 2 20 6l13 10c14 15 26 31 34 48 3 7 7 14 7 22-1 7-2 14-7 20s-11 12-18 17l-52 37-19 11-4 1-11 2-61 12c-14 2-29 3-44 1-13-2-26-4-37-9l-54-22-54-22c-27-10-49-24-66-40-7-6-11-13-10-21 2-8 2-16 2-25l2-38 2-4 14-14 26-27c10-9 22-17 38-24 21-8 44-16 69-21l69-13c6-1 13-3 20-3 37-1 74 1 110 3l17 2 26 10 75 34c32 15 56 34 75 55 11 14 15 29 10 43a505 505 0 0 1-21 55l-11 14c-12 15-26 29-41 42-7 6-14 12-23 17-23 11-51 31-79 37l-56 11-41 10a664 664 0 0 1-151 5c-26-2-50-19-74-25l-80-25c-3-1-6-2-7-4l-7-8c-18-16-34-33-49-50-8-10-14-20-14-31l-4-29-5-36c-2-13 0-26 8-38 5-7 8-14 9-21l2-7c1-4 6-20 18-50 14-34 26-73 25-84l-9-38h-1l-1-6a272 272 0 0 1-11-78c-4-136 4-211 3-346l2-16h5c4 12 8 25 15 37 26 43 51 87 80 128 39 55 63 115 66 183l3 98c0 5 6 13 10 13 23 1 46-1 69-2 10 0 14-5 10-15-24-52-30-107-32-162-4-108-4-215-4-322 0-34 5-68 8-102 1-10 4-19 6-29H975c19 60 42 117 42 178 1 61-2 121-4 182l-6 2-11-13c-31-53-64-105-93-158-21-41-38-84-11-130l1-6c4-13-2-17-13-16l-19 4-90 37c-10 4-8 9-7 18 9 52 23 104 24 157 3 174-9 237-9 411l-1 5c-5 62-13 104-15 119l-11 41c-5 26-2 66-3 93ZM700 1299a162 162 0 0 1 38-25l18-15a445 445 0 0 1 22-25c3-3-3-7-16-12l-12-5-10-5a516 516 0 0 0-93-3 459 459 0 0 1-35-8l-15-1-11-4-8-6c-3-3-4-6-3-7l4-3a109 109 0 0 0 10-8l5-4c5-4 9-6 14-7 4 0 7-1 9-3l-5 1c-4 0-9 1-14 4a106 106 0 0 0-34 26c-2 1-3 5-5 10s-1 7 1 7l12-1c4 0 8 1 11 5 4 3 6 6 7 8l2 4 1 6c0 4-2 9-6 14l-11 16-20 24-55 90a215 215 0 0 1-21 26l-11 12a413 413 0 0 1-46 53 505 505 0 0 0-23 28 706 706 0 0 0-43 18l-25 10c-11 5-18 10-23 16-2 4 1 4 9 1a344 344 0 0 1 45-12l29-10c10-6 19-9 25-12a516 516 0 0 1 87-16c17-1 26-3 27-5 1-3-5-5-19-6s-23-3-26-4c-6-2-6-8-2-17 2-8 5-14 7-18l12-17 6-11 7-10 5-9a312 312 0 0 1 15-26l11-18a124 124 0 0 0 23-5l5-1h5l4-1 9-2a349 349 0 0 1 29-5c11-1 22-4 35-8a118 118 0 0 0 43-24Zm-44-2-21 13-23 8a850 850 0 0 1-52 11l6-4 7-6c4-11 10-20 15-30a2888 2888 0 0 0 24-35l9-7c7-6 12-11 15-16 4-5 10-8 18-9l4-1 5-1a302 302 0 0 1 44 4l6 4 5 5c3 3 4 5 3 7l-7 7-7 8-8 8-7 8-17 14-19 12Z"/><path class="cls-1" d="M1027 1468c-3-2-5-1-5 1 0 5 0 8 2 9s3 4 3 9c-3 11-12 19-27 21a118 118 0 0 1-81-10 2500 2500 0 0 0-68-30c-14-6-26-10-36-11l-12-2c-9-1-16 0-22 2-7 3-11 4-14 3-6 0-2-14 10-40a8115 8115 0 0 0 28-65l8-19 7-19 8-19 8-14 6-13 3-12c0-3 2-8 6-14 4-10 10-18 17-24 4-4 8-6 12-6l16 1c7 1 9 0 7-3l-4-2-6-1a24 24 0 0 1-9-3l-19-1a212 212 0 0 0-26 1h-6a481 481 0 0 0-27 0l-8-2-7-2c-1 0-3 0-4 2s0 4 4 6l12 3c7 0 11 1 12 3 2 1 2 3 2 7-2 13-8 27-17 43a400 400 0 0 0-32 65 2108 2108 0 0 1-15 29 1607 1607 0 0 1-31 56c-1 5-4 9-6 13-5 10-9 19-11 27s-5 17-10 26c-4 6-8 10-11 12l-6 4c-3 5 2 6 15 3l24-5a121 121 0 0 1 71 0l21 6a1639 1639 0 0 1 80 31l16 9 24 9c6 2 18 1 34-3l30-7c9-4 17-10 24-18 1-2 3-5 7-8 4-4 7-10 10-17 2-6 2-12 2-18-1-7-4-11-9-13Z"/><path class="cls-1" d="m1326 1430-12 3c-6 0-14-3-25-9l-20-13c-6-4-10-10-14-18l-8-21-10-27a998 998 0 0 0-36-92 4592 4592 0 0 1-26-69l3-4c2-2 5-3 8-3h10l3-1-1-1-14-2a303 303 0 0 0-32-1h-13c-11 0-20-2-29-4s-17-3-26-3c-3 0-4 0-3 1 2 3 5 4 10 3 4 0 8 1 10 3a281 281 0 0 1 7 15c0 6-4 17-11 34a1629 1629 0 0 1-25 57c-4 10-8 16-12 16a1772 1772 0 0 1-56 11c-4 0-6-2-5-7l3-7-1-1c-6 5-8 9-9 11-1 5 1 9 5 11 4 3 8 5 13 6 7 1 13 2 17 1l18-2-19 31-26 39c-11 13-22 25-34 35a64 64 0 0 1-40 15l-16-1c-7 0-10-3-8-9 2-10 10-15 23-15l7 1 8 2-4-8c-2-3-5-5-8-5-7 0-15 2-22 7-8 4-13 10-15 17-2 10 2 18 14 23 13 6 25 9 36 9h14c8 0 19-4 30-12a134 134 0 0 0 45-39 491 491 0 0 0 39-57c5-10 11-21 19-32 3-3 6-5 11-6l17-2h17l20 3c8 2 14 4 17 7 8 5 12 9 12 11l6 15a423 423 0 0 1 10 37l6 18c3 7 5 14 5 21 0 3-2 4-6 5l-20 5c-7 2-11 5-13 10 0 2 3 2 8 0a2968 2968 0 0 0 14-4l5-2 28-4 32 1c14 1 28 3 41 6l39 3c4 1 6 0 6-5l-1-8c-6-1-11 0-16 1Zm-173-133-26-5h-18c-7 0-9-1-8-5a136 136 0 0 1 8-18l3-4 3-5 5-11c1-6 4-11 6-15l7-18c3-9 6-13 8-14 0 5 2 14 7 26l8 25c1 9 4 18 9 26 4 9 7 18 9 28l-21-10Z"/><path class="cls-1" d="m1563 1392-6-10c-3-7-7-13-14-20l-9-11c-2-3-4-4-7-3-7 0-7 3 0 8 6 5 10 12 11 21l1 20c1 7-2 13-8 17-5 4-12 7-20 11-7 3-16 5-25 5l-23 1c-6 0-13-1-21-4-10-3-22-8-38-16-15-8-25-15-31-21a169 169 0 0 1-33-53l-9-30c-3-12-4-20-2-25 0-5 3-13 7-24 5-11 9-18 13-22l11-8c4-3 9-4 15-6a848 848 0 0 1 31-6c8 1 15 3 21 7l10 6 9 7 6 9a426 426 0 0 1-7 12l-4 3c-1 2-3 2-5 2a1637 1637 0 0 1-17 0c-4-1-7-3-8-5-3-4-3-7-3-8l6-7c3-2 2-4-1-4s-5 2-9 4l-5 6c-1 3 0 6 3 10l4 5 6 4c3 3 5 4 8 4h16l10-3 8-4c8-9 12-15 12-19s-11-14-32-31a227 227 0 0 0-27-16c-4-1-9-1-17 2a282 282 0 0 0-47 18l-14 4-15 6c-9 3-14 7-17 12l-9 11c-3 4-5 14-5 30v44c2 14 5 24 10 30l48 47c28 20 47 32 56 36a317 317 0 0 0 78 19c7 1 14 1 22-1 19-6 32-12 39-20s14-12 21-13c14-2 18-8 13-20l-7-11Z"/><path class="cls-1" d="M1911 1424a155 155 0 0 0-32-26c-6 0-5 3 1 8l15 17c5 6 6 12 4 18-3 7-7 10-14 10l-21-2-24-6-18-5a303 303 0 0 0-36-6c-3 1-9-1-18-4a125 125 0 0 0-34-7h-8c-8 0-14 2-18 7s-10 7-19 7l-5-1-6-16-7-14c-1-3-4-6-8-10-5-4-8-8-12-15l-19-35c-1-2 10-6 31-13 21-6 34-10 39-10 12 0 19 4 23 12s10 13 19 14l1-1c-4-6-10-12-17-19a411 411 0 0 0-34-30c-5-5-11-8-20-8h-5c-13 0-23 4-28 11-5 8-15 12-29 12-1-7-8-20-20-38a165 165 0 0 1-25-49l8-1 11 1h10l7-2 10-1 41 1c13 0 20-3 22-9l4-12c1-5 4-8 7-11 3-1 4-4 1-7-2-2-4-2-8-2-2 0-3 1-2 4 0 2-1 4-4 5-4 2-10 4-17 5l-23 1a427 427 0 0 0-68 6l-25 1c-19 2-28 2-29 1s-5-2-11-2c-7 0-8 1-5 3 3 3 7 4 10 4s7 2 12 6a1317 1317 0 0 1 33 58l8 15a635 635 0 0 1 6 17l10 17 11 19a1807 1807 0 0 1 42 97c1 5 1 10-2 15-3 4-8 7-15 7h-17c-2 0-2 4 1 10s7 8 12 6c4-2 7-4 10-4l13-3 10-4 11-4 25-4a181 181 0 0 1 82 4l48 11a510 510 0 0 0 102 14c6 0 8-4 8-12l-3-18c-2-7-1-12 2-17 2-4 1-10-4-16ZM323 1268l-12-256-1-12h-11l-106-6h-6l-21 150a333 333 0 0 1 79 41l19 12 4-141-12 4-41 10 27 11-2 72a402 402 0 0 0-52-23l15-116 83 10 11 229c-25-12-52-20-78-28l-85-23 16-241c47-9 94-20 139-34 49-15 97-33 142-56 61 35 141 46 211 44l-8-43c-33 4-67 4-101 1-32-3-64-9-93-23l-11-4c-46 25-96 42-146 58-52 15-105 27-157 35l-20 284c51 11 103 24 152 41 23 7 45 18 66 28l-1-24Z"/><path class="cls-1" d="M414 1354v-6a1677 1677 0 0 0-10-316 521 521 0 0 1 154-52 200 200 0 0 1 37 77l-27 25c-27 21-57 40-88 53v-67a513 513 0 0 1 47-22l2 28 24-57a745 745 0 0 0-106 30v136a445 445 0 0 0 170-121l-2-6-38-100-6-15-16 7c-60 27-124 45-187 65 8 57 12 116 16 173 3 45 7 109 8 155l-134 53 21 35 129-72 6-3ZM1805 1230l106-146 7-11-11-6-112-62c-38-20-76-39-118-53l-4-1-4 2-160 72-12 5 65 108 4 7 8-2 155-25 18-3-63-97-119 29 74 31-15-19 45-4 37 43-128 21-48-79 144-64c57 23 110 55 162 87l34 21-101 154c75 43 143 99 210 153l27-31-51-36c-49-33-97-67-150-94Z"/><path class="cls-1" d="m2155 813-98-1-4 5-11 16-68 102c-53-2-106-11-158-24-57-13-113-31-167-52l-17 37a1094 1094 0 0 0 353 74h7l3-6 74-130a2217 2217 0 0 0 172 3l-100 431a1331 1331 0 0 0-196-64 2342 2342 0 0 1 148-281c21 2 42 7 62 12l-37 207-66 20 1-5c5-21 10-42 13-64l28-7-47-15c-4 27-8 54-15 81l-12 40c39-10 79-20 117-33l1-6 40-224 2-10a610 610 0 0 0-103-26 1345 1345 0 0 1-80 160c-31 56-66 116-99 171 73 18 146 41 216 69l52 23 6-28 97-449 6-31c-39 2-80 6-120 5Z"/></g></svg>
