<svg width="1314" height="146" viewBox="0 0 1314 146" fill="none" xmlns="http://www.w3.org/2000/svg">
<path d="M1277.85 35.5899C1279.34 35.5899 1279.43 36.1999 1278.12 37.4299C1276.81 38.6599 1275.67 39.9799 1274.71 41.4199C1274.17 42.2599 1274.08 43.8999 1274.44 46.3499C1274.62 47.4899 1275.6 48.3799 1277.4 49.0399C1278.18 49.5199 1279.13 49.6799 1280.27 49.5299C1281.4 49.3799 1282.63 49.2199 1283.94 49.0399C1285.07 49.0399 1285.9 48.6699 1286.4 47.9199C1286.91 47.1699 1287.55 46.5599 1288.33 46.0799C1288.99 45.7799 1289.9 44.7399 1291.06 42.9399C1292.22 41.1499 1292.96 40.0099 1293.26 39.5299C1293.26 38.8699 1292.93 37.1399 1292.27 34.3299C1291.61 32.7199 1290.64 31.2199 1289.36 29.8499C1288.07 28.4799 1287.01 27.2799 1286.18 26.2699C1284.21 24.2999 1281.58 22.9199 1278.29 22.1499C1276.5 21.9699 1274.39 22.2799 1271.97 23.0899C1269.55 23.8999 1266.94 24.8099 1264.13 25.8199C1261.38 26.7799 1259.07 27.9399 1257.19 29.3099C1255.31 30.6799 1253.38 32.3599 1251.41 34.3299C1249.44 36.2999 1247.06 40.3499 1244.29 46.4699C1241.51 52.5899 1239.73 56.8799 1238.96 59.3299C1237.94 61.8999 1237.53 66.2499 1237.71 72.3699C1237.89 78.4899 1238.22 83.1999 1238.7 86.4799C1239.06 89.8899 1240.04 93.9599 1241.66 98.7099C1243.27 103.46 1244.83 107.06 1246.32 109.51C1247.75 112.08 1250.76 114.87 1255.33 117.89C1259.9 120.91 1263.59 122.98 1266.4 124.12C1268.85 125.32 1271.09 125.78 1273.12 125.51C1275.15 125.24 1277.81 125.11 1281.1 125.11C1284.15 125.11 1287.18 124.47 1290.2 123.18C1293.22 121.9 1295.95 120.51 1298.4 119.01C1300.85 117.52 1302.52 115.26 1303.42 112.24C1304.32 109.22 1305.18 106.49 1306.02 104.04C1306.98 100.34 1306.65 97.3799 1305.03 95.1699C1303.42 92.9599 1303.83 91.6799 1306.28 91.3199C1307.41 91.1999 1308.1 91.7099 1308.34 92.8399C1308.58 93.9799 1309.18 95.5299 1310.13 97.4999C1311.32 100.61 1311.92 103.44 1311.92 106.01C1311.92 107.32 1312.11 108.8 1312.5 110.45C1312.89 112.09 1313.08 113.57 1313.08 114.89C1313.26 119.43 1310.81 121.94 1305.73 122.42C1303.28 122.78 1300.35 124.42 1296.95 127.35C1293.55 130.28 1288.41 132.73 1281.54 134.7C1278.91 135.36 1276.51 135.52 1274.33 135.19C1272.15 134.86 1270.4 134.7 1269.09 134.7C1267.78 134.7 1265.04 133.97 1260.89 132.5C1256.74 131.04 1253.26 129.56 1250.45 128.06C1247.7 126.63 1242.32 122.06 1234.32 114.35C1225.84 102.64 1221.12 96.0399 1220.16 94.5499C1218.67 92.0999 1218.08 87.5799 1218.41 80.9699C1218.74 74.3699 1219.56 67.0699 1220.87 59.0599C1222.18 50.2799 1223.6 44.8999 1225.13 42.9299C1226.65 40.9599 1228.16 38.7499 1229.66 36.2999C1231.15 33.8499 1233.86 31.5199 1237.77 29.3099C1241.68 27.0999 1243.97 25.9899 1244.63 25.9899C1245.41 25.9899 1247.56 25.0599 1251.08 23.2099C1254.6 21.3599 1258.37 19.3699 1262.37 17.2499C1266.37 15.1299 1270.2 13.3199 1273.84 11.8299C1277.48 10.3399 1279.96 9.91989 1281.28 10.5799C1282.41 11.2399 1283.97 12.7899 1285.94 15.2399C1287.91 17.6899 1289.37 19.6599 1290.33 21.1499C1296.72 30.9499 1299.63 36.9799 1299.07 39.2499C1298.5 41.5199 1295.92 45.0199 1291.32 49.7299C1290.66 50.5699 1289.27 51.4299 1287.15 52.3299C1285.03 53.2299 1283.64 53.7599 1282.98 53.9399C1281.55 54.2399 1279.36 54.1499 1276.44 53.6699C1275.42 53.6699 1274.53 53.0099 1273.75 51.6999C1273.39 51.3999 1272.81 50.6699 1272 49.4999C1271.19 48.3299 1270.79 47.3599 1270.79 46.5899C1270.31 44.4399 1270.4 42.5599 1271.06 40.9399C1271.18 40.2799 1272.1 39.2199 1273.84 37.7599C1275.57 36.2999 1276.92 35.5599 1277.87 35.5599L1277.85 35.5899Z" fill="white"/>
<path d="M80.63 102.78C79.61 105.05 78.58 107.41 77.54 109.86C76.49 112.31 75.49 114.52 74.54 116.49C74.18 117.09 72.45 118.82 69.34 121.69C66.23 124.56 64.62 126.23 64.5 126.71C63.96 127.19 63.08 127.35 61.86 127.2C60.63 127.05 60.02 126.41 60.02 125.27C60.02 124.79 60.44 124.34 61.27 123.93C62.11 123.51 62.76 123.06 63.24 122.59C64.19 121.57 65 120.44 65.66 119.18C66.97 116.07 67.54 112.79 67.36 109.32C67.24 107.89 67.02 106.6 66.69 105.47C66.36 104.34 66.11 103.02 65.93 101.53C65.45 100.22 65.12 98.9 64.94 97.59C64.76 96.28 64.61 94.9 64.49 93.47C63.95 91.68 63.11 89.39 61.98 86.61C60.84 83.83 59.95 81.46 59.29 79.49C58.51 77.88 56.57 73.23 53.47 65.56C50.36 57.88 48.57 53.81 48.09 53.33C47.25 53.99 46.6 56.44 46.12 60.68C45.64 64.92 45.31 67.79 45.13 69.28C44.65 72.03 44.2 74.79 43.79 77.57C43.37 80.35 43.01 83.11 42.71 85.86C42.17 88.49 42.08 91.51 42.44 94.91C42.62 99.15 42.29 102.02 41.45 103.51C39.84 105.78 38.58 107.86 37.69 109.74C36.79 111.62 36.49 114.44 36.79 118.21C36.79 120.12 37.12 123 37.78 126.86C38.44 130.71 39 133.21 39.48 134.34C40.97 137.27 42.94 138.73 45.39 138.73C47.84 138.73 49.54 139.39 50.5 140.7C50.02 141.54 49.45 142.1 48.8 142.4C48.62 142.4 46.9 141.83 43.65 140.7C40.39 139.56 38.53 138.91 38.05 138.73C35.9 137.77 34.26 136.88 33.12 136.04C31.98 135.2 30.61 134.31 29 133.35C26.55 132.39 24.62 131.87 23.22 131.78C21.82 131.69 19.89 131.32 17.44 130.66C15.65 130.18 13.5 129.9 10.99 129.81C8.48 129.72 7.23 128.69 7.23 126.72C7.23 125.94 7.68 125.72 8.57 126.05C9.47 126.38 10.3 126.54 11.08 126.54C13.71 126.84 16.34 126.57 18.97 125.73C19.63 125.61 20.28 124.65 20.94 122.86C21.06 122.32 21.45 121.65 22.1 120.84C22.76 120.03 23.32 119.21 23.8 118.38C24.93 116.47 25.59 114.81 25.77 113.41C25.95 112.01 26.37 110.08 27.02 107.63C27.5 105.84 28.06 104.09 28.72 102.39C29.38 100.69 29.94 98.85 30.42 96.88C30.78 95.09 30.99 93.01 31.05 90.65C31.11 88.29 31.38 86.12 31.86 84.15C32.22 82.18 32.52 80.22 32.76 78.28C33 76.34 33.36 74.38 33.84 72.41C34.32 70.92 34.88 69.04 35.54 66.76C36.2 64.49 36.53 62.46 36.53 60.67C36.41 58.52 36.26 56.14 36.08 53.55C35.9 50.95 35.99 48.67 36.35 46.69C36.35 44.9 36.59 42.99 37.07 40.95C37.55 38.92 37.79 36.68 37.79 34.23C37.61 32.44 36.43 29.42 34.25 25.18C32.07 20.94 30.56 18.07 29.72 16.58C27.75 13.53 25.78 11.17 23.81 9.5C23.51 9.38 22.47 9.02 20.67 8.42C18.88 7.82 17.41 7.29 16.28 6.81C14.79 6.63 12.58 6.72 9.65 7.08C8.34 7.08 7.35 7.77 6.69 9.14C6.03 10.52 5.7 11.95 5.7 13.44C6.06 16.07 6.72 17.55 7.67 17.88C8.62 18.21 10.33 18.28 12.78 18.1H13.05C13.53 18.1 13.77 17.98 13.77 17.74C13.77 17.5 14.19 17.2 15.02 16.84C15.2 16.84 15.29 17.02 15.29 17.38C15.29 19.17 14.87 20.31 14.04 20.79L9.92 21.78H9.38C8.42 21.96 7.17 21.27 5.62 19.72C4.07 18.17 2.87 17.06 2.04 16.4C0.43 15.09 -0.23 13.44 0.0699997 11.47C0.91 10.04 1.53 9.07 1.95 8.56C2.37 8.05 2.58 7.65 2.58 7.35C3.24 6.69 6.37 5.3 11.99 3.18C17.6 1.06 21.31 0 23.1 0L32.15 0.99C32.99 1.29 33.73 1.77 34.39 2.42C36.48 5.35 38.51 8.13 40.48 10.75C42.45 13.38 44.66 16.07 47.11 18.81C48.06 20.12 49.08 21.44 50.16 22.75C51.24 24.06 52.25 25.44 53.21 26.87C53.51 27.71 53.91 28.57 54.42 29.47C54.93 30.37 55.42 31.05 55.9 31.53C56.38 32.49 56.83 33.38 57.24 34.22C57.66 35.06 58.11 35.8 58.58 36.46C59.06 37.24 59.51 38.04 59.92 38.88C60.34 39.72 60.79 40.37 61.26 40.85C62.75 42.28 63.74 43.84 64.22 45.51C64.52 47.78 64.95 49.89 65.52 51.83C66.09 53.77 66.64 55.73 67.18 57.7C67.48 59.49 68.12 61.25 69.11 62.99C70.1 64.72 71.07 66.16 72.02 67.29C72.5 68.25 73.44 69.83 74.84 72.04C76.24 74.25 77.6 75.27 78.92 75.09C79.04 74.14 79.85 72.51 81.34 70.21C82.83 67.91 83.91 65.86 84.57 64.07C84.87 63.11 85.14 62.14 85.38 61.16C85.62 60.17 85.98 59.2 86.46 58.25C86.46 58.07 86.88 57.04 87.71 55.16C88.55 53.28 88.96 52.25 88.96 52.07C89.44 50.82 90.12 49.25 91.02 47.37C91.92 45.49 92.6 43.71 93.08 42.04C93.56 40.61 93.96 38.9 94.29 36.93C94.62 34.96 95.2 33.02 96.04 31.11C96.88 29.32 97.94 27.96 99.22 27.03C100.5 26.1 102.04 25.07 103.83 23.94C104.49 23.46 105.19 23.03 105.94 22.64C106.69 22.25 107.45 21.73 108.23 21.07C109.07 20.53 109.77 20.03 110.34 19.55C110.91 19.07 111.76 18.6 112.89 18.12C114.38 17.64 116.15 16.91 118.18 15.92C120.21 14.93 122.3 14.35 124.45 14.17C126.72 13.99 128.87 14.56 130.9 15.87C132.93 17.18 134.13 19.07 134.48 21.52C134.48 21.88 133.73 23.01 132.24 24.92C131.58 25.58 131.34 26.19 131.52 26.76C131.7 27.33 131.28 27.88 130.27 28.42C129.61 28.24 129.52 27.73 130 26.9C130.18 26.72 130.39 26.51 130.63 26.27C130.87 26.03 131.17 25.76 131.53 25.46C131.71 24.98 131.8 24.42 131.8 23.76C131.8 22.74 130.74 21.62 128.62 20.4C126.5 19.18 125.17 18.56 124.63 18.56L124.18 18.83C122.39 19.01 120.67 19.79 119.03 21.16C117.39 22.54 116.33 23.79 115.85 24.92C113.88 28.03 113.07 31.79 113.43 36.21L113.61 38.63C113.61 41.26 113.94 44.44 114.6 48.17C115.26 51.9 115.91 55 116.57 57.44C117.41 60.91 117.9 64.03 118.05 66.8C118.2 69.58 118.45 72.82 118.81 76.52L119.08 77.77C119.08 79.26 119.36 80.53 119.93 81.58C120.5 82.63 121.02 83.66 121.5 84.67C122.34 86.58 122.71 87.75 122.62 88.16C122.53 88.58 122.63 89.83 122.93 91.92V94.16C123.11 96.61 123.44 99.06 123.92 101.51C124.4 103.96 124.91 106.32 125.44 108.59C125.44 109.73 125.63 110.79 126.02 111.77C126.41 112.76 126.84 113.73 127.32 114.68C127.86 116.47 128.27 118.35 128.57 120.33C128.57 120.99 128.81 121.49 129.29 121.85C130.6 123.1 131.44 123.82 131.8 124C132.28 124.84 132.64 125.49 132.88 125.97C133.12 126.45 133.72 126.93 134.67 127.4C135.33 127.94 136.88 128.33 139.33 128.56C141.78 128.8 143.57 128.83 144.71 128.65C145.19 129.01 145.43 129.34 145.43 129.64C145.43 129.94 145.28 130.46 144.98 131.21C144.68 131.96 144.35 132.33 143.99 132.33C143.33 132.33 142.56 132.17 141.66 131.84C140.76 131.51 139.99 131.35 139.33 131.35C138.55 131.35 137.33 131.68 135.66 132.34C135 132.7 134.32 132.79 133.6 132.61C132.88 132.43 132.2 132.34 131.54 132.34C129.57 132.52 127.15 133.06 124.28 133.95C121.41 134.85 119.5 135.62 118.54 136.28C117.11 137.06 115.73 137.7 114.42 138.21C113.11 138.72 111.88 139.36 110.75 140.14C108.78 141.15 106.85 142.23 104.97 143.37C103.09 144.5 101.82 145.22 101.16 145.52C100.2 145.88 99.52 145.4 99.1 144.09C98.68 142.78 98.89 142.12 99.73 142.12C101.04 142.12 102.03 142.06 102.69 141.94C103.94 141.4 105.02 140.61 105.92 139.57C106.82 138.52 107.53 137.58 108.07 136.75C108.85 135.14 109.49 134.12 110 133.7C110.51 133.28 111.09 131.79 111.75 129.22C111.87 127.73 112.18 126.37 112.69 125.14C113.2 123.92 113.51 122.32 113.63 120.35C113.63 119.87 113.44 119.19 113.05 118.29C112.66 117.39 112.38 116.62 112.2 115.96C111.54 114.17 111.3 113.32 111.48 113.41C111.66 113.5 111.75 112.8 111.75 111.3C111.75 110.52 111.47 109.48 110.9 108.16C110.33 106.85 109.96 105.68 109.78 104.67C108.94 103.06 108.38 100.79 108.08 97.86C107.54 95.59 107.15 92.9 106.92 89.8C106.68 86.69 106.56 83.83 106.56 81.2C106.26 78.27 105.95 75.55 105.62 73.05C105.29 70.54 104.95 67.88 104.59 65.07C104.11 62.62 103.43 60.13 102.53 57.59C101.63 55.05 101.19 52.74 101.19 50.64C100.53 50.64 100.14 50.79 100.03 51.09C99.37 51.75 98.3 53.79 96.8 57.23C95.31 60.67 93.83 64.38 92.36 68.39C90.9 72.39 89.6 76.23 88.46 79.9C87.32 83.57 86.76 85.89 86.76 86.84L86.04 88.81L81.38 101.53L80.66 102.78H80.63Z" fill="white"/>
<path d="M1174.4 84.0201L1119.32 116.09L499.98 97.7801L474.01 98.9101L206.33 109.48L173.18 41.9501C173.18 41.9501 330.04 46.2501 459.19 50.8501C582.85 55.3401 694.93 60.0401 696.11 60.6601C698.48 61.8401 1157.1 29.5601 1157.1 29.5601L1174.39 84.0301L1174.4 84.0201Z" fill="white"/>
</svg>
