<?xml version="1.0" encoding="UTF-8"?>
<svg id="Calque_2" xmlns="http://www.w3.org/2000/svg" viewBox="0 0 1015.29 194.86">
  <g id="Calque_2-2" data-name="Calque_2">
    <g>
      <path d="M471.76,62.71c-15.61,25.99-31.23,51.98-46.84,77.97-2.24,3.73,3.59,7.12,5.82,3.4,15.61-25.99,31.23-51.98,46.84-77.97,2.24-3.73-3.59-7.12-5.82-3.4Z"/>
      <path d="M535.08,22.05c-28.04,38.86-54.01,79.19-78.01,120.66-2.18,3.76,3.65,7.16,5.82,3.4,24.01-41.47,49.97-81.8,78.01-120.66,2.54-3.52-3.3-6.89-5.82-3.4Z"/>
      <path d="M573.08,4.87c2.55-3.52-3.3-6.89-5.82-3.4-26.78,36.94-51.87,75.08-75.32,114.22-6.87,11.47-13.59,23.02-20.19,34.65-2.14,3.78,3.68,7.18,5.82,3.4,22.71-40.06,47.05-79.2,73.12-117.16,7.33-10.67,14.79-21.24,22.39-31.71Z"/>
      <path d="M603.72,32.08c-35.64,41.1-69.07,84.08-100.38,128.56-2.5,3.55,3.34,6.93,5.82,3.4,30.99-44.01,64.06-86.53,99.33-127.19,2.83-3.26-1.92-8.05-4.77-4.77Z"/>
      <path d="M623.44,24.48c-30.71,44.82-61.42,89.65-92.13,134.47-2.46,3.59,3.38,6.96,5.82,3.4,30.71-44.82,61.42-89.65,92.13-134.47,2.46-3.59-3.38-6.96-5.82-3.4Z"/>
      <path d="M677.51,9.22c2.32-3.68-3.51-7.07-5.82-3.4-24.2,38.37-50.21,75.63-78.21,111.33-7.72,9.85-15.59,19.57-23.61,29.18-2.76,3.31,1.99,8.1,4.77,4.77,28.97-34.74,56.04-71.05,81.24-108.62,7.37-10.98,14.57-22.08,21.63-33.26Z"/>
      <path d="M693.34,51.92c2.55-3.52-3.3-6.89-5.82-3.4-30.97,42.8-65.45,83.06-103.59,119.65-3.14,3.01,1.63,7.77,4.77,4.77,29.8-28.58,57.39-59.41,82.8-91.95,7.46-9.55,14.74-19.24,21.84-29.06Z"/>
      <path d="M697.22,61.31c-25.74,40.32-54.38,78.76-86.19,114.5-2.88,3.23,1.88,8.02,4.77,4.77,32.19-36.16,61.21-75.07,87.25-115.87,2.34-3.67-3.49-7.05-5.82-3.4Z"/>
      <path d="M717.27,61.04c-21.16,33.66-43.81,66.38-68.04,97.9-2.64,3.44,3.21,6.8,5.82,3.4,24.23-31.53,46.88-64.24,68.04-97.9,2.32-3.68-3.52-7.07-5.82-3.4Z"/>
      <path d="M756.05,57.91c-25.8,34.4-53.96,67.03-84.53,97.29-3.09,3.06,1.68,7.82,4.77,4.77,30.99-30.67,59.44-63.78,85.59-98.65,2.6-3.47-3.25-6.84-5.82-3.4Z"/>
      <path d="M1008.99,52.98c-24.01,41.47-49.97,81.8-78.01,120.66-2.54,3.52,3.3,6.89,5.82,3.4,28.04-38.86,54.01-79.19,78.01-120.66,2.18-3.76-3.65-7.16-5.82-3.4Z"/>
      <path d="M991.82,42.28c2.14-3.78-3.68-7.18-5.82-3.4-22.71,40.06-47.04,79.2-73.12,117.16-7.33,10.67-14.79,21.24-22.39,31.71-2.55,3.52,3.3,6.89,5.82,3.4,26.78-36.94,51.87-75.08,75.32-114.22,6.87-11.47,13.59-23.02,20.19-34.65Z"/>
      <path d="M969.98,35.05c-30.99,44.01-64.06,86.53-99.33,127.19-2.83,3.26,1.92,8.05,4.77,4.77,35.64-41.1,69.07-84.08,100.38-128.56,2.5-3.55-3.34-6.93-5.82-3.4Z"/>
      <path d="M942.01,36.74c-30.71,44.82-61.42,89.65-92.13,134.47-2.46,3.59,3.38,6.96,5.82,3.4,30.71-44.82,61.42-89.65,92.13-134.47,2.46-3.59-3.38-6.96-5.82-3.4Z"/>
      <path d="M909.27,52.77c2.76-3.31-1.98-8.1-4.77-4.77-28.97,34.74-56.04,71.05-81.24,108.62-7.37,10.98-14.57,22.08-21.63,33.26-2.32,3.68,3.51,7.07,5.82,3.4,24.2-38.37,50.21-75.63,78.21-111.33,7.72-9.85,15.59-19.57,23.61-29.18Z"/>
      <path d="M895.21,30.94c3.14-3.01-1.63-7.77-4.77-4.77-29.8,28.58-57.39,59.41-82.8,91.95-7.46,9.55-14.74,19.24-21.84,29.06-2.55,3.52,3.3,6.89,5.82,3.4,30.97-42.8,65.45-83.06,103.59-119.65Z"/>
      <path d="M845.52,40.52c-32.19,36.16-61.21,75.07-87.25,115.87-2.34,3.67,3.49,7.05,5.82,3.4,25.74-40.32,54.38-78.76,86.19-114.5,2.88-3.23-1.88-8.02-4.77-4.77Z"/>
      <path d="M805.68,49.85c-24.23,31.53-46.88,64.24-68.04,97.9-2.32,3.68,3.52,7.07,5.82,3.4,21.16-33.66,43.81-66.38,68.04-97.9,2.64-3.44-3.21-6.8-5.82-3.4Z"/>
      <path d="M806.11,35.39c-33.34,33-63.96,68.63-92.1,106.15-2.6,3.47,3.25,6.84,5.82,3.4,27.79-37.06,58.12-72.2,91.05-104.79,3.09-3.06-1.68-7.82-4.77-4.77Z"/>
      <path d="M86.84,40.91c7.37-10.98,14.57-22.08,21.63-33.26,2.32-3.68-3.51-7.07-5.82-3.4-24.2,38.37-50.21,75.63-78.21,111.33-7.72,9.85-15.59,19.57-23.61,29.18-2.76,3.31,1.99,8.1,4.77,4.77,28.97-34.74,56.04-71.05,81.24-108.62Z"/>
      <path d="M114.14,45.78c2.55-3.52-3.3-6.89-5.82-3.4C77.35,85.18,42.87,125.45,4.73,162.03c-3.14,3.01,1.63,7.77,4.77,4.77,29.8-28.58,57.39-59.41,82.8-91.95,7.46-9.55,14.74-19.24,21.84-29.06Z"/>
      <path d="M118.02,55.18c-25.74,40.32-54.38,78.76-86.19,114.5-2.88,3.23,1.88,8.02,4.77,4.77,32.19-36.16,61.21-75.07,87.25-115.87,2.34-3.67-3.49-7.05-5.82-3.4Z"/>
      <path d="M138.07,54.91c-21.16,33.66-43.81,66.38-68.04,97.9-2.64,3.44,3.21,6.8,5.82,3.4,24.23-31.53,46.88-64.24,68.04-97.9,2.32-3.68-3.52-7.07-5.82-3.4Z"/>
      <path d="M176.85,51.77c-25.8,34.4-53.96,67.03-84.53,97.29-3.09,3.06,1.68,7.82,4.77,4.77,30.99-30.67,59.44-63.78,85.59-98.65,2.6-3.47-3.25-6.84-5.82-3.4Z"/>
      <path d="M438.13,81.28c-15.61,25.99-31.23,51.98-46.84,77.97-2.24,3.73,3.59,7.12,5.82,3.4,15.61-25.99,31.23-51.98,46.84-77.97,2.24-3.73-3.59-7.12-5.82-3.4Z"/>
      <path d="M437.06,46.85c-24.01,41.47-49.97,81.8-78.01,120.66-2.54,3.52,3.3,6.89,5.82,3.4,28.04-38.86,54.01-79.19,78.01-120.66,2.18-3.76-3.65-7.16-5.82-3.4Z"/>
      <path d="M421.53,42.12c2.14-3.78-3.68-7.18-5.82-3.4-22.71,40.06-47.05,79.2-73.12,117.16-7.33,10.67-14.79,21.24-22.39,31.71-2.55,3.52,3.3,6.89,5.82,3.4,26.78-36.94,51.87-75.08,75.32-114.22,6.87-11.47,13.59-23.02,20.19-34.65Z"/>
      <path d="M390.78,28.92c-30.99,44.01-64.06,86.53-99.33,127.2-2.83,3.26,1.92,8.05,4.77,4.77,35.64-41.1,69.07-84.08,100.38-128.56,2.5-3.55-3.34-6.93-5.82-3.4Z"/>
      <path d="M362.8,30.61c-30.71,44.82-61.42,89.65-92.13,134.47-2.46,3.59,3.38,6.96,5.82,3.4,30.71-44.82,61.42-89.65,92.13-134.47,2.46-3.59-3.38-6.96-5.82-3.4Z"/>
      <path d="M330.06,46.64c2.76-3.31-1.99-8.1-4.77-4.77-28.97,34.74-56.04,71.05-81.24,108.62-7.37,10.98-14.57,22.08-21.63,33.26-2.32,3.68,3.51,7.07,5.82,3.4,24.2-38.37,50.21-75.63,78.21-111.33,7.72-9.85,15.59-19.57,23.61-29.18Z"/>
      <path d="M316,24.8c3.14-3.01-1.63-7.77-4.77-4.77-29.8,28.58-57.39,59.41-82.8,91.95-7.46,9.55-14.74,19.24-21.84,29.06-2.55,3.52,3.3,6.89,5.82,3.4,30.97-42.8,65.45-83.07,103.59-119.65Z"/>
      <path d="M266.32,34.39c-32.19,36.16-61.21,75.07-87.25,115.87-2.34,3.67,3.49,7.05,5.82,3.4,25.74-40.32,54.38-78.76,86.19-114.5,2.88-3.23-1.88-8.02-4.77-4.77Z"/>
      <path d="M226.48,43.71c-24.23,31.53-46.88,64.24-68.04,97.9-2.32,3.68,3.52,7.07,5.82,3.4,21.16-33.66,43.81-66.38,68.04-97.9,2.64-3.44-3.21-6.8-5.82-3.4Z"/>
      <path d="M226.91,29.25c-33.34,33-63.96,68.63-92.1,106.15-2.6,3.47,3.25,6.84,5.82,3.4,27.79-37.06,58.12-72.2,91.05-104.79,3.09-3.06-1.68-7.82-4.77-4.77Z"/>
    </g>
  </g>
</svg>