<?xml version="1.0" encoding="UTF-8"?>
<svg id="Calque_2" xmlns="http://www.w3.org/2000/svg" viewBox="0 0 1313.07 145.64">
  <defs>
    <style>
      .cls-1 {
        fill: #fff;
      }
    </style>
  </defs>
  <g id="Calque_2-2" data-name="Calque_2">
    <g>
      <path class="cls-1" d="M1277.85,35.59c1.49,0,1.58.61.27,1.84-1.31,1.23-2.45,2.55-3.41,3.99-.54.84-.63,2.48-.27,4.93.18,1.14,1.16,2.03,2.96,2.69.78.48,1.73.64,2.87.49,1.13-.15,2.36-.31,3.67-.49,1.13,0,1.96-.37,2.46-1.12.51-.75,1.15-1.36,1.93-1.84.66-.3,1.57-1.34,2.73-3.14,1.16-1.79,1.9-2.93,2.2-3.41,0-.66-.33-2.39-.99-5.2-.66-1.61-1.63-3.11-2.91-4.48-1.29-1.37-2.35-2.57-3.18-3.58-1.97-1.97-4.6-3.35-7.89-4.12-1.79-.18-3.9.13-6.32.94-2.42.81-5.03,1.72-7.84,2.73-2.75.96-5.06,2.12-6.94,3.49-1.88,1.37-3.81,3.05-5.78,5.02-1.97,1.97-4.35,6.02-7.12,12.14-2.78,6.12-4.56,10.41-5.33,12.86-1.02,2.57-1.43,6.92-1.25,13.04.18,6.12.51,10.83.99,14.11.36,3.41,1.34,7.48,2.96,12.23,1.61,4.75,3.17,8.35,4.66,10.8,1.43,2.57,4.44,5.36,9.01,8.38,4.57,3.02,8.26,5.09,11.07,6.23,2.45,1.2,4.69,1.66,6.72,1.39,2.03-.27,4.69-.4,7.98-.4,3.05,0,6.08-.64,9.1-1.93,3.02-1.28,5.75-2.67,8.2-4.17,2.45-1.49,4.12-3.75,5.02-6.77.9-3.02,1.76-5.75,2.6-8.2.96-3.7.63-6.66-.99-8.87-1.61-2.21-1.2-3.49,1.25-3.85,1.13-.12,1.82.39,2.06,1.52.24,1.14.84,2.69,1.79,4.66,1.19,3.11,1.79,5.94,1.79,8.51,0,1.31.19,2.79.58,4.44.39,1.64.58,3.12.58,4.44.18,4.54-2.27,7.05-7.35,7.53-2.45.36-5.38,2-8.78,4.93-3.4,2.93-8.54,5.38-15.41,7.35-2.63.66-5.03.82-7.21.49-2.18-.33-3.93-.49-5.24-.49s-4.05-.73-8.2-2.2c-4.15-1.46-7.63-2.94-10.44-4.44-2.75-1.43-8.13-6-16.13-13.71-8.48-11.71-13.2-18.31-14.16-19.8-1.49-2.45-2.08-6.97-1.75-13.58.33-6.6,1.15-13.9,2.46-21.91,1.31-8.78,2.73-14.16,4.26-16.13,1.52-1.97,3.03-4.18,4.53-6.63,1.49-2.45,4.2-4.78,8.11-6.99,3.91-2.21,6.2-3.32,6.86-3.32.78,0,2.93-.93,6.45-2.78,3.52-1.85,7.29-3.84,11.29-5.96,4-2.12,7.83-3.93,11.47-5.42,3.64-1.49,6.12-1.91,7.44-1.25,1.13.66,2.69,2.21,4.66,4.66,1.97,2.45,3.43,4.42,4.39,5.91,6.39,9.8,9.3,15.83,8.74,18.1-.57,2.27-3.15,5.77-7.75,10.48-.66.84-2.05,1.7-4.17,2.6-2.12.9-3.51,1.43-4.17,1.61-1.43.3-3.62.21-6.54-.27-1.02,0-1.91-.66-2.69-1.97-.36-.3-.94-1.03-1.75-2.2s-1.21-2.14-1.21-2.91c-.48-2.15-.39-4.03.27-5.65.12-.66,1.04-1.72,2.78-3.18,1.73-1.46,3.08-2.2,4.03-2.2Z"/>
      <path class="cls-1" d="M80.63,102.78c-1.02,2.27-2.05,4.63-3.09,7.08-1.05,2.45-2.05,4.66-3,6.63-.36.6-2.09,2.33-5.2,5.2-3.11,2.87-4.72,4.54-4.84,5.02-.54.48-1.42.64-2.64.49-1.23-.15-1.84-.79-1.84-1.93,0-.48.42-.93,1.25-1.34.84-.42,1.49-.87,1.97-1.34.95-1.02,1.76-2.15,2.42-3.41,1.31-3.11,1.88-6.39,1.7-9.86-.12-1.43-.34-2.72-.67-3.85-.33-1.13-.58-2.45-.76-3.94-.48-1.31-.81-2.63-.99-3.94-.18-1.31-.33-2.69-.45-4.12-.54-1.79-1.38-4.08-2.51-6.86-1.14-2.78-2.03-5.15-2.69-7.12-.78-1.61-2.72-6.26-5.82-13.93-3.11-7.68-4.9-11.75-5.38-12.23-.84.66-1.49,3.11-1.97,7.35-.48,4.24-.81,7.11-.99,8.6-.48,2.75-.93,5.51-1.34,8.29-.42,2.78-.78,5.54-1.08,8.29-.54,2.63-.63,5.65-.27,9.05.18,4.24-.15,7.11-.99,8.6-1.61,2.27-2.87,4.35-3.76,6.23-.9,1.88-1.2,4.7-.9,8.47,0,1.91.33,4.79.99,8.65.66,3.85,1.22,6.35,1.7,7.48,1.49,2.93,3.46,4.39,5.91,4.39s4.15.66,5.11,1.97c-.48.84-1.05,1.4-1.7,1.7-.18,0-1.9-.57-5.15-1.7-3.26-1.14-5.12-1.79-5.6-1.97-2.15-.96-3.79-1.85-4.93-2.69-1.14-.84-2.51-1.73-4.12-2.69-2.45-.96-4.38-1.48-5.78-1.57-1.4-.09-3.33-.46-5.78-1.12-1.79-.48-3.94-.76-6.45-.85-2.51-.09-3.76-1.12-3.76-3.09,0-.78.45-1,1.34-.67.9.33,1.73.49,2.51.49,2.63.3,5.26.03,7.89-.81.66-.12,1.31-1.08,1.97-2.87.12-.54.51-1.21,1.16-2.02.66-.81,1.22-1.63,1.7-2.46,1.13-1.91,1.79-3.57,1.97-4.97.18-1.4.6-3.33,1.25-5.78.48-1.79,1.04-3.54,1.7-5.24.66-1.7,1.22-3.54,1.7-5.51.36-1.79.57-3.87.63-6.23.06-2.36.33-4.53.81-6.5.36-1.97.66-3.93.9-5.87.24-1.94.6-3.9,1.08-5.87.48-1.49,1.04-3.37,1.7-5.65.66-2.27.99-4.3.99-6.09-.12-2.15-.27-4.53-.45-7.12-.18-2.6-.09-4.88.27-6.86,0-1.79.24-3.7.72-5.74.48-2.03.72-4.27.72-6.72-.18-1.79-1.36-4.81-3.54-9.05-2.18-4.24-3.69-7.11-4.53-8.6-1.97-3.05-3.94-5.41-5.91-7.08-.3-.12-1.34-.48-3.14-1.08-1.79-.6-3.26-1.13-4.39-1.61-1.49-.18-3.7-.09-6.63.27-1.31,0-2.3.69-2.96,2.06-.66,1.38-.99,2.81-.99,4.3.36,2.63,1.02,4.11,1.97,4.44.95.33,2.66.4,5.11.22h.27c.48,0,.72-.12.72-.36s.42-.54,1.25-.9c.18,0,.27.18.27.54,0,1.79-.42,2.93-1.25,3.41l-4.12.99h-.54c-.96.18-2.21-.51-3.76-2.06-1.55-1.55-2.75-2.66-3.58-3.32C.43,15.09-.23,13.44.07,11.47c.84-1.43,1.46-2.4,1.88-2.91.42-.51.63-.91.63-1.21.66-.66,3.79-2.05,9.41-4.17C17.6,1.06,21.31,0,23.1,0l9.05.99c.84.3,1.58.78,2.24,1.43,2.09,2.93,4.12,5.71,6.09,8.33,1.97,2.63,4.18,5.32,6.63,8.06.95,1.31,1.97,2.63,3.05,3.94,1.08,1.31,2.09,2.69,3.05,4.12.3.84.7,1.7,1.21,2.6.51.9,1,1.58,1.48,2.06.48.96.93,1.85,1.34,2.69.42.84.87,1.58,1.34,2.24.48.78.93,1.58,1.34,2.42.42.84.87,1.49,1.34,1.97,1.49,1.43,2.48,2.99,2.96,4.66.3,2.27.73,4.38,1.3,6.32.57,1.94,1.12,3.9,1.66,5.87.3,1.79.94,3.55,1.93,5.29.99,1.73,1.96,3.17,2.91,4.3.48.96,1.42,2.54,2.82,4.75,1.4,2.21,2.76,3.23,4.08,3.05.12-.95.93-2.58,2.42-4.88,1.49-2.3,2.57-4.35,3.23-6.14.3-.96.57-1.93.81-2.91.24-.99.6-1.96,1.08-2.91,0-.18.42-1.21,1.25-3.09.84-1.88,1.25-2.91,1.25-3.09.48-1.25,1.16-2.82,2.06-4.7.9-1.88,1.58-3.66,2.06-5.33.48-1.43.88-3.14,1.21-5.11.33-1.97.91-3.91,1.75-5.82.84-1.79,1.9-3.15,3.18-4.08,1.28-.93,2.82-1.96,4.61-3.09.66-.48,1.36-.91,2.11-1.3.75-.39,1.51-.91,2.29-1.57.84-.54,1.54-1.04,2.11-1.52.57-.48,1.42-.95,2.55-1.43,1.49-.48,3.26-1.21,5.29-2.2,2.03-.99,4.12-1.57,6.27-1.75,2.27-.18,4.42.39,6.45,1.7,2.03,1.31,3.23,3.2,3.58,5.65,0,.36-.75,1.49-2.24,3.4-.66.66-.9,1.27-.72,1.84.18.57-.24,1.12-1.25,1.66-.66-.18-.75-.69-.27-1.52.18-.18.39-.39.63-.63s.54-.51.9-.81c.18-.48.27-1.04.27-1.7,0-1.02-1.06-2.14-3.18-3.36-2.12-1.22-3.45-1.84-3.99-1.84l-.45.27c-1.79.18-3.51.96-5.15,2.33-1.64,1.38-2.7,2.63-3.18,3.76-1.97,3.11-2.78,6.87-2.42,11.29l.18,2.42c0,2.63.33,5.81.99,9.54.66,3.73,1.31,6.83,1.97,9.27.84,3.47,1.33,6.59,1.48,9.36.15,2.78.4,6.02.76,9.72l.27,1.25c0,1.49.28,2.76.85,3.81.57,1.05,1.09,2.08,1.57,3.09.84,1.91,1.21,3.08,1.12,3.49-.09.42.01,1.67.31,3.76v2.24c.18,2.45.51,4.9.99,7.35.48,2.45.99,4.81,1.52,7.08,0,1.14.19,2.2.58,3.18.39.99.82,1.96,1.3,2.91.54,1.79.95,3.67,1.25,5.65,0,.66.24,1.16.72,1.52,1.31,1.25,2.15,1.97,2.51,2.15.48.84.84,1.49,1.08,1.97.24.48.84.96,1.79,1.43.66.54,2.21.93,4.66,1.16,2.45.24,4.24.27,5.38.09.48.36.72.69.72.99s-.15.82-.45,1.57c-.3.75-.63,1.12-.99,1.12-.66,0-1.43-.16-2.33-.49-.9-.33-1.67-.49-2.33-.49-.78,0-2,.33-3.67.99-.66.36-1.34.45-2.06.27-.72-.18-1.4-.27-2.06-.27-1.97.18-4.39.72-7.26,1.61-2.87.9-4.78,1.67-5.74,2.33-1.43.78-2.81,1.42-4.12,1.93-1.31.51-2.54,1.15-3.67,1.93-1.97,1.01-3.9,2.09-5.78,3.23-1.88,1.13-3.15,1.85-3.81,2.15-.96.36-1.64-.12-2.06-1.43-.42-1.31-.21-1.97.63-1.97,1.31,0,2.3-.06,2.96-.18,1.25-.54,2.33-1.33,3.23-2.37.9-1.05,1.61-1.99,2.15-2.82.78-1.61,1.42-2.63,1.93-3.05.51-.42,1.09-1.91,1.75-4.48.12-1.49.43-2.85.94-4.08.51-1.22.82-2.82.94-4.79,0-.48-.19-1.16-.58-2.06-.39-.9-.67-1.67-.85-2.33-.66-1.79-.9-2.64-.72-2.55s.27-.61.27-2.11c0-.78-.28-1.82-.85-3.14-.57-1.31-.94-2.48-1.12-3.49-.84-1.61-1.4-3.88-1.7-6.81-.54-2.27-.93-4.96-1.16-8.06-.24-3.11-.36-5.97-.36-8.6-.3-2.93-.61-5.65-.94-8.15-.33-2.51-.67-5.17-1.03-7.98-.48-2.45-1.16-4.94-2.06-7.48-.9-2.54-1.34-4.85-1.34-6.95-.66,0-1.05.15-1.16.45-.66.66-1.73,2.7-3.23,6.14-1.49,3.44-2.97,7.15-4.44,11.16-1.46,4-2.76,7.84-3.9,11.51-1.14,3.67-1.7,5.99-1.7,6.94l-.72,1.97-4.66,12.72-.72,1.25Z"/>
      <path class="cls-1" d="M1174.4,84.02l-55.08,32.07-619.34-18.31-25.97,1.13-267.68,10.57-33.15-67.53s156.86,4.3,286.01,8.9c123.66,4.49,235.74,9.19,236.92,9.81,2.37,1.18,460.99-31.1,460.99-31.1l17.29,54.47Z"/>
    </g>
  </g>
</svg>