<svg width="1016" height="195" viewBox="0 0 1016 195" fill="none" xmlns="http://www.w3.org/2000/svg">
<path d="M471.76 62.7101C456.15 88.7001 440.53 114.69 424.92 140.68C422.68 144.41 428.51 147.8 430.74 144.08C446.35 118.09 461.97 92.1001 477.58 66.1101C479.82 62.3801 473.99 58.9901 471.76 62.7101Z" fill="black"/>
<path d="M535.08 22.0501C507.04 60.9101 481.07 101.24 457.07 142.71C454.89 146.47 460.72 149.87 462.89 146.11C486.9 104.64 512.86 64.3101 540.9 25.4501C543.44 21.9301 537.6 18.5601 535.08 22.0501Z" fill="black"/>
<path d="M573.08 4.87005C575.63 1.35005 569.78 -2.01995 567.26 1.47005C540.48 38.41 515.39 76.55 491.94 115.69C485.07 127.16 478.35 138.71 471.75 150.34C469.61 154.12 475.43 157.52 477.57 153.74C500.28 113.68 524.62 74.54 550.69 36.58C558.02 25.91 565.48 15.34 573.08 4.87005Z" fill="black"/>
<path d="M603.72 32.08C568.08 73.18 534.65 116.16 503.34 160.64C500.84 164.19 506.68 167.57 509.16 164.04C540.15 120.03 573.22 77.51 608.49 36.85C611.32 33.59 606.57 28.8 603.72 32.08Z" fill="black"/>
<path d="M623.44 24.4801C592.73 69.3001 562.02 114.13 531.31 158.95C528.85 162.54 534.69 165.91 537.13 162.35C567.84 117.53 598.55 72.7001 629.26 27.8801C631.72 24.2901 625.88 20.9201 623.44 24.4801Z" fill="black"/>
<path d="M677.51 9.2201C679.83 5.5401 674 2.1501 671.69 5.8201C647.49 44.1901 621.48 81.4501 593.48 117.15C585.76 127 577.89 136.72 569.87 146.33C567.11 149.64 571.86 154.43 574.64 151.1C603.61 116.36 630.68 80.0501 655.88 42.4801C663.25 31.5001 670.45 20.4001 677.51 9.2201Z" fill="black"/>
<path d="M693.34 51.9201C695.89 48.4001 690.04 45.0301 687.52 48.5201C656.55 91.3201 622.07 131.58 583.93 168.17C580.79 171.18 585.56 175.94 588.7 172.94C618.5 144.36 646.09 113.53 671.5 80.9901C678.96 71.4401 686.24 61.7501 693.34 51.9301V51.9201Z" fill="black"/>
<path d="M697.22 61.3101C671.48 101.63 642.84 140.07 611.03 175.81C608.15 179.04 612.91 183.83 615.8 180.58C647.99 144.42 677.01 105.51 703.05 64.7101C705.39 61.0401 699.56 57.6601 697.23 61.3101H697.22Z" fill="black"/>
<path d="M717.27 61.0401C696.11 94.7001 673.46 127.42 649.23 158.94C646.59 162.38 652.44 165.74 655.05 162.34C679.28 130.81 701.93 98.1001 723.09 64.4401C725.41 60.7601 719.57 57.3701 717.27 61.0401Z" fill="black"/>
<path d="M756.05 57.9099C730.25 92.31 702.09 124.94 671.52 155.2C668.43 158.26 673.2 163.02 676.29 159.97C707.28 129.3 735.73 96.1899 761.88 61.3199C764.48 57.8499 758.63 54.4799 756.06 57.9199L756.05 57.9099Z" fill="black"/>
<path d="M1008.99 52.98C984.98 94.45 959.02 134.78 930.98 173.64C928.44 177.16 934.28 180.53 936.8 177.04C964.84 138.18 990.81 97.85 1014.81 56.38C1016.99 52.62 1011.16 49.22 1008.99 52.98Z" fill="black"/>
<path d="M991.82 42.28C993.96 38.5 988.14 35.1 986 38.88C963.29 78.94 938.96 118.08 912.88 156.04C905.55 166.71 898.09 177.28 890.49 187.75C887.94 191.27 893.79 194.64 896.31 191.15C923.09 154.21 948.18 116.07 971.63 76.93C978.5 65.46 985.22 53.91 991.82 42.28Z" fill="black"/>
<path d="M969.98 35.0499C938.99 79.0599 905.92 121.58 870.65 162.24C867.82 165.5 872.57 170.29 875.42 167.01C911.06 125.91 944.49 82.9299 975.8 38.4499C978.3 34.8999 972.46 31.5199 969.98 35.0499Z" fill="black"/>
<path d="M942.01 36.7401C911.3 81.5601 880.59 126.39 849.88 171.21C847.42 174.8 853.26 178.17 855.7 174.61C886.41 129.79 917.12 84.9601 947.83 40.1401C950.29 36.5501 944.45 33.1802 942.01 36.7401Z" fill="black"/>
<path d="M909.27 52.77C912.03 49.46 907.29 44.67 904.5 48C875.53 82.74 848.46 119.05 823.26 156.62C815.89 167.6 808.69 178.7 801.63 189.88C799.31 193.56 805.14 196.95 807.45 193.28C831.65 154.91 857.66 117.65 885.66 81.95C893.38 72.1 901.25 62.38 909.27 52.77Z" fill="black"/>
<path d="M895.21 30.9401C898.35 27.9301 893.58 23.1701 890.44 26.1701C860.64 54.7501 833.05 85.5801 807.64 118.12C800.18 127.67 792.9 137.36 785.8 147.18C783.25 150.7 789.1 154.07 791.62 150.58C822.59 107.78 857.07 67.5201 895.21 30.9301V30.9401Z" fill="black"/>
<path d="M845.52 40.5201C813.33 76.6801 784.31 115.59 758.27 156.39C755.93 160.06 761.76 163.44 764.09 159.79C789.83 119.47 818.47 81.0301 850.28 45.2901C853.16 42.0601 848.4 37.2701 845.51 40.5201H845.52Z" fill="black"/>
<path d="M805.68 49.85C781.45 81.38 758.8 114.09 737.64 147.75C735.32 151.43 741.16 154.82 743.46 151.15C764.62 117.49 787.27 84.77 811.5 53.25C814.14 49.81 808.29 46.45 805.68 49.85Z" fill="black"/>
<path d="M806.11 35.3901C772.77 68.3901 742.15 104.02 714.01 141.54C711.41 145.01 717.26 148.38 719.83 144.94C747.62 107.88 777.95 72.7401 810.88 40.1501C813.97 37.0901 809.2 32.3301 806.11 35.3801V35.3901Z" fill="black"/>
<path d="M86.84 40.91C94.21 29.93 101.41 18.83 108.47 7.65004C110.79 3.97004 104.96 0.580036 102.65 4.25004C78.45 42.62 52.44 79.88 24.44 115.58C16.72 125.43 8.85005 135.15 0.830047 144.76C-1.92995 148.07 2.82005 152.86 5.60005 149.53C34.57 114.79 61.64 78.48 86.84 40.91Z" fill="black"/>
<path d="M114.14 45.78C116.69 42.26 110.84 38.89 108.32 42.38C77.35 85.18 42.87 125.45 4.73 162.03C1.59 165.04 6.36 169.8 9.5 166.8C39.3 138.22 66.89 107.39 92.3 74.85C99.76 65.3 107.04 55.61 114.14 45.79V45.78Z" fill="black"/>
<path d="M118.02 55.1799C92.2801 95.4999 63.6401 133.94 31.8301 169.68C28.9501 172.91 33.7101 177.7 36.6001 174.45C68.79 138.29 97.8101 99.3799 123.85 58.5799C126.19 54.9099 120.36 51.5299 118.03 55.1799H118.02Z" fill="black"/>
<path d="M138.07 54.9099C116.91 88.5699 94.26 121.29 70.03 152.81C67.39 156.25 73.24 159.61 75.85 156.21C100.08 124.68 122.73 91.9699 143.89 58.3099C146.21 54.6299 140.37 51.2399 138.07 54.9099Z" fill="black"/>
<path d="M176.85 51.7701C151.05 86.1701 122.89 118.8 92.3201 149.06C89.2301 152.12 94.0001 156.88 97.0901 153.83C128.08 123.16 156.53 90.0501 182.68 55.1801C185.28 51.7101 179.43 48.3401 176.86 51.7801L176.85 51.7701Z" fill="black"/>
<path d="M438.13 81.2801C422.52 107.27 406.9 133.26 391.29 159.25C389.05 162.98 394.88 166.37 397.11 162.65C412.72 136.66 428.34 110.67 443.95 84.6801C446.19 80.9501 440.36 77.5601 438.13 81.2801Z" fill="black"/>
<path d="M437.06 46.8501C413.05 88.3201 387.09 128.65 359.05 167.51C356.51 171.03 362.35 174.4 364.87 170.91C392.91 132.05 418.88 91.7201 442.88 50.2501C445.06 46.4901 439.23 43.0901 437.06 46.8501Z" fill="black"/>
<path d="M421.53 42.1201C423.67 38.3401 417.85 34.9401 415.71 38.7201C393 78.7801 368.66 117.92 342.59 155.88C335.26 166.55 327.8 177.12 320.2 187.59C317.65 191.11 323.5 194.48 326.02 190.99C352.8 154.05 377.89 115.91 401.34 76.7701C408.21 65.3 414.93 53.7501 421.53 42.1201Z" fill="black"/>
<path d="M390.78 28.9201C359.79 72.9301 326.72 115.45 291.45 156.12C288.62 159.38 293.37 164.17 296.22 160.89C331.86 119.79 365.29 76.8101 396.6 32.3301C399.1 28.7801 393.26 25.4001 390.78 28.9301V28.9201Z" fill="black"/>
<path d="M362.8 30.61C332.09 75.43 301.38 120.26 270.67 165.08C268.21 168.67 274.05 172.04 276.49 168.48C307.2 123.66 337.91 78.83 368.62 34.01C371.08 30.42 365.24 27.05 362.8 30.61Z" fill="black"/>
<path d="M330.06 46.6401C332.82 43.3301 328.07 38.5401 325.29 41.8701C296.32 76.6101 269.25 112.92 244.05 150.49C236.68 161.47 229.48 172.57 222.42 183.75C220.1 187.43 225.93 190.82 228.24 187.15C252.44 148.78 278.45 111.52 306.45 75.8201C314.17 65.9701 322.04 56.2501 330.06 46.6401Z" fill="black"/>
<path d="M316 24.8C319.14 21.79 314.37 17.03 311.23 20.03C281.43 48.61 253.84 79.44 228.43 111.98C220.97 121.53 213.69 131.22 206.59 141.04C204.04 144.56 209.89 147.93 212.41 144.44C243.38 101.64 277.86 61.37 316 24.79V24.8Z" fill="black"/>
<path d="M266.32 34.39C234.13 70.55 205.11 109.46 179.07 150.26C176.73 153.93 182.56 157.31 184.89 153.66C210.63 113.34 239.27 74.9 271.08 39.16C273.96 35.93 269.2 31.14 266.31 34.39H266.32Z" fill="black"/>
<path d="M226.48 43.7101C202.25 75.2401 179.6 107.95 158.44 141.61C156.12 145.29 161.96 148.68 164.26 145.01C185.42 111.35 208.07 78.6301 232.3 47.1101C234.94 43.6701 229.09 40.3101 226.48 43.7101Z" fill="black"/>
<path d="M226.91 29.25C193.57 62.25 162.95 97.88 134.81 135.4C132.21 138.87 138.06 142.24 140.63 138.8C168.42 101.74 198.75 66.6 231.68 34.01C234.77 30.95 230 26.19 226.91 29.24V29.25Z" fill="black"/>
</svg>
