<svg width="322" height="36" viewBox="0 0 322 36" fill="none" xmlns="http://www.w3.org/2000/svg">
<path d="M44.4544 9.57129C44.4544 9.57129 76.33 10.625 108.03 11.7666L111.718 23.6211L52.6209 26.0798L44.4544 9.57129Z" fill="white"/>
<path d="M313.07 8.69335C313.421 8.69335 313.421 8.86897 313.157 9.13241C312.806 9.39584 312.543 9.74709 312.279 10.0983C312.191 10.274 312.104 10.713 312.191 11.3277C312.191 11.5911 312.455 11.8546 312.894 12.0302C313.07 12.118 313.333 12.2058 313.596 12.118C313.86 12.118 314.211 12.0302 314.475 12.0302C314.738 12.0302 314.914 11.9424 315.089 11.7668C315.177 11.5911 315.353 11.4155 315.528 11.3277C315.704 11.2399 315.879 10.9764 316.231 10.5374C316.494 10.0983 316.67 9.8349 316.758 9.65928C316.758 9.48365 316.67 9.0446 316.494 8.34211C316.319 7.99086 316.055 7.5518 315.792 7.28837C315.44 6.93712 315.177 6.67369 315.001 6.41025C314.562 5.88339 313.86 5.61995 313.07 5.44433C312.63 5.44433 312.104 5.44433 311.489 5.70776C310.874 5.88339 310.26 6.14682 309.557 6.41025C308.855 6.67369 308.328 6.93712 307.889 7.28837C307.45 7.63961 306.923 7.99086 306.484 8.51773C306.045 8.95679 305.43 10.0105 304.727 11.5033C304.025 12.9961 303.586 14.0498 303.41 14.6645C303.147 15.2792 303.059 16.3329 303.147 17.8257C303.235 19.3185 303.235 20.4601 303.41 21.2504C303.498 22.1285 303.762 23.0944 304.113 24.236C304.552 25.3775 304.903 26.2556 305.254 26.8703C305.606 27.485 306.308 28.1875 307.45 28.89C308.591 29.5925 309.469 30.1193 310.172 30.3828C310.786 30.6462 311.313 30.8218 311.84 30.734C312.367 30.6462 312.982 30.6462 313.772 30.6462C314.474 30.6462 315.265 30.4706 315.967 30.2072C316.67 29.8559 317.372 29.5925 317.987 29.1534C318.602 28.8022 318.953 28.2753 319.216 27.485C319.392 26.7825 319.655 26.08 319.831 25.4653C320.094 24.5872 320.007 23.7969 319.568 23.27C319.129 22.7432 319.304 22.3919 319.831 22.3041C320.094 22.3041 320.27 22.3919 320.358 22.6554C320.446 22.9188 320.533 23.27 320.797 23.7969C321.06 24.5872 321.236 25.2897 321.236 25.9044C321.236 26.2556 321.324 26.6069 321.412 26.9581C321.499 27.3972 321.587 27.7484 321.587 28.0119C321.587 29.1534 321.06 29.7681 319.831 29.8559C319.216 29.9437 318.514 30.3828 317.636 31.0853C316.845 31.7878 315.528 32.4024 313.86 32.8415C313.245 33.0171 312.63 33.0171 312.104 32.9293C311.577 32.8415 311.138 32.8415 310.786 32.8415C310.435 32.8415 309.821 32.6659 308.767 32.3146C307.713 31.9634 306.923 31.6121 306.22 31.2609C305.518 30.9096 304.201 29.7681 302.269 27.9241C300.161 25.0263 299.02 23.4457 298.844 23.0944C298.493 22.4797 298.317 21.426 298.405 19.7576C298.493 18.177 298.668 16.3329 299.02 14.4011C299.371 12.2936 299.722 10.9764 300.073 10.4496C300.425 9.92271 300.776 9.39584 301.215 8.78116C301.566 8.16648 302.269 7.63961 303.235 7.11275C304.201 6.58588 304.727 6.32244 304.903 6.32244C305.079 6.32244 305.606 6.05901 306.484 5.61995C307.362 5.18089 308.24 4.65403 309.206 4.12716C310.172 3.60029 311.138 3.16123 312.016 2.80999C312.894 2.45874 313.509 2.37093 313.86 2.54655C314.123 2.72217 314.562 3.07342 315.001 3.6881C315.44 4.30278 315.879 4.74184 316.055 5.09308C317.636 7.46399 318.338 8.95679 318.163 9.48365C317.987 10.0105 317.372 10.8886 316.231 12.0302C316.055 12.2058 315.704 12.4692 315.177 12.6449C314.65 12.9083 314.299 12.9961 314.123 13.0839C313.772 13.1717 313.245 13.1717 312.543 12.9961C312.279 12.9961 312.104 12.8205 311.84 12.4692C311.752 12.3814 311.577 12.2058 311.401 11.9424C311.225 11.6789 311.138 11.4155 311.138 11.2399C311.05 10.713 311.05 10.274 311.225 9.8349C311.225 9.65928 311.489 9.39584 311.928 9.0446C312.543 8.86897 312.806 8.69335 313.07 8.69335Z" fill="white"/>
<path d="M285.497 6.49805L289.712 19.8454L276.189 27.6606L124.451 23.1822L118.128 23.4457L114.528 11.6789C144.823 12.8205 172.308 13.962 172.571 14.0498C173.098 14.4011 285.497 6.49805 285.497 6.49805Z" fill="white"/>
<path d="M19.7795 25.2019C19.5161 25.7287 19.2527 26.3434 18.9892 26.9581C18.7258 27.5728 18.4624 28.0997 18.2867 28.5387C18.1989 28.7143 17.7599 29.1534 16.9696 29.8559C16.1793 30.5584 15.828 30.9974 15.828 31.0852C15.6524 31.1731 15.4768 31.2609 15.2133 31.1731C14.9499 31.1731 14.7743 30.9974 14.7743 30.734C14.7743 30.6462 14.8621 30.4706 15.0377 30.3828C15.2133 30.2949 15.389 30.2071 15.5646 30.0315C15.828 29.7681 16.0036 29.5046 16.1793 29.1534C16.5305 28.3631 16.6183 27.5728 16.6183 26.6947C16.6183 26.3434 16.5305 25.9922 16.4427 25.7287C16.3549 25.4653 16.2671 25.1141 16.2671 24.7628C16.1793 24.4116 16.0914 24.1481 16.0036 23.7969C15.9158 23.4457 15.9158 23.0944 15.9158 22.831C15.7402 22.3919 15.5646 21.865 15.3011 21.1626C15.0377 20.4601 14.7743 19.9332 14.5986 19.4063C14.423 18.9673 13.8962 17.9135 13.1937 15.9817C12.4034 14.1376 11.9643 13.0839 11.8765 12.9961C11.7009 13.1717 11.5252 13.7864 11.4374 14.7523C11.3496 15.8061 11.2618 16.5085 11.174 16.8598C11.0862 17.5623 10.9106 18.177 10.8228 18.8795C10.7349 19.5819 10.6471 20.1966 10.5593 20.8991C10.4715 21.5138 10.3837 22.3041 10.4715 23.0944C10.4715 24.1481 10.4715 24.8506 10.2081 25.2019C9.85683 25.7287 9.50559 26.2556 9.32996 26.6947C9.15434 27.1337 9.06653 27.8362 9.15434 28.8021C9.15434 29.2412 9.24215 29.9437 9.41778 30.9096C9.5934 31.8755 9.68121 32.4902 9.85683 32.7537C10.2081 33.4562 10.7349 33.8074 11.2618 33.8074C11.8765 33.8074 12.3156 33.983 12.4912 34.3343C12.4034 34.5099 12.2277 34.6855 12.0521 34.7733C11.9643 34.7733 11.6131 34.5977 10.8228 34.3343C10.0325 34.0708 9.5934 33.8952 9.41778 33.8074C8.89091 33.544 8.45185 33.3683 8.18842 33.1927C7.92498 33.0171 7.57374 32.7537 7.22249 32.578C6.60781 32.3146 6.16875 32.2268 5.81751 32.2268C5.46626 32.2268 5.0272 32.139 4.41252 31.9634C3.97347 31.8755 3.4466 31.7877 2.83192 31.7877C2.21724 31.7877 1.9538 31.5243 1.9538 30.9974C1.9538 30.8218 2.04162 30.734 2.30505 30.8218C2.56848 30.9096 2.74411 30.9096 2.91973 30.9096C3.53441 30.9974 4.2369 30.9096 4.85158 30.734C5.0272 30.734 5.20283 30.4706 5.29064 30.0315C5.29064 29.8559 5.37845 29.7681 5.55407 29.5046C5.7297 29.329 5.81751 29.0656 5.99313 28.89C6.25656 28.4509 6.43219 28.0118 6.43219 27.6606C6.43219 27.3094 6.60781 26.8703 6.69562 26.2556C6.78343 25.8166 6.95906 25.3775 7.13468 24.9384C7.3103 24.4994 7.39811 24.0603 7.57374 23.6213C7.66155 23.1822 7.74936 22.6553 7.74936 22.1285C7.74936 21.5138 7.83717 20.9869 7.92498 20.5479C8.01279 20.1088 8.1006 19.5819 8.18842 19.1429C8.27623 18.7038 8.36404 18.177 8.45185 17.7379C8.53966 17.3867 8.71528 16.9476 8.89091 16.3329C9.06653 15.8061 9.15434 15.2792 9.15434 14.8401C9.15434 14.3133 9.06653 13.6986 9.06653 13.0839C9.06653 12.4692 9.06653 11.8545 9.15434 11.4155C9.15434 10.9764 9.24215 10.5374 9.32996 10.0105C9.41778 9.48363 9.50559 8.95677 9.50559 8.34208C9.50559 7.90303 9.15434 7.20054 8.62747 6.1468C8.1006 5.09306 7.74936 4.39057 7.48592 4.03933C6.95906 3.24902 6.52 2.72215 6.08094 2.2831C5.99313 2.2831 5.7297 2.19529 5.29064 2.01966C4.67596 1.93185 4.32471 1.75623 3.97347 1.66842C3.62222 1.66842 3.09535 1.66842 2.39286 1.75623C2.04162 1.75623 1.86599 1.93185 1.69037 2.19529C1.51475 2.54653 1.42694 2.89778 1.42694 3.24902C1.51475 3.95151 1.69037 4.30276 1.86599 4.39057C2.12943 4.47838 2.56848 4.47838 3.18316 4.39057H3.27098C3.35879 4.39057 3.4466 4.39057 3.4466 4.30276C3.4466 4.21495 3.53441 4.21495 3.71003 4.12714C3.71003 4.12714 3.79784 4.12714 3.79784 4.30276C3.79784 4.74182 3.71003 5.00525 3.53441 5.18087L2.48067 5.3565H2.30505C2.12943 5.3565 1.77818 5.18087 1.42694 4.82963C1.07569 4.47838 0.724444 4.21495 0.548821 4.03933C0.109764 3.68808 -0.0658586 3.24902 0.0219529 2.80997C0.197576 2.45872 0.373199 2.19529 0.46101 2.10747C0.636633 1.93185 0.636633 1.84404 0.636633 1.75623C0.812256 1.58061 1.60256 1.22936 2.91973 0.702491C4.32471 0.263434 5.20283 0 5.64188 0L7.92498 0.263434C8.1006 0.351246 8.27623 0.439057 8.45185 0.61468C8.97872 1.31717 9.41778 2.01966 9.94464 2.63434C10.3837 3.24902 10.9984 3.95151 11.5253 4.56619C11.7887 4.91744 12.0521 5.26869 12.3156 5.53212C12.579 5.88337 12.8424 6.1468 13.018 6.49805C13.1059 6.76148 13.1937 7.02491 13.3693 7.20054C13.4571 7.46397 13.6327 7.55178 13.7205 7.72741C13.8083 7.99084 13.984 8.16646 14.0718 8.34208C14.1596 8.51771 14.2474 8.69333 14.423 8.86895C14.5108 9.04458 14.6865 9.2202 14.7743 9.48363C14.8621 9.65926 14.9499 9.83488 15.1255 9.92269C15.4768 10.2739 15.7402 10.6252 15.828 11.0642C15.9158 11.5911 16.0036 12.118 16.1793 12.6448C16.3549 13.0839 16.4427 13.6108 16.6183 14.0498C16.7061 14.4889 16.8817 14.9279 17.0574 15.367C17.3208 15.8061 17.4964 16.1573 17.7599 16.4207C17.8477 16.6842 18.1111 17.0354 18.4624 17.5623C18.8136 18.0892 19.1648 18.3526 19.4283 18.2648C19.4283 18.0013 19.6917 17.6501 20.043 17.0354C20.3942 16.5085 20.6576 15.9817 20.8333 15.5426C20.9211 15.2792 21.0089 15.1036 21.0089 14.8401C21.0967 14.5767 21.1845 14.4011 21.2723 14.1376C21.2723 14.1376 21.3601 13.8742 21.6236 13.3473C21.7992 12.9083 21.887 12.6448 21.887 12.557C21.9748 12.2936 22.1504 11.8545 22.4139 11.4155C22.6773 10.9764 22.7651 10.5374 22.9407 10.0983C23.0285 9.74707 23.1164 9.30801 23.2042 8.86895C23.292 8.4299 23.4676 7.90303 23.6432 7.46397C23.8188 7.02491 24.0823 6.67367 24.4335 6.49805C24.6092 6.41023 25.0482 6.1468 25.4873 5.88337C25.6629 5.79555 25.8385 5.61993 26.0141 5.53212C26.1898 5.44431 26.3654 5.26869 26.541 5.18087C26.7166 5.00525 26.8922 4.91744 27.0679 4.82963C27.2435 4.74182 27.4191 4.56619 27.6826 4.47838C28.0338 4.39057 28.4729 4.21495 28.9997 3.95151C29.5266 3.68808 29.9657 3.60027 30.5803 3.51246C31.1072 3.51246 31.6341 3.60027 32.1609 3.95151C32.6878 4.30276 32.9512 4.74182 33.0391 5.3565C33.0391 5.44431 32.8634 5.70774 32.5122 6.1468C32.3366 6.32242 32.2487 6.49805 32.3366 6.58586C32.3366 6.76148 32.2487 6.84929 32.0731 7.02491C31.8975 7.02491 31.8975 6.84929 31.9853 6.67367C31.9853 6.58586 32.0731 6.58586 32.1609 6.49805C32.2487 6.41023 32.3366 6.41023 32.4244 6.32242C32.4244 6.23461 32.5122 6.05899 32.5122 5.88337C32.5122 5.61993 32.2487 5.3565 31.7219 5.09306C31.195 4.82963 30.8438 4.65401 30.756 4.65401L30.6681 4.74182C30.2291 4.82963 29.79 5.00525 29.4388 5.3565C28.9997 5.70774 28.7363 5.97118 28.6485 6.23461C28.2094 7.02491 27.946 7.90303 28.0338 8.95677L28.1216 9.57144C28.1216 10.1861 28.2094 10.9764 28.385 11.9424C28.5607 12.8205 28.7363 13.6108 28.9119 14.2255C29.0875 15.1036 29.2632 15.8061 29.2632 16.5085C29.2632 17.211 29.351 18.0013 29.4388 18.8795L29.5266 19.1429C29.5266 19.4941 29.6144 19.8454 29.7022 20.1088C29.8778 20.3722 29.9657 20.6357 30.0535 20.8991C30.2291 21.3382 30.3169 21.6894 30.3169 21.7772C30.3169 21.865 30.3169 22.2163 30.4047 22.6553V23.1822C30.4925 23.7969 30.4925 24.4116 30.6681 24.9384C30.756 25.5531 30.9316 26.08 31.0194 26.6947C31.0194 26.9581 31.1072 27.2215 31.195 27.485C31.2828 27.7484 31.3706 27.924 31.5463 28.1875C31.7219 28.6265 31.8097 29.0656 31.8097 29.5924C31.8097 29.7681 31.8975 29.8559 31.9853 29.9437C32.3366 30.2071 32.5122 30.4706 32.6 30.4706C32.6878 30.6462 32.7756 30.8218 32.8634 30.9096C32.9512 30.9974 33.0391 31.1731 33.3025 31.2609C33.4781 31.4365 33.8294 31.5243 34.444 31.5243C35.0587 31.6121 35.4978 31.6121 35.7612 31.5243C35.849 31.6121 35.9368 31.6999 35.9368 31.7877C35.9368 31.8755 35.9368 31.9634 35.849 32.139C35.7612 32.3146 35.6734 32.4024 35.5856 32.4024C35.41 32.4024 35.2343 32.4024 35.0587 32.3146C34.7953 32.2268 34.6197 32.2268 34.444 32.2268C34.2684 32.2268 33.9172 32.3146 33.5659 32.4902C33.1269 32.4902 32.9512 32.4902 32.7756 32.4902C32.6 32.4902 32.4244 32.4024 32.2487 32.4024C31.7219 32.4024 31.195 32.578 30.4925 32.8415C29.79 33.0171 29.351 33.2805 29.0875 33.3683C28.7363 33.544 28.385 33.7196 28.1216 33.8074C27.7704 33.8952 27.5069 34.0708 27.2435 34.2465C26.8044 34.5099 26.2776 34.7733 25.8385 35.0368C25.3995 35.3002 25.0482 35.4758 24.8726 35.5636C24.6092 35.6514 24.4335 35.5636 24.3457 35.2124C24.2579 34.8611 24.2579 34.7733 24.5213 34.7733C24.8726 34.7733 25.0482 34.7733 25.2238 34.7733C25.4873 34.5977 25.7507 34.4221 26.0141 34.1586C26.1898 33.8952 26.4532 33.6318 26.541 33.4562C26.7166 33.1049 26.8923 32.8415 26.9801 32.7537C27.0679 32.6658 27.2435 32.3146 27.4191 31.6999C27.4191 31.3487 27.5069 30.9974 27.6826 30.734C27.7704 30.4706 27.8582 30.0315 27.946 29.5924C27.946 29.5046 27.8582 29.329 27.7704 29.0656C27.6826 28.89 27.5947 28.6265 27.5947 28.5387C27.4191 28.0997 27.4191 27.924 27.4191 27.924C27.4191 27.924 27.5069 27.7484 27.5069 27.3972C27.5069 27.2215 27.4191 26.9581 27.3313 26.6069C27.1557 26.2556 27.0679 25.9922 27.0679 25.7287C26.8922 25.2897 26.7166 24.7628 26.6288 24.0603C26.541 23.5335 26.3654 22.831 26.3654 22.1285C26.2776 21.3382 26.2776 20.6357 26.2776 20.021C26.1898 19.3185 26.1019 18.616 26.0141 18.0013C25.9263 17.3867 25.8385 16.772 25.7507 16.0695C25.6629 15.4548 25.4873 14.8401 25.2238 14.2255C25.0482 13.6108 24.8726 12.9961 24.8726 12.557C24.697 12.557 24.6092 12.557 24.6092 12.6448C24.3457 12.6448 24.0823 13.1717 23.731 14.0498C23.3798 14.9279 23.0285 15.8061 22.6773 16.772C22.3261 17.7379 21.9748 18.7038 21.7114 19.5819C21.4479 20.4601 21.2723 21.0747 21.2723 21.2504L21.0967 21.7772L19.9551 24.8506L19.7795 25.2019Z" fill="white"/>
</svg>
