<svg id="Calque_1" data-name="Calque 1" xmlns="http://www.w3.org/2000/svg" viewBox="0 0 367.78 353.13"><defs><style>.cls-1{fill:#fff;}</style></defs><polygon class="cls-1" points="359.58 154.32 269.6 59.41 267.1 56.78 263.71 57.3 110.91 80.7 100.63 82.27 100.07 92.67 91.3 256.78 90.97 262.86 97.07 262.98 237.13 265.57 248.01 265.77 249.14 255.4 260.52 150.82 260.86 147.65 257.81 146.79 179.75 124.91 170.37 122.28 168.46 131.25 154.11 198.74 183.3 145.37 252.74 153.1 227.08 241.05 103.52 251.18 125.75 105.03 262.35 70.08 328.48 165.92 247.22 335.71 38 297.67 14.63 103.08 127.15 23.45 108.51 0 2.71 94.21 0 96.62 0.06 100.22 3.35 314.41 3.58 329.81 19.06 331.23 250.72 352.63 256.17 353.13 258.9 348.43 361.32 172.03 367.04 162.19 359.58 154.32"/></svg>