<svg id="Calque_1" data-name="Calque 1" xmlns="http://www.w3.org/2000/svg" viewBox="0 0 298.92 318.17"><defs><style>.cls-1{fill:#fff;}</style></defs><polygon class="cls-1" points="1.99 88.53 25.88 232.45 26.51 236.29 29.66 238.32 146.03 313.22 153.72 318.17 160.97 312.58 296.13 208.39 298.92 206.23 298.83 202.74 293.48 0 264.58 1.92 285.68 199.91 152.31 285.28 41.05 226.9 35.69 95.91 144.65 29.13 223.92 118.71 186.07 205.05 104.04 177.13 132.28 124.02 170.12 148.8 133.55 113.18 130.12 109.84 126.41 114.27 73.66 177.26 60.32 193.19 81.22 197.74 188.08 220.96 193.6 222.16 196.45 217.27 251.69 122.34 256.82 113.52 249.23 106.73 149.78 17.81 146.87 15.21 143.16 16.76 11.01 71.94 0 76.53 1.99 88.53"/></svg>