<svg id="Calque_1" data-name="Calque 1" xmlns="http://www.w3.org/2000/svg" viewBox="0 0 375.1 380.78"><defs><style>.cls-1{fill:#fff;}</style></defs><polygon class="cls-1" points="372.22 235.42 332.82 22.48 330.59 10.43 318.69 9.77 145.96 0.24 141.59 0 138.54 3.58 11.29 152.38 0 165.57 10.59 179.8 160.11 380.78 173.22 372.31 59.03 167.05 149.28 17.17 303.9 40.09 348.96 231.86 234.56 290.61 135.88 210.21 183.71 104.33 280.9 144.4 248.04 204.14 176.82 200.01 252.59 229.23 263.03 233.26 266.75 221.97 292.43 143.91 293.8 139.73 290.11 137.51 182.79 73.05 168.36 64.38 163 80.66 120.58 209.68 119.18 213.95 122.31 217.4 219.96 325 229.26 335.25 241.31 327.54 366.98 247.12 373.6 242.88 372.22 235.42"/></svg>