<svg width="331" height="139" viewBox="0 0 331 139" fill="none" xmlns="http://www.w3.org/2000/svg">
<path d="M10.2178 94.8482L2 18.5525H89.3143L97.5321 22.0661L115.337 18.5525L283.118 22.0661V5C283.118 5 294.595 20.1535 305.274 35L306.136 41.5L311.313 43.5C313.577 46.7073 313.303 46.4106 315.405 49.5C323.134 60.8636 329.157 70.6868 329 73.5C328.569 81.2374 283.118 134 283.118 134V119.444L111.228 111.914L5.08168 119.444L10.2178 94.8482Z" stroke="white" stroke-width="3"/>
<path d="M15.7407 94.5L8.90234 27.5L88.9109 26.5L96.7749 30L115.58 26.5L287.13 29V20C287.13 20 293.074 27.8189 300.06 37.5C300.694 38.3777 300.809 39.8871 300.922 41.4142L301.822 45.5C303.121 47.3328 306.582 46.6687 307.862 48.5166C315.397 59.3977 322.098 69.9357 322.098 73C322.098 80 287.13 119 287.13 119V112L110.452 104.5L11.9796 111.5L15.7407 94.5Z" fill="white"/>
<path d="M300.06 37.5C293.074 27.8189 287.13 20 287.13 20V29L115.58 26.5L96.7749 30L88.9109 26.5L8.90234 27.5L15.7407 94.5L11.9796 111.5L110.452 104.5L287.13 112V119C287.13 119 322.098 80 322.098 73C322.098 69.9357 315.397 59.3977 307.862 48.5166C306.582 46.6687 303.121 47.3328 301.822 45.5M300.06 37.5C301.342 39.2756 300.501 43.6359 301.822 45.5M300.06 37.5L301.822 45.5" stroke="white" stroke-width="3"/>
</svg>
