<svg id="Calque_1" data-name="Calque 1" xmlns="http://www.w3.org/2000/svg" viewBox="0 0 487.2 630.3"><defs><style>.cls-1{fill:#fff}</style></defs><path class="cls-1" d="M328.2 4.6 158.9 0l-142 89.5L0 253.5l34.6 72.4-6.2 154.2 72.3 30.8 90.8 116.7 116-39.6 77-93.9 102.7-177.9L459.6 121 328.2 4.6z"/><path class="cls-1" d="M57.8 351.6c-1.8-7.3-3.6-14.8-5.2-22.2-1.7-7.6-3.3-15.5-4.3-21.8-1.7-12-.7-16.7 2.6-10 4 8 9.8 28 14.6 48.4 4.6 20 7.5 36.8 9 49a21.3 21.3 0 0 1 .3 3.8c0 .8-.5.4-1-.2-2-2.8-5-10-8-19-2.8-8.3-5.7-18.6-8-28.4"/><path d="m456.7 308.8-7-119.4-40.6-86-98-70.7-4.3-3-116.5-9.4-38.2 21L83.2 79 56 93.9 20.9 227.7l26 110.1.6 138.5 49.9 9.4 96.4 105.9 62.8-10.6a54.1 54.1 0 0 0 20.6-10.2l58.9-48a54.2 54.2 0 0 0 15-17.1l32.6-55.2 61.5-104.3 3.6-6a54.4 54.4 0 0 0 7.9-31.4Zm-95.7 157a21.4 21.4 0 0 1-3.9 2.2 23.3 23.3 0 0 1-17.8-.8 46 46 0 0 0 4.9-8.8 40.4 40.4 0 0 0 4.2-1.8 28.7 28.7 0 0 0 5.8-3.8 41.4 41.4 0 0 0 10.7-3l7.6-.3-11.5 16.3Zm-159.1-25.4a12.7 12.7 0 0 1-4.3-3.7l.8-.9a16.4 16.4 0 0 0 3.6 1 18.6 18.6 0 0 0-.1 3.6Zm-4.4-5-.4.4-.4-.9Zm-10 1.8a7.3 7.3 0 0 1 .8-2.4l3.8.9c.6.1.9-.9.3-1l-3.6-.8a12.4 12.4 0 0 0 .8-2 6.8 6.8 0 0 0 .3-1 6.2 6.2 0 0 0 1.3-1l.2-.2a16 16 0 0 0 4.3 4.5.5.5 0 0 0-.1.4 9.6 9.6 0 0 0 .8 1.9l-1 .8a11.7 11.7 0 0 1-5 2.9 2.5 2.5 0 0 1-2.4-.7 3.1 3.1 0 0 1-.5-2.3Zm-.8-3.7a4.8 4.8 0 0 1 2-1.7 16 16 0 0 1-1 1.9Zm1-10.7a21.8 21.8 0 0 1-4.4-7.8 21 21 0 0 1-.9-5c-.1-2 0-3.8-.2-5.7a14.4 14.4 0 0 0-2-4.8 6.5 6.5 0 0 1-.8-4c.4-2.5 2-4.7 3.5-6.7l1.2-1.7a15.3 15.3 0 0 0 4.6 7.8q.2 6.6.2 13.4a31.5 31.5 0 0 0-1.6 9 31 31 0 0 0 .3 5.6ZM173 301.3a7.3 7.3 0 0 0-1.2 3.5 8.3 8.3 0 0 1-1-2 10.3 10.3 0 0 1-.1-5.4 9.5 9.5 0 0 1 2.3-4.3c1.5 4.5 2.7 9.1 3.9 13.8l.8 3.3-3.4-2.6a14 14 0 0 1-1.6-1.5 6.9 6.9 0 0 1 1.2-4.3c.3-.5-.6-1-.9-.5Zm4.2 9.7a9.5 9.5 0 0 1 .8.7l.4 1.8a8.7 8.7 0 0 0-1.1 1.1 19.7 19.7 0 0 1-2.7-3.1 11.4 11.4 0 0 1-1.7-3.8c1.3 1.2 2.9 2.2 4.3 3.3Zm1.5 3.5.4 1.8-1.1-1a8.9 8.9 0 0 1 .7-.8Zm-1.3 1.6 1.5 1.4.6.5.8 4a7.7 7.7 0 0 0-2.7 4 8.5 8.5 0 0 1-1.3-2.5 9 9 0 0 1 1-7.4Zm3.2 7 1.3 6.6v.6c-1.2-1.1-2.5-2.2-3.5-3.4a7 7 0 0 1 2.1-3.8Zm-2.4 5 1.7 1.6 2.1 2a41.3 41.3 0 0 0 1 5.8l.7 2.3.1.8-.1.3-1.9-2.7a18.5 18.5 0 0 1-3.6-10Zm5.6 14.6.4.6.4 2.2a.5.5 0 0 0-.5.3 41.1 41.1 0 0 0-1.5 5.3.1.1 0 0 1 0-.1 9.2 9.2 0 0 1 .1-5.8 19.9 19.9 0 0 1 1.1-2.4Zm1 4.3 1.6 12c-1-2-2.2-4-3-6a42 42 0 0 1 .9-4.2c0-.6.3-1.2.5-1.8Zm-1.8 7.8c1.2 2.5 2.7 4.8 3.6 7.3l.7 7a40.7 40.7 0 0 0-2.1 4.5l-.7-2a40.1 40.1 0 0 1-1.5-16.8Zm2.7 20.2a33.6 33.6 0 0 1 1.8-4.1c.6 7.5 1 15 1.2 22.6a14.9 14.9 0 0 1-4-7.6 13.3 13.3 0 0 0 1.9-4 12.4 12.4 0 0 0-.9-6.8Zm-.5 1.7a12.6 12.6 0 0 1 .5 2.5 9.3 9.3 0 0 1-1.2 5.1 16.3 16.3 0 0 1 0-1.8 20.8 20.8 0 0 1 .7-5.8Zm3.7 35.5-.1 8.7a16 16 0 0 0 .3 3.5l-.2-.2a29.6 29.6 0 0 1 0-12Zm.3 13.6.3.2a16 16 0 0 0 1.2 2.9 2.7 2.7 0 0 1-.8 1 17.4 17.4 0 0 0-.6-4Zm-26.8-153.2a45.5 45.5 0 0 1 5 7.4 13.7 13.7 0 0 0 1.4 5.7 19.6 19.6 0 0 0 2.4 3.6 24.8 24.8 0 0 1-5.2-2.7 9.6 9.6 0 0 1-3.8-5.8c-.6-2.5-.7-5.1-1.2-7.6l-.5-1.7Zm-2.3-2.4v-.4l.5.6Zm8.6 12.5a83.6 83.6 0 0 1 1.2 3 13.6 13.6 0 0 1-1.2-3Zm-9.8-13.2-1-.6a20.2 20.2 0 0 1-4.3-2.9 5.4 5.4 0 0 1-1.6-2.5l1.7.6a51 51 0 0 1 4.7 4.1l.5 1.3Zm-8.9-8-9.2-3.7 2.7.2a55.7 55.7 0 0 1 6.5 3.5Zm-18.7-7.6a59 59 0 0 1 9.4 2.9l-2.7-.2Zm3.9 2.6h-1.4c-9.9 0-19.8.8-29.7.4l-4.5-.3.4-.3a51.5 51.5 0 0 1 26.5-3.2l8.6 3.4Zm-80 14.8a3.9 3.9 0 0 0 0-.5 7.5 7.5 0 0 0 0-1 .2.2 0 0 0 .1-.3c0-.3-.2-.5-.3-.8l-.5-2.9c-.3-3.3 1-6.4 2-9.4a42.6 42.6 0 0 0 1.8-8.9c.4-3.6.6-7.4 1.3-11a14 14 0 0 0 1.9 3c.8 1 1.7 1.9 1.7 3.3a26.5 26.5 0 0 1-1 3.6 5 5 0 0 0 .1 2.7 190 190 0 0 1-5.1 21.7 8.8 8.8 0 0 0 1.7 2 .5.5 0 0 0-.5.3 5.2 5.2 0 0 0 1.6 5.4 5.7 5.7 0 0 0 .6.5 5.9 5.9 0 0 1-2.1.5c-2.4 0-5-1.7-4.5-4.3l1-3.2.7 1.8c0 .3.4.2.3 0l-.8-2.5Zm-.8-70.8a3 3 0 0 1 0 .4l-1.5-2a17 17 0 0 0-4.1-4.1 20.5 20.5 0 0 0-5.6-2.2c-2-.6-4-1.3-5-3.2a4 4 0 0 1-.3-3.3 41.5 41.5 0 0 1 16.5 14.4Zm1 1.5 1 1.9-1-1.7v-.2Zm3.4 7 .7 1.1a54.8 54.8 0 0 1 2.8 8.7 6.4 6.4 0 0 0-1.4-2 19.9 19.9 0 0 1-1.9-2.2 21.1 21.1 0 0 1-2.6-5.2 21.8 21.8 0 0 1-1-5.4l3.4 5Zm3.7 10.6.5 2.7a20.8 20.8 0 0 0 .4 3.7 77.8 77.8 0 0 1 .1 14.3 5.7 5.7 0 0 0-.5-.6 16.2 16.2 0 0 1-3-4.7v-.2a21.4 21.4 0 0 1 2.6-6.5c.4-.5-.5-1-.9-.5a20.5 20.5 0 0 0-2.3 5.2 15 15 0 0 1-.3-3.4 13.8 13.8 0 0 1 1.2-5.3 16.5 16.5 0 0 1 1.4-2.5 3.8 3.8 0 0 0 .8-2.2Zm-3 53.7a.6.6 0 0 0 0-.1 11.8 11.8 0 0 0 6 2.2 20.9 20.9 0 0 1-3.8 3.1c-1.7-1-3-3-2.3-5.1Zm4.6 4.8c1-.8 2-1.7 2.8-2.6a17.8 17.8 0 0 0 7.9-1.7l1.2-.6a22.7 22.7 0 0 0 3.8-1 19 19 0 0 0 7-3.8 14.5 14.5 0 0 0 2.5-3 19.2 19.2 0 0 0 1.7-4 2.2 2.2 0 0 1 .1-.2 41.5 41.5 0 0 1 6.5-4 262 262 0 0 1-5.9 6.6 48.9 48.9 0 0 1-21.1 14.7c-2.5.7-5.3 1.3-7.8.5l1.2-.9Zm14.5-6.5c4-2.7 7.3-6.3 11-9.3l-.1.4a12.8 12.8 0 0 1-2 3.5 17.3 17.3 0 0 1-9 5.4Zm288.7 177h-.2Zm-101.6-7.3 1.5-.7a56.4 56.4 0 0 1 6.8-3.4l4 .4a18.5 18.5 0 0 0 1 2.4 36.6 36.6 0 0 1-13.4 1.4Zm6.4 1-.6 1.3a22.4 22.4 0 0 0-2.4-1 26.8 26.8 0 0 0 3-.2Zm-21-3-.2-2.4a68.3 68.3 0 0 0 9.1 4h-.7c-2.8-.3-5.5-.9-8.2-1.6Zm3.6 1.8-3.3.2-.1-1 3.4.8ZM251 436q10.4.4 20.8 1.1l-1.8.9-4.3 2.3a9.1 9.1 0 0 1-2 .8c-4.6-1-8.6-3.1-12.7-5.1Zm35.8 3.1h.1a27.4 27.4 0 0 0 4 1 37.2 37.2 0 0 0-4.5 2h-.1a14.7 14.7 0 0 1-2.9-2 54 54 0 0 1 3.4-1Zm-4.2.1a15 15 0 0 1-1-1.2l1.8.1 1.5.5Zm6.5-.5 4 .4a13.5 13.5 0 0 1-3-.2l-1-.2Zm-1.1 3.6a37.6 37.6 0 0 1 5.8-2.2l1-.2 2.5 3.4-1.4.2a17.1 17.1 0 0 1-8.4-.9c.2 0 .4-.2.5-.3Zm-6.5-2.9-1.5.4a18.4 18.4 0 0 1-1-2h1.3a13.8 13.8 0 0 0 1.2 1.6Zm-8.3 3a.5.5 0 0 0 0-.1 61.2 61.2 0 0 0 6.3-1.3 15.3 15.3 0 0 0 2.9 3.6c-1.4 1-2.9 2-4.7 1.8a13.6 13.6 0 0 1-5-2l-.3-.2.8-1.8Zm7.3-1.7 1.8-.4a14.8 14.8 0 0 0 3.1 2.3l-2.2 1.4a14 14 0 0 1-2.7-3.3Zm6 2.5a15.4 15.4 0 0 0 5.8 1.4 25.4 25.4 0 0 0 5.7-.4l.3.3a25 25 0 0 1-7.8 2 10.3 10.3 0 0 1-6.4-1.8l2.4-1.5Zm9.4-3.5.8-.2 6.4.7 1.9 1.3c-2.2.6-4.4 1.2-6.6 1.6l-2.5-3.4Zm4.8 4-1.4.5-.2-.2Zm1.2.5a25.6 25.6 0 0 1 5.3-1.3l2 1.2a84.4 84.4 0 0 0 8.3 9.3 88.4 88.4 0 0 0 7.9 6.8 28.4 28.4 0 0 1-8.4-1.7 36 36 0 0 1-12.5-8.5l-4.6-5Zm3.3-3.7 1.5.1.3.4-.7.2Zm2.8.3Zm22.2 4.5a28 28 0 0 0-1.7-1.9l4.6.6a24.1 24.1 0 0 1-2.9 1.3Zm5-1 12 1.7-5.6.7-7.4.9h-2l-1.3-1.5 4.2-1.8Zm-6.2 1 .1.2c-2.7.4-5-1.5-7.2-3l4.8.7a25.2 25.2 0 0 1 2.3 2.2Zm-2.5 1a6.4 6.4 0 0 0 3.3 0l1 1.2-2.7-.2a29.6 29.6 0 0 1-8.5-2.4 42.5 42.5 0 0 0-7.7-2.7 15.6 15.6 0 0 0-3.1-.4l-.1-.1 1.2-.2 1.7-.3 7.6 1c2.6 1.2 4.6 3.3 7.3 4.1Zm-1.5 1.5a34 34 0 0 1-12.8-3.2l-2.3-1.2-.4-.6a23.7 23.7 0 0 1 8 2.3 44.2 44.2 0 0 0 7.5 2.7Zm-5.4 6.2a85 85 0 0 1-8.2-8.7 35.2 35.2 0 0 0 13.7 3.5 54.1 54.1 0 0 0 6.7 0 11 11 0 0 0 1.2 1 13.3 13.3 0 0 0 5.4 2.4 39.4 39.4 0 0 0 5.8 1h.7a43.9 43.9 0 0 1-1.5 4.3 51 51 0 0 1-8.2 2 46.7 46.7 0 0 1-8 .7 84.8 84.8 0 0 1-7.6-6.2Zm25.6 1.7.7-2.4a42 42 0 0 0 6.4-.2 32 32 0 0 1-7.7 4l.6-1.4Zm1.4-3.4h-.5a.5.5 0 0 0-1 0 39.6 39.6 0 0 1-4.5-.6 18.5 18.5 0 0 1-5.8-1.8 9 9 0 0 1-1.6-1.2l1.2-.2h.4a154.7 154.7 0 0 0 19.6-1.5l3.3.4a20.9 20.9 0 0 1-4 4.6 39.8 39.8 0 0 1-7.1.3Zm12.2-4.8 6.5.9-.7.3h-.2a.5.5 0 0 0-.4.3 40.3 40.3 0 0 1-8.5 2.6 21 21 0 0 0 3.3-4ZM246 439.2l4 1 .2 1.2a47 47 0 0 1-9-.3 24 24 0 0 1-9.6-3.4 55.8 55.8 0 0 1 14.4 1.5Zm-6-2a8.3 8.3 0 0 1 5.5.9.4.4 0 0 0 .1 0l-5.6-1Zm8.5-1.3 1.2.6.2 2.6-.5-.2-3.7-.7a.5.5 0 0 0 .3-1c-3-2-6.7-.8-10-.6a9.7 9.7 0 0 1-4.9-.8q8.7-.2 17.5 0Zm-17.6.9h-.5a11.5 11.5 0 0 1-1-1 5.7 5.7 0 0 0 1.5 1Zm-6.5-.9a2.7 2.7 0 0 1-3.7.2Zm-11.8.6-1.6 1-1.6 1a5.4 5.4 0 0 1-1.6.7c-.5 0-.5-.2-.5-.6v-1.7l5.3-.4Zm-9.7.5a16.3 16.3 0 0 0 3 0h.3v1a2.5 2.5 0 0 0 .4 1.8c1 1 2.7-.1 3.6-.6a34.4 34.4 0 0 0 4.2-2.8l4.8-.3a4 4 0 0 0 6.6-.2l2.2-.1a12.2 12.2 0 0 0 1 1 26.5 26.5 0 0 0-8.8 2.8 40.5 40.5 0 0 0-4 2.4 8.8 8.8 0 0 1-4.1 1.8c-1.9.2-3.8-.6-5.5-1.3a37 37 0 0 1-3.8-1.6 19 19 0 0 1 .1-3.9Zm5 7a10 10 0 0 0 5 .8 10.6 10.6 0 0 0 4-2 34.4 34.4 0 0 1 4-2.5 23.8 23.8 0 0 1 4.6-1.7 30.7 30.7 0 0 1 4.5-.8 21.2 21.2 0 0 0 7.7 3.6 33 33 0 0 0 8.6 1h4a53.5 53.5 0 0 0 8.7 18.3v.1a29.9 29.9 0 0 1-15 7.3c-7 1-14.3-1.3-20.8-4-6-2.4-12-6-15.8-11.2a23.6 23.6 0 0 1-4.6-10.8 48.2 48.2 0 0 0 5.2 2Zm46.6 7a42 42 0 0 1-3-8.7l6.3-.3h1.1a13.8 13.8 0 0 0 3.5.3h.3a24 24 0 0 1 6.2 1.4 17 17 0 0 1 2 1 54.6 54.6 0 0 1-9.8 14.3l-1.2 1.2a68.7 68.7 0 0 1-5.3-9.3Zm17.3-6c2.2 1.3 4.5 2.6 7 2.3a9.6 9.6 0 0 0 4.2-2 10.7 10.7 0 0 0 4.4 2c3.9.8 7.7-.6 11.4-2a45 45 0 0 0 16.1 13.5 30.2 30.2 0 0 0 11.8 2.4 65 65 0 0 0 7.4 4.7l3.4 1.7a45.2 45.2 0 0 1-5.8 6.3 44 44 0 0 1-24.7 11 44.8 44.8 0 0 1-26.1-5.2 60.4 60.4 0 0 1-19.2-17l-1.2-1.8a53.1 53.1 0 0 0 11.3-15.8Zm64.3 20.9a61 61 0 0 1-7.7-4.6c1.5 0 3-.2 4.6-.4a54 54 0 0 0 9.7-2.1 44.6 44.6 0 0 1-4.6 8l-2-1ZM238.4 30.8h-4.6 4.5Zm-203.6 199a236.3 236.3 0 0 1 2-41.6 6.5 6.5 0 0 0 2.3 3.7c1.7 1.2 3.9 1.6 5.8 2.2a12.3 12.3 0 0 1 5.5 3.3 38.7 38.7 0 0 1 4 5.1 22.4 22.4 0 0 0 2.8 11 29 29 0 0 0 3.5 4.7 2.6 2.6 0 0 1 .8 1.5 2.8 2.8 0 0 1-.6 1.6 17.5 17.5 0 0 0-1.5 2.5 15 15 0 0 0-1.3 5.4 15.2 15.2 0 0 0 .9 5.7 75.7 75.7 0 0 0-1.4 10.6 48.2 48.2 0 0 1-1.6 9.3c-1 3.1-2.3 6.1-2.5 9.4-1.2-3.4-2.4-6.8-3.9-10l-.7-1.5a.2.2 0 0 0 0-.4h-.2c-.5-1.3-1.1-2.5-1.8-3.8l-.3-.8a.2.2 0 0 0-.2 0 39.9 39.9 0 0 0-2.4-3.9l-.8-1.1.2-.6c.1-.2-.3-.3-.4 0l-.1.3-.3-.3c.2 0 .2-.4 0-.4h-.4a15.7 15.7 0 0 0-2.2-2.2c-.5-.3-1.2-1-1.8-1-.9 0-1 1.3-1 2a71.5 71.5 0 0 0 0 8.2l.1 3.5v.4l.2 4.4.1 3v.1l.1 1.6q-.7-4.8-1.2-9.7a293 293 0 0 1-1.7-22.1Zm19 37.5-5.4-14.8.4.7c1.8 4 3.3 8 4.7 12.1a17.7 17.7 0 0 0 .3 2ZM42.5 255a20.6 20.6 0 0 0-.4 2.9v4.4c-.3.3-.5.6-.6 1a48.5 48.5 0 0 1 .2-5c0-1 .2-1.9.3-2.8a4 4 0 0 1 .7-1.4c0 .2 0 .4-.2.6a.2.2 0 0 0 0 .3Zm0 7.5a5.8 5.8 0 0 1 .7-1c1.1-1.1 2.1.5 2.7 1.4a33.9 33.9 0 0 1 1.7 3.4l3.7 8.2 6.7 15.2a148.3 148.3 0 0 1 5.6 15.8c3.5 12 6.1 24.1 8.8 36.3 2.5 11.3 4.8 22.6 6.7 34 1.7 10 3.3 20.1 3.5 30.2a48.2 48.2 0 0 1-.1 5.5 11.2 11.2 0 0 1-.8 3.6c-.2.5-.6 1.2-1.3 1-.9 0-1.6-1-2.1-1.5a39 39 0 0 1-5.1-9.2 12.3 12.3 0 0 0 2.6 3.7 12.7 12.7 0 0 0 2 1.5 2 2 0 0 0 1.9.3 2.8 2.8 0 0 0 1.1-1.9 18.3 18.3 0 0 0 .5-4.3c0-2.2 0-4.4-.2-6.6a266.1 266.1 0 0 0-4.2-29q-3.2-16.9-7.2-33.7c-2.6-11-5.5-22-9.2-32.7a141.8 141.8 0 0 0-9.1-21.8 41.2 41.2 0 0 0-3.4-5.2c-.7-1-1.8-2.5-3.1-2.6s-1.7 1.3-2 2.2a17.4 17.4 0 0 0-.3 4.7 54.2 54.2 0 0 0 .7 6.8.2.2 0 0 0 .2.2.3.3 0 0 0 0 .1h-.2l-.9-5.9-.3-2v-.4a49.6 49.6 0 0 0 .5-7.5l-.1-8.8Zm2.4 24.6a1.6 1.6 0 0 0-.2-.2 1.6 1.6 0 0 0-.2-.5.2.2 0 0 0-.4.1.7.7 0 0 0-.3 0c0-.7-.2-1.3-.3-2h.1c.3 0 .5.2.6.4l.2.2.5 2Zm-1-.2a1 1 0 0 1 .2 0 .6.6 0 0 1 .1.2l.2.1.2.9v.1c0-.2-.3 0-.3.1l.2.6a17 17 0 0 0-.5-.7l-.1-1a.2.2 0 0 0-.2-.2.3.3 0 0 0 .1-.1Zm.7 4.5v.4-.5Zm0-1-.2-.3-.2-.8.4.8v.5a1.6 1.6 0 0 1 0-.3Zm-.8-.6 1.5 9.8-1.5-9.8Zm1.4 3.3.2.6-.2-.6Zm.2-3.9-.2-.5a1.5 1.5 0 0 1 0-.2h.1l.5 1.6.3.9Zm.5-1.3v.4l-.4-1.4.4 1Zm-.2-2.4a8.2 8.2 0 0 1 .1-.8v1.2Zm1-2.5c.3-.2.7.1 1 .4a4.4 4.4 0 0 1 .6.5.3.3 0 0 0 0 .2.2.2 0 0 0 0 .1l4.5 12.5A23.2 23.2 0 0 0 50 292c-1-1.4-2.4-2.5-3.4-4l-.2-.7v-4a.7.7 0 0 1 .2-.1Zm-.2-.5v-.1a2.6 2.6 0 0 1 .3-1.2c.2-.2.3.1.5.3a7 7 0 0 1 .6 1.4 1.4 1.4 0 0 0-1.4-.4Zm28.8 109.7a212 212 0 0 0-2.7-19.6A511.6 511.6 0 0 0 60 317.6c-2.6-9.1-5.7-18-8.8-26.9l-1.8-5.1a32.6 32.6 0 0 1 1.5 3 102.3 102.3 0 0 1 4.2 10c3 8.6 5.5 17.3 7.8 26a578.4 578.4 0 0 1 13 65.6 38.7 38.7 0 0 1 .1 5.8 13.7 13.7 0 0 1-.5 2.8.6.6 0 0 1 0-.2 55.4 55.4 0 0 0-.2-6.3Zm-1.5 8.5a3.2 3.2 0 0 1-.3-.2l-.5-.8-1-2.3c-1.6-4-3-8.3-4.5-12.4-3-8.8-5.6-17.8-8-26.8q-3.6-13.9-6.7-28c-2-8.9-3.6-18-4.9-27l-.2-2c.1 0 .3 0 .2-.2l-.1-.5a.2.2 0 0 0 .1-.2l-.6-1.8-.1-1.2 1.4 4.2c0 .2.4.1.4 0l-1.6-4.8a2.6 2.6 0 0 0 .1-.3v-.1l.3.3.4 1.1a.2.2 0 0 0 .2.2l.7 1.6c.1.2.5.1.4 0a23.2 23.2 0 0 0-1.4-3l-.2-.7a.4.4 0 0 1 .6-.2 1.7 1.7 0 0 1 .2.2l.2.4 1.6 4.5c0 .3.4.2.3 0L50 298a13 13 0 0 0 .9 1.2c.1.2.4-.1.3-.3a10.5 10.5 0 0 1-.7-1 .2.2 0 0 0 .1-.2l-.2-.4s.2 0 .2-.2l-1.5-3.5.7 1.4a58.6 58.6 0 0 1 2.2 6c.1.3.5.2.4 0A58 58 0 0 0 50 295l-.2-.5v.1a46.3 46.3 0 0 1 3.3 6.7c0 .2.4.1.3-.1a46.6 46.6 0 0 0-3.3-7 8.2 8.2 0 0 0-1.8-2.2l-1.1-2.7.3.4 1.8 1.9a18.6 18.6 0 0 1 2 3 44 44 0 0 1 2.7 6.6.2.2 0 0 0 .3.1l2.9 8.8c2.8 9 5.1 18.3 7.4 27.5q3.2 13.2 5.8 26.5a325.3 325.3 0 0 1 4.5 29.7 40.7 40.7 0 0 1 0 5.6l-.1.9c-.1.4-.5.8-1 .6Zm1 .5c-.1.2-.2.4-.4.4s-.3-.1-.4-.3a1 1 0 0 0 .3 0 1.2 1.2 0 0 0 .4-.1Zm-3.3-3.6-.3-.6a99.8 99.8 0 0 1-4-10.5 317.1 317.1 0 0 1-2.6-8.9 386.7 386.7 0 0 0 7 19.8.9.9 0 0 0 0 .2ZM47.5 292a1.5 1.5 0 0 1 .4.2l.2.3 1.8 4.2a5 5 0 0 0-.8-1 9.4 9.4 0 0 0-1-2l-.2-.3-1.4-3.5v-.7l.7 1.8a.2.2 0 0 0 .3 0l.4.7a2.2 2.2 0 0 0-.3 0 .2.2 0 0 0-.1.3Zm-.4.5a9.1 9.1 0 0 1-.5-1.1v-.2Zm0 .6.7 1 .6 1.3a.7.7 0 0 0-.5 0 .5.5 0 0 0-.2.1l-1-2.7v-.3a3.7 3.7 0 0 0 .4.6Zm.3 2.7v-.1l-.2-.1-.3-.6v-.8l.5 1.6Zm0 .3-.2.2v-.3Zm-1-.7.1.7-.4-1.4a5 5 0 0 0 .4.7Zm-.4-3.3-.2-.8.4 1v.6l-.2-.8Zm-.5 3V295.4l1.6 5.2c.8 6.5 1.9 13 3 19.6q1.2 6 2.6 11.8l-.4-1.4a421.7 421.7 0 0 1-6.6-34.5l-.2-1Zm4.8 29.1c2.3 10.2 4.8 20.2 7.3 30.3 1.7 6.8 3.4 13.5 5.4 20.3q-2.6-8.7-4.9-17.5-4-15-7.3-30.2l-1.9-9.5 1.4 6.6Zm14.8 59.3a314.3 314.3 0 0 0 1.4 4.6c-2.4-7.1-4.5-14.3-6.5-21.5l-.4-1.7q2.6 9.3 5.5 18.6Zm1.8 3.9-.9-2.8a137 137 0 0 0 3.8 10.5 31 31 0 0 0 2.2 4.4 7.1 7.1 0 0 0 1 1.5 4.4 4.4 0 0 0 .7 1c1 .9 1.4-.2 1.6-1.4a8.8 8.8 0 0 0 .4-.8 12.3 12.3 0 0 0 .8-3.5 53.6 53.6 0 0 0-.6-11.5A565 565 0 0 0 56.8 302a139 139 0 0 0-4.4-11.5 29.8 29.8 0 0 0-3.6-6.7 13.8 13.8 0 0 0-1-2.4c-.2-.3-.4-.7-.8-.8-.7-.2-.9 1-1 1.5l-.1 1a3.3 3.3 0 0 0-.3.7 7.3 7.3 0 0 0-.3.9l-1.6-3.8c0-.2-.4-.1-.3 0v.3a.1.1 0 0 0 0 .2l1 2.7a.2.2 0 0 0-.2.2v.2a1.1 1.1 0 0 0-.6-.3.1.1 0 0 0-.2 0 42.9 42.9 0 0 1-.3-4.4 14.6 14.6 0 0 1 .4-4.6c.2-.5.4-1.3 1-1.4s1 .2 1.5.5a18.4 18.4 0 0 1 3.8 5.1 119 119 0 0 1 8.9 19.8 300.8 300.8 0 0 1 9 30.7c2.8 10.9 5.2 21.8 7.4 32.8 1.8 9.5 3.6 19 4.8 28.7a93.5 93.5 0 0 1 .9 13.6c0 1.2 0 6.6-2.5 5.4a9.8 9.8 0 0 1-3.5-3 27.8 27.8 0 0 1-2.8-5.6c-2-4.7-3.6-9.6-5.2-14.5Zm-23.3-99a.6.6 0 0 1 0-.2v-.3ZM42 277.5v.5l-.4-2 .2-3.4-.3-8.1.6-1.2c0 4.8.4 9.5-.1 14.2Zm-1.6-34.9-.2-.1c-.2-.2-.6-.5-1-.4s-.6.7-.7 1a23.1 23.1 0 0 0-.8 4.3l-.1 1.2v-8.3c0-.4.1-1.6.9-1.3a5.2 5.2 0 0 1 1 .6 14.9 14.9 0 0 1 2.4 2.1 2.6 2.6 0 0 0-1.5 1Zm1.8-.5.6.6a1.2 1.2 0 0 1-1 .8 1.7 1.7 0 0 1-1-.6 2.3 2.3 0 0 1 1.4-.8Zm-4.2 5.4a20 20 0 0 1 .9-4.4c0-.3.2-.7.7-.6a1.9 1.9 0 0 1 .6.4c-1.2 1.6-1.5 4.4-1.7 5.8l-.6 9-.3-5.4.4-4.8Zm5.6-.1c-.4.2-1-.2-1.4-.6.2-.6.4-1.3.8-1.5.9-.5 1.7 1.7 2 2.3a.2.2 0 0 0 0 .1l.9 2.3a2 2 0 0 1-1-.3 6 6 0 0 0-1.7-.8 2.9 2.9 0 0 0-1.4 0c0-.5.2-1 .3-1.4v-.3c.5.4 1.1.9 1.7.5.2-.1 0-.5-.2-.3ZM41 271v-5.2a4.1 4.1 0 0 1 .2-.5c0 3 .3 6 .2 9l-.1-.6a.3.3 0 0 0 0-.2l-.3-2.5Zm-.6 0 .2.8v2l-.2 3v.3L40 276a47.3 47.3 0 0 0 .4-4.8Zm0-15.2c0-.6 0-1.1.2-1.7a10.3 10.3 0 0 1 .4-1.8l-.6 6.7V255.8Zm.4 20.5.1-2.1.4 2.3a56.1 56.1 0 0 1-.5 3.2l-.3-1.5a7.4 7.4 0 0 0 .3-1.8ZM41 264l-.2.3.2-3.4v3.2Zm-.3-3.7-.2 4.8-.2.5V263a178 178 0 0 1 1-11.5.8.8 0 0 1 .7-.3 1.4 1.4 0 0 0-.4.2.2.2 0 0 0 .3.3.7.7 0 0 1 .3-.2l-.7 4a21.4 21.4 0 0 0-.8 4.8Zm.7-9.3.2-1.7h.2a2.9 2.9 0 0 1 2 .2c.6.3 1.4 1 2.1.9l.6 1.2a3.5 3.5 0 0 0-2.3.4 2.2 2.2 0 0 0-.2.2 3.5 3.5 0 0 0-1.2-.9.2.2 0 0 0 0-.1 1.2 1.2 0 0 0-1.4-.1Zm.1-3.2-.2 1.2a7.2 7.2 0 0 0-1.2.6.2.2 0 0 0 .2.3 7 7 0 0 1 1-.5l-.4 2a5.9 5.9 0 0 0-.8 2.3l-.2-4.5a.2.2 0 0 0-.2-.2 11.7 11.7 0 0 1 1-2.6 1.8 1.8 0 0 1 1 .5l-.2 1Zm-1.7 8-.1 1c-.3 4.1 0 8.3-.4 12.4l-.2 2.1-.4-2.2V263.3l.2-3.2a116 116 0 0 1 .4-9.4l.2-.9.3 6Zm-1.5 10.5v-.1a1.5 1.5 0 0 0 0-.2Zm1.2 5a38 38 0 0 0 .3-5.2v-6.5l.2 4.8-.2 4.2-.3 5-.2-1.2a11.3 11.3 0 0 0 .2-1Zm1.2 9.2a8.5 8.5 0 0 0 .5-2v-.6l.4 1.8a8.3 8.3 0 0 1-.7 2l-.2-1.2Zm1.4-26.2.3-1.7a.1.1 0 0 0 .1-.1l.1-.8a2.9 2.9 0 0 1 1 .8 3.7 3.7 0 0 0-.7 1 2.2 2.2 0 0 0-.8.8Zm1.1-.6a1.7 1.7 0 0 1 .3 0c.2 0 .1-.3 0-.4a2.7 2.7 0 0 1 .1-.3 2.4 2.4 0 0 1 .3-.2 21.7 21.7 0 0 1 2 2.6l2.5 3.7.2.3a39 39 0 0 0-5.8-4.4 7.9 7.9 0 0 1 .5-1.2Zm4.1 3.2a52 52 0 0 0-2.3-3.4l-.8-1a3.2 3.2 0 0 1 2.4-.4l2.5 6.4.8 2a23.1 23.1 0 0 1-2.5-3.6Zm-1-6.6a1.3 1.3 0 0 0 .3-.3c.2-.2 0-.5-.2-.3a1.8 1.8 0 0 1-.3.2l-.9-2.3a.2.2 0 0 0 0-.2c-.3-.8-1.7-3.8-2.9-2a4.2 4.2 0 0 0-.5 1.2 3 3 0 0 0-.4-.4 1 1 0 0 0-.6-.1.2.2 0 0 0-.2 0 1 1 0 0 0-.6.3 4.2 4.2 0 0 0-.6 1.5 2.7 2.7 0 0 0 0-.3c.2-1 .4-2.4 1.2-3.1.2-.2 0-.5-.3-.3a4.2 4.2 0 0 0-1 2 20.2 20.2 0 0 0-.5 3 54.9 54.9 0 0 0-.5 7.6c0 2 0 4-.2 6v1L38 260c.5-3.3.5-6.7.8-10a21.6 21.6 0 0 1 1-5.4 7 7 0 0 1 .7-1.4 2.4 2.4 0 0 0 1 .6 1.4 1.4 0 0 0 1.5-.8l.4.6a40.6 40.6 0 0 1 3.2 5l1.2 3.3a7.9 7.9 0 0 0-.8-.2ZM58 395.6l.6 3.4 1.5 9.2a25.3 25.3 0 0 1-.3 3.4l-1.8-16ZM55.7 377c-1.4-10.6-3-21.7-4.6-32.4l3.7 17.5a338.3 338.3 0 0 1 5 34.7c0 1.5.2 3 .3 4.4L55.7 377Zm58.7 102c1-3.2 4.2-4.4 7.2-5a24 24 0 0 0-3.3 5.2 6.7 6.7 0 0 0-3.3 4.1l-1-1.3a10.8 10.8 0 0 1 .4-3Zm5.4 11.3-.6-1 .6-.5v1.4Zm-4.6-6.6a6.6 6.6 0 0 1 2.9-4 32.3 32.3 0 0 0-2 5.4ZM273.3 558a97.7 97.7 0 0 1-29.9 15.8c-10.6 3-21.8 2.8-32.9 2.7-6.1 0-12.5-.1-18.1-2.7-5.3-2.5-9.2-7-13-11.3A1461 1461 0 0 1 141 518c1.3.4 2.5.8 3.8 1a65.2 65.2 0 0 0 7.8 1.5c.2 0 .2-.3 0-.3a68.8 68.8 0 0 1-12-2.7l-.4-.4h1.4c.2 0 .2-.3 0-.3H140l-1.5-2a34.1 34.1 0 0 0 4.6.3.2.2 0 0 0 0-.4 36.8 36.8 0 0 1-4.9-.2l-.7-1c1.5-.1 3-.4 4.4-.6.2 0 .1-.4 0-.3a44.6 44.6 0 0 1-4.7.6l-.6-.7a12.4 12.4 0 0 0 8.4-7.2l-.5-.2a12.6 12.6 0 0 1-4.3 5.3 10 10 0 0 1-4 1.6q-6.4-8-12.5-16.3a3.7 3.7 0 0 1 2-2.3c5-2 10.8-.4 15.8 1l.3-1c-5.2-.4-15.4-4-18.6 1.5l-1-1.3c.3 0 .4-.3.2-.3h-.5l-.3-.5a15.5 15.5 0 0 0 .4-2.6c0-.2-.3-.2-.3 0a16.8 16.8 0 0 1-.4 2.3l-1.2-1.8v-1.9a.2.2 0 0 0-.2-.1 6.4 6.4 0 0 1 1.4-.7 10.3 10.3 0 0 1 5.5-.1c.2 0 .3-.3 0-.3-2.7-.6-5.7-.5-8 1.5l-.8-1.2a12.9 12.9 0 0 1 4.5-3.7 17.3 17.3 0 0 1 6.5-1.5c.2 0 .2-.3 0-.3a15.7 15.7 0 0 0-9.2 3.2 12.8 12.8 0 0 0-2 2l-1.2-1.8a34.6 34.6 0 0 1 3.4-4.7 15.6 15.6 0 0 1 3.2-3.1 8.7 8.7 0 0 1 5.7-1.4c.2 0 .2-.3 0-.3a9.6 9.6 0 0 0-8 3.3 34.3 34.3 0 0 0-4.4 6 41.2 41.2 0 0 1 2-6 5.4 5.4 0 0 1 1-.3.2.2 0 0 0 0-.3 5.6 5.6 0 0 0-.8.2l.9-1.7a21.8 21.8 0 0 1 2.5-3.4c2.3-.4 4.6-.6 7-.8.2 0 .2-.3 0-.3-2.2.2-4.4.3-6.6.7a19.9 19.9 0 0 1 2.6-2.4c.2-.2 0-.5-.1-.3a20 20 0 0 0-3 2.8 15.4 15.4 0 0 0-4.6 1.3 6.4 6.4 0 0 0-3 2.9 8.6 8.6 0 0 0-.7 3.7l-6.6-10c-.2-1.5-.2-3 .8-4.1s3-.4 4.2-.6c6-1 10.7-5.5 14.7-9.6l-.6-.6a30 30 0 0 1-11.7 8.4 11.2 11.2 0 0 1-2.6.7 20.4 20.4 0 0 1-2.7.2c-2.4.3-3 2.2-2.9 4.3l-6.7-11C73.1 475.3 56 467 56 467s7.2-16 5.2-40l-1-12.9a20.2 20.2 0 0 0 .6-2.5c1 7 2 14 2.6 21a150.8 150.8 0 0 1 1 16 30.7 30.7 0 0 1-1.5 10 9.2 9.2 0 0 0-1.5 3A8.5 8.5 0 0 1 60 463c-.4.4.3 1.1.7.7l.3-.2-.1.7a.3.3 0 0 0 .2.4 9.3 9.3 0 0 0-.9.4c-.5.2 0 1 .4.7a11.4 11.4 0 0 1 1.6-.7 12.2 12.2 0 0 0 6.1 2.4 14.2 14.2 0 0 0 6.9-1.3c3.5-1.5 6.5-4 9.7-6l1.6-.2a18.2 18.2 0 0 0 8-3.2 11 11 0 0 1 5 1.2c.5.2 1-.5.4-.7a12.4 12.4 0 0 0-2.2-.8.3.3 0 0 0 0-.4 10.7 10.7 0 0 0-1.3-1 13 13 0 0 0 2-3.1 12.6 12.6 0 0 1 1.2 1.3c.3.4.9-.2.5-.6a13.7 13.7 0 0 0-1.4-1.5 16.5 16.5 0 0 0 .6-1.7.4.4 0 0 0-.8-.2l-.4 1.3a10.4 10.4 0 0 0-12.3-1 18.1 18.1 0 0 0-1.7 1l.9-2c1-2.6 3-7.8 6.6-7 3.4.7 5.5 4.3 9 4.5.5 0 .5-.8 0-.8-1.6-.1-3-1.1-4.2-2a15.4 15.4 0 0 0-4.3-2.4c-3.5-1-5.7 2.5-7 5.3-.8 1.8-1.5 3.7-2.4 5.5-1.5 1.2-3 2.6-4.3 4-3.8 1.2-7.9-.6-11.7.3a6.6 6.6 0 0 0-2.4 1.1 30.5 30.5 0 0 0 .7-3.9 81.5 81.5 0 0 0-.1-15c-.8-10.2-2.1-20.4-3.8-30.5a78.2 78.2 0 0 0-.3-8.3 489 489 0 0 0-8.2-52.3l-3-13.3c-.9-8-1.6-15.9-3.1-23.7l-.6-2.7a.5.5 0 0 0-.5-.4l-2.5-15.7-1.8-8.9a6.6 6.6 0 0 0 .7-1.6l.9 6a.2.2 0 0 0 0 .2l.2.5a630.2 630.2 0 0 0 11.7 59.8l1.1 4.7c2.2 9.5 4.5 19 7.4 28.2q4 12.8 8.4 25.6c1.5 4.3 3 8.7 4.8 13 .2.4.9.2.7-.2a278.1 278.1 0 0 1-6.3-17.4 70.9 70.9 0 0 0 6 12.3c.7 1.2 2.4 4 4.3 3.4a2.6 2.6 0 0 0 1.3-1.7 14.2 14.2 0 0 0 .7-3.7 79.9 79.9 0 0 0-.5-14 630 630 0 0 0-8.4-49.4 712.5 712.5 0 0 0-8.8-37.9 158.7 158.7 0 0 0-5.6-17.1c-2-5-4.2-10-6.4-14.9l-3.7-8.4a45.6 45.6 0 0 0-3.8-7.5c-.4-.6-1-1.5-2-1.4a2.1 2.1 0 0 0-1.4 1v-.7a32.1 32.1 0 0 1 .2-4.8l.2-.8a47 47 0 0 1 7.5 6.2s0 0 .1 0l1 2.6 1.2 3c.2.5.4 1.3.9 1.5.2.1.4-.2.2-.3s-.5-.7-.6-1l-.6-1.4-1-2.8-1-2.3a234.3 234.3 0 0 0-1.2-3.1l-2.3-5.6 1 .2 6.1 17v.3a6.4 6.4 0 0 1-.2 2.5l-.8 2.3a4.2 4.2 0 0 0 .5 3.7 5.4 5.4 0 0 0 2.8 2 6.7 6.7 0 0 0 5.1-.6 9.8 9.8 0 0 0 5 .7 30.4 30.4 0 0 0 12.7-4.6c7.7-4.7 13.6-11.6 19.5-18.2l2.4.2c4.9.4 9.8.3 14.8.2 7.2-.2 14.5-.6 21.8-.3l13.2 5.4c0 2.7 3 4.8 5.2 6l3.1 1.8.7 2.5c.5 2.7.6 5.4 1.3 8a10.4 10.4 0 0 0 3.8 5.6 27.6 27.6 0 0 0 6.8 3.6.3.3 0 0 0 .3 0l.5 1.4a11 11 0 0 0-3.1 9.4 10 10 0 0 0 2.2 5v.1a11.3 11.3 0 0 0 .9 3.4 17.1 17.1 0 0 0 4 5.5 10.2 10.2 0 0 0-1.7 5.8 9 9 0 0 0 1.5 4.9 13 13 0 0 0 .8 1 13.1 13.1 0 0 0 1.6 8 42.8 42.8 0 0 0 4.3 6.8l-1 1.9a10.1 10.1 0 0 0-1 5.7 15.6 15.6 0 0 0 1 3.7 41.7 41.7 0 0 0 .3 15 40.8 40.8 0 0 0 1.6 5.4l.5 1.5a23.3 23.3 0 0 0-1.2 6.5 19.3 19.3 0 0 0 .3 4.1l-.7 1.2c-1.5 2.1-3.2 4.2-4.1 6.6a7.6 7.6 0 0 0-.6 3.4 11.2 11.2 0 0 0 1.7 4.3c1.8 3.4 1 7.3 1.6 10.9a22.6 22.6 0 0 0 3.5 9.2 23 23 0 0 0 2.8 3.4 22 22 0 0 1 1 5.4 2.9 2.9 0 0 1 0 .4 9.6 9.6 0 0 0-2.7 1.9 3.2 3.2 0 0 0-.6 1.3.5.5 0 0 0 .3.6l1.4.3-.5 1.1a4.6 4.6 0 0 0 .4 4.5c1.2 1.4 3 1.3 4.6.7a16.4 16.4 0 0 0 4.6-3l.5-.5a14.3 14.3 0 0 0 5 4.2 24.1 24.1 0 0 0 3.4 9.6 34 34 0 0 0 15.1 12.7 67.7 67.7 0 0 0 10 3.7 35.7 35.7 0 0 0 11.4 1.7c6.7-.2 13-3.3 18-7.7a64 64 0 0 0 18 17.4 46.4 46.4 0 0 0 26.3 7.1 44.7 44.7 0 0 0 34.6-18.1 25.3 25.3 0 0 0 16.7 1.6 19.7 19.7 0 0 0 4.1-1.7c-24.6 33.9-52.2 65.6-86 90ZM95.6 454.6a9.8 9.8 0 0 0-3.7-1.2 11 11 0 0 0-5.7 1c-3.3 1.6-5.8 4.1-8.6 6.3a14.6 14.6 0 0 0-4.5 2.3.5.5 0 0 0 0 .7 9.9 9.9 0 0 1-6.3.9c-.5-.1-.7.7-.2.8 4.3.9 8.1-1.4 11.4-4a34.7 34.7 0 0 1 5-1c-3.9 2.7-7.8 5.8-12.7 6.2a11.4 11.4 0 0 1-7-1.9c2.1-.5 4.4-.7 6.4-1.4a22.2 22.2 0 0 0 7.5-5.2l1.7-1.7a8.4 8.4 0 0 0 4.5-4.2c2.5-2 5.3-3.5 8.5-3.4a10 10 0 0 1 6 2.5 12.7 12.7 0 0 1-2.3 3.3Zm.2 1a7.8 7.8 0 0 1 .7.5l-1-.2Zm-3.9.5a22 22 0 0 0-7.3 3.3l-4.8.7-.3.1c3.1-2.6 6.5-5.7 10.7-6a9 9 0 0 1 4.9 1l-.9.7a13.5 13.5 0 0 0-2.2.2Zm1 .7a12.8 12.8 0 0 1-1.4.8 19.8 19.8 0 0 1-4.7 1.4 22 22 0 0 1 3-1.4 14.5 14.5 0 0 1 3.1-.8ZM70.7 462c-2.6 1.3-5.5 1.4-8.3 2.2l-.4-.3a.4.4 0 0 0-.2 0 11 11 0 0 1 .2-1.4 12.6 12.6 0 0 0 2-3.9 6.2 6.2 0 0 1 3-1.7c3.4-.8 7 .5 10.4 0a26.4 26.4 0 0 1-6.7 5.1Z"/><path d="M142 265.2c-10.6-8-34.6 11.1-42.6 18.4l1.5 2c6.9-4.8 30.4-21.3 38-16.5 7.5 6.7 8.8 20.3 8.8 30a63 63 0 0 1-2.8 16 89 89 0 0 0-2.1 16.8 35.4 35.4 0 0 1-5.5 20.4c-8.8 11.5-23 18.1-36.4 22.7l.8 2.4a79.1 79.1 0 0 0 10.8-3.1 60.8 60.8 0 0 0 28.2-19.6c4.8-6.5 5.2-15 4.9-22.7a57.3 57.3 0 0 1 1.4-16.3c2.9-9 4.9-18.5 4.3-28-.5-8.4-2.3-16.6-9.3-22.5Z"/></svg>