<svg id="Calque_1" data-name="Calque 1" xmlns="http://www.w3.org/2000/svg" viewBox="0 0 488.4 630.3"><defs><style>.cls-1{fill:#fff}</style></defs><path class="cls-1" d="M470 91 328 1 159 6 28 122 0 318l103 177 77 94 116 40 71-80 69-80 52-202ZM143 359c-3-1-7-2-9-4a27 27 0 0 1-7-9 82 82 0 0 1-10-31 118 118 0 0 1-1-35c2-11 6-22 15-30 8-7 19-10 30-11h12l4 1 1-1h1l-1 1h1l1-1 1 1-1 1h2a1 1 0 0 1 0-1h2l-1 1a43 43 0 0 1 8 4c7 4 13 11 18 18 9 13 14 28 15 43a65 65 0 0 1-3 18c-6 20-25 38-46 40-11 1-22-2-32-5Zm203-9c-8-9-12-23-12-37 1-11 1-21 4-32s6-21 13-27a27 27 0 0 1 24-8l3 1h-1l3 1a16 16 0 0 1 1 1 35 35 0 0 1 5 3l-2-2a28 28 0 0 1 3 1l1 2v1l1 1a1 1 0 0 1 0 1c12 12 17 31 15 50-1 19-9 37-18 52a13 13 0 0 1-2 3 13 13 0 0 1-7 2c-11 2-23-3-31-12Z"/><path class="cls-1" d="m452 231-1 22-3-11-11-66c-3-17-9-35-22-47-10-8-24-11-37-14a596 596 0 0 0-262 7c-3 3-5 7-7 12q-23 53-42 108c-6 17-12 34-22 49a380 380 0 0 1 33-162c14-26 39-43 64-59 15-11 31-21 48-27a175 175 0 0 1 39-10 169 169 0 0 1 27-1h1a157 157 0 0 1 29 4c55 13 114 41 143 89 19 32 25 70 23 106Z"/><path d="m53 335-4-18-1-1-3-3-1-1a17 17 0 0 0-2-2 7 7 0 0 0-1 0 3 3 0 0 0-1-1 3 3 0 0 0-1 0c-3 1-2 3-1 4 1 3 4 4 6 7a10 10 0 0 1 3 6l-3 12c1 6 6 10 12 11a4 4 0 0 0 1 0h1l-4-11-1-3ZM431 95 297 22l-117 9-102 74-40 86-6 95v5l-1 19a54 54 0 0 0 7 32l14 22 2 5 1 1 81 137a54 54 0 0 0 15 17l59 48a54 54 0 0 0 21 10l62 11 119-134 54-230Zm2 244c-10 37-20 74-38 107a589 589 0 0 1-100 129c-6 3-12 3-18 3-11 0-23 0-33-3-11-3-21-9-30-16a324 324 0 0 1-58-54l-1-1a683 683 0 0 1-87-131l-1-3-8-19-1-2-4-11-1-3-4-18-1-5q-2-7-2-15l-1-6 1-1a110 110 0 0 0 4-8l1-1 1-2 1-3 1-1v-2l1-1 1-2 1-3 3-6a222 222 0 0 0 7-19q19-54 42-108c2-5 4-9 7-12l10-4c82-20 169-19 252-3 13 3 27 6 37 14 13 12 19 30 22 47a300 300 0 0 1 3 16v4l3 20 1 6 1 3v3l1 2v4l1 4 1 4 3 11c-4 29-11 58-18 86Zm-379-1-1-3-4-18-1-1-3-3-1-1a17 17 0 0 0-2-2 7 7 0 0 0-1 0h-1a3 3 0 0 0 0-1 3 3 0 0 0-1 0c-3 0-2 3-1 4 1 3 4 4 6 7a10 10 0 0 1 2 6c1 4-2 8-2 12 1 6 6 10 12 11a4 4 0 0 0 1 0h1l-4-11Z"/><path class="cls-1" d="M45 291s-14-7-21 0c-6 5-6 17-3 27a44 44 0 0 0 6 13c12 18 4 29 31 39 15 6 32 7 32 7Z"/><path d="M45 292c-13-3-21-2-22 13-1 8 0 18 5 26a80 80 0 0 1 4 8c3 6 5 12 9 17 9 10 27 15 40 18l9 1v3c-16-2-33-4-46-13-8-6-10-16-14-25l-8-16c-5-11-7-31 5-36 6-3 13-1 19 2l-1 2ZM240 323l1-9a193 193 0 0 0-2-29 110 110 0 0 0-7-26c-3-9-8-17-14-24l-20-23-3-4h12v-2l-13 1-2-2 6 1a62 62 0 0 0 20-2 1 1 0 0 0 0-2c-9 3-18 3-27 2l-2-2h3a68 68 0 0 0 18 0v-1a71 71 0 0 1-22-1h-1a7 7 0 0 0-1-1l8 1h15a1 1 0 0 0 0-1h-7a1 1 0 0 0 0-1l-38-4-8-2h3l16 3a115 115 0 0 0 17 1 114 114 0 0 0 19-2v-1a112 112 0 0 1-35 1c-8-2-17-4-26-4l-7-2 3-1h2l28 3 10 2a100 100 0 0 0 16 1 1 1 0 0 0 0-2 90 90 0 0 1-10 0h5a116 116 0 0 0 11 1v-1l-10-2h-2s0-2-1-1h-3l-9-2-5-1h-1l-13-4h-1l-5-1a102 102 0 0 0-12-2 21 21 0 0 0-7 1 22 22 0 0 0-5 2 156 156 0 0 0-14 9l-2 1a1 1 0 0 0 0 1h-2v1a94 94 0 0 0-6 6 1 1 0 0 0-1 0v1l-3 3h-1a1 1 0 0 0 0 1 45 45 0 0 0-5 10l-1 2 1 1a41 41 0 0 1 5-11l-6 12c0 1 1 2 2 1l1-4a1 1 0 0 0 1 1l3-4 1-2h1l25-13h2a38 38 0 0 1 10 1l9 4 3 1h-1l-13 5a46 46 0 0 0-12 6 59 59 0 0 0-9 10l-18 24a58 58 0 0 0-7 12 48 48 0 0 0-4 14 170 170 0 0 0 0 29c1 18 6 36 15 52 8 14 20 27 34 34a72 72 0 0 0 31 8l1 3a31 31 0 0 1 1 7v2l-3 1a1 1 0 0 0-1 1 1 1 0 0 0 1 1l4-1a70 70 0 0 0 1 10v3a302 302 0 0 1-3 31l-4 24v2l-1 4v3h-2c-1 1-4 2-3 4a3 3 0 0 0 0 1l1 1-2 1-5 2a1 1 0 0 0 0 1l7 4v1a141 141 0 0 0-14 2 1 1 0 0 0 0 1 35 35 0 0 1 10 8 308 308 0 0 1 0 4l1-3 1-1-1-1h1l2-9h2a1 1 0 0 0 0-2l-1-1 3-12 5-4a4 4 0 0 0-2-5 6 6 0 0 0 4-3c1-2 0-4-1-7a7 7 0 0 1 1-4 34 34 0 0 0 1-4 17 17 0 0 0 0-5v-4a6 6 0 0 1 0-3 1 1 0 0 0-1-1l2-21v-17a59 59 0 0 0 15-6 118 118 0 0 0 19-14l9-7a88 88 0 0 0 8-9 40 40 0 0 0 7-10 57 57 0 0 0 3-11 145 145 0 0 0 2-26v-4a1 1 0 0 0-1-1Zm-78 189h-1a35 35 0 0 0-8-6 122 122 0 0 1 11-2l-2 8Zm3-11-5-4a5 5 0 0 1 1 0l3-1a3 3 0 0 0 2-1l-1-3c-1-1 0-1 1-2a13 13 0 0 1 2-1l-3 12Zm7-16a5 5 0 0 1-2 2l1-6c1 1 2 3 1 4Zm3-22a12 12 0 0 0-1 4 10 10 0 0 0 0 4 11 11 0 0 1 1 4 5 5 0 0 1-3 4l3-20v-4a37 37 0 0 1 1 6 5 5 0 0 1-1 2Zm15-258 2 2a135 135 0 0 1-26-3l-4-1 5-2 5 2a70 70 0 0 0 9 1l9 1Zm-25-6-8-3-3-1a123 123 0 0 1 17 3v1l-4 1Zm21 2a6 6 0 0 1 1 2 1 1 0 0 0 1 0l1 1-6-1a84 84 0 0 1-9-1l-4-1 5-2 11 2Zm-6-2a12 12 0 0 1 4 1l-4-1Zm-30-8 4 1-9-1h-3a55 55 0 0 1 8 0Zm41-2 1 1a102 102 0 0 1-16-1h6a69 69 0 0 0 9 0Zm-14-3 4 1 5 1a148 148 0 0 1-16-1l-12-1h-3l-7-1 16 1h13Zm-14-4 9 3-19-1a85 85 0 0 0-20 2 27 27 0 0 1 9-3 113 113 0 0 1 21-1Zm-31 2a44 44 0 0 1 5-3 16 16 0 0 1 7-2 70 70 0 0 1 12 2 113 113 0 0 0-13 1 33 33 0 0 0-9 2 39 39 0 0 0-5 3l-4 1 7-4Zm-7 6a48 48 0 0 0 4-2 1 1 0 0 0 1 1l1-1a37 37 0 0 0-4 3h-1a29 29 0 0 0-4 1 32 32 0 0 0 3-2Zm2 2-2 1 1-1h1Zm-9 1h2a17 17 0 0 0-3 1l1-1Zm-3 5a1 1 0 0 0 0-1 14 14 0 0 1 8-4 21 21 0 0 1-4 1c-1 1 0 2 1 2l-3 1-3 1Zm-3 0 2-1h-1a1 1 0 0 0 0 1l-1 1-1 1 1-2Zm-2 3v-1a1 1 0 0 0 1 1l-2 1Zm-3 7h-1a1 1 0 0 0 0 1l-1 1-1 2a4 4 0 0 1-1 2l5-10 2-1-2 3Zm2-1 3-5 7-3-7 6a31 31 0 0 1-3 2Zm6-3 1-1a78 78 0 0 1 7-5l2-1h1a1 1 0 0 0 1 0h2l-14 7Zm13-8h-1l2-1h1l-2 1Zm0-2a1 1 0 0 0-1 0 40 40 0 0 0-4 3l-6 1 4-2a93 93 0 0 1 10-4h1a31 31 0 0 0-4 2Zm3-3h-2a31 31 0 0 1 3-1l8-2a1 1 0 0 0 1 0l4 2h-1a46 46 0 0 0-8 1h-1l4-1v-2l-8 3Zm2 3a1 1 0 0 0 0-1l3-1a200 200 0 0 1 28 3l3 1a207 207 0 0 0 7 2c-10-2-20-5-30-5l-5 1h-6Zm23 7-10-3a44 44 0 0 0-10-3h3l7 1a57 57 0 0 1 9 1l9 3h1l-5 2-4-1Zm20 201a27 27 0 0 0-2-4 2 2 0 0 1 0-1h2v9a31 31 0 0 0 0-4Zm0-15a6 6 0 0 1 0 1v-4a4 4 0 0 1 0 3Zm13-158-3 3a30 30 0 0 1-3 2l3-6 3-1 1-1 3 1-3 2h-1Zm-16 6h-2l-2 1 4-5 4-4 2-2v1h-1v1l-1 3-1 1-3 4Zm1 1h-1 1Zm-65 83a82 82 0 0 0 6 22 60 60 0 0 1-3-6 100 100 0 0 1-5-22 111 111 0 0 1-1-23c1-15 6-29 14-40a65 65 0 0 1 32-22 60 60 0 0 1 11-2l-2 1-4 3c-8 3-15 5-22 9a34 34 0 0 0-10 9c-1 1 1 1 1 1 5-7 12-11 20-14l12-5-4 4a61 61 0 0 0-17 9l-3 2a44 44 0 0 0-10 6c-10 8-15 19-16 31s-1 25 1 37Zm51-87-3 1 5-4 1-1-4 3a1 1 0 0 0 0 1Zm-14 7a33 33 0 0 0-4 3l-4 1a59 59 0 0 1 8-4Zm5-2-5 4h-1a31 31 0 0 1 6-4Zm4-2h1v-1l4-1a1 1 0 0 0 0-1 49 49 0 0 1 9-7h1a63 63 0 0 1-10 9v1a18 18 0 0 0-5 3 42 42 0 0 0-6 2Zm16-8 1-2h1l-1 1-2 1Zm0 1a13 13 0 0 1-7 5l3-2 4-3Zm-3-4h-1l2-2 6-5a31 31 0 0 1-7 7Zm-7 12 7-3a17 17 0 0 0 4-5l1-1 3-2h1l-8 9-2 2a42 42 0 0 0-7 1l1-1Zm12-12 1-1-1 1Zm8 5a10 10 0 0 1-4 4 6 6 0 0 1 0 1v-2l4-3Zm-2 0 1-3a9 9 0 0 0 0-1h2a10 10 0 0 1 0 2l-3 2Zm-3 6a13 13 0 0 0 2-1 11 11 0 0 0 3-2 1 1 0 0 0 1 0 10 10 0 0 1 2-2l-3 5a21 21 0 0 1-3 1 17 17 0 0 1-3 0Zm6-5a12 12 0 0 0 1-3l3-1h2l-2 1a1 1 0 0 0-1 0v1a15 15 0 0 0-3 2Zm11-5a21 21 0 0 0 4-3l4 5a24 24 0 0 0-8-2Zm0-2-2 1h-3a62 62 0 0 1 7-4l1 1a19 19 0 0 1-4 2Zm-7 1h-6v-1h1a1 1 0 0 0 1 0 47 47 0 0 1 8-2v-1a48 48 0 0 0-8 1 1 1 0 0 0-1 0l-1 1-4 2h-1l1-2 2-1a49 49 0 0 1 6-2c1 0 0-2-1-1a50 50 0 0 0-8 2 1 1 0 0 0-1 0l-1 1-1 1a29 29 0 0 0 5-6h-1a1 1 0 0 0-1-1l-10 9h-3a64 64 0 0 0-36 18 70 70 0 0 0-20 36c-3 15-3 32 1 47a71 71 0 0 0 9 22 62 62 0 0 0 7 9 21 21 0 0 0 3 3l5 4a119 119 0 0 0 18 13c7 4 14 7 22 7h3l1 9c-8 0-15-3-22-6l-23-13a71 71 0 0 1-15-17c-9-15-13-32-15-49a124 124 0 0 1 1-26 65 65 0 0 1 8-24 88 88 0 0 1 14-18 108 108 0 0 1 19-15 76 76 0 0 1 22-10c7-1 15-2 22 0a15 15 0 0 1 8 5 1 1 0 0 0 0 1 65 65 0 0 0-8 4Zm-16 147a24 24 0 0 0 3 1v4a3 3 0 0 0 0 1 6 6 0 0 0 1 3v1a43 43 0 0 1-14-2l-20-11-7-6 4 2c9 3 20 5 30 5a6 6 0 0 0 3 2Zm-2-2h4l1 2-5-2Zm6 4h1l1 1-2 1v-2Zm1 8v-5a7 7 0 0 0 2-1c1-2-1-3-3-4l-1-2c23-4 41-21 48-42a65 65 0 0 0 3-21 65 65 0 0 1-3 18c-6 20-25 38-46 40a79 79 0 0 1-42-9 27 27 0 0 1-6-9 82 82 0 0 1-10-31 118 118 0 0 1-1-35c2-11 6-22 15-30a53 53 0 0 1 25-11h-1 1a40 40 0 0 1 9-2v1l-2 1h3v-1a18 18 0 0 1 3-1h4l-1 2h1l1-2a20 20 0 0 0 4 0h1l-1 2h1l3-3 1-1-3 4 1 1 4-4-3 4h2l4-7a89 89 0 0 0 7-6h1a16 16 0 0 1 6 4 1 1 0 0 0 0 1 50 50 0 0 1 5 4l5 6 2 2a65 65 0 0 1 9 22c4 16 2 33 0 49-1 15-3 30-11 44-7 11-18 19-31 22a36 36 0 0 1-6 0Zm2 8a5 5 0 0 0 0-3 17 17 0 0 0-1-3c12-1 23-7 31-16 10-11 15-26 17-40l3-25a141 141 0 0 0 0-26 77 77 0 0 0-5-22 67 67 0 0 1 4 10 106 106 0 0 1 7 42 110 110 0 0 1-9 41 96 96 0 0 1-25 34c-6 5-13 10-21 11h-1a11 11 0 0 1 0-2 3 3 0 0 1 0-1Zm0 6a2 2 0 0 0 0-1 2 2 0 0 0 0-1 34 34 0 0 0 11-3c7-3 13-9 19-14a98 98 0 0 0 13-18 109 109 0 0 0 14-40 111 111 0 0 0-3-43 78 78 0 0 0-15-31 56 56 0 0 0-5-7l-3-3-4-4-6-9a10 10 0 0 0 2-3h-2a8 8 0 0 1-1 2h-1v-1h-1a1 1 0 0 0 0-1c-4-6-12-7-18-7a63 63 0 0 0-24 5 92 92 0 0 0-21 13 108 108 0 0 0-17 17 75 75 0 0 0-12 20c-3 9-4 18-5 27 0 18 3 36 10 52a81 81 0 0 0 12 20 71 71 0 0 0 19 15l13 7a82 82 0 0 0 12 5 35 35 0 0 0 11 1v1a11 11 0 0 1-1 1 68 68 0 0 1-19-2c-16-5-29-15-39-28-10-14-16-30-20-47a157 157 0 0 1-2-28l1-14a52 52 0 0 1 2-14 51 51 0 0 1 7-12l9-11 9-12a75 75 0 0 1 9-10c7-6 15-9 24-12l5-2 4 1a127 127 0 0 0 20 4h9l14 17 17 22c10 15 14 34 15 52s0 37-7 54c-6 15-16 28-30 36a58 58 0 0 1-25 6Zm60-45c-1 8-3 15-8 22a62 62 0 0 1-8 8l-8 8a132 132 0 0 1-18 13 60 60 0 0 1-18 8v-12a63 63 0 0 0 14-2c15-4 28-15 36-29 7-10 10-22 12-34a149 149 0 0 1-2 18ZM284 365h1a149 149 0 0 0 3 14c1 7 3 14 9 17a13 13 0 0 0 2 1 1 1 0 0 0 1-1 1 1 0 0 0 0-1c-6-2-9-9-10-15a155 155 0 0 1-4-25l-1-26 1-26 1-27v-3h-2l-1 27v53l1 8v1l-1 1c-2-4-3-9-3-13l-1-18a307 307 0 0 1 2-35l2-21h-1l-4 37a215 215 0 0 0 0 36c1 5 2 11 5 16ZM308 491l-11 3 5-2v-1a84 84 0 0 1-8 3 436 436 0 0 1-49 3l-12-2c-1-1-1 0-1 1l4 1-1-1a114 114 0 0 1-17-2 1 1 0 0 0 0 1 134 134 0 0 0 26 3 130 130 0 0 0 18 2 133 133 0 0 0 19-2 87 87 0 0 1-18 2 84 84 0 0 1-12 0v1a87 87 0 0 0 40-4h1a129 129 0 0 0 17-5l-1-1Zm-50 7h11-11Z"/><path d="M227 491a1 1 0 0 0 0 1 142 142 0 0 0 31 4 101 101 0 0 0 24 0 81 81 0 0 0 9-2 65 65 0 0 0 7-2 31 31 0 0 0 6-2l-2-3a26 26 0 0 1-10 4c-7 2-15 2-22 2-19 0-38-2-54-13l-1 2a74 74 0 0 0 19 8l-7-2a1 1 0 0 0 0 1l19 5-7-1-12-2Zm52 4h2-8 6Zm-14 0h-7l-10-2a133 133 0 0 0 17 2ZM234 404c5 0 8-4 12-5 5-2 10 1 13 4a26 26 0 0 0-10-1 18 18 0 0 0-8 4 13 13 0 0 1-2-1c0-1-1 0 0 0a16 16 0 0 0 1 2 13 13 0 0 0-2 1l1 1a13 13 0 0 1 2-2 19 19 0 0 0 4 3 15 15 0 0 0-2 1 23 23 0 0 0-3 2l1 1a22 22 0 0 1 7-3 31 31 0 0 0 4 2 58 58 0 0 0 12 0h1c8 3 16 5 24 5a22 22 0 0 0 10-4 28 28 0 0 1 3 0 1 1 0 0 0 1 0 10 10 0 0 1 1 1h1c-2-4-7-6-11-7-6-1-11 1-17 2l-3-1a120 120 0 0 0-13-6c-3-3-8-7-13-6s-9 6-14 6v1Zm11 7h1Zm6 0a42 42 0 0 1 8 1 41 41 0 0 1-8-1Zm13 1a53 53 0 0 0-11-2 30 30 0 0 0-5 0h-1c4-2 10-2 14-1a82 82 0 0 1 10 3h-7Zm26-3c4 0 10 1 12 4h-2v-1l-1 1h-11a36 36 0 0 1-9-2l11-2Zm-15 1a16 16 0 0 1-7-2 23 23 0 0 1-5-3l12 5Zm-14-6a42 42 0 0 0 5 4 16 16 0 0 0 7 3 25 25 0 0 0 4 0 44 44 0 0 0 9 2l12 1c-6 3-14 3-20 2l-11-3h8a55 55 0 0 0 6 2 25 25 0 0 0 12 0 1 1 0 0 0 0-1 23 23 0 0 1-10 0h-1a32 32 0 0 0-7-2l-3-1c-7-2-13-4-20-4a18 18 0 0 0-6 2 18 18 0 0 1-5-2 17 17 0 0 1 7-4 26 26 0 0 1 13 1ZM291 446a10 10 0 0 0-6 0 20 20 0 0 0-3 2 19 19 0 0 1-8 3c-5 0-9-3-12-7a52 52 0 0 0-6-8c-5-5-13-8-20-4-6 2-10 6-15 9a94 94 0 0 1-16 8l1 2a143 143 0 0 0 24-12c5-3 10-6 15-5s10 4 14 9c2 4 5 8 10 9 5 2 11-1 16-3a3 3 0 0 1 0-1 8 8 0 0 1 5 0l9 5a48 48 0 0 0 6 4h1a37 37 0 0 1-10 3l-4 1a1 1 0 0 0 0-1 24 24 0 0 0-8 0h-2a161 161 0 0 0-18 0l-3-1a126 126 0 0 0 19 1 53 53 0 0 0 9-2 47 47 0 0 0 9-1v-1a41 41 0 0 1-6 1l3-1-1-1a40 40 0 0 1-5 2h-4a16 16 0 0 0 4-2l1-1v-1a52 52 0 0 1-6 2l-10-1h-5l-20-6a35 35 0 0 0-13-2 41 41 0 0 0-12 3l-5 3-5 1a1 1 0 0 0 0 1l2-1a231 231 0 0 0 3 0 67 67 0 0 1 8-1l1 1 3-1 11 1h-15c-5 1-10 1-14 4l1 1 12-4h24l24 2h1l3 1h-3l-14-1h-29a65 65 0 0 0-15 4v1c9-3 19-4 28-4l29 1a45 45 0 0 0 8-1l3 1a80 80 0 0 1-18 1c-10-1-19-2-28-1a46 46 0 0 0-15 4l1 1a45 45 0 0 1 15-4h1a67 67 0 0 0 8 4h-4a56 56 0 0 1-7-2v1a54 54 0 0 0 6 2h-2c0 1 0 2 1 1h2a56 56 0 0 0 24 1l1-1a71 71 0 0 0 10-1 98 98 0 0 0 19 0 43 43 0 0 1 7 0 88 88 0 0 0-17 2c-7 2-14 4-21 4a57 57 0 0 1-19-3 69 69 0 0 0-7-2c-10-2-21 1-31 5l2 3a21 21 0 0 1 3-2 37 37 0 0 1 31-2 60 60 0 0 0 36 2 101 101 0 0 1 14-3 87 87 0 0 1 28 1s0-3 0-4l5 2 1-4a154 154 0 0 1-25-9c-6-2-9-7-15-8Zm-60 5h-1a73 73 0 0 0-8 0 44 44 0 0 1 13-4 32 32 0 0 1 13 2l6 2a72 72 0 0 0-12-1 43 43 0 0 0-11 1Zm19 2-16-2c7-1 14 0 21 1l7 1h-12Zm10 1 8 1h1l-9-1Zm22 2h-2 5a19 19 0 0 1-3 0Zm9 5h-2a19 19 0 0 1 2 0Zm-23 0h13a885 885 0 0 0-10 1l-4-1Zm-26-2a101 101 0 0 1 17 0 1 1 0 0 0 0 1l2 1a108 108 0 0 0-10 1 65 65 0 0 1-9-3Zm8 6-2-1 3-1a69 69 0 0 0 11 2h1a56 56 0 0 1-13-1Zm21-1h-2a67 67 0 0 1-15-1 100 100 0 0 1 10-2 96 96 0 0 0 10 2l-3 1Zm4 0h2-2Zm5-1h-2 2l4-1h4-2l-6 1Zm44 2a99 99 0 0 0-14-1l-9-1-10 1h-7c5-1 9-3 14-2v-1h-1a39 39 0 0 0 10-3 163 163 0 0 0 17 7ZM447 228a39 39 0 0 0-3-6 47 47 0 0 0-3-7l-1-1-2-3-1-1a1 1 0 0 0 0-1l-2-1-4-4a1 1 0 0 0 0-2h-2a1 1 0 0 0 0-1l-2-1-11-8-10-5a37 37 0 0 0-7 0 116 116 0 0 0-14 1h-1a1 1 0 0 0-1 1l-13 2a1 1 0 0 0-1 0h-1a335 335 0 0 1-16 2 1 1 0 0 0 0 1h-2a1 1 0 0 0-1 0 114 114 0 0 1-10 1 1 1 0 0 0 0 1h6v1h26l10-1h23l-7 2h-8l-17 2a116 116 0 0 1-17 0 112 112 0 0 1-19-3v2a114 114 0 0 0 33 2l22-2-8 2-17 1a208 208 0 0 1-21 0v2l-7-1v2a213 213 0 0 0 27-1l18-2a238 238 0 0 1 28-1l3 1a1 1 0 0 0 0 1h-6a84 84 0 0 0-19-1c-11 1-22 4-34 4a68 68 0 0 1-19-1v1c11 3 22 2 34 0l23-3-2 1-8 2a75 75 0 0 1-9 2 68 68 0 0 1-9 1h-17a61 61 0 0 1-19-3l-1 1c11 4 23 4 35 3h9a59 59 0 0 0 8-2l9-2a52 52 0 0 1 9-2 85 85 0 0 1 10 0h3a38 38 0 0 0-8 1l-10 3-10 2-9 2a20 20 0 0 0-6-2 8 8 0 0 0-5 2 176 176 0 0 1-24-1v1a180 180 0 0 0 22 2l-13 11a6 6 0 0 1 0-1h-1a9 9 0 0 0 0 2l-5 5-17 18a97 97 0 0 0-17 44c-2 11-3 23-2 34v11c1 7 2 14 6 21a63 63 0 0 0 7 8l7 8a115 115 0 0 0 14 13 50 50 0 0 0 19 9l1-2c-13-3-23-11-31-20l-7-7a90 90 0 0 1-7-8 34 34 0 0 1-4-9 46 46 0 0 1-2-10v2c5 13 13 26 25 33 10 7 23 9 35 7a4 4 0 0 0 1 1 5 5 0 0 0-1 3 4 4 0 0 0 1 2l1 1v5a5 5 0 0 0 1 2 5 5 0 0 0 0 1v4l1 6 2 18c1 6 2 11 5 16h1c-3-5-4-10-5-15l-2-16-1-9a10 10 0 0 0 1-2 7 7 0 0 0-1-2v-1l-1-2 1-3a4 4 0 0 0-1-2l-1-7 3-1c14-2 27-10 36-21 10-11 17-25 21-39a141 141 0 0 0 5-25l1-12a43 43 0 0 0-2-13 50 50 0 0 0-5-11l-7-11-6-11a53 53 0 0 0-8-10c-5-5-13-9-20-12l-12-5h3l10-2 10-3a42 42 0 0 1 10-1 34 34 0 0 1 4 0l24 14a1 1 0 0 0 0 1l2 2 2 3a1 1 0 0 0 1 0l1 4h2l-5-13a43 43 0 0 1 3 8l1 3a1 1 0 0 0 1 0 1 1 0 0 0 1 0Zm-98-2 4 3-1 1a13 13 0 0 1-3-3Zm20 13-1 1-2-4-1-1h1l2 1a19 19 0 0 0 1 3Zm-1-6Zm4 5v-1l-1-2 3 2-2 1Zm1 3 1 2a16 16 0 0 1-1-1 11 11 0 0 1-2-2h1v1h1Zm0-7h-1a26 26 0 0 1-4-6l5 6Zm-3 5v-1Zm-1-4 1 2-1-2Zm1 10-1-1-2-1-1-1 2-1 2 4Zm-3-5-2 1-1-1v-4l-1-1h1v1l3 4Zm-1 4Zm-1 1a33 33 0 0 0-3 0l1-1a20 20 0 0 0 2 1Zm-1-1v-1 1Zm0-3a8 8 0 0 1-3-3 9 9 0 0 1 0-2l2 4 1 1Zm-3-6h1l1 2-2-2Zm1 6a12 12 0 0 0 1 1l-1 1a19 19 0 0 1-2-1l-2-5a9 9 0 0 1 1 2h1a10 10 0 0 0 2 2Zm-1 3v-1Zm-3-2 1 1 1 1-1 1Zm1 3-1 1-1-4Zm-1-10h1a10 10 0 0 0 1 2 13 13 0 0 0-2-2Zm0 6-2-2-2-3a18 18 0 0 1 2-1l2 6Zm-4-2 3 7a30 30 0 0 0-13 7c-8 7-13 18-15 29a119 119 0 0 0-3 17v-5a127 127 0 0 1 3-20c2-11 7-22 15-30a42 42 0 0 1 6-6 10 10 0 0 1 2-2l3 3Zm7 130a19 19 0 0 0 3 1 26 26 0 0 1-8 0c-10-2-18-10-23-19-4-7-6-15-6-23a55 55 0 0 0 12 26 42 42 0 0 0 16 11 33 33 0 0 0 6 4Zm-1-3a38 38 0 0 0 9 2v1h-1a16 16 0 0 1-8-3Zm-12-129a1 1 0 0 0 0 1c-9 6-15 16-18 27-5 13-5 27-5 40-1 14-1 28 3 40 4 11 11 20 21 24a28 28 0 0 0 17 2h3v5a8 8 0 0 0-1 2l-3 1a27 27 0 0 1-11 0 28 28 0 0 1-9-4c-6-4-10-9-14-14a85 85 0 0 1-9-16 94 94 0 0 1-8-36 96 96 0 0 1 6-36 66 66 0 0 1 10-19l8-8 9-9 3-3 1 1a11 11 0 0 0-3 2Zm22 140h-1Zm-23-27c-8-9-13-23-13-37 1-11 1-21 4-32s6-21 13-27a27 27 0 0 1 24-8l-3-1-3-4h1a14 14 0 0 0 1 1 26 26 0 0 0 5 4h1v1l3 1a14 14 0 0 0-2-2l-1-1a54 54 0 0 1-4-6h2a41 41 0 0 1 3 4v1l3 2 1 1 1 1 1 2a28 28 0 0 1 3 1l-2-2a27 27 0 0 1 4 4 26 26 0 0 1 4 6h1l-1-2a28 28 0 0 0-4-6 52 52 0 0 1 6 6 51 51 0 0 1 4 5c1 0 2 0 1-1a53 53 0 0 0-16-15l-1-1-3-3c6 4 12 7 17 12a28 28 0 0 1 7 9 1 1 0 0 0 1 0l3 8a54 54 0 0 1 2 8 95 95 0 0 1 0 31 99 99 0 0 1-9 28 76 76 0 0 1-16 22l1-1v-1a13 13 0 0 1-2 3 13 13 0 0 1-7 2c-11 2-23-3-31-12Zm50-106 6 15c-3-5-7-8-12-11a126 126 0 0 1-14-10h1a31 31 0 0 1 5-1 42 42 0 0 1 13 7Zm-7-6a14 14 0 0 1 2 1 10 10 0 0 1 2 1l-4-2Zm23 50a66 66 0 0 0-3-18l-4-8-4-9-3-6a52 52 0 0 1 8 9c7 10 10 22 11 33a97 97 0 0 1-2 20 118 118 0 0 1-5 19 56 56 0 0 1-20 29 77 77 0 0 0 7-10 95 95 0 0 0 12-28 102 102 0 0 0 3-31Zm-34-46-2-3v1l3 4-1-1a1 1 0 0 0 0-1Zm-3-5v-1h3l-3 1Zm-3 130-3 1 3-1Zm4 1a4 4 0 0 1-1 3l-5 4a1 1 0 0 1-1 0v-5a20 20 0 0 0 6-2Zm-4 6c2-1 4-3 4-5a4 4 0 0 0 0-1 41 41 0 0 0 7-5 86 86 0 0 0 14-11 55 55 0 0 0 11-15 92 92 0 0 0 7-18 115 115 0 0 0 3-21c1-12-1-25-7-37a54 54 0 0 0-14-18c-2-4-6-6-11-7a27 27 0 0 0-3 0 55 55 0 0 0-10-2l-1-2-4-6a1 1 0 0 0-1 0c-1 0-2 0-1 1a25 25 0 0 0 3 5h-1l-1-2h-1a44 44 0 0 0-6-3c-1-1-1 0-1 1a44 44 0 0 1 7 4v1h-1l-3-2a3 3 0 0 0 0-1 1 1 0 0 0-2 0 42 42 0 0 0-5-2c4-4 11-5 16-4a54 54 0 0 1 19 7 79 79 0 0 1 15 12 93 93 0 0 1 13 16 63 63 0 0 1 9 19 106 106 0 0 1-12 66 70 70 0 0 1-12 16 60 60 0 0 1-17 11l-11 4-5 2-1-1a36 36 0 0 1 3-2Zm-12-143 1 1h1v1h-2v-1h-1a8 8 0 0 0-1 1 55 55 0 0 0-4-4v-1a40 40 0 0 1 6 3Zm-3 2h-2l-2-2h-1l1-1 4 3Zm-3 1a15 15 0 0 0-3 1l-1-2 1-1 3 2Zm-13 145c-13-5-22-16-28-29a73 73 0 0 1-6-19 149 149 0 0 1 1-16 1 1 0 0 0-1-1v-10a167 167 0 0 1 4-24 91 91 0 0 1 9-22c3-7 9-12 14-18l13-13a14 14 0 0 0 3 3l-15 15a97 97 0 0 0-8 9 58 58 0 0 0-6 10 95 95 0 0 0-10 37 97 97 0 0 0 5 37c4 12 11 24 20 33 5 4 11 8 18 9a32 32 0 0 0 12 0 5 5 0 0 0 1 2 55 55 0 0 1-26-3Zm27 3a4 4 0 0 1-1-3h2v3h-1Zm2 6a3 3 0 0 1-1-3l1 4Zm8-173 12 5a94 94 0 0 1 11 5 35 35 0 0 1 8 8 77 77 0 0 1 7 9l7 12 6 10a40 40 0 0 1 4 11 52 52 0 0 1 1 13 157 157 0 0 1-3 24c-3 15-8 29-17 41-8 11-19 21-32 26a61 61 0 0 1-12 3v-3a129 129 0 0 0 27-13 65 65 0 0 0 15-14c9-12 14-26 16-40a104 104 0 0 0 2-24 58 58 0 0 0-6-22 81 81 0 0 0-11-17 93 93 0 0 0-15-15 64 64 0 0 0-18-9c-6-2-13-4-19-2a14 14 0 0 0-8 4v1l-4-3 4-3 7-7a1 1 0 0 0 2 0 5 5 0 0 1 1-2h9l6 2Zm57-4 1 1h-2a1 1 0 0 0 1-1Zm0-1h-2l-1-2v-1l3 3Zm-4-2v1l-5-3v-1a20 20 0 0 1-3-2 14 14 0 0 1 8 5Zm-4-5 1 1a17 17 0 0 0-2-1h2Zm-7-2a45 45 0 0 0-5-3h2l3 2a32 32 0 0 0 4 2 28 28 0 0 0-4-1Zm1 2-2-1Zm-21-15a21 21 0 0 1 6 1 19 19 0 0 1 6 2l9 7-4-2-4-2a28 28 0 0 0-9-3 116 116 0 0 0-13-2l9-1Zm-56 8h10a90 90 0 0 1-10 0Zm26-1h-3a91 91 0 0 1-13 0h1a87 87 0 0 0 15 0Zm21-2h-1l-25 1h-5l3-1 6-1 24 1a110 110 0 0 1-2 1Zm-9-1-8-1 10-1a114 114 0 0 1 19 2 30 30 0 0 1 9 2l1 1-6-2-25-1Zm21 8a216 216 0 0 0 1 0Zm4-3v1l4 2h-1a46 46 0 0 0-9-2l4-1a1 1 0 0 0 1 0l8 2 3 2-2-1h-1l-7-3Zm8 5 3 1 10 6-5-2a38 38 0 0 0-4-2l-1-1a33 33 0 0 0-4-2Zm2 2 1 1-3-1Zm0 2v1h2l3 1a86 86 0 0 1 8 6l-13-8Zm19 12a27 27 0 0 1-3-2l-4-4-3-3 7 3 3 6Zm6 7a3 3 0 0 1-1-1l-2-2-1-2a1 1 0 0 0 0-1l-1-2-2-3 2 1 5 10ZM50 335v3a8 8 0 0 1 9 4c1 3 1 8-3 7-6-1-11-5-12-11l3-12a10 10 0 0 0-3-6c-2-3-5-4-6-7-1-1-2-3 1-4 4 0 10 8 12 11l2-1c-3-4-8-12-14-13-5 0-6 5-3 9 5 6 12 6 8 17-5 9 3 17 11 19 7 2 8-5 6-10a11 11 0 0 0-11-6ZM210 261c-4-6-10-13-17-17a39 39 0 0 0-9-4l-1 1a43 43 0 0 1 8 4c7 4 13 11 18 18 9 13 14 28 15 43 0-15-5-31-14-45Zm-28-21h-1l-1 1h2a1 1 0 0 1 0-1Zm-4 0h1l1-1a4 4 0 0 0-1 0Zm-5-1 4 1 1-1h-5Zm-7 0h6-6Zm-5 0h2-2Z"/><path d="M224 306a65 65 0 0 1-3 18c-6 20-25 38-46 40a79 79 0 0 1-42-9 27 27 0 0 1-6-9 82 82 0 0 1-10-31 118 118 0 0 1-1-35c2-11 6-22 15-30 8-7 19-10 30-11h12l4 1 1-1h1l-1 1h1l1-1 1 1-1 1h2a1 1 0 0 1 0-1h2l-1 1a43 43 0 0 1 8 4c7 4 13 11 18 18 9 13 14 28 15 43ZM393 257l-2-2-2-2-2-2 1 2v1l1 1a1 1 0 0 1 0 1c12 12 17 31 15 50-1 19-9 37-18 52a38 38 0 0 0 2-3c9-15 16-33 17-51 2-18-2-36-12-47Zm-9-7a29 29 0 0 0-4-2 16 16 0 0 1 1 1 35 35 0 0 1 5 3Zm-9-4 3 1h-1l-2-1Z"/><path d="M404 306c-1 19-9 37-18 52a13 13 0 0 1-2 3 13 13 0 0 1-7 2c-11 2-23-3-31-12s-12-24-12-38c1-11 1-21 4-32s6-21 13-27a27 27 0 0 1 24-8l3 1h-1l3 1a16 16 0 0 1 1 1 35 35 0 0 1 5 3l-2-2a28 28 0 0 1 3 1l1 2v1l1 1a1 1 0 0 1 0 1c12 12 17 31 15 50Z"/></svg>