<svg width="89" height="115" viewBox="0 0 89 115" fill="none" xmlns="http://www.w3.org/2000/svg">
<g clip-path="url(#clip0_264_28)">
<path d="M59.881 0.839283L28.9917 0L3.08345 16.3295L0 46.2518L6.31287 59.4614L5.18166 87.5956L18.373 93.2151L34.9397 114.507L56.1042 107.282L70.1531 90.1499L88.891 57.6916L83.8553 22.0768L59.881 0.839283Z" fill="white"/>
<path d="M10.5458 64.1505C10.2174 62.8186 9.889 61.4502 9.59707 60.1C9.2869 58.7134 8.99498 57.272 8.81253 56.1226C8.50236 53.9331 8.68481 53.0756 9.2869 54.298C10.0167 55.7577 11.0749 59.4067 11.9507 63.1287C12.79 66.7778 13.3191 69.843 13.5928 72.0689C13.6317 72.2979 13.65 72.53 13.6475 72.7623C13.6475 72.9082 13.5563 72.8352 13.4651 72.7258C13.1002 72.2149 12.5528 70.9012 12.0055 69.2592C11.4946 67.7448 10.9655 65.8655 10.5458 64.0775" fill="white"/>
<path d="M83.3262 56.3415L82.049 34.5566L74.6414 18.8657L56.761 5.96627L55.9765 5.41891L34.7207 3.70386L27.751 7.53537L15.18 14.4138L10.2173 17.1324L3.81323 41.5446L8.55701 61.6326L8.66648 86.9023L17.7709 88.6174L35.3593 107.939L46.8174 106.005C48.189 105.661 49.4708 105.027 50.5759 104.144L61.3224 95.3864C62.445 94.5517 63.3778 93.4883 64.0591 92.2664L70.0071 82.1951L81.228 63.1652L81.8848 62.0705C82.9356 60.3514 83.4383 58.3532 83.3262 56.3415ZM65.8654 84.9866C65.6429 85.1449 65.4044 85.2794 65.1539 85.388C64.0947 85.7715 62.9267 85.719 61.9062 85.242C62.2621 84.7412 62.5619 84.2027 62.8002 83.6364C63.0617 83.5415 63.3175 83.4319 63.5665 83.308C63.946 83.1205 64.3013 82.8877 64.6248 82.6147C65.2971 82.5208 65.9538 82.3367 66.577 82.0673L67.9636 82.0126L65.8654 84.9866ZM36.8372 80.3523C36.5281 80.1893 36.2599 79.9585 36.0526 79.6772L36.1986 79.513C36.4099 79.5986 36.6303 79.6599 36.8554 79.6954C36.8281 79.9133 36.822 80.1333 36.8372 80.3523ZM36.0344 79.44L35.9614 79.513L35.8884 79.3488L36.0344 79.44ZM34.2099 79.7684C34.2327 79.6151 34.2821 79.4669 34.3558 79.3305L35.0492 79.4948C35.1586 79.513 35.2134 79.3305 35.1039 79.3123L34.4471 79.1663C34.5062 79.0492 34.555 78.9271 34.593 78.8014C34.6159 78.7421 34.6342 78.6811 34.6478 78.619C34.7345 78.5689 34.8143 78.5076 34.8849 78.4365L34.9214 78.4C35.1267 78.7224 35.3932 79.0014 35.706 79.2211C35.6979 79.2312 35.6921 79.243 35.689 79.2556C35.6858 79.2682 35.6854 79.2813 35.6877 79.2941C35.7238 79.4145 35.7727 79.5307 35.8337 79.6407L35.6512 79.7867C35.3962 80.0366 35.0825 80.2185 34.739 80.3158C34.6612 80.3348 34.5798 80.333 34.5029 80.3106C34.4261 80.2882 34.3565 80.2459 34.3011 80.1881C34.2167 80.0656 34.1839 79.9149 34.2099 79.7684ZM34.0639 79.0934C34.1544 78.9581 34.2807 78.8507 34.4288 78.7832C34.3758 78.9027 34.3149 79.0185 34.2464 79.1298L34.0639 79.0934ZM34.2464 77.1411C33.8832 76.7274 33.6098 76.2428 33.4436 75.718C33.3521 75.4217 33.297 75.1153 33.2794 74.8057C33.2611 74.4408 33.2794 74.1124 33.2429 73.7657C33.1754 73.4541 33.0517 73.1573 32.878 72.89C32.7523 72.6687 32.7011 72.4128 32.732 72.1601C32.805 71.704 33.0969 71.3026 33.3706 70.9377L33.5895 70.6275C33.7193 71.1757 34.0119 71.6719 34.4288 72.0507C34.4531 72.8535 34.4653 73.6684 34.4653 74.4955C34.2887 75.0258 34.1903 75.579 34.1734 76.1376C34.1607 76.4792 34.179 76.8211 34.2281 77.1594L34.2464 77.1411ZM31.5643 54.9731C31.4377 55.1636 31.3623 55.3835 31.3454 55.6117C31.2684 55.4988 31.207 55.3761 31.1629 55.2468C31.0693 54.9258 31.063 54.5857 31.1447 54.2615C31.2139 53.968 31.3585 53.6975 31.5643 53.477C31.838 54.298 32.0569 55.1373 32.2759 55.9948L32.4218 56.5969L31.8015 56.1225C31.6972 56.0391 31.5996 55.9476 31.5096 55.8489C31.4936 55.5703 31.5706 55.2943 31.7285 55.0643C31.7832 54.9731 31.619 54.8819 31.5643 54.9731ZM32.3306 56.7429C32.3816 56.7827 32.4303 56.8253 32.4766 56.8706L32.5495 57.199C32.4768 57.2598 32.4096 57.327 32.3489 57.3997C32.1654 57.2289 32.0003 57.0393 31.8562 56.8341C31.7112 56.624 31.606 56.389 31.5461 56.1408C31.7832 56.3597 32.0752 56.5422 32.3306 56.7429ZM32.6043 57.3815L32.6773 57.7099L32.4766 57.5274C32.5162 57.4763 32.5588 57.4275 32.6043 57.3815ZM32.3671 57.6734L32.6408 57.9288L32.7502 58.0201L32.8962 58.7499C32.658 58.9341 32.4853 59.1899 32.4036 59.4797C32.2997 59.3419 32.2195 59.1877 32.1664 59.0235C32.0984 58.7986 32.0795 58.5616 32.111 58.3287C32.1425 58.0957 32.2236 57.8723 32.3489 57.6734H32.3671ZM32.9509 58.9506L33.1881 60.1548V60.2642C32.9692 60.0635 32.732 59.8628 32.5495 59.6439C32.6006 59.378 32.7347 59.1352 32.9327 58.9506H32.9509ZM32.5131 59.8628L32.8232 60.1548L33.2064 60.5197C33.242 60.8763 33.3029 61.2299 33.3888 61.5779L33.5165 61.9975L33.5348 62.1435L33.5165 62.1982L33.1699 61.7056C32.7772 61.1748 32.5488 60.5404 32.5131 59.8811V59.8628ZM33.5348 62.5266L33.6078 62.6361L33.6808 63.0375C33.6617 63.0359 33.6427 63.0404 33.6263 63.0502C33.61 63.06 33.5971 63.0747 33.5895 63.0922C33.4768 63.4081 33.3854 63.7312 33.3159 64.0592C33.3143 64.0565 33.3134 64.0533 33.3134 64.0501C33.3134 64.0469 33.3143 64.0438 33.3159 64.041C33.2077 63.6955 33.2141 63.3243 33.3341 62.9828C33.3912 62.8325 33.4583 62.6862 33.5348 62.5449V62.5266ZM33.7172 63.3112L34.0092 65.5006C33.8267 65.1357 33.6078 64.7708 33.4618 64.4059C33.5034 64.1478 33.5583 63.8921 33.626 63.6396C33.626 63.5301 33.6808 63.4207 33.7172 63.3112ZM33.3888 64.7343C33.6078 65.1905 33.8815 65.6101 34.0457 66.0662L34.1734 67.3434C34.0291 67.609 33.9011 67.8832 33.7902 68.1644L33.6625 67.7995C33.355 66.8088 33.2617 65.7639 33.3888 64.7343ZM33.8815 68.4199C33.9742 68.1635 34.0839 67.9136 34.2099 67.6718C34.3193 69.0402 34.3923 70.4086 34.4288 71.7952C34.0547 71.4147 33.8009 70.9324 33.699 70.4086C33.8545 70.1864 33.9717 69.9397 34.0457 69.6788C34.1087 69.258 34.0518 68.828 33.8815 68.4381V68.4199ZM33.7902 68.73C33.836 68.8786 33.8665 69.0314 33.8815 69.1862C33.8992 69.5109 33.8232 69.8339 33.6625 70.1167C33.6565 70.0073 33.6565 69.8977 33.6625 69.7883C33.6551 69.4313 33.6981 69.075 33.7902 68.73ZM34.4653 75.2071L34.4471 76.7944C34.4418 77.0087 34.4602 77.2228 34.5018 77.433L34.4653 77.3965C34.3158 76.6744 34.3158 75.9293 34.4653 75.2071ZM34.52 77.6885L34.5748 77.725C34.6302 77.9081 34.7036 78.0853 34.7937 78.2541C34.7604 78.3257 34.7103 78.3883 34.6478 78.4365C34.6398 78.1898 34.603 77.9449 34.5383 77.7067L34.52 77.6885ZM29.6303 49.7367C29.9779 50.1557 30.2835 50.608 30.5426 51.0869C30.5516 51.4479 30.6387 51.8027 30.798 52.1268C30.9193 52.3613 31.0661 52.5815 31.2359 52.7837C30.9013 52.6575 30.5828 52.4922 30.2871 52.291C29.9323 52.037 29.685 51.6596 29.5938 51.2328C29.4843 50.7767 29.4661 50.3023 29.3749 49.8462L29.2836 49.536L29.6303 49.7367ZM29.2107 49.2988V49.2258L29.3019 49.3353L29.2107 49.2988ZM30.7798 51.5795C30.8563 51.7605 30.9293 51.943 30.9987 52.1268C30.9042 51.9537 30.8307 51.77 30.7798 51.5795ZM28.9917 49.1711L28.8093 49.0616C28.5261 48.9197 28.2624 48.7419 28.0247 48.5325C27.8867 48.4107 27.7856 48.2527 27.7328 48.0764L28.043 48.1859C28.3438 48.4175 28.6302 48.6673 28.9005 48.9339L28.9917 49.1711ZM27.3679 47.7115L25.6893 47.0364L26.1819 47.0729C26.5909 47.2593 26.9871 47.4726 27.3679 47.7115ZM23.956 46.3248C24.5414 46.4532 25.1151 46.6301 25.6711 46.8539L25.1785 46.8175L23.956 46.3248ZM24.6676 46.7992H24.4122C22.6059 46.7992 20.7996 46.9452 18.9933 46.8722L18.1723 46.8175L18.2452 46.7627C19.7776 46.1466 21.4453 45.9452 23.0802 46.1789L24.6493 46.7992H24.6676ZM10.0714 49.4995C10.0733 49.4691 10.0733 49.4387 10.0714 49.4083C10.0754 49.3475 10.0754 49.2866 10.0714 49.2258C10.0766 49.224 10.0814 49.221 10.0853 49.217C10.0892 49.213 10.0921 49.2082 10.0939 49.2029C10.0957 49.1977 10.0962 49.192 10.0954 49.1865C10.0947 49.181 10.0927 49.1757 10.0896 49.1711C10.0896 49.1164 10.0531 49.0799 10.0349 49.0251L9.94365 48.496C9.88891 47.8939 10.1261 47.3283 10.3086 46.781C10.4756 46.2529 10.5857 45.7086 10.637 45.1571C10.7099 44.5003 10.7464 43.807 10.8742 43.1502C10.966 43.3466 11.0825 43.5305 11.2208 43.6975C11.3668 43.88 11.531 44.0442 11.531 44.2996C11.4857 44.5226 11.4247 44.7421 11.3485 44.9564C11.3093 45.1192 11.3156 45.2896 11.3668 45.4491C11.1344 46.7859 10.8237 48.1079 10.4363 49.4083C10.5208 49.5447 10.6254 49.6677 10.7464 49.7732C10.7274 49.7716 10.7084 49.7761 10.692 49.7859C10.6757 49.7957 10.6628 49.8104 10.6552 49.8279C10.6041 50.0028 10.6045 50.1888 10.6562 50.3635C10.708 50.5382 10.809 50.6943 10.9471 50.8132C10.9815 50.846 11.0181 50.8765 11.0566 50.9044C10.9356 50.9581 10.8057 50.989 10.6735 50.9956C10.2356 50.9956 9.76119 50.6855 9.85242 50.2111L10.0349 49.6272L10.1626 49.9556C10.1626 50.0104 10.2356 49.9921 10.2173 49.9556L10.0714 49.4995ZM9.9254 36.5819C9.92702 36.6062 9.92702 36.6305 9.9254 36.6548L9.65172 36.2899C9.44705 35.9996 9.19402 35.7465 8.90367 35.5419C8.58468 35.3585 8.2404 35.2233 7.88193 35.1405C7.51702 35.031 7.15212 34.9033 6.96967 34.5566C6.91805 34.466 6.88646 34.3654 6.87702 34.2615C6.86758 34.1577 6.88051 34.053 6.91493 33.9545C8.13557 34.545 9.17526 35.4523 9.9254 36.5819ZM10.1079 36.8555L10.2903 37.2022L10.1079 36.892V36.8555ZM10.7282 38.1327L10.8559 38.3334C11.0701 38.8474 11.241 39.3783 11.3668 39.9207C11.3058 39.7838 11.2191 39.66 11.1113 39.5558C10.9862 39.4307 10.8703 39.2965 10.7647 39.1544C10.5635 38.8616 10.4039 38.5423 10.2903 38.2057C10.1882 37.8863 10.1269 37.5552 10.1079 37.2204L10.7282 38.1327ZM11.4033 40.0667L11.4945 40.5593C11.4986 40.7861 11.523 41.012 11.5675 41.2344C11.6536 42.1017 11.6598 42.9751 11.5857 43.8435C11.5579 43.8049 11.5274 43.7684 11.4945 43.734C11.2639 43.4819 11.0787 43.1918 10.9471 42.8765V42.84C11.0391 42.4213 11.1994 42.0206 11.4215 41.654C11.4945 41.5628 11.3303 41.4716 11.2573 41.5628C11.074 41.858 10.9328 42.1774 10.8377 42.5116C10.7959 42.3075 10.7775 42.0994 10.7829 41.8912C10.7911 41.5576 10.8655 41.2289 11.0019 40.9242C11.0736 40.7651 11.1591 40.6124 11.2573 40.4681C11.347 40.353 11.3981 40.2125 11.4033 40.0667ZM10.8559 49.8644C10.8564 49.8583 10.8564 49.8522 10.8559 49.8462C11.1769 50.0781 11.5557 50.217 11.9506 50.2476C11.7425 50.4627 11.5098 50.6525 11.2573 50.8132C10.9471 50.6307 10.7099 50.2658 10.8377 49.8827L10.8559 49.8644ZM11.6952 50.7402C11.8776 50.5942 12.0601 50.43 12.2061 50.2658C12.7039 50.2743 13.1971 50.1682 13.6474 49.9556L13.8664 49.8462C14.1023 49.8055 14.3343 49.7445 14.5597 49.6637C15.0296 49.5254 15.4649 49.2891 15.8369 48.9704C16.0129 48.8093 16.1663 48.6252 16.293 48.423C16.4237 48.1923 16.5277 47.9475 16.6032 47.6932C16.6086 47.6808 16.6147 47.6686 16.6214 47.6567C16.9935 47.3776 17.3905 47.1333 17.8074 46.9269C17.4553 47.3344 17.0965 47.7358 16.7309 48.1311C15.7099 49.3526 14.3807 50.2786 12.8811 50.8132C12.425 50.9409 11.9141 51.0504 11.458 50.9044L11.6769 50.7402H11.6952ZM14.3408 49.5542C15.0706 49.0616 15.6727 48.4048 16.3477 47.8574L16.3295 47.9304C16.2424 48.1612 16.1192 48.3768 15.9646 48.569C15.5325 49.0595 14.9587 49.4038 14.3225 49.5542H14.3408ZM48.4777 80.5165L48.7514 80.3888C49.1505 80.1543 49.565 79.9471 49.992 79.7684L50.7218 79.8414C50.7723 79.9915 50.8333 80.1378 50.9043 80.2793C50.1122 80.515 49.2832 80.6016 48.4594 80.5347L48.4777 80.5165ZM49.6454 80.6989L49.5359 80.9361C49.3936 80.8669 49.2474 80.806 49.098 80.7537C49.281 80.7518 49.4638 80.7396 49.6454 80.7172V80.6989ZM45.8139 80.1516L45.7774 79.7137C46.3124 79.997 46.8673 80.2409 47.4377 80.4435H47.31C46.7991 80.3888 46.3065 80.2793 45.8139 80.1516ZM46.4707 80.48L45.8686 80.5165L45.8504 80.334L46.4707 80.48ZM45.7956 79.5495C47.0606 79.5981 48.3256 79.665 49.5906 79.7502L49.2622 79.9144L48.4777 80.334C48.3623 80.397 48.2398 80.446 48.1128 80.48C47.2735 80.2975 46.5437 79.9144 45.7956 79.5495ZM52.3274 80.1151H52.3457C52.584 80.1942 52.828 80.2551 53.0755 80.2975C52.794 80.4009 52.5198 80.5228 52.2545 80.6625H52.2362C52.0458 80.5625 51.8682 80.44 51.7071 80.2975C51.9118 80.23 52.1187 80.1691 52.3274 80.1151ZM51.5611 80.1333C51.4966 80.0636 51.4357 79.9905 51.3787 79.9144L51.7071 79.9326L51.9808 80.0239L51.5611 80.1333ZM52.7471 80.0421L53.4769 80.1151C53.2936 80.1233 53.1101 80.1111 52.9295 80.0786L52.7471 80.0421ZM52.5464 80.6989C52.8875 80.5362 53.2414 80.402 53.6046 80.2975L53.7871 80.2611L54.2432 80.8814L53.9878 80.9179C53.4712 80.9922 52.9442 80.9357 52.4551 80.7537C52.4916 80.7537 52.5281 80.7172 52.5464 80.6989ZM51.3604 80.1698L51.0868 80.2428C51.0186 80.125 50.9577 80.0031 50.9043 79.8779H51.1415C51.2073 79.9804 51.2805 80.0779 51.3604 80.1698ZM49.8461 80.7172C49.8467 80.7111 49.8467 80.705 49.8461 80.6989C50.2331 80.6401 50.6168 80.5609 50.9955 80.4618C51.1376 80.7062 51.316 80.9277 51.5246 81.1186C51.2692 81.301 50.9955 81.4835 50.6671 81.447C50.3417 81.3874 50.0316 81.2633 49.7549 81.0821L49.7001 81.0456L49.8461 80.7172ZM51.178 80.407L51.5064 80.334C51.6758 80.498 51.866 80.6391 52.072 80.7537L51.6706 81.0091C51.4766 80.8347 51.3105 80.6317 51.178 80.407ZM52.2727 80.8632C52.6054 81.0165 52.9649 81.1032 53.3309 81.1186C53.6792 81.1335 54.0281 81.109 54.3709 81.0456L54.4256 81.1003C53.9741 81.2981 53.4935 81.4213 53.0025 81.4652C52.5877 81.4879 52.177 81.3724 51.8348 81.1368L52.2727 80.8632ZM53.9878 80.2246L54.1337 80.1881L55.3014 80.3158L55.6481 80.553C55.2467 80.6624 54.8453 80.7719 54.4439 80.8449L53.9878 80.2246ZM54.8635 80.9544L54.6081 81.0456L54.5716 81.0091L54.8635 80.9544ZM55.0825 81.0456C55.3954 80.9323 55.7196 80.8528 56.0495 80.8084L56.4144 81.0274C56.8766 81.6295 57.3828 82.1967 57.9287 82.7242C58.3844 83.1657 58.8657 83.58 59.3701 83.9648C58.8465 83.9396 58.3297 83.835 57.8375 83.6547C56.9761 83.305 56.1987 82.7764 55.5568 82.1038L54.7176 81.1916L55.0825 81.0456ZM55.6846 80.3705L55.9582 80.3888L56.013 80.4618L55.8853 80.4982L55.6846 80.3705ZM60.2459 81.2463C60.1478 81.1261 60.0443 81.0104 59.9357 80.8996L60.775 81.0091C60.604 81.0997 60.4273 81.179 60.2459 81.2463ZM61.1582 81.0638L63.3476 81.374L62.3258 81.5017L60.9757 81.6659H60.6108L60.3736 81.3923L61.1399 81.0638H61.1582ZM60.0269 81.2463L60.0452 81.2828C59.5526 81.3558 59.1329 81.0091 58.7315 80.7354L59.6073 80.8632C59.7555 80.988 59.8957 81.122 60.0269 81.2645V81.2463ZM59.5708 81.4287C59.7681 81.4814 59.9757 81.4814 60.1729 81.4287L60.3554 81.6477L59.8627 81.6112C59.3268 81.5436 58.804 81.396 58.3119 81.1733C57.8605 80.9644 57.39 80.7995 56.907 80.6807C56.7214 80.6375 56.5319 80.613 56.3414 80.6077L56.3232 80.5895L56.5421 80.553L56.8523 80.4982L58.2389 80.6807C58.7133 80.8996 59.0782 81.2828 59.5708 81.4287ZM59.2971 81.7024C58.488 81.6622 57.6946 81.4638 56.9617 81.1186L56.5421 80.8996L56.4691 80.7902C56.9766 80.8428 57.4708 80.9849 57.9287 81.2098C58.3691 81.4149 58.8271 81.5798 59.2971 81.7024ZM58.3119 82.8336C57.7765 82.3403 57.2766 81.8099 56.8158 81.2463C57.5972 81.626 58.4476 81.8433 59.3154 81.8849C59.7225 81.9101 60.1307 81.9101 60.5378 81.8849C60.6064 81.9508 60.6795 82.0118 60.7568 82.0673C61.0482 82.2853 61.3849 82.435 61.742 82.5052C62.0897 82.5923 62.4434 82.6533 62.8002 82.6877H62.9279C62.8503 82.9538 62.759 83.2156 62.6543 83.4722C62.1665 83.635 61.6661 83.757 61.1582 83.8371C60.6762 83.9215 60.1878 83.9643 59.6985 83.9648C59.2149 83.6148 58.7519 83.2371 58.3119 82.8336ZM62.9827 83.1438L63.1104 82.7059C63.5 82.7235 63.8904 82.7113 64.2781 82.6694C63.8451 82.9754 63.3725 83.2209 62.8732 83.3992L62.9827 83.1438ZM63.2381 82.5235H63.1469C63.1469 82.4993 63.1373 82.4761 63.1202 82.459C63.1031 82.4419 63.0799 82.4322 63.0557 82.4322C63.0315 82.4322 63.0083 82.4419 62.9912 82.459C62.974 82.4761 62.9644 82.4993 62.9644 82.5235C62.6889 82.5027 62.4148 82.4662 62.1434 82.414C61.775 82.3636 61.4174 82.2526 61.0852 82.0856C60.98 82.0237 60.8821 81.9502 60.7932 81.8666L61.0122 81.8301H61.0852C62.2818 81.8148 63.4762 81.7234 64.6612 81.5565L65.2633 81.6294C65.0624 81.9434 64.8165 82.2261 64.5335 82.4687C64.1042 82.5256 63.6707 82.5439 63.2381 82.5235ZM65.464 81.6477L66.65 81.8119L66.5223 81.8666H66.4858C66.4699 81.8686 66.4548 81.8746 66.4419 81.8842C66.4291 81.8938 66.4191 81.9066 66.4128 81.9214C65.9149 82.1362 65.3948 82.2953 64.8619 82.3958C65.092 82.1783 65.2943 81.9332 65.464 81.6659V81.6477ZM44.8834 80.1333L45.6132 80.3158L45.6497 80.5347C45.1018 80.5691 44.5519 80.5508 44.0076 80.48C43.3861 80.4009 42.7888 80.1894 42.256 79.8597C43.14 79.8364 44.0232 79.9284 44.8834 80.1333ZM43.7886 79.7684C44.1321 79.7059 44.4866 79.7639 44.7921 79.9326C44.7982 79.9334 44.8043 79.9334 44.8104 79.9326L43.7886 79.7502V79.7684ZM45.3395 79.5312L45.5584 79.6407L45.5949 80.1151L45.5037 80.0786L44.8286 79.9509C44.8528 79.9581 44.8789 79.9555 44.9011 79.9435C44.9234 79.9315 44.94 79.9112 44.9472 79.887C44.9545 79.8628 44.9518 79.8367 44.9398 79.8145C44.9279 79.7923 44.9076 79.7757 44.8834 79.7684C44.336 79.4035 43.6609 79.6225 43.0588 79.659C42.7532 79.6887 42.4451 79.6384 42.1648 79.513C43.223 79.4887 44.2873 79.4887 45.3577 79.513L45.3395 79.5312ZM42.1283 79.6954H42.0371C41.9726 79.6384 41.9117 79.5775 41.8546 79.513C41.9356 79.5879 42.028 79.6495 42.1283 79.6954ZM40.9424 79.5312C40.8557 79.6223 40.7376 79.6768 40.6121 79.6836C40.4866 79.6903 40.3632 79.6489 40.2673 79.5677L40.9424 79.5312ZM38.7894 79.6407L38.4975 79.8232L38.2056 80.0056C38.1159 80.0637 38.0173 80.1069 37.9137 80.1333C37.8224 80.1333 37.8224 80.0968 37.8224 80.0239V79.7137L38.7894 79.6407ZM37.0196 79.7319C37.2017 79.7488 37.3849 79.7488 37.567 79.7319H37.6217V79.9144C37.6033 80.0292 37.6294 80.1466 37.6947 80.2428C37.8772 80.4253 38.1873 80.2246 38.3515 80.1333C38.6191 79.982 38.8753 79.8113 39.1178 79.6225L39.9936 79.5677C40.0636 79.6636 40.1558 79.741 40.2624 79.7932C40.369 79.8453 40.4867 79.8707 40.6053 79.8671C40.724 79.8635 40.8399 79.8311 40.9432 79.7725C41.0464 79.714 41.1338 79.6312 41.1978 79.5312L41.5992 79.513C41.6564 79.5773 41.7174 79.6382 41.7817 79.6954C41.2207 79.7705 40.6772 79.9434 40.1761 80.2063C39.9246 80.3381 39.6809 80.4843 39.4463 80.6442C39.2294 80.8163 38.9717 80.9295 38.6982 80.9726C38.3515 81.0091 38.0049 80.8631 37.6947 80.7354C37.4584 80.6511 37.2269 80.5536 37.0014 80.4435C36.983 80.2063 36.9892 79.9679 37.0196 79.7319ZM37.9319 81.0091C38.2184 81.1352 38.5326 81.1855 38.8442 81.1551C39.1106 81.0867 39.3594 80.9623 39.574 80.7902C39.8065 80.6216 40.0504 80.4692 40.3038 80.334C40.5721 80.202 40.8534 80.0981 41.1431 80.0239C41.4127 79.9549 41.6872 79.9061 41.9641 79.8779C42.3833 80.1894 42.8612 80.4129 43.369 80.5347C43.8817 80.6642 44.4093 80.7255 44.9381 80.7172H45.6679C45.9795 81.9211 46.5183 83.0544 47.2552 84.0561V84.0743C46.4878 84.7689 45.5386 85.2309 44.5185 85.4062C43.2413 85.5887 41.9094 85.169 40.7234 84.6764C39.6287 84.2385 38.534 83.5817 37.8407 82.6329C37.3994 82.0573 37.1107 81.3795 37.0014 80.6625C37.3103 80.8023 37.6271 80.9241 37.9502 81.0274L37.9319 81.0091ZM46.4342 82.2863C46.1942 81.7788 46.0106 81.2465 45.8868 80.6989L47.0363 80.6442H47.237C47.4467 80.6896 47.6613 80.708 47.8756 80.6989H47.9303C48.317 80.7336 48.6974 80.8195 49.0615 80.9544C49.187 81.0071 49.3089 81.0681 49.4264 81.1368C48.9732 82.0962 48.3696 82.977 47.6384 83.7459L47.4195 83.9648C47.0535 83.4253 46.7302 82.8579 46.4525 82.268L46.4342 82.2863ZM49.5906 81.1916C49.992 81.4288 50.4117 81.6659 50.8678 81.6112C51.1493 81.5542 51.4125 81.4289 51.6341 81.2463C51.8704 81.4276 52.145 81.5524 52.4369 81.6112C53.1485 81.7572 53.8418 81.5017 54.5169 81.2463C55.2879 82.2876 56.2945 83.1317 57.4544 83.7094C58.1353 83.9984 58.8675 84.1473 59.6073 84.1473C60.0375 84.4632 60.4886 84.7497 60.9575 85.0048L61.5778 85.315C61.2622 85.7308 60.9079 86.1156 60.5196 86.4644C59.2653 87.5899 57.6886 88.292 56.013 88.4714C54.3662 88.6448 52.7056 88.314 51.251 87.5227C49.8747 86.7514 48.6801 85.6937 47.7479 84.421L47.5289 84.0926C48.3876 83.2666 49.0865 82.2893 49.5906 81.2098V81.1916ZM61.3224 85.0048C60.8341 84.7599 60.3645 84.4794 59.9175 84.1655C60.1911 84.1655 60.4648 84.1291 60.7568 84.0926C61.3572 84.0194 61.9496 83.8912 62.5265 83.7094C62.298 84.2237 62.0167 84.7128 61.6873 85.169L61.3224 84.9866V85.0048ZM43.4967 5.61961H42.6574H43.4785H43.4967ZM6.34933 41.9277C6.24733 39.3919 6.36944 36.852 6.71423 34.3377C6.77229 34.6043 6.9205 34.8427 7.13387 35.0128C7.44404 35.2317 7.84544 35.3047 8.1921 35.4142C8.57396 35.5226 8.92023 35.7303 9.19559 36.0162C9.46445 36.3055 9.70858 36.6167 9.9254 36.9468C9.92056 37.6485 10.0965 38.3397 10.4363 38.9537C10.6196 39.2604 10.8336 39.5477 11.0749 39.8113C11.1528 39.8836 11.2042 39.9799 11.2208 40.0849C11.2156 40.1913 11.1774 40.2933 11.1113 40.3769C11.0076 40.521 10.916 40.6736 10.8377 40.833C10.698 41.1438 10.6175 41.4779 10.6005 41.8182C10.5883 42.1722 10.644 42.5252 10.7647 42.8582C10.6341 43.4961 10.5487 44.1423 10.5092 44.7922C10.4677 45.366 10.3699 45.9343 10.2173 46.489C10.0349 47.0546 9.79768 47.602 9.76119 48.2041C9.54225 47.5838 9.32331 46.9634 9.04963 46.3796L8.92191 46.1059C8.93159 46.1059 8.94087 46.102 8.94771 46.0952C8.95456 46.0884 8.9584 46.0791 8.9584 46.0694C8.9584 46.0597 8.95456 46.0504 8.94771 46.0436C8.94087 46.0368 8.93159 46.0329 8.92191 46.0329H8.88542C8.79419 45.7957 8.68472 45.5768 8.55701 45.3396L8.50227 45.1936C8.49672 45.1904 8.49043 45.1887 8.48402 45.1887C8.47762 45.1887 8.47133 45.1904 8.46578 45.1936C8.33356 44.9482 8.18736 44.7107 8.02789 44.4821L7.88193 44.2814L7.91842 44.1719C7.93667 44.1354 7.86368 44.1172 7.84544 44.1719L7.82719 44.2266L7.77246 44.1719C7.80895 44.1719 7.80895 44.0989 7.77246 44.0989H7.69948C7.5793 43.9521 7.44484 43.8177 7.29808 43.6975C7.20685 43.6428 7.07914 43.5151 6.96967 43.5151C6.80546 43.5151 6.78721 43.7522 6.78721 43.88C6.75859 44.3783 6.75859 44.8778 6.78721 45.3761L6.80546 46.0147V46.0876L6.84195 46.8904L6.86019 47.4378V47.456L6.87844 47.748C6.79329 47.1641 6.72031 46.5742 6.6595 45.9782C6.50529 44.6385 6.40182 43.2935 6.34933 41.946V41.9277ZM9.81593 48.7697L8.83068 46.0694L8.90367 46.1971C9.23208 46.9269 9.50576 47.6567 9.76119 48.4048C9.77247 48.5274 9.79074 48.6492 9.81593 48.7697ZM7.75421 46.5255C7.71737 46.6999 7.69298 46.8768 7.68123 47.0546V47.8574C7.6265 47.9122 7.59001 47.9669 7.57176 48.0399C7.56822 47.7354 7.5804 47.4309 7.60825 47.1276C7.60825 46.9452 7.64474 46.781 7.66299 46.6168C7.68832 46.524 7.73173 46.4372 7.7907 46.3613C7.7907 46.3978 7.7907 46.4343 7.75421 46.4708C7.75033 46.4742 7.74722 46.4784 7.74509 46.4831C7.74296 46.4879 7.74186 46.493 7.74186 46.4982C7.74186 46.5033 7.74296 46.5085 7.74509 46.5132C7.74722 46.5179 7.75033 46.5221 7.75421 46.5255ZM7.75421 47.8939C7.79025 47.8288 7.83306 47.7676 7.88193 47.7115C8.08263 47.5108 8.26508 47.8027 8.37455 47.9669C8.48946 48.1677 8.59302 48.3748 8.68472 48.5872L9.3598 50.0834L10.5822 52.8566C10.9769 53.7975 11.318 54.76 11.604 55.7394C12.2426 57.9288 12.7169 60.1365 13.2096 62.3624C13.6657 64.4241 14.0853 66.4859 14.432 68.5658C14.7422 70.3904 15.0341 72.2331 15.0706 74.0759C15.0836 74.4105 15.0775 74.7455 15.0523 75.0794C15.0403 75.3049 14.991 75.5269 14.9064 75.7362C14.8699 75.8275 14.7969 75.9552 14.6692 75.9187C14.505 75.9187 14.3772 75.7362 14.286 75.645C13.9015 75.1301 13.5885 74.5654 13.3555 73.9664C13.4706 74.2188 13.6314 74.4477 13.8299 74.6415C13.9422 74.7445 14.0645 74.8362 14.1948 74.9152C14.2433 74.9527 14.3005 74.9774 14.3611 74.987C14.4217 74.9965 14.4837 74.9907 14.5415 74.9699C14.5965 74.9286 14.6427 74.8767 14.6772 74.8171C14.7117 74.7575 14.7338 74.6916 14.7422 74.6233C14.8035 74.3663 14.8341 74.1029 14.8334 73.8387C14.8334 73.4373 14.8334 73.0359 14.7969 72.6345C14.6388 70.8581 14.383 69.0917 14.0306 67.3434C13.6414 65.2878 13.2035 63.2382 12.7169 61.1947C12.2426 59.1878 11.7134 57.1808 11.0384 55.2285C10.5965 53.8588 10.0411 52.5284 9.37804 51.2511C9.19544 50.9196 8.98807 50.6025 8.7577 50.3023C8.62999 50.1199 8.42929 49.8462 8.1921 49.8279C7.95491 49.8097 7.88193 50.0651 7.82719 50.2293C7.77017 50.5114 7.75176 50.7998 7.77246 51.0869C7.78888 51.5027 7.83154 51.9171 7.90018 52.3275C7.90018 52.3372 7.90402 52.3465 7.91086 52.3533C7.91771 52.3602 7.92699 52.364 7.93667 52.364C7.93564 52.3701 7.93564 52.3762 7.93667 52.3823H7.90018L7.73597 51.3058L7.68123 50.9409V50.8679C7.74621 50.4147 7.7767 49.9573 7.77246 49.4995L7.75421 47.8939ZM8.1921 52.3823C8.18104 52.3691 8.16883 52.3568 8.15561 52.3458C8.14869 52.3135 8.13635 52.2827 8.11912 52.2545C8.11792 52.2498 8.11579 52.2452 8.11285 52.2413C8.10991 52.2373 8.10622 52.234 8.10198 52.2314C8.09774 52.2289 8.09305 52.2272 8.08816 52.2265C8.08328 52.2257 8.0783 52.226 8.07351 52.2272C8.06871 52.2284 8.0642 52.2305 8.06024 52.2335C8.05627 52.2364 8.05292 52.2401 8.05037 52.2443C8.04783 52.2486 8.04615 52.2532 8.04542 52.2581C8.0447 52.263 8.04494 52.268 8.04614 52.2728C8.02811 52.2688 8.00943 52.2688 7.9914 52.2728C7.9914 52.1451 7.95491 52.0356 7.93667 51.9079H7.95491C8.00965 51.9079 8.04614 51.9444 8.06438 51.9809L8.10087 52.0174L8.1921 52.3823ZM8.00965 52.3458C8.02178 52.3446 8.034 52.3446 8.04614 52.3458C8.05445 52.3567 8.06064 52.3691 8.06438 52.3823L8.10087 52.4005L8.13736 52.5647V52.583C8.13736 52.5465 8.08263 52.583 8.08263 52.6012L8.11912 52.7107C8.08979 52.6673 8.05937 52.6248 8.02789 52.583L8.00965 52.4005C8.00965 52.3908 8.0058 52.3816 7.99896 52.3747C7.99212 52.3679 7.98283 52.364 7.97316 52.364C7.98061 52.3595 7.98686 52.3532 7.9914 52.3458H8.00965ZM8.13736 53.1668V53.2398V53.1486V53.1668ZM8.13736 52.9844L8.10087 52.9296L8.06438 52.7837L8.13736 52.9296V53.0209C8.13565 53.0026 8.13565 52.9843 8.13736 52.9661V52.9844ZM8.28333 52.7654L8.24684 52.6742C8.24602 52.662 8.24602 52.6499 8.24684 52.6377H8.26508L8.35631 52.9296L8.41104 53.0938L8.28333 52.7654ZM8.37455 52.5282V52.6012L8.30157 52.3458L8.37455 52.5282ZM8.33806 52.0903C8.34175 52.0414 8.34784 51.9927 8.35631 51.9444V52.1633L8.33806 52.0903ZM8.52051 51.6342C8.57525 51.5977 8.64823 51.6525 8.70297 51.7072C8.74209 51.7343 8.77872 51.7648 8.81244 51.7984C8.80827 51.8102 8.80827 51.8231 8.81244 51.8349C8.81089 51.8409 8.81089 51.8472 8.81244 51.8532L9.63348 54.1338C9.4976 53.8288 9.32612 53.541 9.12261 53.2763C8.94016 53.0209 8.68472 52.8202 8.50227 52.5465L8.46578 52.4188V51.6889C8.47689 51.6809 8.48921 51.6748 8.50227 51.6707L8.52051 51.6342ZM8.48402 51.543V51.5247C8.48439 51.4484 8.50317 51.3733 8.53876 51.3058C8.57525 51.2693 8.5935 51.324 8.62999 51.3605C8.67566 51.4414 8.71237 51.5271 8.73946 51.616C8.70767 51.5815 8.66703 51.5565 8.62198 51.5437C8.57692 51.5308 8.5292 51.5306 8.48402 51.543ZM13.7387 71.5581C13.6302 70.359 13.4658 69.1657 13.246 67.982C12.6649 64.5973 11.8975 61.2472 10.9471 57.9471C10.4728 56.2868 9.90716 54.6629 9.34155 53.0391L9.01314 52.1086C9.1137 52.2862 9.20504 52.4689 9.28682 52.6559C9.57433 53.2501 9.83013 53.8592 10.0531 54.4805C10.6005 56.0496 11.0566 57.6369 11.4762 59.2242C12.4971 63.1648 13.289 67.1611 13.8481 71.1932C13.8807 71.5449 13.8868 71.8987 13.8664 72.2514C13.8538 72.4244 13.8232 72.5956 13.7752 72.7622C13.7731 72.7502 13.7731 72.7378 13.7752 72.7258C13.7848 72.3422 13.7726 71.9584 13.7387 71.5763V71.5581ZM13.465 73.1089C13.4461 73.0978 13.4278 73.0856 13.4102 73.0724L13.319 72.9265L13.1366 72.5068C12.8446 71.777 12.5892 70.9925 12.3155 70.2444C11.7682 68.6388 11.2938 66.9967 10.8559 65.3547C10.418 63.6639 10.0105 61.961 9.63348 60.246C9.26857 58.6222 8.97665 56.9618 8.73946 55.3198L8.70297 54.9549C8.72121 54.9549 8.7577 54.9549 8.73946 54.9184L8.72121 54.8271C8.72754 54.8236 8.73266 54.8182 8.73591 54.8117C8.73916 54.8052 8.7404 54.7978 8.73946 54.7906L8.62999 54.4622L8.61174 54.2433L8.86717 55.0096C8.86717 55.0461 8.94016 55.0278 8.94016 55.0096L8.64823 54.1338C8.65542 54.116 8.66151 54.0977 8.66648 54.0791V54.0608L8.72121 54.1156L8.79419 54.3163C8.79419 54.3259 8.79804 54.3352 8.80488 54.3421C8.81173 54.3489 8.82101 54.3528 8.83068 54.3528L8.9584 54.6447C8.97665 54.6812 9.04963 54.6629 9.03138 54.6447C8.95938 54.4564 8.87402 54.2735 8.77595 54.0973L8.73946 53.9696C8.74314 53.9591 8.74919 53.9496 8.75712 53.9418C8.76506 53.9339 8.77468 53.928 8.78525 53.9245C8.79581 53.921 8.80705 53.9199 8.81809 53.9214C8.82912 53.9229 8.83967 53.9269 8.84893 53.9331C8.86209 53.9442 8.87429 53.9564 8.88542 53.9696L8.92191 54.0426L9.21384 54.8636C9.21384 54.9184 9.28682 54.9001 9.26857 54.8636L9.12261 54.371C9.17309 54.4471 9.22791 54.5202 9.28682 54.5899C9.30506 54.6264 9.3598 54.5717 9.34155 54.5352C9.29548 54.4769 9.25283 54.416 9.21384 54.3528C9.22017 54.3492 9.22528 54.3438 9.22853 54.3373C9.23178 54.3308 9.23302 54.3235 9.23208 54.3163L9.19559 54.2433C9.19559 54.2433 9.23208 54.2433 9.23208 54.2068L8.9584 53.5682L9.08612 53.8236C9.23973 54.181 9.37373 54.5464 9.48751 54.9184C9.50576 54.9731 9.57874 54.9549 9.5605 54.9184C9.43499 54.5456 9.2888 54.1801 9.12261 53.8236L9.08612 53.7324V53.7507C9.31941 54.1413 9.52076 54.5501 9.68821 54.9731C9.68821 55.0096 9.76119 54.9913 9.74295 54.9549C9.57801 54.5132 9.37662 54.086 9.14085 53.6777C9.05558 53.5258 8.94444 53.3899 8.81244 53.2763L8.61174 52.7837L8.66648 52.8566L8.99489 53.2033C9.13397 53.3735 9.25617 53.5568 9.3598 53.7507C9.55631 54.1381 9.72106 54.5408 9.85242 54.9549C9.85426 54.9601 9.85728 54.9649 9.86125 54.9688C9.86522 54.9727 9.87003 54.9756 9.87532 54.9774C9.8806 54.9792 9.88622 54.9797 9.89173 54.9789C9.89725 54.9782 9.90253 54.9762 9.90716 54.9731L10.4363 56.5787C10.9471 58.2208 11.3668 59.9176 11.7864 61.5961C12.1757 63.2017 12.5284 64.8134 12.8446 66.4311C13.2016 68.2238 13.4756 70.032 13.6657 71.85C13.6891 72.1902 13.6891 72.5315 13.6657 72.8717L13.6474 73.0359C13.6292 73.1089 13.5562 73.1819 13.465 73.1454V73.1089ZM13.6474 73.2001C13.6292 73.2366 13.6109 73.2731 13.5745 73.2731C13.538 73.2731 13.5197 73.2549 13.5015 73.2184C13.5196 73.2211 13.5381 73.2211 13.5562 73.2184C13.5814 73.2165 13.6061 73.2104 13.6292 73.2001H13.6474ZM13.0453 72.5433L12.9906 72.4338C12.7116 71.8095 12.4679 71.1699 12.2608 70.5181C12.0948 69.9791 11.9366 69.4378 11.7864 68.8942C12.1794 70.1098 12.6052 71.3144 13.0636 72.5068C13.0622 72.5189 13.0622 72.5312 13.0636 72.5433H13.0453ZM8.66648 53.2763C8.69249 53.2847 8.71709 53.297 8.73946 53.3128L8.77595 53.3675L9.10436 54.1338C9.06373 54.067 9.01467 54.0057 8.9584 53.9514C8.91232 53.8229 8.85107 53.7004 8.77595 53.5865L8.73946 53.5317L8.48402 52.8931V52.7654L8.61174 53.0938C8.61517 53.0977 8.61938 53.1008 8.6241 53.103C8.62881 53.1051 8.63393 53.1062 8.63911 53.1062C8.64429 53.1062 8.6494 53.1051 8.65412 53.103C8.65884 53.1008 8.66305 53.0977 8.66648 53.0938L8.73946 53.2216C8.72123 53.2203 8.70295 53.2203 8.68472 53.2216C8.67947 53.2234 8.6747 53.2264 8.6708 53.2304C8.66689 53.2344 8.66394 53.2392 8.66218 53.2444C8.66042 53.2497 8.65989 53.2553 8.66064 53.2609C8.66138 53.2664 8.66338 53.2717 8.66648 53.2763ZM8.5935 53.3675C8.55867 53.3027 8.5282 53.2357 8.50227 53.1668V53.1303L8.5935 53.3675ZM8.5935 53.477L8.72121 53.6594L8.83068 53.8966C8.80131 53.8854 8.76883 53.8854 8.73946 53.8966C8.72607 53.8999 8.7136 53.9061 8.70297 53.9149L8.52051 53.4222V53.3675C8.54122 53.4063 8.56566 53.443 8.5935 53.477ZM8.64823 53.9696V53.9514L8.61174 53.9331L8.55701 53.8236V53.6777L8.64823 53.9696ZM8.64823 54.0243L8.61174 54.0608V54.0061L8.64823 54.0243ZM8.46578 53.8966L8.48402 54.0243L8.41104 53.7689C8.43189 53.8134 8.4563 53.8561 8.48402 53.8966H8.46578ZM8.3928 53.2945L8.35631 53.1486L8.42929 53.331V53.4405L8.3928 53.2945ZM8.30157 53.8419V53.8966L8.5935 54.8454C8.73946 56.0313 8.94016 57.2173 9.14085 58.4215C9.28682 59.1513 9.44494 59.8689 9.61523 60.5744L9.54225 60.319C9.0536 58.2384 8.65186 56.1384 8.33806 54.0243L8.30157 53.8419ZM9.17734 59.1513C9.59699 61.0123 10.0531 62.8368 10.5092 64.6796C10.8194 65.9203 11.1296 67.1427 11.4945 68.3834C11.1782 67.3251 10.8802 66.2608 10.6005 65.1905C10.1139 63.3659 9.66997 61.5292 9.26857 59.6804L8.92191 57.9471L9.17734 59.1513ZM11.8776 69.9707C11.9606 70.2511 12.0458 70.5309 12.1331 70.81C11.6952 69.5146 11.312 68.2009 10.9471 66.8873L10.8742 66.5771C11.1904 67.7083 11.5249 68.8395 11.8776 69.9707ZM12.2061 70.6823L12.0419 70.1714C12.2468 70.8192 12.4781 71.4583 12.7352 72.0872C12.8475 72.365 12.9817 72.6334 13.1366 72.89C13.1855 72.9886 13.2468 73.0805 13.319 73.1636C13.3529 73.2301 13.3959 73.2915 13.4467 73.3461C13.6292 73.5103 13.7022 73.3096 13.7387 73.0907C13.7655 73.0433 13.7898 72.9946 13.8116 72.9447C13.8913 72.7401 13.9404 72.525 13.9576 72.3061C13.9966 71.6048 13.9599 70.9013 13.8481 70.2079C13.0674 65.0919 11.9025 60.0419 10.3633 55.1008C10.1268 54.3899 9.85895 53.6898 9.5605 53.0026C9.39467 52.5687 9.17392 52.1579 8.90367 51.7802C8.85676 51.6288 8.79568 51.4822 8.72121 51.3423C8.68472 51.2875 8.64823 51.2146 8.57525 51.1963C8.44753 51.1598 8.41104 51.3788 8.3928 51.47L8.37455 51.6525C8.35144 51.6928 8.33307 51.7356 8.31982 51.7802C8.29803 51.8337 8.27975 51.8885 8.26508 51.9444L7.97316 51.2511C7.97316 51.2146 7.90018 51.2328 7.91842 51.2511V51.3058C7.91358 51.3058 7.90894 51.3077 7.90552 51.3111C7.9021 51.3146 7.90018 51.3192 7.90018 51.324C7.90018 51.3289 7.9021 51.3335 7.90552 51.3369C7.90894 51.3404 7.91358 51.3423 7.91842 51.3423L8.10087 51.8349C8.09608 51.8349 8.09134 51.8359 8.08691 51.8377C8.08248 51.8395 8.07846 51.8422 8.07507 51.8456C8.07168 51.849 8.06899 51.853 8.06716 51.8574C8.06533 51.8619 8.06438 51.8666 8.06438 51.8714V51.9079C8.03448 51.8787 7.99621 51.8596 7.95491 51.8532C7.95491 51.8483 7.95299 51.8437 7.94957 51.8403C7.94615 51.8368 7.9415 51.8349 7.93667 51.8349C7.93183 51.8349 7.92719 51.8368 7.92376 51.8403C7.92034 51.8437 7.91842 51.8483 7.91842 51.8532C7.88642 51.5867 7.86815 51.3187 7.86368 51.0504C7.84334 50.7685 7.86797 50.4852 7.93667 50.2111C7.97316 50.1199 8.00965 49.9739 8.11912 49.9556C8.22859 49.9374 8.30157 49.9921 8.3928 50.0469C8.67616 50.3144 8.91078 50.6293 9.08612 50.9774C9.73633 52.1296 10.2799 53.3388 10.7099 54.5899C11.3563 56.4266 11.9044 58.2963 12.352 60.1912C12.8629 62.18 13.3008 64.1687 13.7022 66.1757C14.0306 67.909 14.359 69.6423 14.5779 71.4121C14.693 72.2341 14.7479 73.0634 14.7422 73.8935C14.7422 74.1124 14.7422 75.0976 14.286 74.8787C14.0327 74.7496 13.8138 74.562 13.6474 74.3313C13.4392 74.0111 13.2678 73.6683 13.1366 73.3096C12.7717 72.4521 12.4797 71.5581 12.1878 70.664L12.2061 70.6823ZM7.95491 52.6195C7.95287 52.6074 7.95287 52.595 7.95491 52.583V52.5282V52.6195ZM7.66299 50.6307V50.7219L7.59001 50.357L7.6265 49.7367L7.57176 48.2588L7.68123 48.0399C7.68123 48.9157 7.75421 49.7732 7.66299 50.6307ZM7.37106 44.2631L7.33457 44.2449C7.29808 44.2084 7.2251 44.1536 7.15212 44.1719C7.07914 44.1901 7.04265 44.2996 7.0244 44.3543C6.95104 44.6107 6.90217 44.8733 6.87844 45.1389L6.86019 45.3578V43.8435C6.86019 43.7705 6.87844 43.5515 7.0244 43.6063C7.08913 43.6358 7.15033 43.6725 7.20685 43.7158C7.3661 43.8274 7.51291 43.9559 7.64474 44.0989C7.53468 44.1251 7.43761 44.1898 7.37106 44.2814V44.2631ZM7.69948 44.1719L7.80895 44.2814C7.79542 44.3204 7.77111 44.3549 7.73882 44.3807C7.70653 44.4065 7.66759 44.4227 7.6265 44.4273C7.55467 44.4135 7.49005 44.3747 7.44404 44.3178C7.50878 44.24 7.59951 44.1881 7.69948 44.1719ZM6.93318 45.1571C6.9576 44.8842 7.01268 44.6149 7.09738 44.3543C7.09738 44.2996 7.13387 44.2266 7.2251 44.2449C7.26591 44.262 7.30307 44.2868 7.33457 44.3178C7.11563 44.6098 7.06089 45.1206 7.0244 45.3761L6.91493 47.0182L6.86019 46.0329L6.93318 45.1571ZM7.95491 45.1389C7.88193 45.1754 7.77246 45.1024 7.69948 45.0294C7.73597 44.9199 7.77246 44.7922 7.84544 44.7557C8.00965 44.6645 8.15561 45.0659 8.21034 45.1754C8.2088 45.1814 8.2088 45.1876 8.21034 45.1936L8.37455 45.6133C8.30996 45.6115 8.247 45.5926 8.1921 45.5585C8.09702 45.4939 7.99234 45.4446 7.88193 45.4126C7.79806 45.3917 7.71036 45.3917 7.6265 45.4126C7.6265 45.3213 7.66299 45.2301 7.68123 45.1571V45.1024C7.77246 45.1754 7.88193 45.2666 7.9914 45.1936C8.02789 45.1754 7.9914 45.1024 7.95491 45.1389ZM7.48053 49.4448V48.496C7.49068 48.4648 7.50287 48.4344 7.51702 48.4048C7.51702 48.9521 7.57176 49.4995 7.55352 50.0469L7.53527 49.9374C7.53944 49.9256 7.53944 49.9127 7.53527 49.9009L7.48053 49.4448ZM7.37106 49.4448L7.40755 49.5907V49.9556L7.37106 50.503V50.5577L7.29808 50.357C7.33727 50.0665 7.36162 49.7742 7.37106 49.4813V49.4448ZM7.37106 46.6715C7.37106 46.562 7.37106 46.4708 7.40755 46.3613C7.42201 46.2499 7.44644 46.14 7.48053 46.0329L7.37106 47.2553V46.6715ZM7.44404 50.4118L7.46229 50.0286L7.53527 50.4483C7.51049 50.6437 7.48006 50.8384 7.44404 51.0321L7.38931 50.7584C7.42103 50.6516 7.43942 50.5413 7.44404 50.43V50.4118ZM7.48053 48.1676L7.44404 48.2223L7.48053 47.602V48.1859V48.1676ZM7.4258 47.4925L7.38931 48.3683L7.35282 48.4595V47.9852C7.39093 47.284 7.45178 46.5842 7.53527 45.8869C7.55033 45.8679 7.5699 45.853 7.5922 45.8434C7.6145 45.8338 7.63883 45.83 7.66299 45.8322C7.63686 45.8404 7.61222 45.8527 7.59001 45.8687C7.58275 45.876 7.57867 45.8858 7.57867 45.8961C7.57867 45.9063 7.58275 45.9162 7.59001 45.9234C7.59726 45.9307 7.60711 45.9348 7.61737 45.9348C7.62764 45.9348 7.63748 45.9307 7.64474 45.9234C7.65949 45.9067 7.67836 45.8941 7.69948 45.8869L7.57176 46.6168C7.48997 46.9022 7.441 47.196 7.4258 47.4925ZM7.55352 45.7957L7.59001 45.4855H7.6265C7.74859 45.4538 7.87801 45.4668 7.9914 45.522C8.10087 45.5768 8.24684 45.7045 8.37455 45.6862L8.48402 45.9052C8.33991 45.8808 8.19179 45.9065 8.06438 45.9782C8.05145 45.9895 8.03926 46.0017 8.02789 46.0147C7.96764 45.9447 7.89294 45.8887 7.80895 45.8505C7.81049 45.8445 7.81049 45.8382 7.80895 45.8322C7.77368 45.8027 7.73002 45.7851 7.68418 45.7818C7.63833 45.7786 7.59262 45.7898 7.55352 45.814V45.7957ZM7.57176 45.2119L7.53527 45.4308C7.45904 45.4604 7.38574 45.4971 7.31633 45.5403C7.31282 45.5462 7.31106 45.553 7.31124 45.5599C7.31142 45.5667 7.31354 45.5734 7.31736 45.5791C7.32117 45.5848 7.32652 45.5894 7.3328 45.5922C7.33907 45.595 7.34601 45.596 7.35282 45.595C7.4111 45.5598 7.47212 45.5293 7.53527 45.5038L7.46229 45.8687C7.38498 45.9969 7.33527 46.1398 7.31633 46.2883L7.27984 45.4673C7.27984 45.4576 7.27599 45.4483 7.26915 45.4415C7.2623 45.4347 7.25302 45.4308 7.24335 45.4308C7.28505 45.266 7.34631 45.1067 7.4258 44.9564C7.49476 44.9667 7.55866 44.9987 7.60825 45.0477L7.57176 45.2301V45.2119ZM7.26159 46.6715L7.24335 46.8539C7.18861 47.602 7.24334 48.3683 7.17036 49.1164L7.13387 49.4995L7.06089 49.0981V48.0399L7.09738 47.456C7.09851 46.8836 7.12285 46.3114 7.17036 45.741L7.20685 45.5768L7.26159 46.6715ZM6.98791 48.5872V48.569C6.98872 48.5569 6.98872 48.5447 6.98791 48.5325V48.5872ZM7.20685 49.4995C7.24678 49.1849 7.26507 48.8679 7.26159 48.5508V47.3648L7.29808 48.2406L7.26159 49.0069L7.20685 49.9192L7.17036 49.7002C7.18527 49.64 7.19744 49.5791 7.20685 49.5178V49.4995ZM7.4258 51.1781C7.4709 51.0606 7.50153 50.9381 7.51702 50.8132V50.7037L7.59001 51.0321C7.5632 51.1587 7.52028 51.2813 7.46229 51.397L7.4258 51.1781ZM7.68123 46.3978L7.73597 46.0876C7.74081 46.0876 7.74545 46.0857 7.74887 46.0823C7.75229 46.0789 7.75421 46.0742 7.75421 46.0694L7.77246 45.9234C7.84339 45.9579 7.90573 46.0078 7.95491 46.0694C7.90253 46.1227 7.85937 46.1844 7.82719 46.2518C7.76665 46.2869 7.71633 46.3373 7.68123 46.3978ZM7.88193 46.2883C7.90014 46.2867 7.91846 46.2867 7.93667 46.2883C7.97316 46.2883 7.95491 46.2336 7.93667 46.2154C7.94167 46.1968 7.94776 46.1785 7.95491 46.1606C7.97222 46.1471 7.99051 46.1349 8.00965 46.1241C8.14308 46.2728 8.26506 46.4314 8.37455 46.5985L8.83068 47.2736L8.86717 47.3283C8.54023 47.0283 8.18595 46.7595 7.80895 46.5255C7.83329 46.4502 7.8638 46.3769 7.90018 46.3066L7.88193 46.2883ZM8.62999 46.8722C8.49833 46.66 8.35834 46.453 8.21034 46.2518L8.06438 46.0694C8.19504 45.9884 8.35239 45.9621 8.50227 45.9964L8.9584 47.1641L9.10436 47.529C8.93185 47.325 8.77911 47.1051 8.64823 46.8722H8.62999ZM8.44753 45.668C8.46865 45.6529 8.48714 45.6344 8.50227 45.6133C8.53876 45.5768 8.50227 45.522 8.46578 45.5585C8.4488 45.5725 8.43046 45.5847 8.41104 45.595L8.24684 45.1754C8.25004 45.1698 8.25172 45.1635 8.25172 45.1571C8.25172 45.1507 8.25004 45.1444 8.24684 45.1389C8.1921 44.9929 7.93667 44.4456 7.71772 44.774C7.67613 44.8418 7.64536 44.9157 7.6265 44.9929C7.60452 44.9664 7.58009 44.9419 7.55352 44.9199C7.5198 44.9026 7.48154 44.8963 7.44404 44.9017C7.4385 44.8985 7.4322 44.8968 7.4258 44.8968C7.41939 44.8968 7.4131 44.8985 7.40755 44.9017C7.36585 44.9068 7.32718 44.9261 7.29808 44.9564C7.24422 45.0397 7.20705 45.1327 7.18861 45.2301C7.18962 45.2119 7.18962 45.1936 7.18861 45.1754C7.2251 44.9929 7.26159 44.7375 7.40755 44.6098C7.44404 44.5733 7.40755 44.5185 7.35282 44.555C7.26014 44.658 7.19709 44.7841 7.17036 44.9199C7.12624 45.0998 7.09575 45.2828 7.07914 45.4673C7.01666 45.9268 6.98618 46.3902 6.98791 46.8539C6.98791 47.2188 6.98791 47.5838 6.95142 47.9487V48.1311L6.93318 47.4378C7.0244 46.8357 7.0244 46.2154 7.07914 45.6133C7.09779 45.2784 7.1591 44.9473 7.26159 44.628C7.29448 44.5384 7.33732 44.4527 7.38931 44.3726C7.4402 44.4235 7.50287 44.4611 7.57176 44.4821C7.62707 44.4911 7.68383 44.4817 7.73329 44.4554C7.78275 44.429 7.82216 44.3871 7.84544 44.3361L7.91842 44.4456C8.13504 44.735 8.33017 45.0399 8.50227 45.3578L8.72121 45.9599C8.67323 45.9452 8.62451 45.933 8.57525 45.9234L8.44753 45.668ZM10.5822 72.1784L10.6917 72.7987L10.9654 74.4773C10.9611 74.6851 10.9428 74.8923 10.9106 75.0976L10.5822 72.1784ZM10.1626 68.7848C9.90716 66.8508 9.61523 64.8255 9.32331 62.8733L9.99838 66.0662C10.4117 68.1594 10.7162 70.2726 10.9106 72.3973C10.9106 72.671 10.9471 72.9447 10.9654 73.2001L10.1626 68.7848ZM20.8726 87.395C21.055 86.8111 21.6389 86.5922 22.1862 86.4827C21.9456 86.7718 21.7433 87.0907 21.5841 87.4315C21.4385 87.509 21.31 87.6153 21.2066 87.7439C21.1031 87.8724 21.0267 88.0206 20.982 88.1795L20.7996 87.9423C20.7981 87.7573 20.8227 87.5731 20.8726 87.395ZM21.8578 89.4567L21.7483 89.2742L21.8578 89.183V89.4384V89.4567ZM21.0185 88.2525C21.0938 87.9499 21.2834 87.6883 21.5476 87.5227C21.3969 87.8396 21.2748 88.1693 21.1827 88.5079L21.0185 88.2525ZM49.8643 101.809C48.2273 103.079 46.3812 104.055 44.409 104.691C42.475 105.239 40.4315 105.202 38.4063 105.184C37.2933 105.184 36.1256 105.166 35.1039 104.691C34.1369 104.235 33.4253 103.414 32.732 102.63C30.3424 99.9706 28.0065 97.2637 25.7258 94.5106C25.963 94.5836 26.1819 94.6566 26.4191 94.6931C26.8875 94.8131 27.3628 94.9045 27.8423 94.9667C27.8788 94.9667 27.8788 94.912 27.8423 94.912C27.0992 94.8135 26.3665 94.6486 25.6528 94.4194L25.5799 94.3464H25.8353C25.8718 94.3464 25.8718 94.2917 25.8353 94.2917H25.5434L25.2697 93.9268C25.5479 93.9639 25.8283 93.9822 26.109 93.9815C26.1186 93.9815 26.1279 93.9777 26.1348 93.9708C26.1416 93.964 26.1455 93.9547 26.1455 93.945C26.1455 93.9353 26.1416 93.9261 26.1348 93.9192C26.1279 93.9124 26.1186 93.9085 26.109 93.9085C25.8105 93.9163 25.5118 93.9041 25.2149 93.872L25.0872 93.6896C25.3609 93.6713 25.6346 93.6166 25.89 93.5801C25.9265 93.5801 25.9083 93.5071 25.89 93.5254C25.6063 93.577 25.3201 93.6136 25.0325 93.6348L24.923 93.5071C25.2627 93.4218 25.578 93.2587 25.8439 93.0307C26.1099 92.8027 26.3193 92.5161 26.4556 92.1935L26.3644 92.157C26.1968 92.5453 25.9253 92.88 25.5799 93.124C25.3607 93.2732 25.1116 93.3728 24.85 93.4159C24.0716 92.4428 23.3114 91.4515 22.5694 90.4419C22.5969 90.3501 22.6437 90.2651 22.7066 90.1928C22.7695 90.1204 22.8471 90.0623 22.9343 90.0223C23.8465 89.6574 24.9048 89.9493 25.817 90.2047L25.8718 90.0223C24.923 89.9493 23.062 89.2925 22.4782 90.296L22.2957 90.0588C22.3504 90.0588 22.3687 90.004 22.3322 90.004H22.241L22.1862 89.9128C22.224 89.757 22.2484 89.5983 22.2592 89.4384C22.2592 89.4019 22.2045 89.4019 22.2045 89.4384C22.1899 89.5798 22.1655 89.7201 22.1315 89.8581L21.9125 89.5297V89.183C21.909 89.1767 21.9036 89.1715 21.8971 89.1683C21.8906 89.165 21.8833 89.1638 21.8761 89.1648C21.9557 89.1119 22.0414 89.069 22.1315 89.037C22.4582 88.9401 22.805 88.9338 23.135 89.0188C23.1715 89.0188 23.1897 88.9641 23.135 88.9641C22.6424 88.8546 22.095 88.8728 21.6754 89.2377L21.5294 89.0188C21.748 88.7341 22.0289 88.5032 22.3504 88.3437C22.7243 88.1764 23.1271 88.0835 23.5364 88.07C23.5729 88.07 23.5729 88.0153 23.5364 88.0153C22.9291 88.027 22.3413 88.2315 21.8578 88.5991C21.7231 88.7069 21.6007 88.8293 21.4929 88.9641L21.274 88.6356C21.4564 88.3329 21.6639 88.0461 21.8943 87.7781C22.0609 87.5626 22.2575 87.3721 22.4782 87.2125C22.7848 87.0095 23.1524 86.9192 23.5181 86.9571C23.5546 86.9571 23.5546 86.9023 23.5181 86.9023C23.2447 86.8814 22.9702 86.925 22.7166 87.0296C22.4631 87.1342 22.2377 87.2968 22.0585 87.5044C21.752 87.8391 21.4828 88.2062 21.2557 88.5991C21.3491 88.2254 21.4711 87.8594 21.6206 87.5044C21.6795 87.4803 21.7406 87.462 21.8031 87.4497C21.807 87.4463 21.8101 87.4421 21.8122 87.4373C21.8143 87.4326 21.8154 87.4275 21.8154 87.4223C21.8154 87.4171 21.8143 87.412 21.8122 87.4073C21.8101 87.4026 21.807 87.3984 21.8031 87.395C21.7536 87.4035 21.7048 87.4157 21.6571 87.4315L21.8213 87.1213C21.9529 86.9002 22.1057 86.6925 22.2775 86.5009C22.6971 86.428 23.1167 86.3915 23.5546 86.355C23.5911 86.355 23.5911 86.3002 23.5546 86.3002C23.1532 86.3367 22.7518 86.355 22.3504 86.428C22.4952 86.2682 22.654 86.1217 22.8248 85.9901C22.8613 85.9536 22.8248 85.8988 22.8066 85.9353C22.6071 86.0864 22.4237 86.2576 22.2592 86.4462C21.9688 86.4811 21.6856 86.5611 21.4199 86.6834C21.1835 86.7937 20.9908 86.9799 20.8726 87.2125C20.7806 87.4253 20.737 87.6559 20.7449 87.8876L19.5407 86.0631C19.5042 85.7894 19.5042 85.5157 19.6866 85.315C19.8691 85.1143 20.234 85.242 20.4529 85.2055C21.5476 85.0231 22.4052 84.202 23.135 83.454L23.0255 83.3445C22.449 84.0211 21.7163 84.5472 20.8908 84.8771C20.7384 84.9386 20.5791 84.9815 20.4164 85.0048C20.2532 85.0279 20.0886 85.0401 19.9238 85.0413C19.4859 85.0961 19.3765 85.4427 19.3947 85.8259L18.1723 83.8189C13.3373 86.7199 10.2173 85.2055 10.2173 85.2055C10.2173 85.2055 11.531 82.2863 11.1661 77.9074L10.9836 75.5538C11.0298 75.4042 11.0663 75.2519 11.0931 75.0976C11.2756 76.3748 11.458 77.652 11.5675 78.9291C11.68 79.8983 11.7409 80.8728 11.7499 81.8484C11.7602 82.4675 11.6677 83.0841 11.4762 83.6729C11.3523 83.8371 11.2595 84.0226 11.2026 84.2203C11.1277 84.3151 11.0419 84.4008 10.9471 84.4757C10.8742 84.5487 11.0019 84.6764 11.0749 84.6034L11.1296 84.5669L11.1113 84.6947C11.1085 84.7018 11.1072 84.7095 11.1075 84.7172C11.1079 84.7249 11.1098 84.7324 11.1133 84.7393C11.1167 84.7462 11.1216 84.7523 11.1275 84.7572C11.1335 84.762 11.1404 84.7656 11.1478 84.7676C11.0918 84.789 11.037 84.8134 10.9836 84.8406C10.8924 84.8771 10.9836 85.0231 11.0566 84.9683C11.1505 84.9184 11.2481 84.8757 11.3485 84.8406C11.6726 85.0854 12.0575 85.2368 12.4615 85.2785C12.8944 85.3061 13.3272 85.2245 13.7204 85.0413C14.359 84.7676 14.9064 84.3115 15.4902 83.9466L15.7821 83.9101C16.3084 83.8351 16.809 83.6349 17.2418 83.3263C17.5589 83.3261 17.8715 83.4012 18.154 83.5452C18.2452 83.5817 18.3365 83.454 18.227 83.4175C18.0981 83.3563 17.9637 83.3074 17.8256 83.2715C17.8346 83.2615 17.8395 83.2485 17.8395 83.235C17.8395 83.2216 17.8346 83.2086 17.8256 83.1985C17.7513 83.1317 17.672 83.0708 17.5884 83.0161C17.7363 82.8459 17.8592 82.6554 17.9533 82.4505C18.0318 82.5243 18.1049 82.6036 18.1723 82.6877C18.227 82.7607 18.3365 82.6512 18.2635 82.5782C18.1853 82.4807 18.0999 82.3892 18.0081 82.3045C18.0502 82.2032 18.0867 82.0997 18.1175 81.9944C18.1199 81.9848 18.1204 81.9748 18.119 81.965C18.1175 81.9553 18.1141 81.9459 18.1091 81.9374C18.104 81.9289 18.0973 81.9215 18.0893 81.9157C18.0814 81.9098 18.0724 81.9055 18.0628 81.9031C18.0532 81.9007 18.0433 81.9002 18.0335 81.9017C18.0237 81.9032 18.0143 81.9065 18.0058 81.9116C17.9974 81.9167 17.99 81.9234 17.9841 81.9313C17.9782 81.9393 17.974 81.9483 17.9716 81.9579L17.8986 82.1951C17.593 81.929 17.2103 81.7678 16.8065 81.735C16.4027 81.7022 15.999 81.7994 15.6544 82.0126C15.5478 82.0677 15.4442 82.1286 15.3442 82.1951L15.5085 81.8301C15.6909 81.3558 16.0558 80.407 16.7126 80.553C17.333 80.6807 17.7161 81.3375 18.3547 81.374C18.4459 81.374 18.4459 81.2281 18.3547 81.2281C18.0628 81.2098 17.8074 81.0274 17.5884 80.8632C17.3521 80.676 17.0872 80.5282 16.8039 80.4253C16.1653 80.2428 15.7639 80.8814 15.5267 81.3923C15.3807 81.7207 15.253 82.0673 15.0888 82.3958C14.8151 82.6147 14.5415 82.8701 14.3043 83.1256C13.6109 83.3445 12.8629 83.0161 12.1696 83.1803C12.0116 83.217 11.8626 83.2853 11.7317 83.381C11.7896 83.1468 11.8323 82.9091 11.8594 82.6694C11.9375 81.7585 11.9314 80.8424 11.8412 79.9326C11.6952 78.0716 11.458 76.2106 11.1478 74.3678C11.1564 73.8624 11.1382 73.3569 11.0931 72.8535C10.7671 69.648 10.2676 66.4626 9.59699 63.3112L9.04963 60.8846C8.88542 59.4249 8.7577 57.9836 8.48402 56.5604L8.37455 56.0678C8.37029 56.0469 8.35882 56.0281 8.34215 56.0148C8.32549 56.0015 8.30467 55.9944 8.28333 55.9948L7.82719 53.1303L7.49878 51.5065C7.55409 51.4153 7.59704 51.3171 7.6265 51.2146L7.7907 52.3093C7.7875 52.3148 7.78581 52.3211 7.78581 52.3275C7.78581 52.3339 7.7875 52.3402 7.7907 52.3458L7.82719 52.437C8.36242 56.1062 9.07481 59.7473 9.96189 63.3477L10.1626 64.2052C10.564 65.9385 10.9836 67.6718 11.5127 69.3504C11.9993 70.9073 12.5101 72.4642 13.0453 74.0212C13.319 74.8057 13.5927 75.6085 13.9211 76.3931C13.9576 76.466 14.0853 76.4295 14.0488 76.3566C13.6306 75.3114 13.2472 74.2526 12.8994 73.1819C13.1911 73.9635 13.5577 74.715 13.9941 75.4261C14.1218 75.645 14.432 76.1559 14.7786 76.0464C14.8379 76.0145 14.8897 75.9703 14.9306 75.9168C14.9715 75.8634 15.0006 75.8018 15.0158 75.7362C15.0882 75.5179 15.1311 75.2908 15.1436 75.0611C15.188 74.2087 15.1575 73.3539 15.0523 72.5068C14.6612 69.4833 14.1499 66.4765 13.5197 63.4936C13.0476 61.1745 12.5122 58.8686 11.9141 56.5787C11.6328 55.5202 11.2917 54.4786 10.8924 53.4587C10.5275 52.5465 10.1261 51.6342 9.7247 50.7402L9.04963 49.2076C8.86115 48.7311 8.62906 48.273 8.35631 47.8392C8.28333 47.7297 8.17385 47.5655 7.9914 47.5838C7.93836 47.5944 7.88817 47.6162 7.84414 47.6476C7.80012 47.6791 7.76325 47.7195 7.73597 47.7662V47.6385C7.72624 47.3461 7.73844 47.0533 7.77246 46.7627L7.80895 46.6168C8.30299 46.9455 8.76158 47.3246 9.17734 47.748C9.17734 47.748 9.17735 47.748 9.19559 47.748L9.37804 48.2223L9.59699 48.7697C9.63348 48.8609 9.66997 49.0069 9.76119 49.0434C9.79768 49.0616 9.83418 49.0069 9.79768 48.9886C9.76119 48.9704 9.70646 48.8609 9.68821 48.8062L9.57874 48.5508L9.39629 48.0399L9.21384 47.6202C9.14219 47.4312 9.06921 47.2427 8.99489 47.0546L8.57525 46.0329L8.7577 46.0694L9.87066 49.1711V49.2258C9.8887 49.3788 9.8763 49.5338 9.83417 49.682L9.68821 50.1016C9.65034 50.2135 9.63886 50.3327 9.65469 50.4498C9.67051 50.5669 9.71321 50.6788 9.77944 50.7767C9.90538 50.9508 10.0848 51.0789 10.2903 51.1416C10.445 51.1854 10.6068 51.1983 10.7665 51.1795C10.9261 51.1608 11.0805 51.1107 11.2208 51.0321C11.5085 51.1536 11.8231 51.1977 12.1331 51.1598C12.9586 51.0574 13.7506 50.7705 14.4502 50.3205C15.8551 49.463 16.9316 48.2041 18.0081 46.9999L18.4459 47.0364C19.34 47.1094 20.234 47.0911 21.1462 47.0729C22.4599 47.0364 23.7918 46.9634 25.1237 47.0182L27.5321 48.0034C27.5321 48.496 28.0795 48.8792 28.4809 49.0981L29.0465 49.4265L29.1742 49.8827C29.2654 50.3753 29.2836 50.8679 29.4114 51.3423C29.5221 51.7506 29.7661 52.1103 30.1047 52.364C30.4855 52.6398 30.9032 52.8609 31.3454 53.0209C31.3537 53.0257 31.3631 53.0282 31.3727 53.0282C31.3823 53.0282 31.3918 53.0257 31.4001 53.0209L31.4913 53.2763C31.2696 53.4981 31.1029 53.7688 31.0047 54.0666C30.9065 54.3644 30.8794 54.6812 30.9257 54.9913C30.9723 55.3268 31.1112 55.6427 31.3271 55.9036V55.9219C31.3491 56.1359 31.4045 56.3452 31.4913 56.5422C31.665 56.9222 31.9131 57.2634 32.2211 57.5457C32.0132 57.859 31.9051 58.2279 31.911 58.6039C31.9136 58.9221 32.0087 59.2327 32.1846 59.4979C32.2303 59.5611 32.279 59.622 32.3306 59.6804C32.2701 60.1856 32.3723 60.6969 32.6225 61.14C32.8445 61.5773 33.1072 61.9927 33.4071 62.3807L33.2246 62.7273C33.0637 63.0488 33.0002 63.4103 33.0422 63.7673C33.075 63.999 33.1363 64.2257 33.2246 64.4424C33.0773 65.3505 33.0958 66.2777 33.2794 67.1792C33.3539 67.5139 33.4514 67.8431 33.5713 68.1644L33.6625 68.4381C33.5335 68.821 33.4598 69.2203 33.4436 69.6241C33.4351 69.8746 33.4535 70.1254 33.4983 70.3721L33.3706 70.5911C33.0969 70.9742 32.7867 71.3574 32.6225 71.7952C32.5389 71.9909 32.5015 72.2031 32.5131 72.4156C32.5608 72.6958 32.6664 72.963 32.8232 73.2001C33.1516 73.8205 33.0057 74.532 33.1152 75.1889C33.2021 75.7885 33.4201 76.3616 33.7537 76.8674C33.9038 77.0901 34.0749 77.2978 34.2646 77.4878C34.3663 77.8073 34.4276 78.1383 34.4471 78.473C34.4487 78.4973 34.4487 78.5217 34.4471 78.546C34.2641 78.6322 34.0974 78.7495 33.9544 78.8927C33.9005 78.9624 33.8631 79.0435 33.845 79.1298C33.8389 79.1516 33.8411 79.1749 33.8513 79.1951C33.8614 79.2154 33.8786 79.2311 33.8997 79.2393L34.1551 79.2941L34.0639 79.4948C34.0044 79.6263 33.9799 79.771 33.9927 79.9148C34.0054 80.0587 34.0551 80.1968 34.1369 80.3158C34.3558 80.5712 34.6842 80.553 34.9762 80.4435C35.2847 80.3095 35.5684 80.1245 35.8155 79.8961L35.9067 79.8049C36.1476 80.1273 36.4598 80.3896 36.8189 80.5712C36.8986 81.1926 37.1101 81.7898 37.4393 82.3228C38.1084 83.3505 39.0671 84.1568 40.1943 84.6399C40.7838 84.9126 41.3939 85.1383 42.0188 85.315C42.6908 85.5304 43.3933 85.6351 44.0988 85.6252C45.3212 85.5887 46.4707 85.0231 47.383 84.2203C48.258 85.4844 49.3741 86.5633 50.6671 87.395C52.101 88.2971 53.7725 88.7484 55.4656 88.6904C56.6992 88.6534 57.9082 88.337 59.0017 87.765C60.0952 87.1929 61.0447 86.3802 61.7785 85.388C62.7314 85.829 63.8062 85.932 64.8254 85.6799C65.0857 85.605 65.3366 85.501 65.5735 85.3697C61.0852 91.5549 56.0495 97.3386 49.8826 101.79L49.8643 101.809ZM17.4425 82.9431C17.2343 82.8258 17.0048 82.7513 16.7674 82.7242C16.4106 82.6911 16.0516 82.7541 15.7274 82.9066C15.1253 83.1985 14.6692 83.6547 14.1583 84.0561C13.8623 84.1472 13.5845 84.2892 13.3373 84.4757C13.3206 84.4928 13.3112 84.5157 13.3112 84.5396C13.3112 84.5635 13.3206 84.5864 13.3373 84.6034C12.9826 84.7832 12.5786 84.8409 12.1878 84.7676C12.0966 84.7494 12.0601 84.8954 12.1513 84.9136C12.9359 85.0778 13.6292 84.6582 14.2313 84.1838C14.5305 84.1007 14.8354 84.0397 15.1436 84.0013C14.432 84.494 13.7204 85.0596 12.8264 85.1325C12.3743 85.1591 11.9259 85.0374 11.5492 84.7859C11.9324 84.6947 12.352 84.6582 12.7169 84.5304C13.2338 84.3124 13.6998 83.9893 14.0853 83.5817L14.3955 83.2715C14.7563 83.1292 15.0497 82.8553 15.2165 82.5052C15.6727 82.1403 16.1835 81.8666 16.7674 81.8849C17.1729 81.9108 17.5582 82.0713 17.8621 82.341C17.7551 82.5627 17.6134 82.766 17.4425 82.9431ZM17.4789 83.1256C17.5232 83.1536 17.5658 83.1841 17.6067 83.2168L17.4242 83.1803L17.4789 83.1256ZM16.7674 83.2168C16.2903 83.3343 15.8389 83.5384 15.4355 83.8189L14.5597 83.9466L14.505 83.9648C15.0706 83.4905 15.6909 82.9249 16.4572 82.8701C16.7665 82.8453 17.0764 82.9085 17.3512 83.0526L17.187 83.1803C17.0525 83.1815 16.9182 83.1937 16.7856 83.2168H16.7674ZM16.9498 83.3445C16.8678 83.3985 16.7825 83.4472 16.6944 83.4905C16.4202 83.6108 16.1322 83.6966 15.8369 83.7459C16.0127 83.6471 16.1956 83.5617 16.3842 83.4905C16.5668 83.4211 16.7565 83.3721 16.9498 83.3445ZM12.8994 84.2933C12.425 84.5304 11.8959 84.5487 11.385 84.6947L11.312 84.6399C11.3001 84.6368 11.2875 84.6368 11.2756 84.6399C11.2822 84.5541 11.2944 84.4688 11.312 84.3845C11.4743 84.1704 11.5978 83.9296 11.6769 83.6729C11.8264 83.5199 12.0162 83.4123 12.2243 83.3628C12.8446 83.2168 13.5015 83.454 14.1218 83.3628C13.7667 83.7363 13.354 84.0505 12.8994 84.2933Z" fill="black"/>
<path d="M25.9084 48.3865C23.9744 46.9269 19.5955 50.4118 18.1359 51.7437L18.4095 52.1086C19.6685 51.2328 23.9561 48.2223 25.3427 49.0981C26.7111 50.3205 26.9483 52.8019 26.9483 54.5717C26.9047 55.5627 26.733 56.544 26.4375 57.4909C26.2126 58.4982 26.0843 59.5245 26.0543 60.5561C26.1065 61.87 25.7564 63.1686 25.0508 64.2782C23.4452 66.3764 20.8544 67.5806 18.4095 68.4199L18.5555 68.8577C19.2249 68.7162 19.8834 68.5271 20.526 68.2921C22.5491 67.6193 24.3354 66.3778 25.6712 64.7161C26.5469 63.5301 26.6199 61.9793 26.5652 60.5744C26.5076 59.5759 26.5937 58.5744 26.8206 57.6004C27.3497 55.9583 27.7146 54.225 27.6052 52.4917C27.5139 50.9591 27.1855 49.463 25.9084 48.3865Z" fill="black"/>
</g>
<defs>
<clipPath id="clip0_264_28">
<rect width="88.891" height="115" fill="white"/>
</clipPath>
</defs>
</svg>
