<svg id="Calque_1" data-name="Calque 1" xmlns="http://www.w3.org/2000/svg" viewBox="0 0 488.4 630.3"><defs><style>.cls-1{fill:#fff}</style></defs><path class="cls-1" d="m159 5 169-5 142 89 18 176-52 203-69 80-71 80-116-40-77-94L0 316l28-195L159 5z"/><path class="cls-1" d="m452 230-1 22-3-11-11-67c-3-17-9-35-22-46-10-9-24-12-37-14a596 596 0 0 0-262 7l-7 11q-23 54-42 109c-6 17-12 34-22 48a380 380 0 0 1 33-161c14-26 39-43 64-60 15-10 31-20 48-27a175 175 0 0 1 39-9 169 169 0 0 1 27-1h1a157 157 0 0 1 29 4c55 13 114 41 143 89 19 32 25 69 23 106Z"/><path d="M431 94 297 20 180 30 78 103l-40 86-7 120a54 54 0 0 0 7 31l98 166a54 54 0 0 0 15 17l59 48a54 54 0 0 0 21 10l62 11 119-134 54-230Zm2 244c-10 37-20 73-38 107a589 589 0 0 1-100 129c-6 2-12 2-18 2-11 1-23 1-33-2-11-3-21-9-30-16-44-32-77-75-107-120a321 321 0 0 1-62-149c10-14 16-31 22-48q19-55 42-109l7-11 10-4c82-20 169-19 252-3 13 2 27 6 37 14 13 11 19 29 22 46l11 67 3 11c-4 29-11 58-18 86Z"/><path class="cls-1" d="M45 290s-14-8-21 0c-6 5-6 16-3 27a44 44 0 0 0 6 13c12 17 4 29 31 39 15 5 32 6 32 6Z"/><path d="M45 291c-13-3-21-3-22 12-1 9 0 19 5 26a79 79 0 0 1 4 9c3 6 5 12 9 17 9 10 27 14 40 17l9 2v3c-16-2-33-5-46-14-8-6-10-15-14-24l-8-17c-5-10-7-30 5-36 6-2 13 0 19 2l-1 3ZM212 390l8-7a89 89 0 0 0 9-9 40 40 0 0 0 7-10 57 57 0 0 0 3-12 145 145 0 0 0 2-26v-3a1 1 0 0 0-1-1l1-9a194 194 0 0 0-2-29 110 110 0 0 0-7-27c-3-8-8-16-14-23l-20-23-3-4 12-1v-1h-13l-2-1h6a63 63 0 0 0 20-2 1 1 0 0 0 0-1c-9 2-18 2-27 2l-1-2h2a68 68 0 0 0 19 0l-1-2a71 71 0 0 1-22 0 8 8 0 0 0-2-2l8 1 15 1a1 1 0 0 0 0-1l-7-1a1 1 0 0 0 0-1c-13 0-25-2-38-4l-8-2 3 1 16 2a115 115 0 0 0 17 2 114 114 0 0 0 19-2v-1a112 112 0 0 1-34 0l-27-4-7-2h5c10 0 19 2 28 3l10 1a101 101 0 0 0 16 1v-1a90 90 0 0 1-10 0l5-1a116 116 0 0 0 11 2v-2l-10-1h-2l-1-2-3 1-9-2-5-2h-1l-13-3h-1l-5-1a102 102 0 0 0-12-2 21 21 0 0 0-7 0 22 22 0 0 0-5 3 156 156 0 0 0-14 9l-2 1-2 1v1a94 94 0 0 0-6 5 1 1 0 0 0-1 1l-3 4h-1a1 1 0 0 0 0 1 45 45 0 0 0-5 9l-1 3h1a42 42 0 0 1 5-10l-6 12 1 1 2-4a1 1 0 0 0 1 0l3-3 1-3h1l25-13h2a38 38 0 0 1 10 2l9 3 3 1-1 1-13 4a47 47 0 0 0-12 7 59 59 0 0 0-9 10l-18 24a58 58 0 0 0-7 12 47 47 0 0 0-4 13 170 170 0 0 0 0 29c1 19 6 37 15 53 8 14 20 26 34 34a71 71 0 0 0 31 8l1 3a31 31 0 0 1 1 7l1 2h-4a1 1 0 0 0-1 1 1 1 0 0 0 1 2l4-1a70 70 0 0 0 1 9v4a299 299 0 0 1-2 30l-4 25-1 1-1 5v2l-2 1c-1 0-3 1-3 3a3 3 0 0 0 0 1l1 2h-2c-1 1-4 1-5 3a1 1 0 0 0 1 1l6 4a137 137 0 0 0-14 3 1 1 0 0 0 0 1 35 35 0 0 1 10 8 223 223 0 0 1 0 4l1-4c1 1 1 0 1-1h-1l3-9 2-1a1 1 0 0 0 1-1l-2-1 3-13c2 0 4-1 4-3a4 4 0 0 0-1-5 6 6 0 0 0 4-3c1-2 0-5-1-7a7 7 0 0 1 0-4 32 32 0 0 0 2-4 16 16 0 0 0 0-6l-1-3a6 6 0 0 1 1-3 1 1 0 0 0-1-1l1-21 1-5v-3l-1-9a59 59 0 0 0 16-6 118 118 0 0 0 19-14Zm-50 121a35 35 0 0 0-9-6l11-2-2 8Zm3-11-5-4a5 5 0 0 1 1-1h3a4 4 0 0 0 2-2l-1-2c-1-1 0-2 1-2a13 13 0 0 1 2-1l-3 12Zm7-16a5 5 0 0 1-2 2l1-6c1 1 2 2 1 4Zm3-22a12 12 0 0 0-1 4 10 10 0 0 0 0 4 11 11 0 0 1 1 4 5 5 0 0 1-4 4q3-10 4-21v-3a37 37 0 0 1 1 6 5 5 0 0 1-1 2Zm15-258 1 1a135 135 0 0 1-25-3l-4-1 5-1 5 1a70 70 0 0 0 9 2l9 1Zm-25-6-8-3-3-1a108 108 0 0 1 17 3l-4 1Zm21 2a6 6 0 0 1 1 2 1 1 0 0 0 1 0h1-6a84 84 0 0 1-9-2l-4-1 5-1 11 2Zm-6-2a12 12 0 0 1 4 0h-4Zm-30-8 4 1-9-1h-3a55 55 0 0 1 8 0Zm41-2h1a101 101 0 0 1-16 0h6a71 71 0 0 0 9 0Zm-14-3h4l5 2a148 148 0 0 1-16-2l-12-1h-10 16l13 1Zm-14-4 9 2h-19a85 85 0 0 0-20 1 27 27 0 0 1 9-2 110 110 0 0 1 21-1Zm-31 1a44 44 0 0 1 5-3 16 16 0 0 1 7-1 69 69 0 0 1 12 2 113 113 0 0 0-13 0 33 33 0 0 0-9 3 39 39 0 0 0-5 2l-4 2 7-5Zm-7 7a48 48 0 0 0 4-2 1 1 0 0 0 1 0h1a37 37 0 0 0-4 2l-1 1a31 31 0 0 0-4 1 32 32 0 0 0 3-2Zm2 2-2 1 1-1h1Zm-9 1 2-1a17 17 0 0 0-3 1Zm-3 5a1 1 0 0 0 0-1 14 14 0 0 1 8-4 21 21 0 0 1-4 1c-1 0 0 2 1 1l-3 2-3 1Zm-3 0 2-1h-1l-1 2h-1l1-1Zm-2 2a1 1 0 0 0 1 1h-2l1-1Zm-3 8h-1a1 1 0 0 0 0 1l-1 1-1 2a4 4 0 0 1-1 2l5-11 2-1-2 4Zm2-1 3-5 7-3-7 5a30 30 0 0 1-3 3Zm6-3 1-1a74 74 0 0 1 7-5l2-1h1a1 1 0 0 0 1 0h2l-14 6Zm13-9h-1 3-2Zm0-1a1 1 0 0 0-1 0 40 40 0 0 0-4 2l-6 2 4-2a95 95 0 0 1 10-4h1a31 31 0 0 0-4 2Zm3-3h-2a26 26 0 0 1 3-2l8-1a1 1 0 0 0 1 0l4 1h-1a46 46 0 0 0-8 2h-1l4-2v-1l-8 3Zm2 2 3-1a183 183 0 0 1 28 3h3a219 219 0 0 0 7 3c-10-3-20-5-30-5h-11Zm23 8-10-4a44 44 0 0 0-10-2h10a57 57 0 0 1 9 2l9 3h1l-5 2-4-1Zm20 200a27 27 0 0 0-2-3 2 2 0 0 1 0-1h2v8a31 31 0 0 0 0-4Zm0-14a6 6 0 0 1 0 1v-4a4 4 0 0 1 0 3Zm13-159-3 4a30 30 0 0 1-3 2l3-6 3-2h4l-3 3-1-1Zm-7 13-2-1 5-5-3 5a1 1 0 0 0 0 1Zm-8 139v1a43 43 0 0 1-14-2l-20-11-7-6 4 2c9 3 20 5 30 5a6 6 0 0 0 3 2 24 24 0 0 0 3 1v4a3 3 0 0 0 0 1 6 6 0 0 0 1 3Zm0-8 1 1 1 1-2 1v-3Zm-65-54a82 82 0 0 0 6 23 61 61 0 0 1-3-6 100 100 0 0 1-5-23 111 111 0 0 1-1-23c1-14 5-28 14-39a65 65 0 0 1 32-22 61 61 0 0 1 11-3l-2 2-4 2-22 10a34 34 0 0 0-10 9h1c5-6 12-10 20-13l12-5-4 3a61 61 0 0 0-17 9l-3 2a44 44 0 0 0-10 6c-10 8-15 20-16 32s-1 25 1 36Zm64-92 3-1h1l-8 9-2 2a42 42 0 0 0-8 0l2-1c2-1 5-1 7-3a17 17 0 0 0 4-4l1-2Zm0-3h1-1Zm9 8a10 10 0 0 1 2-1l-3 5a23 23 0 0 1-3 0 17 17 0 0 1-3 1l1-1a12 12 0 0 0 2-1 11 11 0 0 0 3-3 1 1 0 0 0 1 0Zm0-2a12 12 0 0 0 1-2l3-2h2l-2 2a1 1 0 0 0-1 0 15 15 0 0 0-3 2Zm0-3-3 3 1-3a7 7 0 0 0 0-1h2a10 10 0 0 1 0 1Zm-1 2a10 10 0 0 1-4 5v-1l4-4Zm-2-3-1 1v1l-1 3-1 1-3 4h-2l-2 1 4-5 4-4 2-2Zm-5 11h-1 1Zm-3 3h-5v-1a18 18 0 0 1 3-1h4l-2 2Zm2 132-5-2h3l1-1 1 3Zm-8-134a26 26 0 0 0-2 2h-8 1a39 39 0 0 1 9-2Zm-1-4 3-3 3-2a13 13 0 0 1-6 5Zm8-8-2 1 2-1Zm-4-2h-1l2-1 5-5a30 30 0 0 1-6 6Zm1 2h1a63 63 0 0 1-10 9 18 18 0 0 0-5 4 43 43 0 0 0-6 2l6-5 1-1 4-1a1 1 0 0 0 0-1 49 49 0 0 1 9-7Zm-18 12-5 4h-1a31 31 0 0 1 6-5Zm-9 5-4 1a60 60 0 0 1 8-5 33 33 0 0 0-4 4Zm17-10h-2l5-4h1l-4 3a1 1 0 0 0 0 1Zm15 5a20 20 0 0 0 4 0 19 19 0 0 0 1-1l-2 4-4-1 1-2Zm8-1 1-1-4 5h-1l4-4Zm11-12a21 21 0 0 0 3-2l4 5a24 24 0 0 0-7-3Zm-1-1-1 1h-3a62 62 0 0 1 7-4l1 1a19 19 0 0 1-4 2Zm-6 1-3-1h-3 1a49 49 0 0 1 9-2v-2a48 48 0 0 0-8 2 1 1 0 0 0-1 0l-1 1-4 1h-1v-2l3-1a49 49 0 0 1 6-1l-1-2a51 51 0 0 0-8 3 1 1 0 0 0-1 0l-1 1-1 1a29 29 0 0 0 5-6l-1-1a1 1 0 0 0-1 0l-10 9h-4a64 64 0 0 0-35 17 70 70 0 0 0-20 37c-4 15-3 31 1 46a71 71 0 0 0 8 22 63 63 0 0 0 8 9 21 21 0 0 0 3 4l4 4a119 119 0 0 0 19 13c7 3 14 6 22 7h3l1 9c-8 0-15-3-22-7-8-3-16-7-23-13a72 72 0 0 1-15-17c-9-14-13-31-15-48a125 125 0 0 1 1-27 65 65 0 0 1 8-23 88 88 0 0 1 14-19 107 107 0 0 1 19-15 76 76 0 0 1 22-9c7-2 15-3 22-1a15 15 0 0 1 8 6 65 65 0 0 0-8 5Zm-11 157v-5a7 7 0 0 0 2-2c1-1-2-2-3-3l-1-3c23-3 41-20 48-41a76 76 0 0 0-30-83 42 42 0 0 0-8-3l5-8a1 1 0 0 0 0-1 89 89 0 0 0 7-5h1a16 16 0 0 1 6 3 1 1 0 0 0 0 1 50 50 0 0 1 5 5l5 5 2 3a65 65 0 0 1 9 21c4 17 2 33 0 50-1 15-3 30-11 43-7 11-18 20-31 22a36 36 0 0 1-6 1Zm2 7a5 5 0 0 0 0-3 16 16 0 0 0-1-2c12-1 23-7 31-16 10-11 15-26 17-41l2-24a142 142 0 0 0 1-26 77 77 0 0 0-5-22 65 65 0 0 1 4 10 106 106 0 0 1 7 42 110 110 0 0 1-9 41 96 96 0 0 1-25 34c-6 5-13 9-21 10h-1a9 9 0 0 1 0-1 3 3 0 0 1 0-2Zm0 7a2 2 0 0 0 0-1 2 2 0 0 0 0-1 34 34 0 0 0 11-3c7-4 13-9 19-15a98 98 0 0 0 13-17 109 109 0 0 0 14-41 111 111 0 0 0-3-43 78 78 0 0 0-15-30 56 56 0 0 0-5-7l-3-3-4-5-6-8a10 10 0 0 0 1-3h-1a8 8 0 0 1-1 2l-1-1v-1h-1c-4-6-12-8-19-7a63 63 0 0 0-23 5 92 92 0 0 0-21 12 108 108 0 0 0-17 17 75 75 0 0 0-12 21c-3 8-4 17-5 26 0 18 3 37 10 53a81 81 0 0 0 12 20 71 71 0 0 0 19 15l13 6a81 81 0 0 0 12 6 35 35 0 0 0 11 1v1a11 11 0 0 1-1 1 68 68 0 0 1-19-3c-16-4-29-15-39-27-10-14-17-30-20-47a157 157 0 0 1-2-28l1-15a52 52 0 0 1 2-14 51 51 0 0 1 7-11l9-12 9-11a75 75 0 0 1 9-11c6-6 15-9 24-11l5-2 4 1a127 127 0 0 0 20 3l9 1 14 16 17 22c10 16 13 34 15 52 1 19 0 38-7 55-6 15-16 28-30 35a58 58 0 0 1-25 7Zm0 14v-12a63 63 0 0 0 14-2c15-5 28-15 36-29 7-11 10-22 12-34a147 147 0 0 1-1 18c-2 7-4 15-9 21a62 62 0 0 1-8 9l-8 8a133 133 0 0 1-18 13 60 60 0 0 1-18 8ZM284 363h1l3 15c1 6 3 13 9 17a14 14 0 0 0 2 1 1 1 0 0 0 1-1 1 1 0 0 0 0-1c-6-3-9-9-10-15a155 155 0 0 1-4-25l-1-26 1-26 1-27v-3c0-2-2-2-2 0l-1 27v53l1 8-1 2c-2-4-3-9-3-13a177 177 0 0 1-1-18 306 306 0 0 1 2-36l2-20h-1l-4 36a214 214 0 0 0 0 37c1 5 2 11 5 15ZM308 490l-11 3 5-2v-1l-8 3s0-1 0 0c-10 3-20 3-29 3h-20l-12-3a1 1 0 0 0-1 1l4 1h-1a111 111 0 0 1-17-3v1a133 133 0 0 0 26 4 130 130 0 0 0 37 0 87 87 0 0 1-18 2 85 85 0 0 1-12-1v1a88 88 0 0 0 40-3l1-1a129 129 0 0 0 17-4c0-1 0-2-1-1Zm-50 7h11-11Z"/><path d="M227 489v1a142 142 0 0 0 31 5 100 100 0 0 0 24-1 78 78 0 0 0 9-2 60 60 0 0 0 7-1 30 30 0 0 0 6-2l-2-3a25 25 0 0 1-10 4l-22 2c-19 0-38-3-54-13l-1 1a74 74 0 0 0 19 9l-7-2a1 1 0 0 0 0 1l19 5-6-1-13-3Zm52 4h2a90 90 0 0 1-2 0Zm-14 0h-7l-10-1a134 134 0 0 0 17 1ZM234 403c5-1 8-4 12-6 5-1 10 1 13 4a26 26 0 0 0-10 0 18 18 0 0 0-8 4 14 14 0 0 1-2-2v1a14 14 0 0 0 1 1 14 14 0 0 0-2 2l1 1a13 13 0 0 1 2-2 19 19 0 0 0 4 3 15 15 0 0 0-2 1 20 20 0 0 0-3 1c-1 1 0 2 1 1a22 22 0 0 1 7-2 28 28 0 0 0 4 1 59 59 0 0 0 12 1h1c8 2 16 5 24 4a22 22 0 0 0 10-3 25 25 0 0 1 3 0 1 1 0 0 0 1 0 9 9 0 0 1 1 1h1c-2-5-7-7-11-7-6-1-11 1-17 1l-3-1a120 120 0 0 0-13-5c-3-3-8-7-13-6s-9 5-14 6v1Zm11 7 1-1Zm6 0a42 42 0 0 1 8 1 41 41 0 0 1-8-1Zm13 1a53 53 0 0 0-11-2 31 31 0 0 0-5 0h-1c4-3 10-2 14-1a82 82 0 0 1 10 3h-7Zm26-3c4-1 10 0 12 4h-2v-1l-1 1-11-1a36 36 0 0 1-9-2l11-1Zm-15 1a16 16 0 0 1-7-2 24 24 0 0 1-5-3l12 4Zm-14-6a41 41 0 0 0 5 4 16 16 0 0 0 7 2 24 24 0 0 0 4 0 43 43 0 0 0 9 3l12 1c-6 3-14 3-20 2l-11-3h8a52 52 0 0 0 6 2 25 25 0 0 0 12 0 1 1 0 0 0 0-1 23 23 0 0 1-10 0 1 1 0 0 0-1-1 32 32 0 0 0-7-1l-3-1c-6-2-13-5-20-4a18 18 0 0 0-6 2 18 18 0 0 1-5-3 17 17 0 0 1 8-3 26 26 0 0 1 12 1ZM291 444a10 10 0 0 0-6 1 21 21 0 0 0-3 1 19 19 0 0 1-8 3c-5 1-9-2-12-6a52 52 0 0 0-6-8c-5-6-13-8-20-5l-15 10a93 93 0 0 1-16 7l1 3a143 143 0 0 0 24-12c5-3 10-6 15-6s10 5 14 10c2 3 5 7 10 9 5 1 11-1 16-4a8 8 0 0 1 5 0c3 0 6 3 9 5a48 48 0 0 0 6 3l1 1a38 38 0 0 1-10 3h-4a1 1 0 0 0 0-1 24 24 0 0 0-8 1h-2a163 163 0 0 0-18 0l-3-1a126 126 0 0 0 19 0 52 52 0 0 0 9-1 46 46 0 0 0 9-1v-1a41 41 0 0 1-6 0h3c1 0 0-2-1-1a38 38 0 0 1-5 1h-4a16 16 0 0 0 4-1v-1h1a1 1 0 0 0 0-1 56 56 0 0 1-6 1 98 98 0 0 1-10 0l-5-1-20-5a35 35 0 0 0-13-2 41 41 0 0 0-12 3l-5 2a54 54 0 0 0-5 1v1h2l-5 2c-1 1 0 2 1 1l7-4a67 67 0 0 1 9 0v1l3-1h11l-15 1c-5 0-10 1-14 4l1 1c3-3 8-4 12-4l16-1h8l24 3h4-46a65 65 0 0 0-15 4v1c9-4 19-5 28-5l29 1a44 44 0 0 0 8 0h3a79 79 0 0 1-18 1h-28a46 46 0 0 0-15 4l1 1a45 45 0 0 1 15-4h1a67 67 0 0 0 8 3l-3 1a56 56 0 0 1-8-2v1a54 54 0 0 0 6 2h-1v1l3-1a56 56 0 0 0 23 1h1a70 70 0 0 0 10-1 97 97 0 0 0 19 0 42 42 0 0 1 7-1 89 89 0 0 0-17 3c-7 2-14 4-21 4a57 57 0 0 1-19-3 71 71 0 0 0-7-2c-10-2-21 0-31 5l2 2a21 21 0 0 1 3-1 37 37 0 0 1 31-2 60 60 0 0 0 36 1 103 103 0 0 1 14-3 87 87 0 0 1 28 2v-4l5 1 1-3a154 154 0 0 1-25-9c-6-2-9-7-15-9Zm-60 6h-1a75 75 0 0 0-8 0 44 44 0 0 1 13-4 32 32 0 0 1 13 1l6 2a71 71 0 0 0-12-1 42 42 0 0 0-11 2Zm19 1-16-1h21l7 2h-4l-8-1Zm10 2h8l1 1-9-1Zm22 2h-2l4-1h1a19 19 0 0 1-3 1Zm9 4h-2 2Zm-23 1h13l-5 1h-5l-4-1Zm-26-2a104 104 0 0 1 17 0 1 1 0 0 0 0 1h2a108 108 0 0 0-10 2 65 65 0 0 1-9-3Zm8 5h-2l3-1a67 67 0 0 0 11 2h1a56 56 0 0 1-13-1Zm21 0h-2a66 66 0 0 1-15-2 103 103 0 0 1 10-1l10 2-3 1Zm4 0h2-2Zm5-1h-2l2-1 4-1h4l-2 1-6 1Zm44 1a99 99 0 0 0-14-1h-26c5-1 9-2 14-1v-1h-1a39 39 0 0 0 10-3 160 160 0 0 0 17 6ZM447 226a44 44 0 0 0-6-12 1 1 0 0 0 0-1h-1l-2-4-1-1-2-1-4-5a1 1 0 0 0 0-1h-2a1 1 0 0 0 0-1l-2-1-11-8c-3-3-6-5-10-5a37 37 0 0 0-7-1l-6 1-8 1h-1a1 1 0 0 0-1 0l-13 3a1 1 0 0 0-1 0h-1a335 335 0 0 1-16 2 1 1 0 0 0 0 1h-2a1 1 0 0 0-1 0l-7 1h-3a1 1 0 0 0 0 1 109 109 0 0 0 11-1l5 1a92 92 0 0 1-10 0v1c9 1 17 0 26-1h10l16-1h4l1 1h2l-7 2h-8l-17 2a116 116 0 0 1-17 0 112 112 0 0 1-19-3v1a114 114 0 0 0 33 3l22-2-8 2-17 1a208 208 0 0 1-21 0v1h-7v1a212 212 0 0 0 27 0l18-2a238 238 0 0 1 28-1l3 1a1 1 0 0 0 0 1l-6-1a84 84 0 0 0-19 0l-34 4a68 68 0 0 1-19-2v2c11 2 22 1 34 0 7-1 15-3 23-3h-2l-8 3a73 73 0 0 1-9 2 68 68 0 0 1-9 1h-17a61 61 0 0 1-19-3c-1-1-2 1-1 1 11 4 23 4 35 3h9a59 59 0 0 0 8-2l9-3a53 53 0 0 1 9-1 87 87 0 0 1 10 0h3a38 38 0 0 0-8 1l-10 2c-4 0-6 2-10 3l-9 1a20 20 0 0 0-6-1 8 8 0 0 0-5 2 176 176 0 0 1-24-1v1a180 180 0 0 0 22 1l-13 12a6 6 0 0 1 0-1h-1a9 9 0 0 0 0 2l-5 5c-6 6-12 11-17 18a97 97 0 0 0-17 44c-2 11-3 23-2 34l1 11c0 7 1 14 5 20a62 62 0 0 0 7 9l7 7a115 115 0 0 0 14 13 50 50 0 0 0 19 10l1-2c-13-3-23-12-31-21l-7-7a90 90 0 0 1-6-8 34 34 0 0 1-5-9 46 46 0 0 1-2-10v2c5 14 13 26 25 34 10 6 23 9 35 7a4 4 0 0 0 1 0 5 5 0 0 0-1 4 4 4 0 0 0 1 2l1 1v5a5 5 0 0 0 1 2v5l1 5 2 19c1 5 2 11 5 16l1-1c-3-4-4-9-4-14l-2-16-2-9a10 10 0 0 0 1-2 7 7 0 0 0-1-3l-1-2 1-3a4 4 0 0 0-1-2 4 4 0 0 0 0-1l-1-6 3-1c14-3 27-11 36-21 11-12 17-25 21-40a142 142 0 0 0 5-24l1-13a43 43 0 0 0-2-12 50 50 0 0 0-5-11l-7-11-6-11a53 53 0 0 0-8-10c-5-6-13-9-20-12l-12-5a95 95 0 0 0 13-2l10-3a42 42 0 0 1 10-2 34 34 0 0 1 4 1l24 14 2 3 2 3a1 1 0 0 0 1 0l2 4h1l-5-13a43 43 0 0 1 3 8l1 3a1 1 0 0 0 2-1Zm-98-1 4 2-1 1a13 13 0 0 1-3-3Zm20 13h-1l-2-3-1-2 1 1 2 1a18 18 0 0 0 1 3Zm-1-7v1-1Zm28 12 7 15c-3-5-7-8-12-11a126 126 0 0 1-14-10h1a31 31 0 0 1 5-1 42 42 0 0 1 13 7Zm-6-6a13 13 0 0 1 2 1 9 9 0 0 1 2 1l-4-2Zm-1 18a1 1 0 0 0 0-1l-1-1v-1l-3-5a26 26 0 0 1 8 11h1a28 28 0 0 0-5-8 52 52 0 0 1 6 6 51 51 0 0 1 4 4h1a53 53 0 0 0-16-15l-1-1-3-3c6 4 12 7 17 12a28 28 0 0 1 7 9 1 1 0 0 0 1 0l3 7a53 53 0 0 1 2 9 95 95 0 0 1 0 31 99 99 0 0 1-9 28 75 75 0 0 1-16 22l1-2c9-15 17-33 18-52 2-19-3-38-15-50Zm-10-14-3-3h1l3 5-1-1a1 1 0 0 0 0-1Zm19 104a96 96 0 0 0 12-28 102 102 0 0 0 3-30 66 66 0 0 0-3-18l-4-9-4-9-3-6a51 51 0 0 1 8 10c7 10 10 21 10 33a97 97 0 0 1-1 20 119 119 0 0 1-5 19 62 62 0 0 1-8 16 61 61 0 0 1-12 12 76 76 0 0 0 7-10Zm-22-110v-1l3 1h-3Zm2 7v1l3 1v1h1l1 1 3 5a37 37 0 0 0-5-3 16 16 0 0 0-3-4h-1a54 54 0 0 1-4-6h2a41 41 0 0 1 3 4Zm-8-3a13 13 0 0 0 1 2 26 26 0 0 0 5 3l1 1 1 1a35 35 0 0 0-6-2l-3-4Zm0-2Zm1 2h1l1 1 1 2a16 16 0 0 1-1-1 12 12 0 0 1-2-2Zm1-2v-2l-1-1 3 2-2 1Zm1-5h-1a26 26 0 0 1-4-5l5 5Zm-4 2 1 1-1-1Zm-2 5-2 1-1-2v-3l-1-2h1v1l3 5Zm-8 5-1 1-1-5Zm-1-4 1 1 1 2Zm3 128a19 19 0 0 0 3 1 26 26 0 0 1-8 0c-10-2-18-10-23-19-4-7-6-15-6-23a55 55 0 0 0 12 25 42 42 0 0 0 16 11 33 33 0 0 0 6 5Zm-1-3a38 38 0 0 0 9 1v1l-1 1a16 16 0 0 1-8-3Zm1-123Zm4 2a33 33 0 0 0-3 0l1-1a20 20 0 0 0 2 1Zm-1-2Zm2 1Zm-2-3a8 8 0 0 1-3-4 10 10 0 0 1 0-1l2 4 1 1Zm-3-7h1v1l1 2-2-3Zm1 7a10 10 0 0 0 1 1l-1 1a16 16 0 0 1-2-2l-2-4a9 9 0 0 1 1 2l1-1a10 10 0 0 0 2 3Zm-4-7h1v1a10 10 0 0 0 1 2 13 13 0 0 0-2-2Zm0 6-2-1v-1l-2-3a18 18 0 0 1 2 0h1l1 5Zm-3-2a1 1 0 0 0 0 1l2 7a30 30 0 0 0-13 7c-8 7-13 17-15 28a119 119 0 0 0-3 18v-5a127 127 0 0 1 3-20c2-11 7-22 15-31a42 42 0 0 1 6-5 1 1 0 0 0 0-1 10 10 0 0 1 2-1l3 2Zm-7-1c-9 7-15 17-18 28-5 13-5 26-5 40-1 13-1 27 3 40 4 10 11 20 21 24a28 28 0 0 0 17 2l2-1h1v5a8 8 0 0 0-1 3h-3a27 27 0 0 1-11 0 28 28 0 0 1-9-4c-6-3-10-8-14-13a85 85 0 0 1-10-16 94 94 0 0 1-8-36 96 96 0 0 1 7-37 66 66 0 0 1 10-18l8-9 9-8 3-4 1 2a11 11 0 0 0-3 2Zm22 140h-1Zm-1-133-2-1-1-1 2-1 2 3h-1Zm4 123-3 1v-1h3Zm3 1a4 4 0 0 1 0 2l-6 4a1 1 0 0 1 0 1v-5a21 21 0 0 0 6-2Zm-3 6c2-2 4-3 4-5a4 4 0 0 0 0-2 41 41 0 0 0 7-4 86 86 0 0 0 14-11 55 55 0 0 0 11-15 92 92 0 0 0 7-19 115 115 0 0 0 3-20c1-13-1-26-7-37a54 54 0 0 0-14-18c-2-5-6-7-11-7a27 27 0 0 0-3-1 55 55 0 0 0-10-1l-1-2-4-6a1 1 0 0 0-1 0h-1a25 25 0 0 0 3 6l-1-1-1-1h-1a43 43 0 0 0-6-4l-1 1a43 43 0 0 1 7 4v2h-1l-3-2a3 3 0 0 0 0-1 1 1 0 0 0-2 0 43 43 0 0 0-5-3c4-4 11-4 16-3a54 54 0 0 1 19 7 79 79 0 0 1 15 12 93 93 0 0 1 13 16 63 63 0 0 1 9 19 106 106 0 0 1-12 66 70 70 0 0 1-12 15 60 60 0 0 1-17 12l-11 4-5 2-1-1a36 36 0 0 1 3-2Zm-12-143h1v1h1v1h-2v-1l-1-1a8 8 0 0 0-1 2 55 55 0 0 0-4-4v-1a40 40 0 0 1 6 3Zm-3 2h-2l-2-2-1-1 1-1 4 4Zm-3 0a15 15 0 0 0-3 1l-1-2 1-1 3 2Zm-13 145c-13-5-22-15-28-28a73 73 0 0 1-6-20 149 149 0 0 1 1-15 1 1 0 0 0-1-1v-10a167 167 0 0 1 4-24 91 91 0 0 1 9-22c3-7 9-13 14-18l13-13a14 14 0 0 0 3 3l-15 15a97 97 0 0 0-8 9 59 59 0 0 0-6 9 95 95 0 0 0-10 38 97 97 0 0 0 5 37c4 12 11 23 20 32 5 5 11 9 18 10a32 32 0 0 0 12-1 2 2 0 0 0 0 1 5 5 0 0 0 1 2 55 55 0 0 1-26-4Zm27 4a4 4 0 0 1-1-3h2v2l-1 1Zm2 6a3 3 0 0 1-1-4l1 4Zm8-173 12 5a95 95 0 0 1 11 5 35 35 0 0 1 8 7 77 77 0 0 1 7 10l7 11 6 11a40 40 0 0 1 4 11 52 52 0 0 1 1 12 159 159 0 0 1-3 24c-3 15-8 30-17 42-8 11-19 21-32 25a61 61 0 0 1-12 3v-3a129 129 0 0 0 27-12 65 65 0 0 0 15-14c9-12 14-26 16-41a104 104 0 0 0 2-24 58 58 0 0 0-6-21 81 81 0 0 0-11-18 93 93 0 0 0-15-14 65 65 0 0 0-18-10c-6-2-13-3-19-2a14 14 0 0 0-8 5l-1 1-3-3 3-3 8-7a1 1 0 0 0 2-1 5 5 0 0 1 1-1h9l6 2Zm57-4 1 1-2-1a1 1 0 0 0 1 0Zm0-1-2-1-1-1a1 1 0 0 0 0-1l3 3Zm-4-2v1l-5-3v-2a21 21 0 0 1-3-1 14 14 0 0 1 8 5Zm-4-5 1 1a16 16 0 0 0-2-2l2 1Zm-7-2a45 45 0 0 0-5-3h1l1-1 3 2a32 32 0 0 0 4 3 28 28 0 0 0-4-1Zm1 2-2-1Zm-21-15a22 22 0 0 1 6 0 19 19 0 0 1 6 3l9 7-4-2-4-3a28 28 0 0 0-9-3 116 116 0 0 0-13-2h9Zm-30 7h-3a91 91 0 0 1-13 0h1a87 87 0 0 0 15 0Zm21-2h-1l-25 1h-5l3-1 6-1 24 1a110 110 0 0 1-2 0Zm-9-2h-8l10-2a114 114 0 0 1 19 2 30 30 0 0 1 9 3h1l-6-1c-8-2-16-2-25-2Zm21 9a216 216 0 0 0 1 0Zm4-3v1l4 2h-1a46 46 0 0 0-9-2l4-1a1 1 0 0 0 1-1l8 3 3 1h-2l-1-1-7-2Zm8 4 3 2 10 5-5-2-4-2h-1a1 1 0 0 0 0-1 33 33 0 0 0-4-2Zm2 3 1 1-3-1Zm0 2 2 1h3a86 86 0 0 1 8 7l-13-8Zm16 9-4-4-3-2 7 3 3 6a27 27 0 0 1-3-3Zm9 10a3 3 0 0 1-1-1l-2-3v-1a1 1 0 0 0-1-1l-1-2-2-4 2 1 5 11ZM50 334v3a8 8 0 0 1 9 4c1 3 1 8-3 7-6-1-11-6-12-12 0-4 3-7 3-11a10 10 0 0 0-3-7l-6-6c-1-2-2-4 1-4 4 0 10 8 12 11l2-1c-3-5-8-13-14-13-5 0-6 5-3 8 5 7 12 7 8 17-5 9 3 18 11 20 7 1 8-6 6-10a11 11 0 0 0-11-6Z"/><path class="cls-1" d="M210 260c-4-7-10-13-17-17-9-6-21-6-32-5s-22 4-30 11c-9 7-13 19-15 30a118 118 0 0 0 1 35 82 82 0 0 0 10 31 27 27 0 0 0 7 8l9 5c10 3 21 6 32 5 21-2 40-20 46-41s1-44-11-62Zm-39 48a10 10 0 0 1-5-1c-2 0-6-2-6-8 1-8 7-11 10-11s7 3 7 11c0 6-3 8-6 9ZM391 254a28 28 0 0 0-40-2c-7 7-11 17-13 28l-4 32c0 14 4 28 12 37s20 14 31 13a13 13 0 0 0 7-3 21 21 0 0 0 4-6c9-15 16-32 17-51s-3-37-14-48Zm-11 50c0 5-4 6-7 7a10 10 0 0 1-4 0c-3-1-6-4-5-10 1-8 5-10 8-10s9 5 8 13Z"/></svg>